<?xml version="1.0" encoding="UTF-8"?>
<svg width="399px" height="240px" viewBox="0 0 399 240" version="1.1" xmlns="http://www.w3.org/2000/svg" xmlns:xlink="http://www.w3.org/1999/xlink">
    <!-- Generator: Sketch 47.1 (45422) - http://www.bohemiancoding.com/sketch -->
    <title>award</title>
    <desc>Created with Sketch.</desc>
    <defs>
        <polygon id="path-1" points="0 0.0179 0 143.3509 119.0329 143.3509 119.0329 0.0179 6.77626358e-21 0.0179"></polygon>
    </defs>
    <g id="Symbols" stroke="none" stroke-width="1" fill="none" fill-rule="evenodd">
        <g id="award">
            <g>
                <g id="Group-11" transform="translate(0.000000, 18.714000)">
                    <g id="Group-3" transform="translate(279.000000, 0.000000)" fill="#1D1D1B">
                        <path d="M104.775,105.7154 C104.775,109.2234 101.923,112.0754 98.415,112.0754 L90.208,112.0754 L90.208,31.2924 L98.415,31.2924 C101.923,31.2924 104.775,34.1444 104.775,37.6514 L104.775,105.7154 Z M81.841,128.6224 C81.841,132.1304 78.989,134.9824 75.481,134.9824 L59.686,134.9824 C56.178,134.9824 53.326,132.1304 53.326,128.6224 L53.326,14.7454 C53.326,11.2394 56.178,8.3854 59.686,8.3854 L75.481,8.3854 C78.989,8.3854 81.841,11.2394 81.841,14.7454 L81.841,128.6224 Z M26.933,78.0454 L44.959,78.0454 L44.959,65.3234 L26.933,65.3234 L26.933,78.0454 Z M115.351,56.9544 L113.146,56.9544 L113.146,37.6514 C113.146,29.5324 106.538,22.9244 98.415,22.9244 L90.208,22.9244 L90.208,14.7454 C90.208,6.6244 83.603,0.0174 75.481,0.0174 L59.686,0.0174 C51.566,0.0174 44.959,6.6244 44.959,14.7454 L44.959,56.9544 L0.5,56.9544 C1.793,59.5924 2.8,62.3984 3.489,65.3224 L18.565,65.3224 L18.565,78.0454 L4.307,78.0454 C3.936,80.9484 3.156,83.7524 2.037,86.4124 L44.959,86.4124 L44.959,128.6224 C44.959,136.7424 51.566,143.3504 59.686,143.3504 L75.481,143.3504 C83.601,143.3504 90.208,136.7424 90.208,128.6224 L90.208,120.4424 L98.415,120.4424 C106.538,120.4424 113.143,113.8354 113.143,105.7154 L113.143,86.4124 L115.351,86.4124 C117.661,86.4124 119.533,84.5414 119.533,82.2284 L119.533,61.1384 C119.535,58.8284 117.661,56.9544 115.351,56.9544 L115.351,56.9544 Z" id="Fill-1"></path>
                    </g>
                    <g id="Group-6">
                        <mask id="mask-2" fill="white">
                            <use xlink:href="#path-1"></use>
                        </mask>
                        <g id="Clip-5"></g>
                        <path d="M14.7579,37.6519 C14.7579,34.1439 17.6099,31.2919 21.1179,31.2919 L29.3249,31.2919 L29.3249,112.0749 L21.1179,112.0749 C17.6099,112.0749 14.7579,109.2229 14.7579,105.7159 L14.7579,37.6519 Z M37.6919,14.7449 C37.6919,11.2399 40.5439,8.3849 44.0519,8.3849 L59.8469,8.3849 C63.3549,8.3849 66.2069,11.2399 66.2069,14.7449 L66.2069,128.6219 C66.2069,132.1309 63.3549,134.9829 59.8469,134.9829 L44.0519,134.9829 C40.5439,134.9829 37.6919,132.1309 37.6919,128.6219 L37.6919,14.7449 Z M74.5739,78.0449 L92.5999,78.0449 L92.5999,65.3229 L74.5739,65.3229 L74.5739,78.0449 Z M-0.0001,61.1389 L-0.0001,82.2289 C-0.0001,84.5409 1.8719,86.4129 4.1819,86.4129 L6.3899,86.4129 L6.3899,105.7159 C6.3899,113.8349 12.9949,120.4429 21.1179,120.4429 L29.3249,120.4429 L29.3249,128.6219 C29.3249,136.7429 35.9319,143.3509 44.0519,143.3509 L59.8469,143.3509 C67.9669,143.3509 74.5739,136.7429 74.5739,128.6219 L74.5739,86.4129 L117.4959,86.4129 C116.3769,83.7529 115.5969,80.9479 115.2259,78.0449 L100.9679,78.0449 L100.9679,65.3229 L116.0439,65.3229 C116.7329,62.3989 117.7399,59.5919 119.0329,56.9549 L74.5739,56.9549 L74.5739,14.7449 C74.5739,6.6249 67.9669,0.0179 59.8469,0.0179 L44.0519,0.0179 C35.9299,0.0179 29.3249,6.6249 29.3249,14.7449 L29.3249,22.9249 L21.1179,22.9249 C12.9949,22.9249 6.3869,29.5319 6.3869,37.6519 L6.3869,56.9549 L4.1819,56.9549 C1.8719,56.9549 -0.0021,58.8289 -0.0001,61.1389 L-0.0001,61.1389 Z" id="Fill-4" fill="#1D1D1B" mask="url(#mask-2)"></path>
                    </g>
                    <path d="M231.4961,12.1232 C205.3201,-1.1038 173.7881,3.9552 153.0341,24.7072 C128.9141,48.8272 126.5021,87.2882 147.4191,114.1672 C148.1591,115.1182 149.2641,115.6152 150.3811,115.6152 C151.1861,115.6152 151.9991,115.3562 152.6821,114.8232 C154.3161,113.5522 154.6111,111.1962 153.3401,109.5602 C134.7401,85.6602 136.8891,51.4622 158.3401,30.0112 C176.7951,11.5532 204.8341,7.0552 228.1151,18.8182 C229.9621,19.7532 232.2181,19.0112 233.1531,17.1612 C234.0851,15.3142 233.3461,13.0582 231.4961,12.1232" id="Fill-7" fill="#1D1D1B"></path>
                    <path d="M261.4416,42.0757 C260.5086,40.2277 258.2536,39.4867 256.4036,40.4187 C254.5536,41.3537 253.8116,43.6067 254.7466,45.4567 C266.5006,68.7327 261.9996,96.7667 243.5466,115.2197 C222.0956,136.6687 187.8976,138.8177 163.9976,120.2197 C162.3636,118.9487 160.0076,119.2417 158.7346,120.8757 C157.4636,122.5097 157.7566,124.8677 159.3906,126.1387 C171.6366,135.6677 186.2816,140.3547 200.8816,140.3547 C218.3336,140.3547 235.7176,133.6567 248.8506,120.5237 C269.6006,99.7737 274.6586,68.2487 261.4416,42.0757" id="Fill-9" fill="#1D1D1B"></path>
                </g>
                <g id="Group-16" transform="translate(110.000000, 0.714000)" fill="#1D1D1B">
                    <path d="M141.7532,45.794 C140.8232,44.741 139.8472,43.704 138.8502,42.707 C137.8542,41.711 136.8172,40.735 135.7662,39.807 C134.2142,38.434 131.8442,38.582 130.4742,40.134 C129.1012,41.684 129.2462,44.055 130.7992,45.426 C131.7362,46.255 132.6592,47.124 133.5472,48.011 C134.4342,48.898 135.3052,49.822 136.1312,50.759 C136.8742,51.599 137.9062,52.026 138.9432,52.026 C139.8262,52.026 140.7112,51.717 141.4262,51.086 C142.9782,49.716 143.1242,47.344 141.7532,45.794" id="Fill-12"></path>
                    <path d="M173.0536,93.4345 L168.1196,101.5245 C166.5476,104.1075 165.9366,107.1735 166.4086,110.1605 L167.8796,119.5085 C168.1876,121.4735 167.3796,123.4205 165.7706,124.5915 L158.1226,130.1545 C155.6746,131.9355 153.9336,134.5365 153.2206,137.4795 L150.9946,146.6825 C150.5276,148.6115 149.0386,150.1005 147.1096,150.5675 L137.9066,152.7935 C134.9636,153.5065 132.3626,155.2475 130.5806,157.6965 L125.0176,165.3425 C123.8476,166.9515 121.8996,167.7585 119.9346,167.4485 L110.5886,165.9775 C107.6026,165.5075 104.5366,166.1155 101.9536,167.6905 L93.8626,172.6245 C92.1696,173.6555 90.0666,173.6555 88.3736,172.6245 L80.2806,167.6905 C78.2676,166.4635 75.9616,165.8235 73.6266,165.8235 C72.9666,165.8235 72.3036,165.8735 71.6446,165.9775 L62.2996,167.4485 C60.3326,167.7565 58.3846,166.9495 57.2136,165.3395 L51.6506,157.6915 C49.8696,155.2455 47.2686,153.5045 44.3276,152.7925 L35.1246,150.5635 C33.1936,150.0985 31.7046,148.6095 31.2396,146.6805 L29.0106,137.4775 C28.3006,134.5345 26.5606,131.9305 24.1116,130.1495 L16.4656,124.5895 C14.8566,123.4185 14.0486,121.4695 14.3576,119.5035 L15.8276,110.1605 C16.2976,107.1735 15.6896,104.1055 14.1166,101.5245 L9.1826,93.4325 C8.1496,91.7395 8.1496,89.6355 9.1826,87.9415 L14.1166,79.8515 C15.6916,77.2685 16.2996,74.2025 15.8296,71.2165 L14.3596,61.8685 C14.0486,59.9035 14.8566,57.9555 16.4656,56.7855 L24.1136,51.2225 C26.5626,49.4405 28.3036,46.8395 29.0156,43.8965 L31.2416,34.6935 C31.7096,32.7645 33.1976,31.2755 35.1276,30.8085 L44.3306,28.5825 C47.2736,27.8695 49.8766,26.1285 51.6556,23.6805 L57.2176,16.0345 C58.3896,14.4255 60.3366,13.6175 62.3016,13.9285 L71.6446,15.3985 C74.6346,15.8685 77.6996,15.2605 80.2826,13.6855 L88.3736,8.7515 C90.0666,7.7185 92.1696,7.7185 93.8626,8.7515 L101.9556,13.6855 C104.5366,15.2605 107.6046,15.8685 110.5906,15.3985 L119.9366,13.9285 C121.9026,13.6195 123.8516,14.4275 125.0226,16.0365 L130.5846,23.6845 C132.3666,26.1315 134.9676,27.8715 137.9086,28.5845 L147.1116,30.8125 C149.0426,31.2785 150.5316,32.7675 150.9966,34.6965 L153.2256,43.8985 C153.9356,46.8425 155.6766,49.4455 158.1256,51.2265 L165.7736,56.7865 C167.3816,57.9585 168.1876,59.9055 167.8796,61.8705 L166.4086,71.2165 C165.9386,74.2025 166.5476,77.2685 168.1196,79.8515 L173.0536,87.9415 C174.0856,89.6355 174.0856,91.7415 173.0536,93.4345 L173.0536,93.4345 Z M161.6436,213.8175 L145.0576,211.8365 C143.6816,211.6725 142.3296,212.2785 141.5376,213.4155 L131.9836,227.1145 L107.8956,173.3755 C108.3986,173.3075 108.9146,173.3075 109.4246,173.3875 L118.7686,174.8575 C120.0846,175.0645 121.3936,175.0575 122.6626,174.8695 L135.0996,202.6135 C135.7236,204.0045 137.0916,204.8305 138.5236,204.8305 C139.0366,204.8305 139.5566,204.7235 140.0556,204.5015 C141.9436,203.6545 142.7906,201.4355 141.9436,199.5455 L129.4226,171.6195 C130.0276,171.0585 130.5846,170.4375 131.0846,169.7535 L136.6446,162.1085 C136.9966,161.6245 137.4256,161.2115 137.9086,160.8785 L161.6436,213.8175 Z M50.4076,227.1145 L40.8526,213.4155 C40.0636,212.2785 38.7086,211.6705 37.3336,211.8365 L20.7506,213.8205 L44.4436,160.9625 C44.8766,161.2825 45.2646,161.6635 45.5876,162.1035 L51.1496,169.7515 C51.6756,170.4775 52.2706,171.1385 52.9176,171.7245 L40.4466,199.5455 C39.6006,201.4355 40.4446,203.6535 42.3346,204.4995 C42.8346,204.7235 43.3536,204.8285 43.8666,204.8285 C45.2996,204.8285 46.6676,204.0045 47.2916,202.6135 L59.7196,174.8895 C60.9396,175.0575 62.1996,175.0555 63.4636,174.8575 L72.8116,173.3875 C73.3696,173.2985 73.9356,173.3055 74.4866,173.3965 L50.4076,227.1145 Z M179.4586,97.3375 C181.9586,93.2365 181.9586,88.1395 179.4586,84.0385 L174.5236,75.9485 C173.8756,74.8815 173.6236,73.6145 173.8166,72.3825 L175.2866,63.0395 C176.0376,58.2785 174.0816,53.5575 170.1826,50.7235 L162.5376,45.1605 C161.5266,44.4255 160.8076,43.3515 160.5126,42.1375 L158.2866,32.9355 C157.1566,28.2595 153.5496,24.6565 148.8776,23.5235 L139.6746,21.2975 C138.4576,21.0025 137.3846,20.2825 136.6496,19.2725 L131.0866,11.6245 C128.2526,7.7285 123.5316,5.7695 118.7726,6.5205 L109.4246,7.9915 C108.1926,8.1845 106.9266,7.9325 105.8616,7.2835 L97.7686,2.3495 C93.6686,-0.1535 88.5706,-0.1515 84.4696,2.3495 L76.3766,7.2835 C75.3126,7.9325 74.0466,8.1815 72.8136,7.9885 L63.4686,6.5185 C58.7096,5.7695 53.9886,7.7255 51.1546,11.6225 L45.5916,19.2705 C44.8566,20.2805 43.7826,21.0005 42.5666,21.2925 L33.3646,23.5195 C28.6916,24.6495 25.0856,28.2575 23.9526,32.9305 L21.7256,42.1335 C21.4316,43.3475 20.7136,44.4225 19.7016,45.1565 L12.0536,50.7205 C8.1566,53.5555 6.2006,58.2735 6.9496,63.0345 L8.4206,72.3825 C8.6136,73.6145 8.3636,74.8815 7.7116,75.9455 L2.7786,84.0385 C0.2776,88.1415 0.2776,93.2365 2.7786,97.3375 L7.7116,105.4305 C8.3636,106.4945 8.6136,107.7615 8.4206,108.9935 L6.9496,118.3395 C6.1986,123.1005 8.1546,127.8185 12.0536,130.6535 L19.6996,136.2155 C20.7096,136.9515 21.4286,138.0245 21.7236,139.2385 L23.9506,148.4415 C25.0806,153.1165 28.6866,156.7225 33.3616,157.8535 L37.2036,158.7835 L11.1956,216.7955 C10.6446,218.0275 10.7966,219.4615 11.5976,220.5505 C12.3986,221.6405 13.7216,222.2145 15.0636,222.0535 L35.9896,219.5505 L48.0446,236.8375 C48.7486,237.8465 49.9016,238.4415 51.1196,238.4415 C51.2356,238.4415 51.3536,238.4375 51.4726,238.4255 C52.8156,238.2985 53.9886,237.4585 54.5426,236.2265 L81.1026,176.9755 L84.4676,179.0275 C86.5196,180.2795 88.8186,180.9035 91.1176,180.9035 C93.4186,180.9035 95.7176,180.2775 97.7686,179.0275 L101.2546,176.9025 L127.8486,236.2265 C128.4026,237.4585 129.5756,238.2985 130.9186,238.4255 C131.0366,238.4375 131.1546,238.4415 131.2706,238.4415 C132.4896,238.4415 133.6426,237.8495 134.3456,236.8375 L146.4006,219.5525 L167.3276,222.0535 C168.6686,222.2125 169.9926,221.6405 170.7936,220.5505 C171.5916,219.4635 171.7466,218.0305 171.1946,216.7955 L145.1736,158.7515 L148.8726,157.8575 C153.5456,156.7275 157.1516,153.1215 158.2836,148.4455 L160.5106,139.2435 C160.8056,138.0285 161.5226,136.9555 162.5346,136.2205 L170.1826,130.6575 C174.0796,127.8235 176.0356,123.1055 175.2866,118.3415 L173.8166,108.9965 C173.6236,107.7615 173.8726,106.4975 174.5236,105.4305 L179.4586,97.3375 Z" id="Fill-14"></path>
                </g>
                <path d="M219.8421,98.1491 C218.8851,99.0371 218.4561,100.3551 218.7101,101.6351 L223.2401,124.4411 L202.9481,113.0841 C202.3811,112.7651 201.7501,112.6061 201.1171,112.6061 C200.4861,112.6061 199.8551,112.7651 199.2861,113.0841 L178.9941,124.4411 L183.5271,101.6351 C183.7801,100.3551 183.3521,99.0371 182.3941,98.1491 L165.3211,82.3611 L188.4151,79.6241 C189.7081,79.4691 190.8321,78.6551 191.3791,77.4701 L201.1171,56.3551 L210.8571,77.4701 C211.4041,78.6551 212.5261,79.4691 213.8211,79.6241 L236.9131,82.3611 L219.8421,98.1491 Z M245.0011,79.7351 C244.1751,77.1911 242.0131,75.4141 239.3551,75.0991 L216.7901,72.4231 L207.2721,51.7881 C206.1511,49.3581 203.7921,47.8511 201.1171,47.8511 C198.4431,47.8511 196.0861,49.3581 194.9641,51.7881 L185.4461,72.4231 L162.8811,75.0991 C160.2231,75.4141 158.0611,77.1911 157.2351,79.7351 C156.4061,82.2771 157.1151,84.9861 159.0781,86.8021 L175.7601,102.2321 L171.3321,124.5181 C170.8111,127.1441 171.8321,129.7491 173.9971,131.3221 C175.1911,132.1891 176.5751,132.6291 177.9711,132.6291 C179.1031,132.6291 180.2421,132.3391 181.2891,131.7531 L201.1171,120.6531 L220.9451,131.7531 C223.2801,133.0601 226.0741,132.8951 228.2391,131.3221 C230.4041,129.7491 231.4231,127.1441 230.9031,124.5181 L226.4731,102.2321 L243.1591,86.8021 C245.1221,84.9861 245.8281,82.2791 245.0011,79.7351 L245.0011,79.7351 Z" id="Fill-17" fill="#1D1D1B"></path>
            </g>
        </g>
    </g>
</svg>