<?xml version="1.0" encoding="UTF-8"?>
<svg width="125px" height="186px" viewBox="0 0 125 186" version="1.1" xmlns="http://www.w3.org/2000/svg" xmlns:xlink="http://www.w3.org/1999/xlink">
    <!-- Generator: Sketch 47.1 (45422) - http://www.bohemiancoding.com/sketch -->
    <title>Fill 8 Copy</title>
    <desc>Created with Sketch.</desc>
    <defs></defs>
    <g id="Page-1" stroke="none" stroke-width="1" fill="none" fill-rule="evenodd" opacity="0.18115942">
        <g id="Contact" transform="translate(-604.000000, -134.000000)" fill="#60D8DE">
            <path d="M662.514054,273 C662.04526,272.625903 661.559314,272.256966 661.073368,271.882869 C659.67556,270.812178 658.234874,269.705366 657,268.472136 L657.485946,268 L659.058123,269.106811 L663,272.527864 L662.514054,273 Z M617.553852,237.661833 L617.489718,237.741135 C617.411642,237.843095 617.417219,237.913901 617.442314,238.095163 L617.447891,238.137646 L617.442314,238.182961 C617.102126,241.159624 616.809341,244.221253 616.52771,247.17809 C616.011851,252.545146 615.482049,258.10196 614.634367,263.636116 C614.098989,266.649598 613.429766,269.665911 612.782851,272.583097 C612.018822,276.012915 611.229697,279.561686 610.69153,283 L610,282.906537 C611.232485,271.16982 613.173231,259.073411 615.047055,247.376345 C615.805507,242.655036 616.586267,237.775122 617.30847,233 L618,233.090631 L617.553852,237.661833 Z M727.982968,295.487118 C728.86153,293.512974 729.276799,291.923004 728.799381,289.651617 C728.180715,287.444727 727.658098,287.14468 727.466001,287.119442 C727.443401,287.113834 727.423626,287.116638 727.401027,287.116638 C726.884059,287.153092 726.13827,288.370107 725.533729,289.359982 C725.384006,289.60675 725.234283,289.856322 725.081735,290.097482 C722.542097,294.256082 717.078627,299.351279 711.954151,300.587923 C709.942781,301.059025 707.835361,300.694482 705.798566,300.352371 C704.750506,299.996241 700.35487,298.636213 698.368924,298.156698 L700.496118,300.128037 L698.312425,299.042819 C695.18802,297.494911 691.495799,294.578563 688.241447,292.004325 C687.444808,291.378993 686.676419,290.767681 685.93628,290.198432 C681.814665,287.015687 677.526377,284.001193 673.373688,281.08204 C671.921659,280.061319 670.46398,279.034988 669.003477,277.997441 C668.531708,277.548773 667.294376,276.390646 665.554202,274.764221 C661.474961,270.953339 654.906932,264.809379 649.429336,259.53191 C649.587534,259.708574 649.742907,259.879629 649.89263,260.04788 C650.689268,260.931197 651.409633,261.72478 651.966149,262.366937 L651.457657,262.849256 C645.279472,257.010952 640.087197,250.695936 634.872323,244.201453 L634.632202,243.901406 L634.957072,243.691092 C644.457409,237.510678 653.909721,229.232736 661.568185,220.382741 C662.681219,219.061972 663.658654,217.659881 664.605016,216.302658 C665.864947,214.493961 667.170078,212.623572 668.802904,210.932651 C670.8058,208.714544 672.735247,206.308557 674.602545,203.986695 C676.478318,201.648008 678.419064,199.228 680.453035,196.981851 C680.893728,196.468686 681.371147,195.935892 681.859864,195.389077 C683.492691,193.571967 685.182016,191.693166 686.29505,189.755477 C686.857217,188.779622 687.283785,187.840222 687.696229,186.931667 C688.37987,185.423018 689.026785,183.998494 690.218918,182.475824 C692.724656,179.13324 694.922474,175.768223 697.046843,172.509765 C698.128803,170.855298 699.207937,169.198027 700.33792,167.535148 C704.612083,161.049078 708.583975,154.013388 706.112136,145.648516 L706.052812,145.202651 C704.744856,141.464678 700.422669,134.440205 696.515751,134.01397 C695.775612,133.96069 695.272769,134.058836 694.978973,134.325234 C694.563705,134.700994 694.54393,135.446906 694.52133,136.310594 C694.51003,136.795717 694.49873,137.30047 694.413982,137.805222 C692.755731,148.208733 686.156627,158.772083 680.337212,168.090376 C679.42475,169.54855 678.532063,170.98429 677.6761,172.377968 C673.605335,178.782717 668.961102,184.637847 664.472242,190.302293 C661.381737,194.194496 658.186709,198.226908 655.206377,202.399529 C648.604448,211.025189 641.174806,219.30874 631.115128,229.263582 L630.383464,229.98706 L630.513412,228.969143 C630.894781,226.083641 631.705544,223.195334 632.488058,220.40237 C633.40617,217.129891 634.358181,213.742441 634.584177,210.408269 C634.564403,207.200287 634.764975,204.334414 635.81021,200.846013 L638.248149,191.611845 C639.327283,186.536278 640.655014,180.487659 642.268066,174.225923 C642.638135,172.523786 643.157928,170.720697 643.657945,168.979301 C644.358535,166.531251 645.08455,164.00188 645.471569,161.545418 C645.598692,160.510675 645.559143,159.680637 645.522418,158.878641 C645.477219,157.863528 645.43202,156.907302 645.748415,155.715525 C646.169334,154.257351 646.813424,152.869282 647.43774,151.528883 C649.333288,147.437583 650.833341,144.207167 645.491344,141.467482 C642.974305,140.006504 638.657768,139.013824 635.584213,140.054175 C634.151959,140.530886 633.146273,141.40579 632.601056,142.642434 C632.65473,142.763014 632.795978,142.970523 632.934401,143.079886 L633.120849,143.2229 L632.095389,146.944048 C630.97388,150.093143 630.191366,152.911345 629.759148,155.345374 C626.564119,166.721935 624.168554,178.249923 621.849263,189.399346 C621.34642,191.822159 620.843577,194.242167 620.33226,196.659371 C619.168377,202.954757 617.843471,209.342681 616.563765,215.523095 C614.710592,224.479649 612.78962,233.739054 611.329116,242.852642 C611.151143,244.551976 611.009895,246.270939 610.874297,247.936622 C610.526828,252.266278 610.196307,256.360382 609.148248,260.633953 C607.453272,268.384709 606.23289,275.804572 605.410827,283.30856 C605.266754,284.427428 605.100081,285.551905 604.933409,286.684794 C603.792126,294.410312 602.611293,302.396619 608.506982,308.459258 C610.074834,310.267955 614.716242,314.816337 617.707873,314.303171 C618.580785,314.15455 619.205101,313.562868 619.623195,312.491671 C620.301185,310.915721 620.247511,308.706026 620.199487,306.569241 C620.171237,305.405505 620.145813,304.303462 620.241861,303.366866 L621.332295,292.896055 C622.253232,284.590071 623.202418,275.99806 624.716596,267.223778 C625.380461,264.105529 625.552784,260.998497 625.719456,257.989611 C625.866354,255.294793 626.018902,252.507437 626.52457,249.711669 L626.674293,248.86761 L631.502147,255.894888 C632.442859,256.24541 633.101074,256.845505 633.40617,257.625067 L633.524818,257.925115 L633.228197,258.065324 C633.069999,258.143841 632.959826,258.253204 632.906152,258.399021 C632.841178,258.586901 632.866602,258.811236 632.973951,259.041179 C634.101109,261.820122 636.242428,264.304626 638.313123,266.705005 C638.88094,267.361183 639.434632,268.003341 639.948774,268.631477 C640.23127,268.951154 641.033559,269.915792 642.138117,271.239366 C645.172123,274.87078 652.720413,283.911459 654.887157,286.03142 L654.816533,285.462171 L658.714976,289.169298 L658.522879,289.41887 C658.415531,289.556275 658.274283,289.634792 658.110435,289.654421 C658.099135,289.654421 658.09066,289.66003 658.07936,289.66003 C657.78274,289.679659 657.517194,289.491779 657.279897,289.301095 C657.935288,291.704278 666.576837,299.62048 667.664446,300.282267 C670.656077,302.391011 672.997968,304.252987 675.27771,306.339298 C676.670415,307.839534 677.989671,308.913536 679.450174,309.740769 C679.506674,309.75479 679.797644,309.87537 680.145114,310.023991 C680.540609,310.189438 681.181874,310.464248 681.577369,310.604457 L681.744041,310.576415 C682.063261,310.528744 682.583054,310.744666 683.063297,311.120426 L684.792172,312.460825 L683.246919,311.911205 C684.470126,312.744047 687.365709,314.552744 694.176685,318.377646 L694.572179,318.599177 C698.603396,320.211581 702.592238,320.433111 706.386157,319.258159 C717.033428,315.980072 723.519533,304.830648 727.982968,295.487118 L727.982968,295.487118 Z" id="Fill-8-Copy"></path>
        </g>
    </g>
</svg>