<svg xmlns="http://www.w3.org/2000/svg" width="196" height="70" viewBox="0 0 196 70">
    <g fill="#1A1919" fill-rule="evenodd">
        <path d="M61.109 27.371v-.124h-.124v.124h.124zm-2.046 9.982c0 .061-.062.061-.062 0h.062zm-.124-6.571h-.186c0 .061 0 .185.062.185 0-.124.186-.061.124-.185zm-.062-1.055v.124h-.124v-.124h.124zm-.868 3.286c0 .124-.062.124-.124.187.062.061.124.124.124.247.186 0 .31-.372.186-.496v.124c-.062 0-.062-.062-.186-.062zm-1.922 4.401c0 .124-.062 0-.124 0 0-.061.124-.061.124 0zm-.682 2.418c.062 0 .124.063.124.187-.062 0-.124-.063-.124-.187zm-.062-.124v-.185c.062 0 .062.061.186.061 0 .124-.062.124-.186.124zM44.866 26.442c.062.061.248 0 .31-.063.248 0 0-.248 0 0-.186 0-.248-.061-.31.063zm.186 7.501c-.124 0-.248 0-.248.124.124.062.248.124.248-.124zm-.434 1.549c0 .063-.062.063-.124.063 0-.063.062-.063.124-.063zm-.311.559c.063 0 .125 0 .125-.062-.062 0-.125 0-.125.062zm.311-.868c-.062.185-.248.309-.311.496.249.434.683-.372.311-.496zm-.186 1.24h-.311v.31c.249.062.186-.186.311-.31zm-.311-1.178h.062c-.062-.186.187-.31 0-.434 0 .124-.124.248-.062.434-.124.062 0 .062 0 0zm-.062 4.587c.062 0 .062.063 0 .063v-.063zm0-11.592c.248 0 .311-.124.435-.249-.062-.062-.249-.062-.311 0-.062-.062-.062 0 0 0-.062.125-.124.186-.124.249zm0 11.655v.124c-.062 0-.062-.063-.062-.124h.062zm0 .496h-.062c-.062-.187.124-.187.062-.372.186.061 0 .248 0 .372zm-.062 0c0 .061 0 .061-.062.061 0-.061 0-.061.062-.061zm.124-2.79c0-.124-.062-.124-.186-.124v.124h.186zm.062-7.874c0 .248-.434.31-.31.496.186-.062.497-.248.31-.496zm-.496 6.82c0 .062-.123.124 0 .186 0-.062.124-.124 0-.186zm.186 1.302c0 .124-.247 0-.247.185.061 0 .433-.061.247-.185zm-.186 3.968c-.185-.063-.123-.187-.061-.372.123.124.123.248.061.372zm0-3.1c0-.186.31-.248.186-.434-.186 0-.186.124-.371.124 0 .124.062.248.185.31zm-.185-1.674c.062 0 .124 0 .124-.062-.062 0-.124 0-.124.062zm.062 2.293c0-.061 0-.123-.124-.123 0 .062 0 .186.062.186 0-.063 0-.063.062-.063zm-.062-1.611v-.124h-.124v.124h.124zm-.124-5.332c.186 0-.062-.248 0 0-.248 0 0 .248 0 0zm-.124 10.788v-.124c.062 0 .062 0 .062-.063.124 0 .062.31-.062.187zm.124-5.147c-.124 0-.186.063-.186.187.186.062.124-.124.186-.187zm0 5.27c-.062.124-.062.311-.124.435-.124-.063 0-.373-.124-.435.124-.123.062 0 .248 0zm-.31-2.913c-.186-.124-.186.185-.062.185 0-.061 0-.124.062-.185zm.062.496c0-.062 0-.187-.062-.187 0 .125-.31-.061-.186.187h.248zm-.31 3.285c0 .063-.062.063-.062 0h.062zm-.124-3.285c0 .124-.062.124-.062.248.186.124.186-.248.062-.248zm.248-6.944c-.186.062-.186.248-.31.372.248-.124.062.186.186.186.062-.124.062-.372.124-.558h.062c-.062-.186.124-.186.062-.372.186 0-.062-.247 0 0-.248.062-.124.186-.124.372zm-.31 29.2h-.062c0-.062.062-.062.062 0zm.062-21.698c-.062.061-.248.372-.062.496 0-.124.186-.435.062-.496zm-.248 5.827c.062-.806.31-1.364.372-2.108h.062c.186.62-.248 1.55-.434 2.108zm.248-4.526c0 .187-.186 0-.248 0 0-.124.186 0 .248 0zm-.31-.496c-.124.187.248.187.186 0 .062-.061 0-.061 0 0h-.186zm-.124.992c-.062-.185.186-.061.186-.248-.062 0-.062-.061-.062-.124.186.124.496.063.496-.185-.248-.248-.496-.187-.682 0l.186.185c-.124.063-.31.372-.124.372zm-.062 5.953c-.062.061-.062.123-.062.185-.062-.062-.124-.124-.124-.248.124 0 .124.063.186.063zm-.186-3.162c.062 0 .124 0 .124-.063-.062 0-.124 0-.124.063zm.248-2.542v-.125c0-.062 0-.062-.062-.062 0 .124-.186.062-.186.124.062 0 .124.063.248.063zm-.186-9.424c-.124 0-.248 0-.248.124.124.062.248.124.248-.124zm-.496 2.48c-.062.186.248.248.31.124-.124 0-.124-.186-.31-.124zm.186 15.003c0 .124-.124.062-.248.062 0-.124.186-.124.248-.062zm-.124-15.934c0 .063-.062.063-.124.063 0-.063.062-.063.124-.063zm-.124 14.198c-.062 0-.062 0-.062-.062.062 0 .062 0 .062.062zm.062-1.178c-.124 0-.186.063-.186.124.124 0 .186-.061.186-.124zm0 3.782c-.062 0-.062.062-.186.062.186-.124-.248-.372.124-.372-.062.186.062.186.062.31zm-.248-16.243c.062 0 .124 0 .124-.062-.062 0-.124 0-.124.062zm.31-.868c-.062.185-.248.309-.31.496.248.434.682-.372.31-.496zm-.186 1.24h-.31v.31c.248.062.186-.186.31-.31zm-.31 1.178c0-.124-.062-.124-.186-.124v.124h.186zm-.31 3.162c.062-.062 0-.062 0 0-.186 0 .062.248 0 0zm.062 13.887h-.124c0-.062 0-.062-.062-.062 0-.124.31-.062.186.062zm0-16.801c0 .124-.248 0-.248.185.062 0 .434-.061.248-.185zm-.31 17.793c.062-.063 0-.063 0 0-.124.061 0 .061 0 0zm.124-16.925c0-.186.31-.248.186-.434-.186 0-.186.124-.372.124 0 .124.062.248.186.31zm-.124.619c0-.061 0-.124-.124-.124 0 .063 0 .187.062.187 0-.063 0-.063.062-.063zm-.248 16.491c.062 0 .186 0 .186-.061-.062 0-.186 0-.186.061zm0-52.634c0-.062.124-.124.124-.186.124 0 0 .248-.124.186zm.124 47.427c0 .124-.186.062-.124.248.124.062.248-.186.124-.248zm-.248 6.944c0 .124 0 .248.124.185 0-.124-.062-.185-.124-.185zm1.302-19.778c.186-.061-.062.373 0 .435-.124.062-.31-.062-.31.062.186.062-.062.186-.062.248.186.062.31-.186.372 0-.124.124-.682.186-.496.372 0-.062.186-.062.186 0-.062.248-.682.186-.496.372 0-.124.186 0 .31-.063-.062.248.124-.061.124.124 0 .248-.372.063-.434.248.062 0 .062.124.062.187-.062-.063-.186-.124-.186 0 .062.061.186.124.186 0 .124 0 .124-.063.186-.063 0 .063.124.063.124.124-.062 0-.062 0-.062.063-.248 0-.31.124-.558.061.124.248-.372.248-.124.372 0-.061.31-.185.372-.061-.062 0-.186 0-.186.061.062 0 .062.063.062.124-.062-.061-.124-.061-.248-.061 0 .124-.248.31-.062.372.062-.311.372-.311.62-.248.124-.187.248-.372.124-.62.062 0 .062 0 .062-.063h.062c.682-1.611 1.054-3.533 1.612-5.269h-.248c.124.372-.372.31 0 .558-.248 0-.496-.062-.434.247.186.063.186-.124.372-.061-.186.31-.31.682-.744.806.062.186.248-.062.434-.062-.124.31 0 .62-.31.744.124.495-.186.558-.31.991-.248-.061 0 .187 0 0zm-1.302 18.662c-.062.124-.186.186 0 .248-.062-.124.186-.186 0-.248zm-.062-.062c.186.062.124-.435.062-.496 0 .124-.186.061-.124.248.248 0 0 .062.062.248zm-.062-5.332c-.062.186-.124.558.186.372-.186-.124.186-.434-.186-.372zm.062-10.167c0-.062 0-.186-.062-.186 0 .124-.31-.062-.186.186h.248zm-.248 3.161c0 .063 0 .124-.062.124 0-.061 0-.124.062-.124zm0 7.688c0-.062.062-.062.062-.124-.062 0-.124 0-.186-.062v.186h.124zm-.062-7.564c0 .063-.062.063-.062 0h.062zm.248-40.483c-.124-.063-.186 0-.31-.124.062-.063.124-.124.31-.124v.248zm-.372 37.756c-.062.061-.248.372-.062.496 0-.124.186-.435.062-.496zm0 1.301c0 .187-.186 0-.248 0 0-.124.186 0 .248 0zm-.31-.496c-.124.187.248.187.186 0 .062-.061 0-.061 0 0h-.186zm.372 12.276c-.372.434.062 1.116-.372 1.55 0 .124.062.124.124.186l-.186.186c.124.248.062.496.062.744.744-.372.372-2.109.372-2.976 0 .124-.062.124-.186.124-.124.248.186.062.186.186zm-.558-11.408c.124 0 .248 0 .248-.124-.062 0-.062-.061-.062-.124.186.124.496.063.496-.185-.248-.248-.496-.187-.682 0l.186.185c-.186-.061-.062.187-.186.248zm-.062 10.043c.062 0 .186 0 .186-.061-.062 0-.186 0-.186.061zm.124-6.508c-.062 0-.124 0-.124-.063.062 0 .124 0 .124.063zm-.062-1.427c.062.186-.186.124-.124.31.124 0 .31-.248.124-.31zm-.186 10.168c0 .248.434.248.434 0h-.434zm0-9.361c.062 0 .124 0 .124-.063-.062 0-.124 0-.124.063zm.062-.807c-.186 0-.186.124-.186.248.186.062.062-.186.186-.248zm-.186-1.426c.062 0 .124 0 .124-.061-.062 0-.124 0-.124.061zm.186 1.116c-.186 0-.434-.061-.434.124.186.124.31 0 .434-.124zm-.434 2.666h-.062c0-.062.062-.062.062 0zm-.124 2.17v.062c-.062 0-.062-.062 0-.062zm-.062-.744c.062 0 .124 0 .124-.061-.062 0-.124 0-.124.061zm.186 5.704c-.124-.062-.31.186-.124.186 0-.062.124-.124.124-.186zm.062-5.332c.062-.186-.186-.124-.31-.124.062.248.186 0 .31.124zm-.31-.62c.124 0 .186-.061.186-.124.248 0 0-.248 0 0-.124 0-.186.063-.186.124zm.186-4.96c0-.061 0-.124.062-.185-.186 0-.558.124-.31.309-.062-.185.124-.124.248-.124zm-.558 5.89c.062-.062.124-.31 0-.31 0 .124-.062.124-.124.186.062 0 .062.124.124.124zm.248-1.674v-.31c-.186.062-.124.062-.31 0 0 .124 0 .186-.062.248.186-.062.186 0 .372.062zm1.798-4.712c0 .311-.248.311-.372.435.124 0 .31-.063.248.124h-.434c.062.185-.186.061-.124.248.248.061.186-.187.372-.187v.248c-.062 0-.062.124-.124.124-.186.063-.248-.061-.372-.124 0 .187-.31.063-.372.248.248.063 0 .187-.062.311-.124.061 0 .061 0 0 .186-.063.186.124.31.124.062-.063 0-.248.186-.187v.372c.31.062.062-.496.31-.496 0 .435-.124.868-.434 1.365h.124c-.186.185.124.061.062.309-.124 0-.248 0-.248.063.062.061.186.061.186.124-.062.124-.31 0-.31.124.062 0 .124 0 .124.061h-.124c0 .124-.062.124-.186.124-.062.311-.124.187-.248.496.186.062.31-.185.434 0-.062.186-.31.124-.558.062 0 .186.124.124 0 .248.062 0 .062.062.124.062-.062.124-.062.186.124.186.062-.062.124-.31.372-.372.062.434-.31.62-.248.868-.186.124-.248-.062-.372.062.062.125.372 0 .434.125-.186.309-.124.496-.31.743-.062-.062-.124-.062-.186.062 0 .062-.31.186-.124.248.062-.124.434-.062.372.124-.124 0-.124.124-.31.062v.248c.124 0 .186-.062.186-.124.248.186-.062.31-.124.496-.248 0-.31-.062-.434.062 0 .186.124.248.186.31.124-.062.31-.186.434-.248-.062.124-.062.248-.124.31-.062-.062-.434 0-.558.062.062.186.496 0 .496.062 0 .186-.186.186-.124.434-.248 0-.124.062-.062.124-.062.124-.372-.062-.31.186.248-.062.31 0 .62 0 .186-.186.248-.62.124-.992.372-.186.496-.992.372-1.488h.124c.248-1.922.558-3.534 1.116-5.269-.062-.124 0-.435-.124-.559.372-.495.558-1.487.496-2.107 0 .372-.31.248-.186.557-.124 0-.186-.061-.248-.124 0 .124.062.124.062.248-.248 0-.372.124-.496.248.31-.061.434-.248.682-.124-.062.311-.372.311-.62.435.248-.063.248.248.372.248-.062.185.062.372-.062.619h-.062zm-2.17 23.436c-.062.185.186.061.248.185.062-.061.124-.309-.062-.248 0 .063 0 .124-.062.124s-.062-.061-.124-.061zm-.124-12.4h-.062c0-.062.062-.062.062 0zm0 12.276c0-.063.062-.063.062-.124-.062 0-.062-.063-.186-.063v.187h.124zm-.124-17.98c.062 0 .248-.124.248 0 0 .063-.124.063-.124.124.124.063.31-.124.31 0s-.062.124-.062.187c-.062 0-.062 0-.062.061-.062.124-.186.186-.186.372.124-.062.248 0 .31-.124-.062-.062-.124-.124-.124-.248.062 0 .062 0 .062-.061.062.061.124.061.186.061-.062-.185-.062-.309.062-.433-.062-.063-.806-.124-.62.061-.124.063 0 .063 0 0zm.248 1.24c-.124-.062-.124 0-.31-.062.062.124.124.31.248.372 0-.124.124-.124.062-.31zm-.31-1.674h.248c-.062-.062.062-.31-.062-.31v.124c0 .124-.186.062-.186.186zm0 7.564c.062-.063 0-.063 0 0-.124.061 0 .061 0 0zm0-2.481c.062-.061 0-.061 0 0-.124.063 0 .063 0 0zm.062-1.735c0-.124 0-.248.062-.31-.124 0-.186.062-.248.124.124 0 .062.186.186.186zm-.062-2.232v-.124h-.124v.124h.124zm0-2.665v-.124h-.124v.124h.124zm.186-.807h-.31c-.062.248.186.187.31.248v-.248zm-.372 6.82c.062 0 .124.124.124 0 0-.062-.124-.062-.124 0zm-.062 3.285c.062 0 .186 0 .186-.061-.062 0-.186 0-.186.061zm.248-.496c0-.124.062-.185.186-.248 0 .063.062.063.124.063.062-.187-.186-.124-.124-.31-.434-.062-.434.371-.434.495 0-.185.124.063.248 0zm-.062-5.889c-.124 0-.062-.186-.124-.186-.062.124-.186.248 0 .372 0-.124.062-.124.124-.186zm-.248.558c.062-.062.186-.062.186-.124-.062 0-.062 0-.062-.062h-.124v.186c-.124.062 0 .062 0 0zm.062-2.232c.124 0 .124-.434 0-.434 0 .062-.124.062-.186.062.062.248 0 .31.186.372zm-.124 8.68c-.062.124-.186.186 0 .248-.062-.124.186-.186 0-.248zm-.062-.062c.186.062.124-.434.062-.496 0 .124-.186.062-.124.248.248 0 0 .062.062.248zm.124-5.394c0-.186.31-.124.248-.372-.248 0-.434.062-.496.186.124 0 .062.248.248.186zm.868 1.24c.062 0 .186 0 .186.062-.062 0-.124.062-.124.186-.372-.062-.248.372-.496.433-.062-.061-.124-.061-.124.063s.31.061.372 0c0 .124-.062.124-.062.185-.124.063 0 .063 0 0 .062.063.186.063.186.124-.248.063-.434.187-.682.187 0 .186.186.124.124.372-.124-.124-.186 0-.31 0-.124-.124-.062-.31-.186-.434a.96.96 0 0 0-.124.496c.186 0 .31 0 .186.124.248-.062.248-.124.434 0 0-.124.186-.434.31-.248 0 .186-.31.062-.248.31 0 .062.062.124.124.124l-.186.372c.062 0 .248.248.31.062-.31-.124.372-.124.372-.372-.062-.124 0-.186-.124-.372.186 0 .124.124.248 0 0-.124 0-.31-.062-.372-.124 0-.31.062-.31-.062.496 0 .744-.806.372-1.116.186-.062.062-.186 0-.31.062 0 .124-.062.186-.062-.124-.186-.062-.186.062-.372-.434 0-.806.062-.868.434.186.062.186 0 .434 0 .062.062 0 .124 0 .186-.186-.186-.124.248 0 0zm-1.178-.62c.124 0 .248-.31.124-.372-.062.124-.186.186-.124.372-.248-.062 0 .186 0 0zm.062 3.038c-.124 0-.248 0-.248.062.124 0 .062.434.186.186-.186-.062.062-.186.062-.248zm0-6.386c-.248-.062 0 .187 0 0h.062c0 .187-.248.124-.31.311.496.185.682-.497.434-.683-.062.062-.062.186-.186.248.124-.062.124.124.062.124 0-.062-.062-.062-.062 0zm-.31 7.812c.124 0 .186 0 .186-.124.186.186.124-.186 0 0-.124 0-.186.062-.186.124zm.248-4.216c-.124 0-.186.062-.248.124.062.062.248.062.248-.124zm0 14.88c-.124-.124-.31-.187-.31-.372.062.061.124.061.248 0-.062.185.062.248.062.372zm-.124-.559c0 .124-.124.062-.186 0 0-.124.124-.062.186 0zm-.248-18.413c.062 0 .124.124.124 0 0-.062-.124-.062-.124 0zm.124 7.935c.124.249-.186.063-.186.187.186 0 .372 0 .434-.124-.062 0-.186 0-.186-.063.124-.185 0-.185.124-.372-.124 0-.186-.061-.248-.061-.124.248.062.248.124.433h-.062zm0 1.179h-.186c0 .186-.124.247.062.31 0-.124.124-.187.124-.31zm-.062.682v-.187h-.186v.187h.186zm.124-.806c-.062-.31.124-.31 0-.496 0 .248-.248.31-.31.496.124 0 .186-.124.31 0zm-.434 9.423c.124.062.124.062.124-.124.124 0 .062.186.186.124.062.187-.434.187-.31 0zm-.062-13.268h-.062c0-.061.062-.061.062 0zm-.062 13.144c-.186 0 0-.186 0-.248.124 0 0 .186 0 .248zm.124-8.865c0-.063 0-.187-.062-.187 0 .124-.31-.061-.186.187h.248zm-.248-7.006c-.062-.062-.062 0 0 0 0 .062.062.062.062 0 .186 0-.062-.248 0 0h-.062zm.062 15.251c-.062.124-.124.186-.124.248-.186-.062-.186-.434-.124-.496.062 0 .062.062.124.062 0 .124 0 .248.124.186zm.744-16.553c.062.186-.186.063-.186.248.248.186.186.744-.186.806.124.186.062.186.124.434-.062-.062-.124-.062-.186.062.248 0-.062.186.124.248l-.372.186c.124 0 .186.062.248.124-.124 0-.186.062-.186.124.124.062.186-.186.248 0-.124.062-.496.186-.31.31 0-.124.248 0 .248.062-.124.062-.248.062-.31.124.124.124.186-.062.31.124 0 .124-.434.124-.248.186.186 0-.124.186.124.372-.248.062-.31.558-.124.619v.187c-.124 0-.248 0-.248.124.248.31-.062.31-.062.62h.124c0 .062-.186 0-.186.124.062 0 .124.062.124.186-.248 0-.062.124-.062.248-.062 0-.186 0-.186.062.062.062.062.248 0 .434H36c0 .061-.062.061-.062.124-.248 0 0 .248 0 0 .248.061.186-.31.062-.372.124 0 .186-.124.31-.124-.124-.248.062-.372-.124-.558.062-.062.248 0 .248-.124-.062-1.178.62-3.41.744-4.836a.133.133 0 0 1-.124-.124c.31-.061-.062-.309-.186-.124.124 0 .186 0 .186.124h-.124zm-1.364 6.262c0 .124 0 .185-.062.248.186.124.186-.248.062-.248zm-.062-2.79c.062 0 .186 0 .186-.062-.062 0-.186 0-.186.062zm.248 4.03c-.062 0-.186 0-.186.062.124 0-.248.186.062.248.062-.062.062-.248.124-.31zm-.124-.372c0 .124-.124.186-.186.248.062 0 .31.062.31-.062-.124-.062.062-.124.186-.062 0-.248.186-.248.124-.559-.124 0-.124.124-.31.063 0 .185.124.185.124.372h-.248c-.062-.062-.062 0 0 0zm-.434-1.55c.062 0 .186 0 .186-.062-.062 0-.186 0-.186.062zm.062-.31c-.186 0 0-.248.124-.186 0 .062-.124.124-.124.186zm-.124 3.719c.186 0-.062-.248 0 0-.124.063 0 .063 0 0zm.062-.372c0-.061 0-.124-.124-.124 0 .063 0 .187.062.187 0-.063 0-.063.062-.063zm-.124-.991c0 .062-.124.124 0 .186 0-.062.124-.124 0-.186zm-.124-.62v-.124h.124c0 .061 0 .124-.124.124zm.124 2.294c0 .185-.186.124-.124.372.248.124.248-.311.124-.372zm-7.563-37.756c0-.062 0-.124.062-.124 0 .062 0 .124-.062.124zm0 .248c-.248 0 0-.062-.062-.248h.062v.248zm-.31.434c-.124-.062-.062-.372.124-.31-.062.062-.062.248-.124.31zm-8.742-2.79c-.186 0-.496-.062-.496.124.186 0 .372 0 .496-.124zm-1.612.434c-.124 0-.186.062-.248.124.124 0 .248 0 .248-.124zm-4.154 4.092c-.062 0-.062-.124-.124-.124 0-.062.062-.062.124-.062v.186zm-1.239 2.789h-.186c-.062.124-.248.372-.062.496 0-.309.186-.185.248-.496zm-2.046 3.41c0 .062 0 .062-.062.062 0-.062 0-.062.062-.062zm-.186.93c0 .124-.186.062-.124.186.124.062.248-.186.124-.186zm-.124.372h-.186c.124.187-.062.248.062.311 0-.124.124-.124.124-.311zm-.434.868c0 .062-.124.124 0 .186 0-.062.124-.124 0-.186zm35.772 6.323c-.125.124.062.187.062.435h-.249c-.062.062 0 .248-.124.31.186.062.186-.062.311-.062-.062.248-.435.186-.497.372 0 .124.186-.062.248.062-.124.186-.434.186-.557.31.123 0 .495.062.495.123 0 .187-.31.124-.434.187 0 .061.062.124.062.248-.062 0-.123-.063-.185-.063 0 .063.185.187.185.063.062 0 .124 0 .186-.063 0 .063.124.063.124.124-.062 0-.062 0-.062.063-.248-.063-.248.124-.495.061-.062.124-.124.248-.248.311.062.124.248-.124.495-.063 0 .063-.123.063-.185.063-.124 0 0 .061 0 .185-.062 0-.124-.061-.186-.061-.124.061-.186.185-.186.372.124-.311.495-.248.743-.311.062.187-.062.248-.124.311h-.062c.186.062-.062.806-.062.434-.185 0-.061.557-.309.309 0 .124.062.124.062.248-.124 0-.186-.061-.248-.124 0 .124.062.124.062.248-.248 0-.372.124-.496.248.31-.061.31-.185.682-.185-.062.309-.248.433-.62.433.124.063.31.187.31.248.062.124.062.435 0 .682-.124.187-.186.372-.434.372 0 .187.372-.061.248.187-.31-.063-.496 0-.558.185.186.248.186-.124.372-.124v.248c-.062 0-.124.063-.124.124-.248.063-.372-.248-.434 0-.186-.185.062-.433 0-.744-.248.435-.062.868-.372 1.179-.124.061 0 .061 0 0 .31 0-.062.248-.186.248.124.061-.062.371.186.309-.186.124-.124.434-.062.62-.062 0-.062.062-.062.125.062 0 .062-.063.062-.125.124-.062.186-.248.248-.434.186.186.248-.062.31-.186-.124-.124-.124 0-.186.124-.062-.124-.062-.681.186-.744v.372c.186 0 .186-.248.186-.496.248.248.062.93-.31 1.302 0 .062.062.062.124.062-.124.125 0 .062.062.186.062.187-.124.124-.248.124 0 .063.062.124.186.124 0 .124-.186.124-.31.124.062.063.124.124.248.124-.186.063-.434.372-.62.311.062.185 0 .185-.062.309.186.062.248-.061.434-.061 0 .309-.31.123-.558.123.062.186-.062.248.124.31 0 .062 0 .186.062.186.186 0 .124-.31.434-.372.124.434-.372.558-.186.806-.124.124-.248.062-.434.062 0 .186.248.124.434.124-.186.311-.124.496-.186.992-.124-.062-.186-.062-.248 0 .062.062.124.124.248.124 0 .186-.248.062-.248.248-.31 0 .062.372.062.062.31.186-.124.186-.062.496-.31 0-.372-.124-.496.062-.062.186.186.124.124.31a1 1 0 0 0 .434-.248c.186.062-.062.186 0 .31-.186-.062-.31.062-.62 0 0 .186.372.186.434.062 0 .186-.062.496-.248.496.248.186-.062.124-.186.248.186.062.434.124.62.062 0 .062.062.062.124.062-.31.124-.868.062-.93.434.062.186.434 0 .496.124 0 .062-.062.062-.062.124-.186-.186-.124.248 0 0h.186c0 .124-.186.062-.124.248-.434-.062-.31.557-.62.434-.124.186.31.186.31.062.124 0 .062.124 0 .185h-.062c0 .063.062.063.062 0 .062.063.124.063.186.124-.186.063-.434.187-.682.187.186.186.124.372 0 .558.248 0 .124-.372.434-.31.062.248-.248.124-.248.31 0 .124.062.186.124.186-.062.124-.062.248-.186.31 0 .248.372.062.31.372-.248-.31-.496.248-.558.372.062.124.124-.063.186.061.186 0 .124-.185.248-.248.248.124-.062.187.124.435 0 .185-.496.372-.124.496-.372.372.124.806-.186 1.178.124.681-.372 1.488-.062 1.983-.062 0-.062.063-.186.063.124.248.062.681.186.929-.248.806-.124 1.117-.372 1.985.124 0 .124-.063.186-.124-.062.868.062 1.425.248 2.294.744-.372 1.612-.621 2.046-1.303 0 .062.062.062.062 0 .31-.31.744-.558.93-1.054.247.311.743-.248.433-.433.062-.497.807-.248.807-.806.062 0 .062.061.062.124.372-.248.62-.62.744-1.055 1.177-.991 1.612-2.727 2.603-3.905 0-.063-.062-.063-.062-.187.31.124.372-.496.62-.681a.133.133 0 0 0-.124-.124c.372-1.116 1.178-1.922 1.612-3.286.248.062.248-.31.186-.558.248-.062.248-.248.372-.62.062 0 .062.062.062.124.186-.062-.062-.186 0-.372.31-.124.248-.62.682-.62-.186-.495.558-1.115.496-1.984.062 0 .062.062.062.124.186-.372.496-.992.372-1.488.124 0 .186 0 .248-.061 0-.311.248-.373.186-.745.62-.868.682-2.418 1.302-3.099-.31-.124.124-.435.248-.683.124-.248 0-.248.062-.495.062-.248.31-.372.31-.683.062 0 .124.063.186.063.062-.187-.186-.124-.124-.311.186-.309.372-.557.744-.62 0-.061 0-.124-.124-.124 0-.061.124-.061.186-.061.062-.063.186-.31.062-.434-.124.124-.062.434-.372.371.124-.371.248-.433.248-.805.186.062.124 0 .372 0-.186-.248 0-.124.124-.372-.062-.249-.248.186-.248 0v-.249c.062-.061.124-.061.248 0-.124-.185.186-.309 0-.62.31-.495.434-1.239.806-1.798-.248.249.186.125.124.373.062 0 0-.186.124-.186-.248 0-.124-.311-.186-.187h-.062c0-.309.186-.495.186-.805.248 0 0 .186 0 .248.248 0 .124-.248.248-.372 0-.062-.124 0-.124.062-.062-.372.372-.868.372-1.425.062 0 .062.061.186.061-.124-.185.248-.558.062-.62.062-.124.31-.062.31-.248 0-.124-.186-.062-.124-.186h.186c-.124-.682.558-1.549.434-2.232.062 0 .062.124.062.186.186-.062.062-.186.062-.31.248-.372.805-1.054.496-1.426.247-.496.744-.744.93-1.363.248 0 .372.124.62.061.124-.124.31-.185.186-.372.124 0 .124.063.124.187.495-.311 1.984.309 1.302.991.31.187.124.992-.124.992-.063.187.062.248.062.372-.187.062-.187-.124-.311 0 0 .186.373-.062.249.186-.249 0-.063.31-.311.124.062.248.062.496-.248.496 0 .186 0 .31.124.31-.186.125-.433.373-.248.682-.247 0-.433 0-.495.186 0 .124.062 0 .186 0 0 .62-.744.868-.558 1.426-.496.434-.31.868-.372 1.24-.124-.248-.186 0-.31.124 0 .062.124.062.124.124 0 .434-.683 1.177-.496 1.364 0 .248-.187 0-.248 0-.062.248.31.062.248.31-.248-.062-.31.248-.248.496-.186.186-.248-.31-.124-.434-.372-.062 0 .31-.248.248.186.372 0 .496.062 1.115-.062 0-.062-.061-.124-.061v-.124c-.062 0-.062.061-.062.124-.062.309-.248.868-.124 1.054-.248.124-.186.496-.434.434.31.124-.124.248.062.434h-.186c.124.433-.186.309-.062.681-.062 0-.062-.061-.186-.061-.062.185.186.124.124.309-.124.063 0 .063 0 0 0 .187 0 .496-.372.559-.124 0 .062.186.124.186-.062.124-.124.372-.372.31.248.062.062.247.248.31-.186 0-.124.248-.31.248.062.061.186.124.124.309-.186-.185-.372.063-.248.248h-.186c.186.62-.31 1.054-.124 1.426 0 .187-.124.248-.248.248.124.124.062.248.124.311 0 .061-.124.061-.186.061.248.559-.558 1.116-.372 1.364.186.062-.062.186-.186.124 0 .186.124.558-.248.497 0 .185.248.061.186.248-.124 0-.186.061-.062.124 0 .124-.124.061-.248.061 0 .124.186.063.124.187-.558 0-.31.557-.248.681-.062.186-.124 0-.248.124-.062 2.046-1.302 3.162-1.612 4.774-.434.434-.496 1.24-.992 1.736-.062.186.062.186.062.31-.31.186-.434.372-.434.744-.31.124-.372.433-.434.806-.31-.125-.062.248-.31.186-.062.558-.496 1.363-.992 1.798 0 .061.062.061.062.185-.186 0-.248.187-.372.187.124.185.062.185.124.496-.124 0-.124.123-.31.062 0 .061.062.061.124.061-.062.187-.248.311-.186.62-.992.992-1.24 2.418-2.294 3.286 0 .124.186.062.124.186-.619.186-.372.744-.991.868 0 .063.124.063.186.063-.186.309-.683.433-.559.805-.372.124-.558.744-.868.682.124.62-.805.744-.557 1.055-.186.124-.496.248-.496.557-.869.372-1.364 1.116-2.356 1.302-.806-.062-1.798.31-2.542 0 .062 0 .124 0 .124-.062-.062-.062-.124-.062-.124.062-.558-.186-1.054-.434-1.736-.682 0-.062 0-.124.062-.186-.434-.062-.62-.372-.93-.558.062-.124.248.124.434.124-.124-.309-.558-.372-.744-.681.062-.063.062-.125-.062-.187-.186-.372-.558-.62-.806-.93 0-.062-.062-.124-.062-.186-.062.124-.248-.062-.248.062-.248-.124.124-.309-.062-.62.062-.061.124-.061.248 0-.062-.185-.186-.309 0-.496-.124-.124-.186.248-.434.187-.062-.187.248-.124.248-.248 0-.063-.062-.063-.062-.187-.124 0-.062.187-.124.248-.248-.185.124-.434-.248-.496 0-.31-.124-.496-.372-.743-.248-1.116-.248-2.481-.248-3.534.124-.063.124-.248.186-.434-.186-.062-.124.123-.124.247-.062-.185-.186-.061-.186-.247s.186-.062.31-.248c-.372-.063.062-.683-.248-.931 0-.124.062-.124.186-.124-.124-.309.31-.867-.062-.991.124-.124.186-.124.372-.062.062-.186.062-.496.31-.496 0-.249-.124 0-.248-.062.062-.187.124-.683-.186-.496-.062-.063.062-.311-.062-.311 0-.124.248 0 .372-.061 0-.063-.062-.063-.062-.124h.062c0-.062-.062-.062-.062 0-.124-.062-.248.185-.248 0 0-.124.062-.124.186-.124 0-.062-.124-.062-.248-.062 0-.124.248 0 .31-.124-.31-.248.31-.434.248-.806-.186-.062-.186.124-.372.062 0-.124.186-.062.124-.186h.248c0 .062.062.062.124.062s.062-.124.062-.186c-.062-.186-.124.124-.186.124 0-.186.124-.248.062-.497-.124.124-.062.435-.372.373.124 0 .248-.434 0-.434.248-.31 0-.868.372-.93 0-.186-.186-.124-.124-.372.062 0 .062.124.124.186.062-.062 0-.372.248-.248.062-.186-.124-.124-.186-.186-.124 0-.062.186-.186.124.062-.062.062-.248.186-.248.124.186.31-.124.248-.31-.248-.062 0 .372-.248.31.062-.186 0-.434.31-.372-.062-.062-.372-.248-.062-.248 0-.124-.124-.124-.248-.124.124-.124.248 0 .124-.248.062 0 .062-.062.124-.062 0 .062.124.062.124 0 .062-.062 0-.062 0 0h-.124c0-.062-.124-.062-.124-.124.124 0 .186-.062.186-.124-.124 0-.186.062-.186.124.062-.372.248-.93.434-1.425.062 0 .124 0 .124.124.062 0 .062-.124.124-.187 0-.061-.124-.061-.248-.061 0-.124.124-.124.248-.124-.062-.187-.186-.124-.31-.187.186-.186.124-.31.372-.434.062.124.062 0 0 0 0-.124-.186-.062-.124-.186.062.062.124.062.186-.062-.186-.248.062-.868.186-1.177a1.154 1.154 0 0 0-.496-.124c.124-.187.31-.063.558-.187 0-.061 0-.185-.062-.185.31-1.117.434-1.922.868-2.977-.31-.123.186-.123.062-.434.062-.061 0-.061 0 0 0-.868.496-1.364.682-2.479.124-.187-.062-.372.186-.559 0-.061-.124-.061-.186-.061.062-.124.248-.124.248-.248-.124 0-.186.124-.186 0-.062-.187.124-.124.248-.124-.186-.372.186-.682 0-.806.186-.683.31-1.24.372-1.736.124 0 .186 0 .248-.062.062-.248-.248-.124-.186-.31.124-.062.248-.124.372-.124 0-.806.248-1.116.248-1.612.31-.062.496-.62.248-.682a.484.484 0 0 1 .248-.248c-.124-.186.062-.186-.062-.31.31-.496.186-1.426.62-1.86.186-1.054.496-2.232.806-2.852.434-1.922 1.116-4.216 1.736-6.138.867-4.649 3.037-9.733 3.285-14.878.062-.869 0-1.922-.434-2.604-.805.248-1.177.93-1.922 1.178-.186.557-.743.805-1.177 1.053.062.31-.372.621-.682.745-1.054 1.116-1.798 2.603-3.1 3.471 0 .434-.62.744-.682 1.302-1.302 1.178-2.046 2.914-3.348 4.092.124.434-.62.806-.496 1.24-.806.93-1.24 2.232-1.984 3.224-.062.372-.372.868-.744 1.116-.124.372-.186.867-.558 1.054-.248 1.24-1.116 1.922-1.426 3.099h-.186c-.247 1.116-1.116 2.294-1.55 3.224 0 .124.062.124.062.248-.31.683-.681 1.302-.867 2.108-.062 0-.124.062-.248.062 0 .062 0 .124.124.124-.434.807-.682 1.984-1.179 2.851a183.615 183.615 0 0 0-3.223 10.789c.124.124 0 .62.124.744-.062.185-.062.495-.124.681.062.062.062.248.124.31-.186 1.364-1.24 2.852-2.666 2.17-.062.124-.186.186-.31.062-.062.186.186.062.124.248-.806.248-1.426-.434-1.984-.868-.806.062-1.116-.805-1.364-1.426a4.573 4.573 0 0 0 0-1.301c0-.372-.186-.372 0-.62.062-.187-.124-.187-.124-.311-.124-3.657.62-7.873.992-10.973.682-3.038 1.302-6.137 1.984-9.238.248-1.239.558-2.541.496-4.029a4.652 4.652 0 0 0-.496-1.116c-.868-.186-1.426.372-1.86.806-1.054.371-1.364 1.426-2.232 1.984-.806 1.24-1.921 2.479-2.294 3.658-.124.061-.186.124-.248.124.062.185.062.495-.248.495-.062.868-.682 1.427-.93 2.356-.123 0-.061.186-.247.124.062.496-.124.745-.372.93-.993 2.976-2.108 5.022-2.977 7.75-.372 1.674-.743 3.1-.929 4.711-.31.496-.062 1.055-.372 1.551.186 1.054-.186 1.859.124 2.727-.186 1.178.124 2.542-.062 3.472.62.682 0 1.674.186 2.294-.124.061-.124.186-.248.248-.062-.062-.062 0 0 0v.186c-.186.062-.124-.124-.248-.124-.124.062-.124.186-.124.31-.31 0-.496-.124-.62.124-.186-.186-.62-.062-.806-.31-.124 0-.124.124-.124.248-.31 0-.496-.124-.62.124-.558-.124-1.178-.496-1.798-.745-.124-.248-.372-.495-.248-.805-.496-1.922-.806-3.781-.992-5.89C.6 35.803-.144 25.14.848 14.228c.31-.372.62-.744.992-1.054.124 0 .248 0 .31.063.248 0 .248-.248.434-.311 1.364.187 2.418.744 3.41 1.364.186.744.62 1.364.62 2.356 0 .929-.31 1.922-.062 2.914-.124.868.062 2.355-.248 3.223 0 .187 0 .373.062.435-.31 2.48.062 5.518-.124 7.749.434 1.24.372 3.41.558 4.898.744-2.108 1.611-4.402 2.542-6.51.124.248-.124.434-.124.744.372-.372.496-.93.682-1.426-.186.063-.248.496-.496.62.929-2.17 1.86-3.905 3.161-5.641 0-.372.31-.31.248-.744.124-.062.186 0 .31-.125 0-.061-.062-.124-.124-.124.621-.248.372-1.116.931-1.301 0 .061.061.061.123.061.186-.123.372-.433.558-.557-.31-.062.186-.186.124-.558.124 0 .248 0 .31-.124.186 0 .124-.248.248-.311.248.063.682-.372.868-.619.062 0 .062.062.062.124-.124.062 0 .062 0 0 .248.062.186-.186.186-.372.372-.062.62-.31.992-.372-.062.186-.31.124-.372.31.248.062.248-.186.496-.124 0-.124-.062-.186-.124-.186 2.666-.682 5.332 1.239 5.828 3.596.248.124.186.62.372.806-.186.372 0 .868.124 1.177-.248 1.302.124 1.985-.248 3.162-.062.186.062.186.062.31 0 .186-.124.248-.124.496.682-.93.992-2.17 1.736-3.037 0-.063-.062-.063-.124-.063.496-.557.744-1.24 1.177-1.983.187-.248.249-.683.435-.744.248-.063 0-.187 0-.311.248.187.31-.185.372-.309.062-.063 0-.063 0 0-.124 0-.248 0-.186-.124.496.061.496-.434.682-.682.124-.062.124-.186.124-.372.124 0 .124-.062.124-.124.061 0 .061-.062.061-.124.062 0 .062-.063.062-.124.062-.063 0-.063 0 0-.062 0-.062.061-.062.124-.061 0-.061.062-.061.124a.133.133 0 0 0-.124.124h-.062c.062-.372.309-.559.433-.868h.062c.062.372.124-.187.124-.124.062-.063.124 0 .186-.063.124-.185.248-.743.434-.929.124-.124.311-.062.435-.248.31-.434.248-1.054.619-1.364-.185.124-.247.062-.371-.124.248.124.248 0 .31-.248h.185c0 .062 0 .124.062.124.062-.062.062-.124-.062-.124v-.186c.062 0 .186 0 .186.062-.124.062 0 .062 0 0 .062 0 .186-.248 0-.186.124-.124.372-.186.31-.62.124.186.496-.186.248-.247.744-.497.931-1.551 1.612-2.233.124-.061.186-.185.248-.372.124-.061.31-.372.248-.434.186-.124.434-.31.31-.62.682-.992 1.798-1.86 2.232-2.914 1.612-1.922 3.658-4.216 5.828-6.013 0-.062-.124-.062-.124-.124.62-.558.992-.806 1.55-1.302.124 0 .062.186.124.186.31-.186.31-.496.744-.434.062-.248-.186.124-.124-.186.124 0 .309-.062.248.124.247-.31.93-.248 1.612-.248 3.471 1.239 5.207 4.216 5.641 8.308a16.361 16.361 0 0 0-.124 1.798c-.186 1.425-.496 2.355-.682 4.029-.433.558-.372 1.55-.682 1.922 0 .62-.31 1.364-.496 1.798 0 .248-.062.248 0 .434-.806 2.046-.93 4.711-1.735 6.696v.557c-.497.992-.186 2.109-.807 2.914.062.248.124.496-.186.496.124.062.062.372.248.372-.124.248-.124.558-.372.682.062.248.248.62-.124.682-.062.248.124.186.124.372a.747.747 0 0 0-.31.31c.248 1.364-.805 1.736-.433 2.666 0 .186-.186.248-.248.372.248.123 0 .496.062.62 0 .186-.372.062-.434.186 0 .248.124.062.248.062 0 .31-.124.372-.372.31-.062.248.31.124.372.31 0 .186-.186 0-.248 0 .31.31-.124.62-.186 1.053h-.062z"/>
        <path d="M63.963 27.186c-1.116 2.107-1.612 4.773-2.542 7.067-.062.186 0 .372.062.496-.558 1.798-.62 3.968-.868 5.951.372.435.124 1.178.372 1.861.682 0 .744-.559 1.302-.683 2.17-2.231 3.906-4.835 5.456-7.687.682-1.488 1.426-2.913 2.17-4.402.496-.805.93-2.108 1.612-3.223.186-.311.434-.868.743-.868 1.055 0 .124 2.851-.309 3.038.247.496-.31 1.053-.31 1.673-.744 1.364-1.24 3.348-2.17 4.526-.124.62-.496.868-.496 1.488-.558.806-.93 1.735-1.426 2.418-.558 1.487-1.612 2.541-2.604 3.596-.062.309-.372.372-.31.681-.744.497-1.24.93-2.046 1.426-.558 0-.868.311-1.488.248-.496-.061-1.116-.372-1.488-.62-2.914-1.983-2.418-7.873-1.735-11.903.619-2.294 1.053-4.712 2.045-6.634.124-.185 0-.31 0-.558.249-.185.187-.557.558-.62.682.063 1.116.435 1.984.372.62.372 1.24.621 1.55 1.302 0 .372-.124.62-.062 1.055"/>
        <path d="M96.698 31.154c.248 0 .558-.248.372-.496 0 .248-.186.185-.248.061-.062.124-.186.248-.124.435zm-.31.743c0 .062-.062.062-.124.062 0-.062.062 0 .124-.062zm-2.728-.372c-.186.062-.372.124-.434.248.124-.062.434-.062.434-.248.062 0 .062 0 .062-.062.31-.185.558-.185.744-.433-.248-.063-.62.185-.744.433-.062 0-.062.062-.062.062zm2.48-.31c0 .434-.497.372-.558.682-.248-.124-.434.31-.558.434-.248-.186-.186.31-.558.186 0 .124.062.248-.062.248-.062-.062-.124-.062-.186-.124-.062.186-.062.124 0 .31-.434.124-.682.434-.992.682-.062 0-.062.062-.062.062-.062 0-.124.062-.124.062-.372 0-.744.372-.682.558.186-.186.496-.31.682-.558.062 0 .124 0 .124-.062.062 0 .062 0 .062-.062 1.24-.682 2.294-1.426 3.286-2.355h.124v-.124c-.124 0-.124.061-.124.124-.186.061-.186-.063-.372-.063zm-3.968 3.1c-.186 0-.248.186-.31.248.124 0 .31-.062.31-.248zm-1.178.806c.062 0 .124 0 .124-.062-.062.062-.124 0-.124.062zm-5.766 4.092c-.248.062-.496.31-.248.434-.062-.248.31-.124.248-.434zm-.496 1.239c.062 0 .062.063 0 .063v-.063zm0 .063c0 .061 0 .061-.062.061 0 0 0-.061.062-.061zm-1.55.744c-.248-.062-.248.123-.31.247.186 0 .248-.124.31-.247zm-.744.495c0 .063-.124.187 0 .187 0-.063.124-.124 0-.187zm-1.611 20.77c.062 0 .124 0 .124-.063-.062.063-.124 0-.124.063zm-1.302.929c0-.062-.062 0-.062 0h.062zm-.186-17.235c0 .063-.062.063-.124.063 0-.063.062 0 .124-.063zm-2.914 19.033c-.124 0-.248 0-.248-.185.186 0 .248.061.248.185zm-.434-19.405c0-.062-.062 0-.062 0h.062zm-.062 0c0 .062 0 .062-.062.062 0 0 0-.062.062-.062zm8.741-5.27c-.62.745-1.488 1.241-2.046 1.985-.062.061-.186.124-.31.061-.62 1.178-1.673 1.613-2.294 2.728-.619.31-.805.992-1.425 1.303.062 0 .186 0 .186.061-.31 0-.062.248-.372.248 0 .187.124.124.124.187-.124.123-.248.309-.434.371-.868 1.551-2.232 2.542-2.976 4.216-.93.806-1.116 2.356-1.984 3.162-.558 1.364-.992 2.851-1.426 4.277-.062.311.124.372.062.62-.186.372-.372.744-.558 1.055 0 .247 0 .371.062.495-.186 0-.124.248-.186.311.248.929-.496 2.603.434 3.223.186.063 0-.309.248-.248.248 0 .248.248.372.372.186.063.062-.185.248-.185.434.743 1.24.681 2.046.991.62-.248 1.55-.248 2.108-.558 0-.557.992-.185 1.239-.681-.123.061-.185 0-.185-.124.247.061.371 0 .496 0 .248-.248.806-.745 1.364-.993 0 .062.062.062.062.124.371-.062.557-.372.867-.557 0-.063-.062-.124-.062-.248.062 0 .124-.063.124-.187 3.534-2.727 5.518-7.563 6.014-12.957.062-.124-.124-.124-.124-.248.124 0 .186-.062.186-.185-.124 0-.062.123-.186.123-.062-.371.248-.371.248-.682.062-.744-.186-1.24 0-1.798-.248-2.046-.248-5.269-1.24-7.067-.31.185-.434.433-.62.681-.124 0-.31.187-.062.124zm-14.507-9.237c0-.061-.062 0-.062 0h.062zm21.947.992c.248-.558.93-.744 1.364-1.177.062 0 .124.061.124.124.496-.311.992-.62 1.426-.993 0 0-.062-.062-.124-.062.062-.124.31-.372.434-.248.495-.93 1.798-1.363 2.108-2.232.123 0 .247-.062.371-.124 0-.62.869-.868.993-1.549.372.061.558-.124.558-.435h.433c.124.62-.124 2.046-.743 2.046.124.559-.559.683-.621 1.179.124.061.373-.248.435-.496-.124 1.053-1.241 1.301-1.612 2.231.371-.31.805-.744 1.301-1.116.187.248-.31.31-.124.558-.682.372-.868.869-1.549 1.178-.993 1.302-2.356 2.232-3.72 3.162-.124 0-.062-.124-.124-.186-.124 0-.124.062-.248.062-.062.062.186.248-.062.372-.062 0-.124 0-.186-.062v-.124c-.062.062-.062.124 0 .124a1.149 1.149 0 0 1-.434.496h-.124c.062-.248-.186 0 0 0-.62.868-2.17 1.426-3.1 2.355-.062.248.186.124.248.187-.062 1.55 1.24 2.914 1.24 4.464.372 1.239.31 2.418.496 3.657-.434 2.108-.186 3.844-.992 5.704.124.806-.31 1.364-.31 2.17-.124.248-.31.496-.186.806-.124.062-.248.124-.31.248.248 1.116-.682 1.425-.806 2.603-.124.063-.124.187-.372.124.062.372-.186.372-.062.62-.186 0-.186.124-.31 0-.186.744-.248 1.365-1.054 1.798.124.063.186.187.248.248-.31.248-.434.559-.806.683.248.124-.062.248 0 .495-.124 0-.186.124-.372.062 0 .373-.248.806-.496.745 0 .185.124.124.062.309-.248 0-.248.124-.434.124.186.124-.124.187.062.248-.124.063-.186.248-.31.124.124.248-.31.372-.372.744-1.178.93-1.86 2.294-3.223 3.039-.807.061-1.055.681-1.798.805-.124.062-.124.124-.124.248-.31 0-.496.248-.869.31 0-.062-.062-.124-.124-.186-.309.248-.619.496-1.115.31-.186.062.062.124 0 .248-3.224.682-5.766-.186-7.998-1.674.062-.186-.31-.186-.124-.372-.682-.124-.682-.992-1.178-1.426.062-.185 0-.433-.372-.496-.248-.744 0-1.859-.062-2.542.186-.867.31-1.55.372-2.294.372-1.302 1.054-2.294 1.302-3.533.372-.063.372-.62.434-.807.806-.805.992-2.293 1.922-3.037-.062-.31.124-.31.124-.558.31.062.31-.248.558-.31.744-1.302 1.984-2.418 2.604-3.596.372-.124.682-.557.682-.868.434-.185.62-.557.93-.992 1.302-.991 1.735-2.107 3.162-2.976.124-.061.062-.372.248-.372.062.124.062 0 0 0 .619-.744 1.488-1.116 1.86-2.17.124-.124.186.063.31.063.185-.063-.124-.063-.062-.248.247.124.309 0 .309-.311.558 0 .744-.805 1.302-.991-.062-.31.311-.31.373-.683.433-.061.557-.433.805-.62-1.55-3.471-5.517-4.029-9.361-4.711-2.542-.248-5.146-1.426-5.89-3.967-.186-1.117.124-1.985.434-2.79 1.612-2.17 3.534-4.092 6.014-5.456.248-.186.62-.31.806-.558.496-.124.992-.248 1.364-.496.868 0 1.55-.186 2.417-.186.559.31 1.427.31 1.922.619 1.054-.185 1.798.745 2.294 1.426-.31 1.116-1.364 1.861-2.418 1.985a4.18 4.18 0 0 1-.681.433c-.186 0-.186-.124-.434-.124-.683.248-1.612.311-2.046.807-1.674.185-2.232 1.363-3.534 1.983-.558.93-1.426 1.488-1.55 2.79 1.612.62 3.534.806 5.332 1.178 2.975 1.054 5.765 2.232 7.687 4.278.124.124.062 0 .248 0 .124.186.248.434.434.496 1.054-.682 1.86-1.302 2.976-1.984.682-.248 1.054-.744 1.798-.93z"/>
        <path d="M123.295 31.154c.248 0 .557-.248.372-.496 0 .248-.187.185-.248.061-.063.124-.187.248-.124.435zm-.31.743c0 .062-.062.062-.124.062 0-.062.062 0 .124-.062zm-2.728-.372c-.186.062-.372.124-.434.248.124-.062.434-.062.434-.248.062 0 .062 0 .062-.062.31-.185.558-.185.744-.433-.248-.063-.62.185-.744.433-.062 0-.062.062-.062.062zm2.48-.31c0 .434-.496.372-.558.682-.248-.124-.434.31-.558.434-.248-.186-.187.31-.558.186 0 .124.062.248-.062.248-.062-.062-.124-.062-.186-.124-.062.186-.062.124 0 .31-.434.124-.682.434-.992.682-.062 0-.062.062-.062.062-.062 0-.124.062-.124.062-.372 0-.744.372-.682.558.186-.186.496-.31.682-.558.062 0 .124 0 .124-.062.062 0 .062 0 .062-.062 1.24-.682 2.294-1.426 3.286-2.355h.123v-.124c-.123 0-.123.061-.123.124-.186.061-.186-.063-.372-.063zm-3.968 3.1c-.186 0-.248.186-.31.248.124 0 .31-.062.31-.248zm-1.178.806c.062 0 .124 0 .124-.062-.062.062-.124 0-.124.062zm-5.766 4.092c-.248.062-.496.31-.248.434-.061-.248.311-.124.248-.434zm-.496 1.239c.062 0 .062.063 0 .063v-.063zm0 .063c0 .061 0 .061-.062.061 0 0 0-.061.062-.061zm-1.55.744c-.248-.062-.248.123-.309.247.185 0 .248-.124.309-.247zm-.743.495c0 .063-.124.187 0 .187 0-.063.124-.124 0-.187zm-1.612 20.77c.062 0 .124 0 .124-.063-.062.063-.124 0-.124.063zm-1.302.929c0-.062-.062 0-.062 0h.062zm-.186-17.235c0 .063-.062.063-.124.063 0-.063.062 0 .124-.063zm-2.914 19.033c-.124 0-.248 0-.248-.185.186 0 .248.061.248.185zm-.434-19.405c0-.062-.062 0-.062 0h.062zm-.062 0c0 .062 0 .062-.062.062 0 0 0-.062.062-.062zm8.741-5.27c-.62.745-1.488 1.241-2.045 1.985-.062.061-.186.124-.31.061-.62 1.178-1.674 1.613-2.294 2.728-.62.31-.806.992-1.426 1.303.062 0 .186 0 .186.061-.31 0-.062.248-.372.248 0 .187.124.124.124.187-.124.123-.248.309-.434.371-.868 1.551-2.232 2.542-2.976 4.216-.93.806-1.116 2.356-1.984 3.162-.558 1.364-.992 2.851-1.426 4.277-.062.311.124.372.062.62-.186.372-.372.744-.558 1.055 0 .247 0 .371.062.495-.186 0-.124.248-.186.311.248.929-.496 2.603.434 3.223.186.063 0-.309.248-.248.248 0 .248.248.372.372.186.063.062-.185.248-.185.434.743 1.24.681 2.046.991.62-.248 1.55-.248 2.108-.558 0-.557.992-.185 1.24-.681-.124.061-.186 0-.186-.124.248.061.372 0 .496 0 .248-.248.806-.745 1.364-.993 0 .062.062.062.062.124.372-.062.558-.372.868-.557 0-.063-.062-.124-.062-.248.062 0 .124-.063.124-.187 3.534-2.727 5.517-7.563 6.013-12.957.063-.124-.124-.124-.124-.248.124 0 .187-.062.187-.185-.124 0-.063.123-.187.123-.061-.371.248-.371.248-.682.063-.744-.185-1.24 0-1.798-.248-2.046-.248-5.269-1.24-7.067-.309.185-.433.433-.62.681-.123 0-.31.187-.062.124zM96.76 31.339c0-.061-.062 0-.062 0h.062zm21.947.992c.248-.558.93-.744 1.364-1.177.062 0 .124.061.124.124.496-.311.992-.62 1.426-.993 0 0-.063-.062-.124-.062.061-.124.31-.372.434-.248.496-.93 1.797-1.363 2.108-2.232.124 0 .248-.062.372-.124 0-.62.867-.868.991-1.549.372.061.559-.124.559-.435h.433c.124.62-.124 2.046-.744 2.046.124.559-.557.683-.619 1.179.123.061.371-.248.434-.496-.124 1.053-1.241 1.301-1.613 2.231.372-.31.807-.744 1.302-1.116.187.248-.309.31-.123.558-.682.372-.868.869-1.551 1.178-.991 1.302-2.355 2.232-3.719 3.162-.124 0-.062-.124-.124-.186-.124 0-.124.062-.248.062-.062.062.186.248-.062.372-.062 0-.124 0-.186-.062v-.124c-.062.062-.062.124 0 .124a1.149 1.149 0 0 1-.434.496h-.124c.062-.248-.186 0 0 0-.62.868-2.17 1.426-3.1 2.355-.062.248.186.124.248.187-.062 1.55 1.241 2.914 1.241 4.464.371 1.239.309 2.418.495 3.657-.434 2.108-.186 3.844-.992 5.704.124.806-.31 1.364-.31 2.17-.124.248-.31.496-.186.806-.124.062-.248.124-.31.248.248 1.116-.682 1.425-.806 2.603-.124.063-.124.187-.372.124.063.372-.185.372-.061.62-.187 0-.187.124-.311 0-.186.744-.248 1.365-1.054 1.798.124.063.187.187.248.248-.309.248-.433.559-.805.683.248.124-.063.248 0 .495-.124 0-.187.124-.372.062 0 .373-.248.806-.496.745 0 .185.124.124.061.309-.248 0-.248.124-.434.124.186.124-.124.187.062.248-.123.063-.186.248-.31.124.124.248-.309.372-.372.744-1.177.93-1.859 2.294-3.223 3.039-.806.061-1.054.681-1.798.805-.124.062-.124.124-.124.248-.31 0-.496.248-.868.31 0-.062-.062-.124-.124-.186-.31.248-.62.496-1.116.31-.186.062.062.124 0 .248-3.224.682-5.766-.186-7.998-1.674.062-.186-.31-.186-.124-.372-.682-.124-.682-.992-1.177-1.426.062-.185 0-.433-.372-.496-.249-.744 0-1.859-.062-2.542.186-.867.31-1.55.372-2.294.371-1.302 1.053-2.294 1.301-3.533.372-.063.372-.62.434-.807.806-.805.992-2.293 1.922-3.037-.062-.31.124-.31.124-.558.31.062.31-.248.558-.31.744-1.302 1.984-2.418 2.604-3.596.372-.124.682-.557.682-.868.434-.185.62-.557.93-.992 1.302-.991 1.736-2.107 3.162-2.976.124-.061.062-.372.248-.372.062.124.062 0 0 0 .62-.744 1.488-1.116 1.859-2.17.124-.124.187.063.311.063.185-.063-.124-.063-.063-.248.248.124.311 0 .311-.311.558 0 .744-.805 1.302-.991-.063-.31.309-.31.372-.683.433-.061.557-.433.805-.62-1.549-3.471-5.517-4.029-9.361-4.711-2.542-.248-5.145-1.426-5.89-3.967-.186-1.117.124-1.985.434-2.79 1.612-2.17 3.534-4.092 6.014-5.456.248-.186.62-.31.806-.558.496-.124.992-.248 1.364-.496.868 0 1.55-.186 2.418-.186.558.31 1.425.31 1.921.619 1.054-.185 1.798.745 2.294 1.426-.309 1.116-1.364 1.861-2.418 1.985a4.223 4.223 0 0 1-.681.433c-.186 0-.186-.124-.434-.124-.682.248-1.612.311-2.046.807-1.674.185-2.232 1.363-3.534 1.983-.558.93-1.426 1.488-1.55 2.79 1.612.62 3.534.806 5.332 1.178 2.976 1.054 5.765 2.232 7.688 4.278.123.124.061 0 .247 0 .124.186.248.434.434.496 1.054-.682 1.86-1.302 2.976-1.984.682-.248 1.054-.744 1.798-.93zM71.651 23.545v-.135h-.135v.135h.135M149.431 38.388c-.361.206-1.497.154-2.272.206-2.324.155-4.699.31-6.868.516-3.563.362-5.887.93-8.779 1.085-1.137.103-2.531.052-3.047-.516-.413-.465-1.136-3.461-.361-4.08.361-.259 1.187-.052 1.806 0 6.25.465 12.653-.827 18.075-1.343.671-.052 1.498-.155 2.117.207.207 1.29.362 3.46-.671 3.925M61.799 19.032c.901-.288 2.046-.287 2.978-.4.054-.007.102.002.155-.003.019-.007.038-.011.057-.019.556-1.65 1.18-3.386 1.801-5.104.233-.645.678-1.546.639-1.911-.01-1-1.82-1.645-2.937-1.936-.513.373-.722 1.078-.918 1.64-.728 2.205-1.392 4.66-2.174 7.158.134.191.258.388.399.575M172.41 52.913c-.164-.145-.334-.288-.504-.433-.489-.415-.993-.844-1.425-1.322l.17-.183.55.429 1.379 1.326-.17.183zm-15.838-12.782l-.023.028c-.028.036-.026.061-.017.125l.002.015-.002.016a168.482 168.482 0 0 0-.328 3.176c-.185 1.895-.375 3.857-.679 5.811-.192 1.064-.432 2.129-.664 3.159-.274 1.211-.557 2.464-.75 3.678l-.248-.033c.442-4.144 1.138-8.415 1.81-12.545.272-1.667.552-3.39.811-5.076l.248.032-.16 1.614zm38.906 20.597c.311-.704.458-1.271.289-2.081-.219-.787-.404-.894-.472-.903-.008-.002-.015-.001-.023-.001-.183.013-.447.447-.661.8-.053.088-.106.177-.16.263-.899 1.483-2.833 3.3-4.647 3.741-.712.168-1.458.038-2.179-.084-.371-.127-1.927-.612-2.63-.783l.753.703-.773-.387c-1.106-.552-2.413-1.592-3.565-2.51-.282-.223-.554-.441-.816-.644-1.459-1.135-2.977-2.21-4.447-3.251-.514-.364-1.03-.73-1.547-1.1-.167-.16-.605-.573-1.221-1.153a547.536 547.536 0 0 1-5.708-5.432l.164.184c.282.315.537.598.734.827l-.18.172c-2.187-2.082-4.025-4.334-5.871-6.65l-.085-.107.115-.075c3.363-2.204 6.709-5.156 9.42-8.312.394-.471.74-.971 1.075-1.455.446-.645.908-1.312 1.486-1.915.709-.791 1.392-1.649 2.053-2.477.664-.834 1.351-1.697 2.071-2.498.156-.183.325-.373.498-.568.578-.648 1.176-1.318 1.57-2.009.199-.348.35-.683.496-1.007.242-.538.471-1.046.893-1.589.887-1.192 1.665-2.392 2.417-3.554.383-.59.765-1.181 1.165-1.774 1.513-2.313 2.919-4.822 2.044-7.805l-.021-.159c-.463-1.333-1.993-3.838-3.376-3.99-.262-.019-.44.016-.544.111-.147.134-.154.4-.162.708-.004.173-.008.353-.038.533-.587 3.71-2.923 7.477-4.983 10.8-.323.52-.639 1.032-.942 1.529-1.441 2.284-3.085 4.372-4.674 6.392-1.094 1.388-2.225 2.826-3.28 4.314-2.337 3.076-4.967 6.03-8.528 9.58l-.259.258.046-.363c.135-1.029.422-2.059.699-3.055.325-1.167.662-2.375.742-3.564-.007-1.144.064-2.166.434-3.41l.863-3.293c.382-1.81.852-3.967 1.423-6.2.131-.607.315-1.25.492-1.871.248-.873.505-1.775.642-2.651.045-.369.031-.665.018-.951-.016-.362-.032-.703.08-1.128.149-.52.377-1.015.598-1.493.671-1.459 1.202-2.611-.689-3.588-.891-.521-2.419-.875-3.507-.504-.507.17-.863.482-1.056.923a.488.488 0 0 0 .118.156l.066.051-.363 1.327c-.397 1.123-.674 2.128-.827 2.996-1.131 4.057-1.979 8.168-2.8 12.144a696.97 696.97 0 0 1-.537 2.589c-.412 2.245-.881 4.523-1.334 6.727-.656 3.194-1.336 6.496-1.853 9.746a79.562 79.562 0 0 0-.161 1.813c-.123 1.544-.24 3.004-.611 4.528a77.012 77.012 0 0 0-1.323 8.086c-.051.399-.11.8-.169 1.204-.404 2.755-.822 5.603 1.265 7.765.555.645 2.198 2.267 3.257 2.084.309-.053.53-.264.678-.646.24-.562.221-1.35.204-2.112-.01-.415-.019-.808.015-1.142l.386-3.734c.326-2.962.662-6.026 1.198-9.155.235-1.112.296-2.22.355-3.293.052-.961.106-1.955.285-2.952l.053-.301 1.709 2.506c.333.125.566.339.674.617l.042.107-.105.05a.217.217 0 0 0-.114.119.309.309 0 0 0 .024.229c.399.991 1.157 1.877 1.89 2.733.201.234.397.463.579.687.1.114.384.458.775.93 1.074 1.295 3.746 4.519 4.513 5.275l-.025-.203 1.38 1.322-.068.089a.213.213 0 0 1-.146.084l-.011.002c-.105.007-.199-.06-.283-.128.232.857 3.291 3.68 3.676 3.916a26.248 26.248 0 0 1 2.695 2.16c.493.535.96.918 1.477 1.213.02.005.123.048.246.101.14.059.367.157.507.207l.059-.01c.113-.017.297.06.467.194l.612.478-.547-.196c.433.297 1.458.942 3.869 2.306l.14.079c1.427.575 2.839.654 4.182.235 3.769-1.169 6.065-5.145 7.645-8.477z"/>
    </g>
</svg>
