<svg xmlns="http://www.w3.org/2000/svg" width="120" height="42" viewBox="0 0 120 42">
    <g fill="#1A1919" fill-rule="evenodd">
        <path d="M37.06 16.418v-.077h-.075v.077h.075zm-1.248 6.175c0 .038-.038.038-.038 0h.038zm-.076-4.065h-.113c0 .038 0 .114.038.114 0-.076.113-.037.075-.114zm-.038-.653v.077h-.075v-.077h.075zm-.53 2.033c0 .077-.037.077-.075.116.038.038.076.077.076.153.113 0 .189-.23.113-.307v.076c-.038 0-.038-.038-.113-.038zm-1.172 2.723c0 .076-.038 0-.076 0 0-.038.076-.038.076 0zm-.416 1.496c.038 0 .075.039.075.115-.037 0-.075-.039-.075-.115zm-.038-.077v-.115c.038 0 .038.038.113.038 0 .077-.037.077-.113.077zm-6.393-8.207c.038.038.151 0 .189-.039.151 0 0-.153 0 0-.113 0-.151-.038-.19.04zm.113 4.64c-.075 0-.151 0-.151.077.076.039.151.077.151-.077zm-.264.959c0 .039-.038.039-.076.039 0-.04.038-.04.076-.04zm-.19.346c.038 0 .076 0 .076-.039-.038 0-.076 0-.076.039zm.19-.537c-.038.114-.152.19-.19.306.152.269.417-.23.19-.306zm-.114.767h-.19v.191c.152.039.114-.115.19-.191zm-.19-.73h.038c-.038-.114.114-.19 0-.268 0 .077-.076.154-.038.269-.075.038 0 .038 0 0zm-.038 2.839c.038 0 .038.039 0 .039v-.04zm0-7.172c.152 0 .19-.076.266-.154-.038-.038-.152-.038-.19 0-.038-.038-.038 0 0 0-.038.078-.076.115-.076.154zm0 7.21v.077c-.037 0-.037-.039-.037-.076h.037zm0 .307h-.037c-.038-.115.075-.115.037-.23.114.038 0 .154 0 .23zm-.037 0c0 .038 0 .038-.038.038 0-.038 0-.038.038-.038zm.075-1.726c0-.076-.038-.076-.113-.076v.076h.113zm.038-4.87c0 .153-.265.191-.19.306.114-.038.304-.153.19-.307zm-.303 4.218c0 .039-.075.077 0 .115 0-.038.076-.076 0-.115zm.114.806c0 .077-.15 0-.15.114.036 0 .263-.037.15-.114zm-.114 2.455c-.112-.04-.075-.116-.037-.23.075.076.075.153.037.23zm0-1.918c0-.115.19-.154.114-.269-.114 0-.114.077-.226.077 0 .077.037.153.112.192zm-.112-1.036c.037 0 .075 0 .075-.038-.038 0-.075 0-.075.038zm.037 1.419c0-.038 0-.076-.075-.076 0 .038 0 .115.038.115 0-.04 0-.04.037-.04zm-.037-.997v-.077h-.076v.077h.076zm-.076-3.298c.113 0-.038-.154 0 0-.151 0 0 .153 0 0zm-.076 6.673v-.076c.038 0 .038 0 .038-.04.076 0 .038.192-.038.116zm.076-3.184c-.076 0-.114.04-.114.116.114.038.076-.077.114-.116zm0 3.26c-.038.077-.038.193-.076.27-.075-.04 0-.231-.075-.27.075-.076.037 0 .15 0zm-.19-1.802c-.113-.076-.113.115-.037.115 0-.038 0-.077.038-.115zm.039.307c0-.038 0-.115-.038-.115 0 .077-.19-.038-.114.115h.152zm-.19 2.032c0 .04-.037.04-.037 0h.037zm-.075-2.032c0 .077-.038.077-.038.154.113.076.113-.154.038-.154zm.151-4.296c-.113.039-.113.154-.19.23.152-.076.039.116.114.116.038-.077.038-.23.076-.346h.038c-.038-.115.076-.115.038-.23.113 0-.038-.152 0 0-.152.039-.076.115-.076.23zm-.19 18.064h-.037c0-.038.038-.038.038 0zm.039-13.423c-.038.038-.152.23-.038.307 0-.076.113-.269.038-.307zm-.152 3.605c.038-.498.19-.844.227-1.304h.038c.114.384-.151.959-.265 1.304zm.152-2.8c0 .116-.114 0-.152 0 0-.076.114 0 .152 0zm-.19-.307c-.075.116.152.116.114 0 .038-.037 0-.037 0 0h-.113zm-.075.614c-.038-.114.113-.038.113-.153-.037 0-.037-.038-.037-.077.113.077.302.039.302-.114-.151-.154-.302-.116-.416 0l.114.114c-.076.039-.19.23-.076.23zm-.038 3.683c-.038.038-.038.076-.038.114-.038-.038-.075-.076-.075-.153.075 0 .075.039.113.039zm-.113-1.956c.037 0 .075 0 .075-.04-.038 0-.075 0-.075.04zm.15-1.573v-.077c0-.039 0-.039-.037-.039 0 .077-.113.039-.113.077.037 0 .075.04.15.04zm-.113-5.83c-.075 0-.151 0-.151.077.076.038.151.077.151-.077zm-.302 1.534c-.038.115.151.154.189.077-.076 0-.076-.115-.19-.077zm.113 9.282c0 .076-.075.038-.151.038 0-.077.113-.077.151-.038zm-.075-9.858c0 .04-.038.04-.076.04 0-.04.038-.04.076-.04zm-.076 8.784c-.038 0-.038 0-.038-.039.038 0 .038 0 .038.039zm.038-.729c-.076 0-.114.039-.114.077.076 0 .114-.038.114-.077zm0 2.34c-.038 0-.038.038-.114.038.114-.077-.151-.23.076-.23-.038.115.038.115.038.192zm-.152-10.049c.038 0 .076 0 .076-.038-.038 0-.076 0-.076.038zm.19-.537c-.038.115-.152.191-.19.307.152.269.417-.23.19-.307zm-.114.767h-.19v.192c.152.039.114-.115.19-.192zm-.19.73c0-.078-.037-.078-.113-.078v.077h.114zm-.188 1.955c.038-.038 0-.038 0 0-.114 0 .038.154 0 0zm.038 8.591h-.076c0-.038 0-.038-.038-.038 0-.077.19-.039.114.038zm0-10.393c0 .076-.152 0-.152.114.038 0 .265-.038.152-.114zm-.19 11.007c.038-.04 0-.04 0 0-.075.038 0 .038 0 0zm.076-10.47c0-.116.19-.154.114-.269-.114 0-.114.077-.227.077 0 .076.037.153.113.192zm-.076.382c0-.037 0-.076-.075-.076 0 .039 0 .115.038.115 0-.039 0-.039.037-.039zm-.151 10.202c.038 0 .114 0 .114-.037-.038 0-.114 0-.114.037zm0-32.56c0-.039.076-.077.076-.116.075 0 0 .154-.076.115zm.076 29.34c0 .076-.114.037-.076.152.076.039.151-.115.076-.153zm-.152 4.295c0 .077 0 .153.076.114 0-.076-.038-.114-.076-.114zm.795-12.235c.113-.038-.038.23 0 .269-.076.038-.19-.039-.19.038.114.038-.037.115-.037.153.113.039.189-.115.227 0-.076.077-.416.116-.303.23 0-.038.114-.038.114 0-.038.154-.416.116-.303.23 0-.076.114 0 .19-.038-.039.153.075-.038.075.076 0 .154-.227.04-.265.154.038 0 .038.077.038.116-.038-.04-.114-.077-.114 0 .038.037.114.076.114 0 .076 0 .076-.04.113-.04 0 .04.076.04.076.077-.038 0-.038 0-.038.04-.151 0-.189.076-.34.037.075.153-.227.153-.076.23 0-.038.19-.114.227-.038-.038 0-.113 0-.113.038.037 0 .037.04.037.077-.037-.038-.075-.038-.151-.038 0 .077-.151.192-.038.23.038-.192.227-.192.379-.153.075-.116.15-.23.075-.384.038 0 .038 0 .038-.039h.038c.416-.996.643-2.185.984-3.26h-.152c.076.23-.227.193 0 .346-.151 0-.302-.038-.265.153.114.039.114-.077.227-.038-.113.192-.189.422-.454.499.038.115.152-.039.265-.039-.075.192 0 .384-.189.46.076.307-.113.346-.19.614-.15-.038 0 .115 0 0zm-.795 11.544c-.037.077-.113.115 0 .154-.037-.077.114-.115 0-.154zm-.037-.038c.113.038.075-.269.037-.307 0 .077-.113.038-.075.154.151 0 0 .038.038.153zm-.038-3.298c-.038.115-.076.345.113.23-.113-.077.114-.269-.113-.23zm.038-6.29c0-.038 0-.115-.038-.115 0 .077-.19-.038-.114.115h.152zm-.152 1.955c0 .04 0 .077-.038.077 0-.038 0-.077.038-.077zm0 4.756c0-.038.038-.038.038-.076-.038 0-.076 0-.113-.039v.115h.075zm-.038-4.679c0 .04-.037.04-.037 0h.037zm.152-25.044c-.076-.039-.114 0-.19-.077.038-.039.076-.076.19-.076v.153zm-.227 23.357c-.038.038-.152.23-.038.307 0-.077.113-.27.038-.307zm0 .805c0 .116-.114 0-.152 0 0-.077.114 0 .152 0zm-.19-.307c-.075.116.152.116.114 0 .038-.038 0-.038 0 0h-.113zm.228 7.594c-.227.269.037.69-.227.96 0 .076.037.076.075.114l-.113.115c.075.154.038.307.038.46.454-.23.227-1.304.227-1.84 0 .076-.038.076-.114.076-.076.154.114.039.114.115zm-.34-7.057c.075 0 .15 0 .15-.077-.037 0-.037-.037-.037-.076.113.076.302.039.302-.115-.151-.153-.302-.115-.416 0l.114.115c-.114-.038-.038.115-.114.153zm-.039 6.213c.038 0 .114 0 .114-.038-.038 0-.114 0-.114.038zm.076-4.026c-.038 0-.076 0-.076-.039.038 0 .076 0 .076.039zm-.038-.883c.038.115-.113.077-.076.192.076 0 .19-.153.076-.192zm-.113 6.29c0 .154.264.154.264 0h-.264zm0-5.79c.037 0 .075 0 .075-.04-.038 0-.075 0-.075.04zm.037-.5c-.113 0-.113.077-.113.154.113.038.038-.115.113-.154zm-.113-.882c.038 0 .076 0 .076-.038-.038 0-.076 0-.076.038zm.113.69c-.113 0-.264-.037-.264.077.113.077.189 0 .264-.077zm-.264 1.65h-.038c0-.039.038-.039.038 0zm-.076 1.342v.038c-.038 0-.038-.038 0-.038zm-.038-.46c.038 0 .076 0 .076-.038-.038 0-.076 0-.076.038zm.114 3.528c-.076-.038-.19.116-.076.116 0-.039.076-.077.076-.116zm.037-3.298c.038-.115-.113-.077-.189-.077.038.154.114 0 .19.077zm-.189-.384c.076 0 .114-.037.114-.076.151 0 0-.154 0 0-.076 0-.114.039-.114.076zm.114-3.068c0-.038 0-.077.038-.114-.114 0-.34.076-.19.19-.037-.114.076-.076.152-.076zm-.34 3.644c.037-.039.075-.192 0-.192 0 .077-.039.077-.076.115.037 0 .037.077.075.077zm.15-1.036v-.192c-.113.039-.075.039-.189 0 0 .077 0 .115-.037.154.113-.039.113 0 .227.038zm1.098-2.915c0 .193-.152.193-.227.27.075 0 .189-.04.151.076h-.265c.038.114-.113.038-.075.153.15.038.113-.115.227-.115v.153c-.038 0-.038.077-.076.077-.114.039-.151-.038-.227-.077 0 .116-.19.04-.227.154.151.039 0 .115-.038.192-.076.038 0 .038 0 0 .114-.039.114.077.19.077.037-.04 0-.154.113-.116v.23c.189.038.038-.307.189-.307 0 .27-.076.537-.265.845h.076c-.114.114.075.037.038.19-.076 0-.152 0-.152.04.038.038.114.038.114.077-.038.076-.19 0-.19.076.038 0 .076 0 .076.038h-.075c0 .077-.038.077-.114.077-.038.192-.076.115-.151.307.113.038.189-.115.265 0-.038.115-.19.076-.34.038 0 .115.075.077 0 .153.037 0 .037.039.075.039-.038.076-.038.115.075.115.038-.039.076-.192.227-.23.038.268-.189.383-.15.537-.114.076-.152-.039-.228.038.038.077.227 0 .265.077-.114.191-.076.307-.19.46-.037-.038-.075-.038-.113.038 0 .039-.189.115-.075.154.037-.077.264-.039.227.076-.076 0-.076.077-.19.039v.153c.076 0 .114-.038.114-.077.151.116-.038.192-.076.307-.151 0-.189-.038-.265.039 0 .115.076.153.114.191.076-.038.19-.115.265-.153-.038.077-.038.153-.076.192-.038-.039-.265 0-.34.038.037.115.302 0 .302.038 0 .116-.113.116-.075.269-.152 0-.076.038-.038.077-.038.076-.227-.039-.19.115.152-.039.19 0 .379 0 .113-.115.151-.384.076-.614.227-.115.302-.614.227-.92h.075c.152-1.19.34-2.187.681-3.26-.038-.077 0-.27-.075-.346.227-.306.34-.92.302-1.303 0 .23-.189.153-.113.344-.076 0-.114-.037-.152-.076 0 .076.038.076.038.153-.151 0-.227.077-.302.153.189-.037.264-.153.416-.076-.038.192-.227.192-.379.269.152-.04.152.153.227.153-.037.115.038.23-.037.383h-.038zM22.912 40.85c-.038.115.113.038.15.115.039-.038.077-.191-.037-.154 0 .04 0 .077-.038.077s-.038-.038-.075-.038zm-.076-7.67h-.038c0-.039.038-.039.038 0zm0 7.594c0-.04.038-.04.038-.077-.038 0-.038-.039-.114-.039v.116h.076zM22.76 29.65c.038 0 .152-.077.152 0 0 .039-.076.039-.076.076.076.04.19-.076.19 0 0 .077-.039.077-.039.116-.038 0-.038 0-.038.038-.037.077-.113.115-.113.23.076-.038.151 0 .19-.077-.039-.038-.077-.076-.077-.153.038 0 .038 0 .038-.038.038.038.076.038.114.038-.038-.115-.038-.191.038-.268-.038-.039-.492-.077-.379.038-.075.039 0 .039 0 0zm.152.767c-.076-.039-.076 0-.19-.039.038.077.076.192.152.23 0-.076.075-.076.038-.191zm-.19-1.036h.152c-.038-.038.038-.192-.038-.192v.077c0 .077-.114.038-.114.115zm0 4.68c.038-.04 0-.04 0 0-.075.037 0 .037 0 0zm0-1.535c.038-.038 0-.038 0 0-.075.039 0 .039 0 0zm.038-1.074c0-.076 0-.153.038-.191-.076 0-.113.038-.151.076.075 0 .038.115.113.115zm-.038-1.38v-.077h-.075v.077h.075zm0-1.649v-.077h-.075v.077h.075zm.114-.5h-.19c-.037.154.114.116.19.154v-.153zm-.227 4.22c.038 0 .076.076.076 0 0-.039-.076-.039-.076 0zm-.038 2.032c.038 0 .114 0 .114-.038-.038 0-.114 0-.114.038zm.151-.307c0-.077.038-.114.114-.153 0 .039.038.039.076.039.037-.116-.114-.077-.076-.192-.265-.038-.265.23-.265.306 0-.114.076.04.151 0zm-.037-3.643c-.076 0-.038-.115-.076-.115-.038.077-.114.153 0 .23 0-.077.038-.077.076-.115zm-.152.345c.038-.038.114-.038.114-.076-.038 0-.038 0-.038-.039h-.076v.115c-.075.039 0 .039 0 0zm.038-1.38c.076 0 .076-.27 0-.27 0 .04-.076.04-.113.04.037.153 0 .191.113.23zm-.076 5.37c-.037.076-.113.114 0 .153-.037-.077.114-.116 0-.154zm-.037-.04c.113.04.075-.268.037-.306 0 .077-.113.038-.075.153.151 0 0 .039.038.154zm.075-3.336c0-.115.19-.077.152-.23-.152 0-.265.038-.303.115.076 0 .038.153.151.115zm.53.767c.038 0 .113 0 .113.038-.037 0-.075.039-.075.115-.227-.038-.152.23-.303.268-.038-.037-.076-.037-.076.04 0 .076.19.037.227 0 0 .076-.037.076-.037.114-.076.039 0 .039 0 0 .037.039.113.039.113.076-.151.04-.265.116-.416.116 0 .115.113.077.076.23-.076-.076-.114 0-.19 0-.075-.076-.037-.192-.113-.268a.6.6 0 0 0-.076.307c.114 0 .19 0 .114.076.151-.038.151-.076.265 0 0-.076.113-.268.189-.153 0 .115-.19.038-.152.192 0 .038.038.076.076.076l-.113.23c.037 0 .15.154.189.039-.19-.077.227-.077.227-.23-.038-.077 0-.115-.076-.23.114 0 .076.076.151 0 0-.077 0-.192-.037-.23-.076 0-.19.038-.19-.039.303 0 .454-.499.227-.69.114-.039.038-.115 0-.192.038 0 .076-.038.114-.038-.076-.115-.038-.115.038-.23-.265 0-.492.038-.53.268.114.038.114 0 .265 0 .038.038 0 .077 0 .115-.114-.115-.076.153 0 0zm-.719-.384c.076 0 .151-.191.076-.23-.038.077-.114.115-.076.23-.151-.038 0 .116 0 0zm.038 1.88c-.076 0-.151 0-.151.038.075 0 .037.269.113.115-.113-.038.038-.115.038-.153zm0-3.95c-.151-.04 0 .115 0 0h.038c0 .115-.152.076-.19.192.303.114.417-.308.265-.423-.037.038-.037.115-.113.154.076-.039.076.076.038.076 0-.038-.038-.038-.038 0zm-.19 4.832c.076 0 .114 0 .114-.077.114.115.076-.115 0 0-.075 0-.113.039-.113.077zm.152-2.608c-.076 0-.113.038-.151.077.038.038.151.038.151-.077zm0 9.205c-.076-.077-.19-.116-.19-.23.039.038.077.038.152 0-.038.114.038.153.038.23zm-.076-.346c0 .077-.075.039-.113 0 0-.076.076-.038.113 0zm-.15-11.39c.037 0 .075.076.075 0 0-.039-.076-.039-.076 0zm.075 4.908c.075.154-.114.04-.114.116.114 0 .227 0 .265-.077-.038 0-.113 0-.113-.039.075-.114 0-.114.075-.23-.075 0-.113-.038-.151-.038-.076.154.038.154.076.268h-.038zm0 .73h-.114c0 .115-.075.152.038.191 0-.076.076-.115.076-.191zm-.038.422v-.116h-.114v.116h.114zm.076-.5c-.038-.19.075-.19 0-.306 0 .153-.152.192-.19.307.076 0 .114-.077.19 0zm-.265 5.83c.075.039.075.039.075-.076.076 0 .038.115.114.076.038.116-.265.116-.19 0zm-.038-8.208h-.038c0-.037.038-.037.038 0zm-.038 8.132c-.113 0 0-.116 0-.154.076 0 0 .115 0 .154zm.076-5.485c0-.039 0-.115-.038-.115 0 .076-.19-.038-.114.115h.152zm-.152-4.334c-.037-.038-.037 0 0 0 0 .039.038.039.038 0 .114 0-.038-.153 0 0h-.038zm.038 9.435c-.038.077-.075.115-.075.153-.114-.038-.114-.268-.076-.306.038 0 .038.038.076.038 0 .077 0 .153.075.115zm.454-10.24c.038.115-.113.039-.113.153.151.115.113.46-.114.499.076.115.038.115.076.268-.038-.038-.076-.038-.114.039.152 0-.037.115.076.153l-.227.115c.076 0 .114.039.151.077-.075 0-.113.038-.113.077.076.038.113-.115.151 0-.075.038-.302.115-.189.191 0-.076.151 0 .151.039-.075.038-.15.038-.189.076.076.077.114-.038.19.077 0 .077-.265.077-.152.115.114 0-.076.115.076.23-.152.039-.19.346-.076.383v.116c-.076 0-.151 0-.151.077.151.191-.038.191-.038.383h.076c0 .039-.114 0-.114.077.038 0 .076.038.076.115-.152 0-.038.077-.038.153-.038 0-.114 0-.114.039.038.038.038.153 0 .268h.152c0 .038-.038.038-.038.077-.151 0 0 .153 0 0 .151.038.113-.192.038-.23.075 0 .113-.077.189-.077-.076-.153.038-.23-.076-.345.038-.038.152 0 .152-.077-.038-.729.378-2.11.454-2.991-.038 0-.076-.038-.076-.077.19-.038-.038-.191-.114-.077.076 0 .114 0 .114.077h-.076zm-.832 3.874c0 .076 0 .114-.038.153.114.077.114-.153.038-.153zm-.038-1.726c.038 0 .114 0 .114-.039-.038 0-.114 0-.114.039zm.151 2.493c-.037 0-.113 0-.113.038.076 0-.151.115.038.154.038-.039.038-.154.075-.192zm-.075-.23c0 .076-.076.115-.114.153.038 0 .19.038.19-.038-.076-.039.037-.077.113-.039 0-.153.113-.153.076-.345-.076 0-.076.076-.19.039 0 .114.076.114.076.23h-.151c-.038-.039-.038 0 0 0zm-.265-.96c.038 0 .113 0 .113-.038-.037 0-.113 0-.113.039zm.038-.191c-.114 0 0-.153.075-.115 0 .038-.075.077-.075.115zm-.076 2.3c.114 0-.038-.153 0 0-.076.04 0 .04 0 0zm.038-.23c0-.037 0-.076-.076-.076 0 .039 0 .116.038.116 0-.04 0-.04.038-.04zm-.076-.613c0 .039-.075.077 0 .116 0-.039.076-.077 0-.116zm-.075-.383v-.077h.075c0 .038 0 .077-.075.077zm.075 1.42c0 .114-.113.076-.075.23.15.076.15-.193.075-.23zm-4.615-23.358c0-.038 0-.077.038-.077 0 .039 0 .077-.038.077zm0 .154c-.151 0 0-.039-.038-.154h.038v.154zm-.189.268c-.076-.038-.038-.23.076-.192-.038.039-.038.154-.076.192zm-5.334-1.726c-.114 0-.303-.038-.303.077.113 0 .227 0 .303-.077zm-.984.269c-.076 0-.114.038-.151.076.075 0 .151 0 .151-.076zm-2.535 2.531c-.038 0-.038-.077-.075-.077 0-.038.037-.038.075-.038v.115zm-.756 1.725h-.113c-.038.077-.152.23-.038.307 0-.191.113-.114.151-.307zm-1.248 2.11c0 .038 0 .038-.038.038 0-.038 0-.038.038-.038zm-.114.575c0 .077-.113.039-.076.115.076.039.152-.115.076-.115zm-.076.23h-.113c.076.116-.038.154.038.193 0-.077.075-.077.075-.193zm-.264.537c0 .039-.076.077 0 .115 0-.038.075-.076 0-.115zm21.828 3.912c-.076.077.038.116.038.269h-.152c-.038.038 0 .153-.076.192.114.038.114-.039.19-.039-.038.154-.265.115-.303.23 0 .077.113-.038.151.039-.076.115-.265.115-.34.192.075 0 .302.038.302.076 0 .115-.189.076-.265.115 0 .038.038.077.038.154-.038 0-.075-.04-.113-.04 0 .04.113.117.113.04.038 0 .076 0 .114-.04 0 .04.075.04.075.078-.037 0-.037 0-.037.039-.152-.04-.152.076-.302.037-.038.077-.076.154-.152.193.038.076.152-.077.302-.04 0 .04-.075.04-.113.04-.075 0 0 .037 0 .114-.037 0-.075-.038-.113-.038-.076.038-.114.115-.114.23.076-.192.302-.153.454-.192.038.116-.038.154-.076.193h-.038c.114.038-.038.498-.038.268-.112 0-.037.345-.188.191 0 .077.038.077.038.154-.076 0-.114-.038-.152-.077 0 .077.038.077.038.153-.151 0-.227.077-.302.154.189-.038.189-.115.416-.115-.038.191-.152.268-.379.268.076.04.19.116.19.154.037.076.037.269 0 .421-.076.116-.114.23-.265.23 0 .116.227-.037.151.116-.19-.039-.303 0-.34.115.113.153.113-.077.227-.077v.153c-.038 0-.076.04-.076.077-.151.04-.227-.153-.265 0-.113-.114.038-.268 0-.46-.151.269-.038.537-.227.73-.076.037 0 .037 0 0 .19 0-.038.153-.113.153.075.037-.038.23.113.19-.113.078-.076.27-.038.384-.038 0-.038.039-.038.078.038 0 .038-.04.038-.078.076-.038.114-.153.152-.268.113.115.15-.038.189-.115-.076-.077-.076 0-.114.077-.038-.077-.038-.422.114-.46v.23c.113 0 .113-.154.113-.307.152.153.038.575-.189.805 0 .038.038.038.076.038-.076.078 0 .039.038.115.037.116-.076.077-.152.077 0 .04.038.077.114.077 0 .077-.114.077-.19.077.038.039.076.076.152.076-.114.04-.265.23-.378.193.037.114 0 .114-.038.19.113.04.151-.037.265-.037 0 .191-.19.076-.341.076.038.115-.038.154.076.192 0 .038 0 .115.038.115.113 0 .075-.192.264-.23.076.268-.227.345-.113.498-.076.077-.151.039-.265.039 0 .115.151.077.265.077-.114.192-.076.306-.114.613-.075-.038-.113-.038-.151 0 .038.039.076.077.151.077 0 .115-.151.038-.151.153-.19 0 .038.23.038.039.189.115-.076.115-.038.307-.19 0-.227-.077-.303.038-.037.115.114.077.076.192a.608.608 0 0 0 .265-.154c.113.039-.038.115 0 .192-.114-.038-.19.038-.378 0 0 .115.227.115.264.038 0 .115-.037.307-.151.307.151.115-.038.077-.113.154.113.038.264.076.378.038 0 .038.038.038.076.038-.19.077-.53.039-.568.269.038.115.265 0 .303.077 0 .038-.038.038-.038.076-.114-.115-.076.154 0 0h.113c0 .077-.113.039-.075.154-.265-.039-.19.344-.379.268-.075.115.19.115.19.039.075 0 .037.076 0 .114h-.038c0 .039.038.039.038 0 .037.039.075.039.113.077-.113.039-.265.115-.416.115.113.115.076.23 0 .346.151 0 .076-.23.265-.192.038.153-.152.077-.152.192 0 .076.038.115.076.115-.038.076-.038.153-.113.191 0 .154.227.039.189.23-.152-.191-.303.154-.34.23.037.077.075-.038.113.038.113 0 .075-.114.151-.153.151.077-.038.116.076.27 0 .114-.303.23-.076.306-.227.23.076.499-.113.729.075.421-.227.92-.038 1.226-.038 0-.038.04-.114.04.076.153.038.42.114.574-.152.499-.076.691-.227 1.228.075 0 .075-.039.113-.077-.038.537.038.882.152 1.42.454-.23.983-.385 1.248-.807 0 .039.038.039.038 0 .189-.191.454-.345.567-.652.151.193.454-.153.265-.267.037-.308.492-.154.492-.5.038 0 .038.039.038.078.227-.154.378-.384.454-.653.718-.613.983-1.687 1.588-2.416 0-.039-.038-.039-.038-.115.19.076.227-.307.379-.422 0-.038-.038-.076-.076-.076.227-.69.719-1.19.984-2.033.151.038.151-.192.113-.345.152-.039.152-.154.227-.384.038 0 .038.038.038.077.114-.039-.038-.115 0-.23.19-.077.151-.384.416-.384-.113-.306.34-.69.303-1.227.038 0 .038.038.038.076.113-.23.302-.613.227-.92.075 0 .113 0 .151-.038 0-.192.151-.23.114-.46.378-.538.416-1.497.794-1.918-.19-.077.076-.269.151-.422.076-.154 0-.154.038-.307s.19-.23.19-.422c.037 0 .075.039.113.039.038-.116-.114-.077-.076-.193.114-.19.227-.344.454-.383 0-.038 0-.077-.076-.077 0-.038.076-.038.114-.038.038-.039.113-.191.038-.268-.076.077-.038.268-.227.23.075-.23.151-.268.151-.499.114.039.076 0 .227 0-.113-.153 0-.076.076-.23-.038-.154-.152.115-.152 0v-.154c.038-.037.076-.037.152 0-.076-.114.113-.19 0-.383.189-.306.265-.767.492-1.113-.152.154.113.078.075.231.038 0 0-.115.076-.115-.151 0-.076-.192-.114-.116h-.037c0-.19.113-.306.113-.498.151 0 0 .116 0 .154.151 0 .076-.154.151-.23 0-.039-.075 0-.075.038-.038-.23.227-.537.227-.881.038 0 .038.037.113.037-.075-.114.152-.345.038-.383.038-.077.19-.039.19-.154 0-.076-.114-.038-.076-.115h.113c-.076-.422.34-.958.265-1.38.038 0 .038.076.038.115.113-.039.038-.116.038-.192.151-.23.49-.652.302-.882.151-.307.454-.46.568-.844.151 0 .227.077.378.038.076-.077.19-.114.114-.23.075 0 .075.039.075.116.302-.193 1.21.19.795.613.189.115.075.613-.076.613-.038.116.038.154.038.23-.114.039-.114-.076-.19 0 0 .116.228-.038.152.116-.152 0-.038.191-.19.076.038.154.038.307-.151.307 0 .115 0 .192.076.192-.114.077-.265.23-.152.422-.15 0-.264 0-.302.115 0 .077.038 0 .114 0 0 .383-.454.537-.34.882-.303.269-.19.537-.228.767-.075-.153-.113 0-.189.077 0 .038.076.038.076.077 0 .268-.417.728-.303.843 0 .154-.114 0-.151 0-.038.154.189.039.151.192-.151-.038-.189.154-.151.307-.114.115-.152-.192-.076-.268-.227-.039 0 .191-.151.153.113.23 0 .307.038.69-.038 0-.038-.038-.076-.038v-.077c-.038 0-.038.038-.038.077-.038.191-.151.537-.076.652-.15.077-.113.307-.264.269.189.076-.076.153.037.268h-.113c.076.268-.114.191-.038.421-.038 0-.038-.037-.113-.037-.038.114.113.076.075.19-.075.04 0 .04 0 0 0 .116 0 .308-.227.347-.075 0 .038.115.076.115-.038.076-.076.23-.227.191.151.039.038.153.151.192-.113 0-.075.154-.189.154.038.037.114.076.076.19-.114-.114-.227.04-.152.154h-.113c.113.384-.19.652-.076.882 0 .116-.075.154-.151.154.076.076.038.153.076.192 0 .038-.076.038-.114.038.151.346-.34.69-.227.844.114.038-.038.115-.113.076 0 .115.075.346-.152.308 0 .114.152.038.114.153-.076 0-.114.038-.038.077 0 .077-.076.038-.151.038 0 .076.113.039.075.115-.34 0-.189.345-.151.422-.038.115-.076 0-.151.076-.038 1.266-.795 1.956-.984 2.954-.265.268-.303.767-.605 1.074-.038.115.038.115.038.191-.19.115-.265.23-.265.46-.19.077-.227.269-.265.5-.19-.078-.038.153-.19.114-.037.346-.302.844-.605 1.113 0 .037.038.037.038.114-.113 0-.151.116-.227.116.076.114.038.114.076.307-.076 0-.076.076-.19.038 0 .038.039.038.076.038-.037.115-.151.192-.113.383-.605.614-.757 1.496-1.4 2.033 0 .077.114.038.076.115-.378.115-.227.46-.605.537 0 .04.076.04.113.04-.113.19-.416.267-.34.497-.228.077-.341.46-.53.422.075.384-.491.46-.34.653-.114.076-.303.153-.303.344-.53.23-.832.69-1.437.806-.492-.039-1.098.191-1.552 0 .038 0 .076 0 .076-.039-.038-.038-.076-.038-.076.039-.34-.115-.643-.269-1.059-.422 0-.039 0-.077.038-.115-.265-.039-.378-.23-.568-.345.038-.077.152.076.265.076-.075-.19-.34-.23-.454-.421.038-.039.038-.077-.038-.116-.113-.23-.34-.383-.491-.575 0-.038-.038-.077-.038-.115-.038.077-.152-.038-.152.038-.15-.076.076-.19-.037-.383.037-.038.075-.038.15 0-.037-.115-.113-.191 0-.307-.075-.077-.113.153-.264.116-.038-.116.151-.077.151-.154 0-.039-.037-.039-.037-.116-.076 0-.038.116-.076.154-.151-.115.076-.269-.151-.307 0-.192-.076-.307-.227-.46-.152-.69-.152-1.534-.152-2.186.076-.039.076-.153.114-.268-.114-.039-.076.076-.076.152-.038-.114-.113-.037-.113-.152 0-.115.113-.039.189-.154-.227-.039.038-.422-.152-.576 0-.076.038-.076.114-.076-.076-.192.19-.537-.038-.614.076-.076.114-.076.227-.038.038-.115.038-.307.19-.307 0-.154-.076 0-.152-.038.038-.116.076-.423-.114-.307-.037-.039.038-.192-.037-.192 0-.077.15 0 .227-.038 0-.039-.038-.039-.038-.077h.038c0-.038-.038-.038-.038 0-.076-.038-.152.115-.152 0 0-.076.038-.076.114-.076 0-.039-.076-.039-.151-.039 0-.077.15 0 .189-.077-.19-.153.189-.268.151-.498-.113-.038-.113.077-.227.038 0-.076.114-.038.076-.115h.151c0 .039.038.039.076.039s.038-.077.038-.116c-.038-.115-.076.077-.114.077 0-.115.076-.153.038-.307-.076.076-.038.269-.227.23.076 0 .151-.268 0-.268.151-.192 0-.537.227-.575 0-.115-.114-.077-.076-.23.038 0 .038.076.076.115.038-.039 0-.23.151-.154.038-.115-.075-.077-.113-.115-.076 0-.038.115-.114.077.038-.039.038-.154.114-.154.075.115.189-.076.151-.191-.151-.039 0 .23-.151.191.038-.115 0-.268.189-.23-.038-.038-.227-.153-.038-.153 0-.077-.076-.077-.151-.077.075-.077.151 0 .075-.153.038 0 .038-.039.076-.039 0 .039.076.039.076 0 .038-.038 0-.038 0 0h-.076c0-.038-.076-.038-.076-.076.076 0 .114-.039.114-.077-.076 0-.114.038-.114.077.038-.23.152-.576.265-.882.038 0 .076 0 .076.077.038 0 .038-.077.076-.116 0-.038-.076-.038-.152-.038 0-.076.076-.076.152-.076-.038-.116-.114-.077-.19-.116.114-.115.076-.192.227-.269.038.077.038 0 0 0 0-.076-.113-.038-.075-.115.038.039.075.039.113-.038-.113-.153.038-.537.114-.728a.696.696 0 0 0-.303-.077c.076-.115.19-.039.34-.115 0-.038 0-.115-.037-.115.189-.69.265-1.189.53-1.842-.19-.076.113-.076.037-.268.038-.038 0-.038 0 0 0-.537.303-.844.416-1.534.076-.115-.037-.23.114-.345 0-.038-.076-.038-.114-.038.038-.077.152-.077.152-.154-.076 0-.114.077-.114 0-.038-.115.076-.076.152-.076-.114-.23.113-.422 0-.499.113-.422.189-.767.227-1.074.075 0 .113 0 .15-.038.039-.154-.15-.077-.113-.192a.533.533 0 0 1 .227-.077c0-.498.152-.69.152-.997.189-.038.302-.383.151-.422a.297.297 0 0 1 .151-.153c-.075-.115.038-.115-.037-.192.189-.307.113-.882.378-1.15.113-.653.303-1.381.492-1.765.265-1.189.68-2.608 1.059-3.797.53-2.876 1.853-6.021 2.005-9.204.037-.538 0-1.19-.265-1.611-.491.153-.718.575-1.173.729-.114.344-.453.498-.718.651.038.192-.227.384-.416.461-.644.69-1.098 1.61-1.892 2.147 0 .269-.378.46-.416.806-.795.728-1.249 1.802-2.043 2.531.075.269-.379.499-.303.767-.492.576-.757 1.381-1.21 1.995-.038.23-.228.537-.455.69-.075.23-.113.536-.34.652-.151.767-.681 1.19-.87 1.917h-.114c-.15.69-.68 1.42-.946 1.995 0 .076.038.076.038.153-.189.423-.415.806-.529 1.304-.038 0-.075.039-.151.039 0 .038 0 .076.076.076-.265.5-.417 1.228-.72 1.764a114.774 114.774 0 0 0-1.967 6.674c.076.077 0 .384.076.46-.038.115-.038.307-.076.422.038.038.038.153.076.192-.113.844-.757 1.764-1.627 1.342-.038.077-.113.115-.189.039-.038.115.114.038.076.153-.492.153-.87-.269-1.21-.537-.493.038-.682-.498-.833-.882a2.868 2.868 0 0 0 0-.805c0-.23-.114-.23 0-.384.038-.115-.076-.115-.076-.192-.076-2.262.378-4.87.605-6.788.417-1.88.795-3.797 1.211-5.715.151-.767.34-1.572.303-2.493a2.898 2.898 0 0 0-.303-.69c-.53-.115-.87.23-1.135.499-.643.23-.832.882-1.362 1.227-.492.767-1.172 1.534-1.4 2.263-.075.038-.113.077-.151.077.038.114.038.306-.151.306-.038.537-.416.883-.568 1.457-.075 0-.037.115-.15.077.037.307-.076.461-.228.575-.605 1.841-1.286 3.107-1.816 4.795-.227 1.035-.453 1.918-.567 2.914-.19.307-.038.653-.227.96.114.652-.113 1.15.076 1.687-.114.728.075 1.572-.038 2.148.378.421 0 1.035.113 1.419-.075.037-.075.115-.151.153-.038-.038-.038 0 0 0v.115c-.113.039-.076-.077-.151-.077-.076.039-.076.116-.076.192-.19 0-.303-.076-.378.077-.114-.115-.379-.038-.492-.192-.076 0-.076.077-.076.154-.189 0-.302-.077-.378.076-.34-.076-.719-.307-1.097-.46-.076-.154-.227-.307-.152-.499a22.155 22.155 0 0 1-.605-3.643C.137 21.634-.317 15.038.29 8.287c.189-.23.378-.46.605-.652.076 0 .151 0 .19.04.15 0 .15-.154.264-.193.832.115 1.476.46 2.08.844.114.46.38.843.38 1.457 0 .575-.19 1.189-.039 1.803-.075.537.038 1.457-.151 1.994 0 .115 0 .23.038.269-.19 1.534.038 3.413-.076 4.793.265.768.227 2.11.34 3.03a58.32 58.32 0 0 1 1.552-4.027c.075.154-.076.269-.076.46.227-.23.303-.575.416-.882-.113.04-.151.307-.302.384.567-1.343 1.135-2.416 1.929-3.49 0-.23.189-.192.15-.46.077-.038.114 0 .19-.077 0-.038-.038-.077-.076-.077.38-.154.227-.69.568-.805 0 .038.038.038.076.038.113-.076.227-.268.34-.345-.19-.038.114-.115.076-.345.075 0 .151 0 .189-.077.113 0 .076-.153.151-.192.152.039.416-.23.53-.383.038 0 .038.038.038.077-.076.038 0 .038 0 0 .151.038.113-.115.113-.23.227-.039.378-.192.605-.23-.037.114-.189.076-.227.191.152.039.152-.115.303-.077 0-.076-.038-.115-.076-.115 1.627-.422 3.254.767 3.557 2.225.151.077.113.384.227.499-.114.23 0 .537.075.728-.15.805.076 1.228-.15 1.956-.039.115.037.115.037.192 0 .115-.076.153-.076.306.416-.575.606-1.342 1.06-1.878 0-.04-.038-.04-.076-.04.303-.344.454-.766.718-1.226.114-.153.152-.423.266-.46.15-.04 0-.116 0-.193.15.116.189-.114.227-.19.037-.04 0-.04 0 0-.076 0-.152 0-.114-.078.303.038.303-.268.416-.421.076-.039.076-.116.076-.23.076 0 .076-.039.076-.077.037 0 .037-.039.037-.077.038 0 .038-.039.038-.077.037-.039 0-.039 0 0-.038 0-.038.038-.038.077-.037 0-.037.038-.037.077-.038 0-.076.038-.076.076h-.038c.038-.23.189-.345.264-.537h.038c.038.23.076-.115.076-.076.038-.04.075 0 .113-.04.076-.114.152-.459.265-.574.076-.077.19-.038.266-.153.189-.269.15-.652.377-.844-.113.077-.15.038-.226-.077.151.077.151 0 .19-.153h.112c0 .038 0 .076.038.076.038-.038.038-.076-.038-.076V9.63c.038 0 .113 0 .113.038-.075.038 0 .038 0 0 .038 0 .114-.153 0-.115.076-.077.227-.115.19-.384.075.115.302-.115.151-.152.454-.308.568-.96.984-1.382.075-.038.113-.114.15-.23.077-.038.19-.23.152-.268.114-.077.265-.192.19-.384.416-.614 1.097-1.15 1.361-1.803.984-1.189 2.233-2.608 3.557-3.72 0-.038-.076-.038-.076-.076.378-.345.605-.499.946-.806.076 0 .038.115.076.115.189-.115.189-.306.454-.268.037-.154-.114.077-.076-.115.076 0 .188-.039.151.077.15-.192.568-.154.984-.154 2.118.767 3.177 2.608 3.442 5.14-.038.344-.076.728-.076 1.112-.113.882-.302 1.457-.416 2.492-.264.346-.227.96-.416 1.19 0 .383-.19.843-.303 1.112 0 .153-.037.153 0 .268-.491 1.266-.567 2.915-1.058 4.143v.344c-.304.614-.114 1.305-.493 1.803.038.153.076.307-.113.307.075.038.038.23.151.23-.076.153-.076.345-.227.422.038.153.151.383-.076.422-.037.153.076.115.076.23a.46.46 0 0 0-.19.192c.152.843-.49 1.073-.263 1.649 0 .115-.114.153-.152.23.152.076 0 .307.038.383 0 .116-.227.039-.265.116 0 .153.076.038.152.038 0 .192-.076.23-.227.192-.038.153.189.076.227.191 0 .116-.114 0-.152 0 .19.192-.075.384-.113.652h-.038z"/>
        <path d="M38.859 15.61c-.653 1.243-.943 2.815-1.487 4.168-.036.11 0 .22.036.293-.326 1.06-.362 2.34-.507 3.51.217.257.072.695.217 1.098.4 0 .436-.33.762-.403 1.269-1.316 2.284-2.852 3.19-4.534.4-.878.834-1.718 1.27-2.597.29-.475.543-1.243.942-1.901.109-.183.254-.512.434-.512.617 0 .073 1.682-.18 1.792.144.293-.182.621-.182.987-.435.804-.725 1.975-1.269 2.67-.072.365-.29.512-.29.877-.326.476-.543 1.024-.833 1.427-.327.877-.943 1.499-1.523 2.12-.036.183-.218.22-.181.403-.436.293-.726.548-1.197.84-.326 0-.507.184-.87.147-.29-.036-.653-.22-.87-.366-1.704-1.17-1.414-4.644-1.015-7.02.362-1.354.616-2.78 1.196-3.914.073-.11 0-.183 0-.33.146-.108.11-.328.326-.365.4.037.653.257 1.16.22.363.219.726.366.907.767 0 .22-.073.366-.036.623"/>
        <path d="M59.092 18.181c.152 0 .34-.151.227-.302 0 .15-.113.112-.151.037-.038.075-.113.151-.076.265zm-.189.453c0 .038-.037.038-.075.038 0-.038.038 0 .075-.038zm-1.662-.227c-.114.038-.227.076-.265.151.076-.037.265-.037.265-.15.038 0 .038 0 .038-.039.189-.112.34-.112.453-.264-.151-.038-.378.113-.453.264-.038 0-.038.038-.038.038zm1.511-.189c0 .265-.303.227-.34.416-.15-.076-.264.189-.34.265-.151-.114-.113.188-.34.113 0 .075.038.151-.038.151-.038-.038-.075-.038-.113-.076-.038.114-.038.076 0 .19-.265.075-.416.264-.605.415-.037 0-.037.038-.037.038-.038 0-.076.038-.076.038-.227 0-.453.227-.416.34.114-.113.303-.189.416-.34.038 0 .076 0 .076-.038.037 0 .037 0 .037-.038a9.656 9.656 0 0 0 2.003-1.435h.076v-.076c-.076 0-.076.037-.076.076-.113.037-.113-.039-.227-.039zm-2.418 1.89c-.113 0-.151.113-.189.151.076 0 .189-.038.189-.151zm-.718.491c.038 0 .076 0 .076-.038-.038.038-.076 0-.076.038zm-3.514 2.495c-.151.038-.302.189-.151.264-.038-.15.189-.075.15-.264zm-.302.755c.037 0 .037.038 0 .038v-.038zm0 .038c0 .038 0 .038-.038.038 0 0 0-.038.038-.038zm-.945.454c-.151-.038-.151.075-.19.15.114 0 .152-.075.19-.15zm-.454.302c0 .038-.075.114 0 .114 0-.039.076-.076 0-.114zm-.981 12.661c.037 0 .075 0 .075-.038-.038.038-.075 0-.075.038zm-.794.566c0-.038-.038 0-.038 0h.038zm-.113-10.506c0 .038-.038.038-.076.038 0-.038.038 0 .076-.038zm-1.776 11.602c-.076 0-.151 0-.151-.112.113 0 .15.037.15.112zm-.265-11.829c0-.038-.038 0-.038 0h.038zm-.038 0c0 .038 0 .038-.037.038 0 0 0-.038.037-.038zm5.328-3.212c-.378.454-.907.756-1.247 1.21-.038.037-.114.075-.19.037-.377.718-1.019.983-1.397 1.663-.378.189-.49.605-.869.794.038 0 .114 0 .114.037-.19 0-.038.151-.227.151 0 .114.075.076.075.114-.075.075-.15.189-.264.227-.53.945-1.36 1.55-1.814 2.57-.567.491-.68 1.436-1.209 1.927-.34.832-.605 1.738-.87 2.607-.037.19.076.227.039.378a10.14 10.14 0 0 1-.34.644c0 .15 0 .226.037.301-.113 0-.075.151-.113.19.151.566-.302 1.587.265 1.965.113.038 0-.189.15-.152.152 0 .152.152.227.227.114.039.038-.113.152-.113.264.453.755.416 1.247.604.377-.15.944-.15 1.284-.34 0-.34.605-.112.755-.415-.075.037-.112 0-.112-.075.15.037.226 0 .302 0 .151-.152.491-.455.831-.606 0 .038.038.038.038.076.226-.038.34-.227.528-.34 0-.038-.037-.075-.037-.15.037 0 .075-.04.075-.115 2.154-1.662 3.363-4.61 3.666-7.898.037-.076-.076-.076-.076-.152.076 0 .113-.037.113-.112-.075 0-.037.075-.113.075-.038-.226.151-.226.151-.416.038-.454-.113-.756 0-1.096-.151-1.247-.151-3.212-.756-4.308-.189.113-.264.264-.377.415-.076 0-.19.114-.038.076zm-8.842-5.631c0-.037-.038 0-.038 0h.038zm13.376.605c.151-.34.567-.454.831-.718a.08.08 0 0 1 .076.076c.302-.19.605-.378.87-.606 0 0-.039-.038-.076-.038.037-.075.188-.226.264-.15.302-.568 1.096-.832 1.285-1.361.075 0 .15-.038.226-.076 0-.378.53-.529.605-.944.227.037.34-.076.34-.265h.264c.076.378-.075 1.247-.453 1.247.076.34-.34.416-.378.719.075.037.227-.152.265-.303-.076.642-.756.793-.983 1.36.227-.189.491-.453.793-.68.114.151-.189.189-.075.34-.416.227-.53.53-.944.718-.605.794-1.436 1.36-2.267 1.928-.076 0-.038-.076-.076-.114-.076 0-.076.038-.151.038-.038.038.113.151-.038.227-.038 0-.076 0-.113-.038v-.075c-.038.037-.038.075 0 .075a.7.7 0 0 1-.265.302h-.075c.037-.15-.114 0 0 0-.378.53-1.323.87-1.89 1.436-.038.151.114.076.151.114-.037.945.756 1.776.756 2.721.227.756.19 1.474.302 2.23-.264 1.285-.113 2.343-.604 3.477.075.491-.19.831-.19 1.323-.075.15-.188.302-.112.49-.076.039-.152.076-.19.152.152.68-.415.869-.49 1.587-.076.038-.076.114-.227.075.037.227-.114.227-.038.378-.114 0-.114.076-.19 0-.112.454-.15.832-.641 1.096.075.039.113.114.15.152-.188.15-.264.34-.49.416.15.076-.038.151 0 .302-.076 0-.114.075-.227.037 0 .228-.151.492-.303.455 0 .112.076.075.038.188-.15 0-.15.076-.264.076.113.075-.076.114.038.15-.076.04-.114.152-.19.076.076.152-.188.227-.226.454-.718.567-1.134 1.398-1.964 1.852-.492.038-.643.416-1.096.491-.076.038-.076.076-.076.151-.189 0-.302.152-.53.19 0-.038-.037-.076-.075-.114-.188.151-.377.302-.68.189-.113.038.038.075 0 .151-1.964.416-3.514-.113-4.874-1.02.038-.114-.189-.114-.076-.227-.415-.076-.415-.605-.718-.87.038-.112 0-.263-.226-.302-.151-.453 0-1.133-.038-1.55.113-.528.189-.944.227-1.398.226-.793.642-1.398.793-2.153.227-.039.227-.378.265-.492.49-.491.604-1.398 1.171-1.852-.038-.189.076-.189.076-.34.189.038.189-.151.34-.189.453-.794 1.209-1.474 1.587-2.192.226-.076.415-.34.415-.53.265-.112.378-.339.567-.604.794-.604 1.058-1.284 1.927-1.814.076-.037.038-.227.151-.227.038.076.038 0 0 0 .378-.453.907-.68 1.134-1.323.076-.075.113.039.189.039.113-.039-.076-.039-.038-.151.15.075.189 0 .189-.19.34 0 .453-.49.793-.604-.038-.189.19-.189.227-.416.264-.038.34-.264.491-.378-.945-2.116-3.362-2.456-5.705-2.872-1.55-.151-3.136-.87-3.59-2.418-.113-.681.076-1.21.265-1.701.982-1.323 2.153-2.495 3.665-3.326.151-.113.378-.19.491-.34.302-.076.605-.151.831-.303.53 0 .945-.113 1.474-.113.34.189.87.189 1.17.377.643-.112 1.097.454 1.399.87-.189.68-.831 1.134-1.474 1.21-.15.112-.264.188-.415.264-.113 0-.113-.076-.264-.076-.416.151-.983.19-1.247.492-1.02.113-1.36.83-2.154 1.209-.34.567-.87.907-.945 1.7.983.379 2.154.492 3.25.719 1.813.642 3.514 1.36 4.685 2.608.075.075.038 0 .151 0 .076.113.151.264.265.302.642-.416 1.133-.794 1.813-1.21.416-.15.643-.453 1.096-.566z"/>
        <path d="M75.092 18.181c.151 0 .34-.151.227-.302 0 .15-.114.112-.151.037-.038.075-.114.151-.076.265zm-.189.453c0 .038-.037.038-.075.038 0-.038.038 0 .075-.038zm-1.662-.227c-.114.038-.227.076-.265.151.076-.037.265-.037.265-.15.038 0 .038 0 .038-.039.188-.112.34-.112.453-.264-.151-.038-.378.113-.453.264-.038 0-.038.038-.038.038zm1.511-.189c0 .265-.302.227-.34.416-.151-.076-.264.189-.34.265-.151-.114-.114.188-.34.113 0 .075.038.151-.038.151-.038-.038-.075-.038-.113-.076-.038.114-.038.076 0 .19-.265.075-.416.264-.605.415-.038 0-.038.038-.038.038-.037 0-.075.038-.075.038-.227 0-.454.227-.416.34.114-.113.303-.189.416-.34.038 0 .075 0 .075-.038.038 0 .038 0 .038-.038a9.656 9.656 0 0 0 2.003-1.435h.075v-.076c-.075 0-.075.037-.075.076-.113.037-.113-.039-.227-.039zm-2.418 1.89c-.114 0-.151.113-.19.151.076 0 .19-.038.19-.151zm-.718.491c.038 0 .075 0 .075-.038-.037.038-.075 0-.075.038zm-3.514 2.495c-.151.038-.303.189-.151.264-.038-.15.19-.075.15-.264zm-.303.755c.038 0 .038.038 0 .038v-.038zm0 .038c0 .038 0 .038-.037.038 0 0 0-.038.037-.038zm-.944.454c-.151-.038-.151.075-.189.15.113 0 .151-.075.189-.15zm-.453.302c0 .038-.076.114 0 .114 0-.039.075-.076 0-.114zm-.983 12.661c.038 0 .076 0 .076-.038-.038.038-.076 0-.076.038zm-.793.566c0-.038-.038 0-.038 0h.038zm-.114-10.506c0 .038-.037.038-.075.038 0-.038.038 0 .075-.038zm-1.776 11.602c-.075 0-.15 0-.15-.112.113 0 .15.037.15.112zm-.264-11.829c0-.038-.038 0-.038 0h.038zm-.038 0c0 .038 0 .038-.038.038 0 0 0-.038.038-.038zm5.328-3.212c-.378.454-.907.756-1.247 1.21-.038.037-.113.075-.189.037-.378.718-1.02.983-1.398 1.663-.378.189-.491.605-.869.794.038 0 .113 0 .113.037-.189 0-.037.151-.226.151 0 .114.075.076.075.114-.075.075-.15.189-.264.227-.53.945-1.36 1.55-1.814 2.57-.567.491-.68 1.436-1.21 1.927-.34.832-.604 1.738-.868 2.607-.038.19.075.227.037.378-.113.227-.226.454-.34.644 0 .15 0 .226.038.301-.113 0-.075.151-.113.19.15.566-.303 1.587.264 1.965.114.038 0-.189.151-.152.152 0 .152.152.227.227.113.039.038-.113.151-.113.265.453.756.416 1.247.604.378-.15.945-.15 1.285-.34 0-.34.605-.112.756-.415-.076.037-.114 0-.114-.075.152.037.227 0 .303 0 .15-.152.491-.455.831-.606 0 .038.038.038.038.076.227-.038.34-.227.529-.34 0-.038-.038-.075-.038-.15.038 0 .076-.04.076-.115 2.154-1.662 3.362-4.61 3.664-7.898.039-.076-.075-.076-.075-.152.075 0 .114-.037.114-.112-.076 0-.039.075-.114.075-.037-.226.151-.226.151-.416.038-.454-.113-.756 0-1.096-.151-1.247-.151-3.212-.756-4.308-.188.113-.264.264-.378.415-.075 0-.189.114-.037.076zm-8.842-5.631c0-.037-.038 0-.038 0h.038zm13.376.605c.151-.34.567-.454.831-.718a.08.08 0 0 1 .076.076c.302-.19.605-.378.87-.606 0 0-.04-.038-.076-.038.037-.075.188-.226.264-.15.302-.568 1.095-.832 1.285-1.361a.537.537 0 0 0 .227-.076c0-.378.528-.529.604-.944.226.037.34-.076.34-.265h.264c.076.378-.075 1.247-.453 1.247.075.34-.34.416-.378.719.075.037.227-.152.265-.303-.076.642-.756.793-.983 1.36.227-.189.492-.453.793-.68.114.151-.188.189-.075.34-.415.227-.529.53-.945.718-.604.794-1.435 1.36-2.267 1.928-.075 0-.037-.076-.075-.114-.076 0-.076.038-.151.038-.038.038.113.151-.038.227-.038 0-.076 0-.113-.038v-.075c-.038.037-.038.075 0 .075a.7.7 0 0 1-.265.302h-.076c.038-.15-.113 0 0 0-.377.53-1.322.87-1.889 1.436-.038.151.113.076.151.114-.038.945.757 1.776.757 2.721.226.756.188 1.474.301 2.23-.264 1.285-.113 2.343-.604 3.477.075.491-.19.831-.19 1.323-.075.15-.188.302-.113.49-.075.039-.15.076-.189.152.152.68-.415.869-.49 1.587-.076.038-.076.114-.227.075.038.227-.113.227-.038.378-.114 0-.114.076-.19 0-.113.454-.15.832-.642 1.096.076.039.114.114.152.152-.189.15-.264.34-.491.416.151.076-.038.151 0 .302-.076 0-.114.075-.227.037 0 .228-.15.492-.302.455 0 .112.075.075.037.188-.151 0-.151.076-.264.076.113.075-.076.114.037.15-.075.04-.113.152-.189.076.076.152-.188.227-.226.454-.718.567-1.133 1.398-1.965 1.852-.49.038-.642.416-1.095.491-.076.038-.076.076-.076.151-.189 0-.302.152-.53.19 0-.038-.037-.076-.075-.114-.189.151-.378.302-.68.189-.113.038.038.075 0 .151-1.965.416-3.514-.113-4.874-1.02.037-.114-.19-.114-.076-.227-.416-.076-.416-.605-.717-.87.037-.112 0-.263-.227-.302-.152-.453 0-1.133-.038-1.55.114-.528.19-.944.227-1.398.226-.793.642-1.398.793-2.153.227-.039.227-.378.264-.492.492-.491.605-1.398 1.172-1.852-.038-.189.075-.189.075-.34.19.038.19-.151.34-.189.454-.794 1.21-1.474 1.587-2.192.227-.076.416-.34.416-.53.265-.112.378-.339.567-.604.793-.604 1.058-1.284 1.927-1.814.076-.037.038-.227.151-.227.038.076.038 0 0 0 .378-.453.907-.68 1.133-1.323.076-.075.114.039.19.039.113-.039-.076-.039-.039-.151.152.075.19 0 .19-.19.34 0 .453-.49.793-.604-.038-.189.189-.189.227-.416.264-.038.34-.264.49-.378-.943-2.116-3.362-2.456-5.704-2.872-1.55-.151-3.136-.87-3.59-2.418-.114-.681.075-1.21.264-1.701.983-1.323 2.154-2.495 3.666-3.326.15-.113.378-.19.49-.34.303-.076.605-.151.832-.303.53 0 .945-.113 1.474-.113.34.189.868.189 1.17.377.643-.112 1.097.454 1.399.87-.188.68-.831 1.134-1.474 1.21a2.574 2.574 0 0 1-.415.264c-.113 0-.113-.076-.264-.076-.416.151-.983.19-1.247.492-1.02.113-1.36.83-2.154 1.209-.34.567-.87.907-.945 1.7.982.379 2.154.492 3.25.719 1.814.642 3.513 1.36 4.685 2.608.075.075.038 0 .15 0 .076.113.152.264.265.302.643-.416 1.134-.794 1.814-1.21.416-.15.643-.453 1.096-.566zM44.135 13.135V13H44v.135h.135M91.488 22.774c-.224.137-.932.102-1.414.137-1.446.102-2.925.205-4.275.342-2.218.24-3.664.616-5.464.719-.708.068-1.576.034-1.897-.342-.257-.308-.707-2.294-.224-2.704.224-.172.738-.034 1.124 0 3.89.308 7.875-.548 11.25-.89.418-.034.933-.103 1.318.137.129.855.225 2.293-.418 2.601M38.265 11c.597-.184 1.357-.184 1.975-.256.035-.005.067.001.102-.002.013-.004.026-.007.038-.012.369-1.056.783-2.168 1.195-3.267.154-.413.45-.99.423-1.224-.006-.64-1.207-1.053-1.947-1.239-.34.239-.48.69-.61 1.05C38.96 7.46 38.52 9.033 38 10.632c.089.122.171.248.265.368M105.704 31.766c-.1-.09-.203-.178-.307-.268a9.103 9.103 0 0 1-.87-.817l.104-.113.336.265.841.82-.104.113zm-9.664-7.9l-.014.016c-.017.023-.016.038-.01.078l.001.009-.001.01c-.075.65-.139 1.318-.2 1.963-.113 1.171-.23 2.384-.415 3.592-.117.658-.263 1.316-.405 1.953a36.73 36.73 0 0 0-.457 2.273l-.152-.02c.27-2.562.695-5.202 1.105-7.755.166-1.03.336-2.095.495-3.137l.15.02-.097.997zm23.74 12.73c.19-.435.28-.785.177-1.286-.134-.486-.247-.552-.288-.558h-.014c-.112.008-.273.276-.404.494-.032.054-.064.11-.097.163-.549.916-1.729 2.04-2.836 2.312-.434.104-.89.023-1.33-.052a28.627 28.627 0 0 0-1.604-.484l.46.435-.473-.24c-.674-.34-1.472-.984-2.175-1.551-.172-.138-.338-.273-.498-.398a74.982 74.982 0 0 0-2.713-2.01c-.314-.225-.629-.45-.944-.68-.102-.099-.37-.354-.745-.712-.881-.84-2.3-2.195-3.483-3.358l.1.114c.172.194.327.37.448.51l-.11.107c-1.335-1.287-2.456-2.679-3.583-4.11l-.051-.066.07-.047c2.052-1.362 4.094-3.187 5.748-5.138.24-.29.451-.6.656-.899.272-.399.554-.811.906-1.184.433-.489.85-1.019 1.253-1.53.405-.516.825-1.05 1.264-1.545.095-.113.198-.23.304-.351.352-.4.717-.815.958-1.242.121-.215.213-.422.302-.622.148-.333.288-.647.545-.982a40.196 40.196 0 0 0 1.475-2.197c.234-.365.467-.73.711-1.097.923-1.43 1.781-2.98 1.247-4.824l-.013-.099c-.282-.824-1.216-2.372-2.06-2.466-.16-.012-.268.01-.332.069-.09.083-.094.247-.098.437-.003.107-.005.219-.024.33-.358 2.293-1.783 4.622-3.04 6.676-.197.321-.39.637-.575.945-.88 1.411-1.882 2.702-2.852 3.95a66.013 66.013 0 0 0-2.001 2.667c-1.426 1.902-3.031 3.728-5.204 5.922l-.158.16.028-.225c.082-.636.257-1.273.426-1.888.199-.722.404-1.468.453-2.203-.004-.707.04-1.34.265-2.108l.527-2.036c.233-1.118.52-2.452.868-3.832.08-.375.192-.773.3-1.157.151-.54.308-1.097.392-1.638.027-.228.019-.411.01-.588-.009-.224-.019-.435.05-.697.09-.322.23-.628.365-.923.409-.902.733-1.614-.42-2.218-.545-.322-1.477-.54-2.14-.311-.31.105-.527.297-.645.57a.301.301 0 0 0 .072.096l.04.032-.221.82a11.968 11.968 0 0 0-.505 1.852c-.69 2.508-1.208 5.049-1.709 7.507-.108.534-.217 1.067-.327 1.6-.252 1.388-.538 2.796-.814 4.158-.4 1.974-.815 4.015-1.13 6.024-.04.375-.07.754-.1 1.121-.074.954-.146 1.857-.372 2.799a48.174 48.174 0 0 0-.807 4.998c-.031.247-.067.495-.103.744-.247 1.703-.502 3.464.772 4.8.338.399 1.34 1.401 1.987 1.288.188-.033.323-.163.414-.4.146-.346.134-.834.124-1.305a6.03 6.03 0 0 1 .01-.705l.235-2.309c.199-1.83.404-3.724.73-5.658.144-.688.181-1.373.217-2.036.032-.594.065-1.208.174-1.825l.033-.186 1.042 1.55c.204.077.346.209.412.38l.025.067-.064.03a.133.133 0 0 0-.07.074.193.193 0 0 0 .015.142c.244.612.706 1.16 1.154 1.69.122.144.242.285.353.424.061.07.234.283.473.575.655.8 2.286 2.793 2.754 3.26l-.016-.125.842.817-.041.055a.13.13 0 0 1-.09.052l-.006.001c-.064.004-.121-.037-.173-.079.142.53 2.009 2.275 2.244 2.42.646.465 1.152.876 1.644 1.336.3.33.586.567.901.75.012.003.075.03.15.062.086.036.224.097.31.128l.036-.006c.069-.01.18.037.285.12l.373.295-.334-.121c.265.184.89.582 2.361 1.425l.086.05c.87.355 1.732.403 2.551.144 2.3-.722 3.701-3.18 4.665-5.24z"/>
    </g>
</svg>
