<svg xmlns="http://www.w3.org/2000/svg" width="32" height="32" viewBox="0 0 32 32">
    <g fill="#000" fill-rule="nonzero">
        <path d="M16 3.4c4.1 0 4.6 0 6.2.1 1.5.1 2.3.3 2.9.5.7.3 1.2.6 1.8 1.1.5.5.9 1 1.1 1.8.2.5.5 1.4.5 2.9.1 1.6.1 2.1.1 6.2s0 4.6-.1 6.2c-.1 1.5-.3 2.3-.5 2.9-.3.7-.6 1.2-1.1 1.8-.5.5-1 .9-1.8 1.1-.5.2-1.4.5-2.9.5-1.6.1-2.1.1-6.2.1s-4.6 0-6.2-.1c-1.5-.1-2.3-.3-2.9-.5-.7-.3-1.2-.6-1.8-1.1-.5-.5-.9-1-1.1-1.8-.2-.5-.5-1.4-.5-2.9-.1-1.6-.1-2.1-.1-6.2s0-4.6.1-6.2c.1-1.6.3-2.4.5-2.9.3-.7.6-1.2 1.1-1.8.5-.5 1-.9 1.8-1.1.5-.2 1.4-.5 2.9-.5 1.6-.1 2.1-.1 6.2-.1m0-2.8c-4.2 0-4.7 0-6.3.1-1.7.1-2.8.3-3.8.7-1 .4-1.9.9-2.7 1.8-.8.8-1.4 1.7-1.7 2.7-.4 1-.7 2.1-.8 3.7-.1 1.6-.1 2.2-.1 6.3 0 4.2 0 4.7.1 6.3.1 1.7.4 2.8.8 3.8s.9 1.9 1.8 2.7c.9.9 1.7 1.4 2.7 1.8 1 .4 2.1.6 3.7.7 1.6.1 2.2.1 6.3.1 4.2 0 4.7 0 6.3-.1 1.6-.1 2.7-.3 3.7-.7 1-.4 1.9-.9 2.7-1.8.9-.9 1.4-1.7 1.8-2.7.4-1 .6-2.1.7-3.7.1-1.6.1-2.2.1-6.3 0-4.2 0-4.7-.1-6.3-.1-1.6-.3-2.7-.7-3.7-.4-1-.9-1.9-1.8-2.7-.9-.9-1.7-1.4-2.7-1.8-1-.4-2.1-.6-3.7-.7C20.7.6 20.2.6 16 .6"/>
        <path d="M16 8.1c-4.4 0-7.9 3.5-7.9 7.9s3.5 7.9 7.9 7.9 7.9-3.5 7.9-7.9-3.5-7.9-7.9-7.9m0 13c-2.8 0-5.1-2.3-5.1-5.1s2.3-5.1 5.1-5.1 5.1 2.3 5.1 5.1-2.3 5.1-5.1 5.1M26 7.8c0 1-.8 1.8-1.8 1.8s-1.8-.8-1.8-1.8.8-1.8 1.8-1.8c1-.1 1.8.7 1.8 1.8"/>
    </g>
</svg>
