<svg xmlns="http://www.w3.org/2000/svg">
<defs>
<font id="Tofino-Light" horiz-adv-x="0" >
  <font-face 
    font-family="Tofino Light"
    font-weight="400"
    font-stretch="normal"
    units-per-em="1000"
    panose-1="2 0 0 0 0 0 0 0 0 0"
    ascent="760"
    descent="-240"
    x-height="526"
    cap-height="704"
    bbox="-683 -240 1077 1051"
    underline-thickness="50"
    underline-position="-75"
    unicode-range="U+000D-U+FB04"
  />
<missing-glyph horiz-adv-x="671" 
d="M362 540q5 -9 23 -12.5t32 -5.5q1 -1 4 -1q1 1 1 3l4 9q-13 12 -29 25t-25 11q-5 -2 -9 -14q-3 -10 -1 -15zM469 494q15 0 17 11q1 3 1 6.5t-2 6.5q-3 5 -12 8q-1 1 -5 1q-14 0 -17 -11q-1 -5 2 -12q4 -8 11 -9zM582 486q4 2 2 16q0 10 -5 15q-8 5 -25.5 1.5t-31.5 -8.5
q-2 -1 -5 -1v-6.5t-2 -6.5q2 -1 3 -1q17 -5 37 -9.5t27 0.5zM306 239q4 16 -3 25l-2 3h-1q-9 5 -32.5 8.5t-52.5 3.5q-37 0 -51.5 -5t-14.5 -7q-1 -10 0 -23t5.5 -24.5t12 -20.5t19.5 -11q15 -3 38 -3q20 0 34 2t20 4q10 6 16.5 19t11.5 29zM485 188q12 1 19.5 9.5
t11.5 20.5t5.5 25.5t0.5 23.5q-2 2 -15.5 7t-51.5 5q-29 0 -52 -3.5t-32 -8.5q-1 0 -1 -2h-2l-1 -1q-7 -8 -2 -25q2 -16 10 -29t18 -19q5 -2 19 -4t33 -2q11 0 21.5 1t18.5 2zM511 465q36 -38 56.5 -87.5t20.5 -106.5q0 -56 -20 -105t-54.5 -86t-80.5 -58t-98 -21t-97.5 21
t-79.5 58t-54 86t-20 105q0 58 21.5 109.5t58.5 87.5q-27 39 -10 82q8 20 25.5 37t41.5 29t53.5 19t60.5 7q32 0 62.5 -7t55.5 -20t43 -31t27 -39q0 -1 0.5 -1.5t0.5 -1.5q19 5 38.5 7.5t33.5 -8.5q18 -13 19 -38q2 -27 -14 -41q-13 -9 -31 -9q-13 0 -28 3.5t-31 8.5z
M241 439q9 -18 32 -38t61.5 -36.5t92 -25.5t123.5 -6q-21 82 -85 132q-7 0 -10 1q-20 7 -28 23h-1q-3 1 -6 1t-7 1q-16 2 -33 6t-29 12q-5 1 -8.5 1h-7.5q-47 0 -88 -19q-12 -14 -11.5 -27.5t5.5 -24.5zM182 539q-10 -25 5 -50q31 24 67 37.5t77 14.5q-1 11 3 26
q13 28 32 32t39.5 -10t40.5 -33q3 -1 3 -2q5 2 9.5 3t9.5 1q3 0 6.5 -1t6.5 -2q-23 27 -64.5 41.5t-81.5 14.5q-26 0 -51 -5.5t-45.5 -15.5t-35.5 -23t-21 -28zM205 465q-32 -26 -54.5 -62.5t-30.5 -80.5q39 -2 79.5 12.5t64.5 34.5q-36 27 -50 57q-9 20 -9 39zM143 282

<glyph glyph-name="f_f" unicode="ff" horiz-adv-x="574" 
d="M578 738h-41q-37 0 -59.5 -11t-35.5 -32t-17.5 -52t-4.5 -71v-41h152v-29h-152v-502h-33v502h-244v-502h-33v502h-73v29h73v41q0 44 5 80t20.5 62t44.5 40t78 14h43v-30h-41q-37 0 -60 -11t-35.5 -32t-17 -52t-4.5 -71v-41h244v41q0 44 5 80t20.5 62t44.5 40t78 14h43
v-30z" />
    <glyph glyph-name="fi" unicode="fi" horiz-adv-x="505" 
d="M301 738h-41q-37 0 -60 -11t-35.5 -32t-17 -52t-4.5 -71v-41h152v-29h-152v-502h-33v502h-73v29h73v41q0 44 5 80t20.5 62t44.5 40t78 14h43v-30zM385 646v113h33v-113h-33zM385 0v531h33v-531h-33z" />
    <glyph glyph-name="fl" unicode="fl" horiz-adv-x="512" 
d="M301 738h-41q-37 0 -60 -11t-35.5 -32t-17 -52t-4.5 -71v-41h152v-29h-152v-502h-33v502h-73v29h73v41q0 44 5 80t20.5 62t44.5 40t78 14h43v-30zM388 0v760h33v-760h-33z" />
    <glyph glyph-name="f_f_i" unicode="ffi" horiz-adv-x="782" 
d="M387 531v41q0 44 5 80t20.5 62t44.5 40t78 14h44v-30h-42q-37 0 -59.5 -11t-35.5 -32t-17.5 -52t-4.5 -71v-41h151v-29h-151v-502h-33v502h-244v-502h-33v502h-73v29h73v41q0 44 5 80t20.5 62t44.5 40t78 14h43v-30h-41q-37 0 -60 -11t-35.5 -32t-17 -52t-4.5 -71v-41
h244zM661 767h34v-130h-34v130zM661 0v531h33v-531h-33z" />
    <glyph glyph-name="f_f_l" unicode="ffl" horiz-adv-x="788" 
d="M387 531v41q0 44 5 80t20.5 62t44.5 40t78 14h43v-30h-41q-37 0 -59.5 -11t-35.5 -32t-17.5 -52t-4.5 -71v-41h151v-29h-151v-502h-33v502h-244v-502h-33v502h-73v29h73v41q0 44 5 80t20.5 62t44.5 40t78 14h43v-30h-41q-37 0 -60 -11t-35.5 -32t-17 -52t-4.5 -71v-41
h244zM664 760h33v-760h-33v760z" />
    <glyph glyph-name=".notdef" horiz-adv-x="671" 
d="M362 540q5 -9 23 -12.5t32 -5.5q1 -1 4 -1q1 1 1 3l4 9q-13 12 -29 25t-25 11q-5 -2 -9 -14q-3 -10 -1 -15zM469 494q15 0 17 11q1 3 1 6.5t-2 6.5q-3 5 -12 8q-1 1 -5 1q-14 0 -17 -11q-1 -5 2 -12q4 -8 11 -9zM582 486q4 2 2 16q0 10 -5 15q-8 5 -25.5 1.5t-31.5 -8.5
q-2 -1 -5 -1v-6.5t-2 -6.5q2 -1 3 -1q17 -5 37 -9.5t27 0.5zM306 239q4 16 -3 25l-2 3h-1q-9 5 -32.5 8.5t-52.5 3.5q-37 0 -51.5 -5t-14.5 -7q-1 -10 0 -23t5.5 -24.5t12 -20.5t19.5 -11q15 -3 38 -3q20 0 34 2t20 4q10 6 16.5 19t11.5 29zM485 188q12 1 19.5 9.5
t11.5 20.5t5.5 25.5t0.5 23.5q-2 2 -15.5 7t-51.5 5q-29 0 -52 -3.5t-32 -8.5q-1 0 -1 -2h-2l-1 -1q-7 -8 -2 -25q2 -16 10 -29t18 -19q5 -2 19 -4t33 -2q11 0 21.5 1t18.5 2zM511 465q36 -38 56.5 -87.5t20.5 -106.5q0 -56 -20 -105t-54.5 -86t-80.5 -58t-98 -21t-97.5 21
t-79.5 58t-54 86t-20 105q0 58 21.5 109.5t58.5 87.5q-27 39 -10 82q8 20 25.5 37t41.5 29t53.5 19t60.5 7q32 0 62.5 -7t55.5 -20t43 -31t27 -39q0 -1 0.5 -1.5t0.5 -1.5q19 5 38.5 7.5t33.5 -8.5q18 -13 19 -38q2 -27 -14 -41q-13 -9 -31 -9q-13 0 -28 3.5t-31 8.5z
M241 439q9 -18 32 -38t61.5 -36.5t92 -25.5t123.5 -6q-21 82 -85 132q-7 0 -10 1q-20 7 -28 23h-1q-3 1 -6 1t-7 1q-16 2 -33 6t-29 12q-5 1 -8.5 1h-7.5q-47 0 -88 -19q-12 -14 -11.5 -27.5t5.5 -24.5zM182 539q-10 -25 5 -50q31 24 67 37.5t77 14.5q-1 11 3 26
q13 28 32 32t39.5 -10t40.5 -33q3 -1 3 -2q5 2 9.5 3t9.5 1q3 0 6.5 -1t6.5 -2q-23 27 -64.5 41.5t-81.5 14.5q-26 0 -51 -5.5t-45.5 -15.5t-35.5 -23t-21 -28zM205 465q-32 -26 -54.5 -62.5t-30.5 -80.5q39 -2 79.5 12.5t64.5 34.5q-36 27 -50 57q-9 20 -9 39zM143 282
q8 5 25 8t47 3q19 0 46.5 -2t44.5 -10q14 -7 26.5 -8.5t32.5 8.5q8 4 19.5 6t24 3.5t25 2t21.5 0.5q20 0 40 -1.5t32 -9.5q3 5 7.5 10.5t10.5 10.5q-8 -1 -15.5 -1h-15.5q-72 0 -128 14t-95 36q-28 -26 -71.5 -42.5t-86.5 -18.5zM335 31q46 0 86.5 19t70.5 51.5t47.5 76.5
t17.5 93v10.5t-1 10.5q-10 -9 -20 -23v-1q2 -16 0 -32.5t-8.5 -30t-16.5 -22.5t-25 -11q-8 -1 -19 -1.5t-22 -0.5q-15 0 -32.5 2t-27.5 7q-15 8 -24 25.5t-12 31.5q-1 3 -1 6q-3 13 -14 13q-8 0 -11 -13q-2 -1 -2 -6q-3 -14 -11.5 -31.5t-25.5 -25.5q-9 -6 -26.5 -7.5
t-33.5 -1.5q-11 0 -21.5 0.5t-17.5 1.5q-15 2 -25.5 11t-17 22.5t-8.5 30t0 32.5v1l-19 18v-16q0 -49 17.5 -93t47.5 -76.5t70 -51.5t85 -19zM403 106q0 -20 -20 -33.5t-49 -13.5t-49 13.5t-20 33.5q0 19 20 32.5t49 13.5t49 -13.5t20 -32.5zM249 269l-4 -18q14 -8 14 -26
q0 -13 -9 -22t-22 -9q-12 0 -21.5 9t-9.5 22q0 6 2 10l-14 11q-4 3 0 7q2 2 6 0l12 -11l3 6l-7 14q-2 1 -1.5 3t2.5 3q5 2 6 -3l8 -12q1 1 2.5 1t2.5 1l-2 16q0 5 5 5q3 0 5 -4l1 -16q2 0 4 -0.5t4 -0.5l4 17q2 4 6 4q4 -3 3 -7zM491 253q2 -4 -1 -7l-13 -13q0 -2 0.5 -4
t0.5 -4q0 -13 -9 -22t-23 -9q-12 0 -21 9t-9 22q0 18 15 26l-5 18q0 4 4 7q5 0 5 -4l4 -17q2 1 7 1l3 16q0 4 5 4q4 0 4 -5l-3 -16l7 -2l7 12q3 5 5 3q2 -1 3 -3t0 -3l-9 -14q4 -3 4 -6l13 11q3 3 6 0z" />
    <glyph glyph-name=".null" 
 />
    <glyph glyph-name=".null" 
 />
    <glyph glyph-name="nonmarkingreturn" unicode="&#xd;" horiz-adv-x="219" 
 />
    <glyph glyph-name="space" unicode=" " horiz-adv-x="218" 
 />
    <glyph glyph-name="exclam" unicode="!" horiz-adv-x="215" 
d="M92 154l-1 550h33l-1 -550h-31zM91 0v94h33v-94h-33z" />
    <glyph glyph-name="quotedbl" unicode="&#x22;" horiz-adv-x="225" 
d="M54 600l-6 159h39l-6 -159h-27zM144 600l-6 159h40l-6 -159h-28z" />
    <glyph glyph-name="numbersign" unicode="#" horiz-adv-x="680" 
d="M599 476h-113l-46 -231h112v-29h-118l-43 -216h-32l43 216h-208l-43 -216h-32l43 216h-108v29h114l46 231h-113v29h119l39 197h32l-39 -197h208l39 197h32l-39 -197h107v-29zM408 245l46 231h-208l-46 -231h208z" />
    <glyph glyph-name="dollar" unicode="$" horiz-adv-x="550" 
d="M501 203q0 -78 -58.5 -121.5t-156.5 -45.5v-94h-26v94q-100 4 -153.5 51.5t-53.5 147.5h33q0 -75 40.5 -120.5t133.5 -49.5v300q-37 8 -73 17.5t-63.5 28t-44.5 48.5t-17 78q0 71 49.5 115t148.5 47v71h26v-71q55 -1 92.5 -15.5t61 -38t33.5 -55.5t10 -68h-32
q0 24 -6.5 49.5t-24.5 46.5t-50 35t-84 16v-277q39 -8 77.5 -18.5t69 -30.5t49.5 -53t19 -87zM96 537q0 -37 13.5 -61t36 -39t52 -24t62.5 -16v272q-46 -1 -77.5 -13t-50.5 -30t-27.5 -41t-8.5 -48zM286 65q91 2 136 40.5t45 97.5q0 42 -15 69t-40 44t-58 27t-68 17v-295z
" />
    <glyph glyph-name="percent" unicode="%" horiz-adv-x="704" 
d="M183 378q-40 0 -67.5 12t-44.5 33.5t-24.5 51.5t-7.5 66q0 37 7.5 68t24.5 53t44.5 34t67.5 12q41 0 68 -12t44 -34t24 -53t7 -68q0 -36 -7 -66t-24 -51.5t-44 -33.5t-68 -12zM183 403q63 0 88 35.5t25 102.5q0 68 -25 105t-88 37q-62 0 -88 -37t-26 -105
q0 -67 26 -102.5t88 -35.5zM92 0l460 702h36l-460 -702h-36zM496 -6q-40 0 -67.5 12t-44.5 33.5t-24.5 51.5t-7.5 66q0 37 7.5 68t24.5 53t44.5 34t67.5 12q41 0 68.5 -12t44.5 -34t24 -53t7 -68q0 -36 -7 -66t-24 -51.5t-44.5 -33.5t-68.5 -12zM496 19q63 0 88 35.5
t25 102.5q0 66 -25 104t-88 38q-61 0 -87 -37t-26 -105q0 -67 26 -102.5t87 -35.5z" />
    <glyph glyph-name="ampersand" unicode="&#x26;" horiz-adv-x="702" 
d="M650 0h-43q-8 8 -18 19l-21 22.5l-27 28.5q-34 -50 -88.5 -68t-130.5 -18q-119 0 -178.5 52t-59.5 161q0 56 16.5 93.5t40 61t49 35.5t43.5 17q-32 36 -46.5 69t-14.5 84q0 74 40 118t136 44q90 0 128 -44.5t38 -119.5h-34q0 63 -30 98t-102 35q-78 0 -109 -34.5
t-31 -96.5q0 -37 10.5 -65t31 -55.5t50.5 -58.5l70 -74l165 -180q17 38 24.5 92.5t7.5 128.5h32q0 -85 -10 -144.5t-30 -101.5zM322 15q72 0 120 17.5t77 61.5l-91.5 98.5l-101.5 110.5l-73 79q-16 -4 -39 -14.5t-44 -31.5t-36 -54.5t-15 -83.5q0 -41 10.5 -74.5t34 -57.5
t62.5 -37.5t96 -13.5z" />
    <glyph glyph-name="quotesingle" unicode="'" horiz-adv-x="133" 
d="M53 600l-6 159h39l-6 -159h-27z" />
    <glyph glyph-name="parenleft" unicode="(" horiz-adv-x="258" 
d="M184 760h33q-29 -60 -52 -135q-21 -69 -36.5 -155t-15.5 -193t19.5 -194t42.5 -150q27 -73 62 -131h-33q-35 55 -62 127q-25 66 -43.5 151.5t-18.5 196.5t16 199.5t36 152.5q23 74 52 131z" />
    <glyph glyph-name="parenright" unicode=")" horiz-adv-x="258" 
d="M41 760h33q29 -57 52 -131q21 -68 36.5 -154.5t15.5 -197.5t-19.5 -198.5t-42.5 -149.5q-27 -72 -62 -127h-33q35 58 62 131q25 67 43.5 152t18.5 192t-16 195t-36 153q-23 75 -52 135z" />
    <glyph glyph-name="asterisk" unicode="*" horiz-adv-x="337" 
d="M60 636l9 30l87 -32l-3 91h31l-2 -91l87 32l8 -30l-87 -26l64 -73l-26 -20l-59 77l-60 -77l-25 20l63 73z" />
    <glyph glyph-name="plus" unicode="+" horiz-adv-x="458" 
d="M416 323v-29h-171v-172h-31v172h-172v29h172v172h31v-172h171z" />
    <glyph glyph-name="comma" unicode="," horiz-adv-x="178" 
d="M56 -88h-31q7 13 13 30q6 15 12.5 34t11.5 43q5 23 8 40.5t4 29.5q1 14 1 24h37q0 -10 -1 -24l-4.5 -30.5t-8.5 -40.5t-13 -42.5t-14 -33.5q-7 -17 -15 -30z" />
    <glyph glyph-name="hyphen" unicode="-" horiz-adv-x="362" 
d="M70 305v30h222v-30h-222z" />
    <glyph glyph-name="period" unicode="." horiz-adv-x="161" 
d="M62 0v113h37v-113h-37z" />
    <glyph glyph-name="slash" unicode="/" horiz-adv-x="444" 
d="M60 -40l310 840h35l-310 -840h-35z" />
    <glyph glyph-name="zero" unicode="0" horiz-adv-x="619" 
d="M310 -10q-71 0 -119 22t-77 66.5t-41.5 111.5t-12.5 158q0 92 12.5 160t41.5 113t77 67t119 22t119 -22t77 -67t41 -113t12 -160q0 -91 -12 -158t-41 -111.5t-77 -66.5t-119 -22zM310 21q57 0 97.5 17.5t67 56.5t38.5 101t12 152t-12 153t-38.5 102t-67 57t-97.5 18
t-98 -18t-67.5 -57t-38.5 -102t-12 -153t12 -152t38.5 -101t67.5 -56.5t98 -17.5z" />
    <glyph glyph-name="one" unicode="1" horiz-adv-x="256" 
d="M123 704h32v-704h-35v668l-138 -68v34z" />
    <glyph glyph-name="two" unicode="2" horiz-adv-x="495" 
d="M23 5v40l17.5 16l47 42l68 61.5l79.5 74.5l72.5 70.5t55 65t35 66.5t12.5 76q0 81 -46.5 121.5t-129.5 40.5q-82 0 -129 -40.5t-47 -118.5h-35q0 90 55.5 140t155.5 50t155 -49.5t55 -142.5q0 -45 -12.5 -82t-35.5 -71t-55.5 -67.5l-72.5 -72.5l-77 -73l-66 -60l-63 -55
h394v-32h-433z" />
    <glyph glyph-name="three" unicode="3" horiz-adv-x="525" 
d="M239 445q118 0 178 -62t60 -165q0 -104 -56 -166t-179 -62q-58 0 -100 15.5t-69.5 41.5t-41 60t-13.5 71h33q0 -32 12.5 -60.5t36.5 -49.5t59.5 -33.5t82.5 -12.5q101 0 150.5 50.5t49.5 145.5q0 93 -53 144.5t-150 51.5q-15 0 -30.5 -1.5t-27.5 -3.5q-15 -2 -28 -5v31
l262 227l-359 -1v31h404v-30l-258 -219q8 1 17.5 1.5t19.5 0.5z" />
    <glyph glyph-name="four" unicode="4" horiz-adv-x="510" 
d="M489 199v-31h-86v-168h-33v168h-363v31l360 503h36v-503h86zM47 199h323v456z" />
    <glyph glyph-name="five" unicode="5" horiz-adv-x="557" 
d="M285 455q112 0 171.5 -61.5t59.5 -170.5q0 -108 -57 -170.5t-178 -62.5q-61 0 -106 15.5t-74 41.5t-43 59t-14 69h33q0 -31 13 -58.5t38.5 -48.5t63.5 -33.5t89 -12.5q98 0 149 51t51 150t-54.5 150t-145.5 51q-53 0 -87 -13t-55 -28q-24 -18 -37 -41h-33l55 319l4 31
h351v-31h-323l-46 -271q8 9 21 20t34 21t50.5 17t69.5 7z" />
    <glyph glyph-name="six" unicode="6" horiz-adv-x="589" 
d="M314 462q60 0 103 -17t70.5 -47.5t40 -74.5t12.5 -98t-13.5 -97t-42 -74t-74 -47.5t-109.5 -16.5q-128 0 -184.5 78t-56.5 241q0 110 14 186.5t43 124.5t74.5 70t109.5 22q60 0 100.5 -18t65 -45.5t35 -59.5t10.5 -60h-35q0 26 -9.5 53t-30.5 49t-54.5 36t-81.5 14
q-50 0 -87 -16.5t-62.5 -56t-39 -105.5t-16.5 -166q11 21 28 43t43 40t62.5 30t84.5 12zM301 21q205 0 205 204q0 101 -49 153t-146 52q-54 0 -92.5 -17t-63.5 -40.5t-39.5 -48.5t-20.5 -42q2 -71 16 -121t39.5 -81t63.5 -45t87 -14z" />
    <glyph glyph-name="seven" unicode="7" horiz-adv-x="446" 
d="M152 0h-35q0 69 12.5 134t32.5 125t46 113t53 99q63 105 144 194h-406v31h444v-31q-81 -90 -145 -196q-39 -61 -61.5 -109.5t-41.5 -105.5t-31 -121.5t-12 -132.5z" />
    <glyph glyph-name="eight" unicode="8" horiz-adv-x="580" 
d="M50 190q0 52 16.5 86.5t40 55.5t48 30.5t40.5 10.5q-12 1 -32.5 9t-40.5 25.5t-34.5 45.5t-14.5 69q0 42 11.5 77t37.5 60.5t67.5 39.5t100.5 14t100 -14t67 -39.5t38 -60.5t12 -77q0 -41 -14.5 -69t-34.5 -45.5t-40.5 -25.5t-33.5 -9q15 -1 40 -10.5t48.5 -30.5
t40.5 -55.5t17 -86.5q0 -45 -13.5 -82t-42.5 -63.5t-74.5 -40.5t-109.5 -14t-109.5 14t-74.5 40.5t-42.5 63.5t-13.5 82zM85 191q0 -89 52 -129t153 -40t153 40t52 129q0 83 -48.5 124.5t-156.5 41.5t-156.5 -41.5t-48.5 -124.5zM108 520q0 -65 42.5 -99t139.5 -34t139.5 34
t42.5 99q0 84 -45.5 122.5t-136.5 38.5t-136.5 -38.5t-45.5 -122.5z" />
    <glyph glyph-name="nine" unicode="9" horiz-adv-x="594" 
d="M292 712q64 0 109.5 -18.5t75 -59.5t43 -106t13.5 -157q0 -108 -13.5 -181t-43 -117.5t-75 -63.5t-109.5 -19t-108 18t-71 45.5t-39 59.5t-12 59h35q0 -26 11 -53t34.5 -48.5t60.5 -35.5t89 -14q50 0 87.5 14t63 50t39 98.5t16.5 159.5q-10 -21 -27 -43.5t-43.5 -41
t-63 -30.5t-85.5 -12q-60 0 -102.5 18.5t-70 52t-40.5 81.5t-13 107q0 54 13.5 98t42.5 75t74 47.5t109 16.5zM282 247q55 0 93 17t63.5 40t40 48.5t20.5 41.5q-2 83 -15.5 138t-39.5 88t-64 47t-88 14q-205 0 -205 -206q0 -112 49 -170t146 -58z" />
    <glyph glyph-name="colon" unicode=":" horiz-adv-x="197" 
d="M80 389v113h37v-113h-37zM80 39v112h37v-112h-37z" />
    <glyph glyph-name="semicolon" unicode=";" horiz-adv-x="205" 
d="M81 350v113h37v-113h-37zM62 -88h-32q7 13 13 30q6 15 12.5 34t11.5 43q6 23 8.5 40.5t3.5 29.5q1 14 1 24h37q0 -10 -1 -24q-1 -13 -3.5 -30.5t-8.5 -40.5t-13.5 -42.5t-13.5 -33.5q-7 -17 -15 -30z" />
    <glyph glyph-name="less" unicode="&#x3c;" horiz-adv-x="500" 
d="M419 461v-31l-326 -118l326 -118v-31l-360 136v26z" />
    <glyph glyph-name="equal" unicode="=" horiz-adv-x="483" 
d="M62 354v30h358v-30h-358zM62 219v30h358v-30h-358z" />
    <glyph glyph-name="greater" unicode="&#x3e;" horiz-adv-x="499" 
d="M80 461l360 -136v-26l-360 -136v31l326 118l-326 118v31z" />
    <glyph glyph-name="question" unicode="?" horiz-adv-x="475" 
d="M233 154h-32l1 43q0 48 12 78t29.5 51t38.5 37t38.5 35.5t29.5 47.5t12 73q0 158 -144 158q-145 0 -145 -162h-34q0 91 43 141.5t136 50.5q94 0 136 -50t42 -136q0 -48 -12 -79t-30 -52.5t-39.5 -38.5t-39.5 -36.5t-30 -47t-12 -70.5v-43zM201 0v94h33v-94h-33z" />
    <glyph glyph-name="at" unicode="@" horiz-adv-x="844" 
d="M784 277q0 -71 -8 -119.5t-23 -78.5t-37.5 -43.5t-51.5 -13.5h-1q-53 1 -75.5 38t-27.5 92q-9 -18 -22 -35t-31 -30t-41.5 -21t-53.5 -8q-89 0 -130.5 53.5t-41.5 168.5q0 109 41.5 168t130.5 59q31 0 55 -8t42 -20t30 -26t19 -26l3 64h29v-299q0 -69 17 -107t59 -38
q20 0 36.5 10t28.5 35.5t18.5 70t6.5 114.5q0 83 -17 153t-56 120.5t-103 79t-159 28.5q-93 0 -156.5 -29.5t-102.5 -81t-56 -121t-17 -149.5q0 -79 16.5 -146.5t55.5 -116t103 -76t158 -27.5q51 0 94.5 7.5t77.5 24.5v-29q-35 -13 -77 -20.5t-96 -7.5q-102 0 -171 30
t-111.5 83t-60.5 124.5t-18 153.5q0 83 18 156.5t60 129t111.5 88t171.5 32.5q104 0 173.5 -31t111.5 -86t60 -129t18 -160zM415 85q31 0 55.5 11.5t42 29.5t29 39.5t16.5 41.5v178q-6 12 -16.5 28.5t-27.5 31.5t-41.5 25.5t-57.5 10.5q-66 0 -104 -49t-38 -152
q0 -55 10 -92t28 -60t44.5 -33t59.5 -10z" />
    <glyph glyph-name="A" unicode="A" horiz-adv-x="608" 
d="M558 0l-81 210h-348l-80 -210h-36l273 704h36l273 -704h-37zM141 241h325l-163 424z" />
    <glyph glyph-name="B" unicode="B" horiz-adv-x="638" 
d="M431 372q45 -8 74.5 -25t47 -41t24 -53.5t6.5 -62.5q0 -46 -8.5 -82t-34 -61t-73 -38t-126.5 -13h-249v711h250q64 0 106.5 -13.5t67.5 -36.5t35.5 -55t10.5 -69q0 -30 -4.5 -56t-19 -47t-40 -35.5t-67.5 -22.5zM341 677h-215v-290l215 -1q57 0 93 9.5t57 28t29 45.5
t8 62q0 74 -44.5 110t-142.5 36zM126 28l215 -1q63 0 103 9t63 28.5t32 51t9 76.5q0 39 -11 69.5t-35.5 51.5t-64 32t-96.5 11h-215v-328z" />
    <glyph glyph-name="C" unicode="C" horiz-adv-x="645" 
d="M339 -16q-81 0 -135 26t-86 73.5t-45 115.5t-13 152t13 152t45 116.5t86 74.5t135 26q128 0 188.5 -63.5t62.5 -176.5h-34q-4 103 -57 155.5t-160 52.5q-68 0 -114.5 -21.5t-75.5 -64t-42 -105.5t-13 -146t13 -146t42 -105t75.5 -63.5t114.5 -21.5q204 0 215 197h34
q-4 -108 -64 -168t-185 -60z" />
    <glyph glyph-name="D" unicode="D" horiz-adv-x="660" 
d="M92 707h165q108 0 175 -22.5t104.5 -67.5t50.5 -111.5t13 -154.5t-13 -155t-50.5 -111t-104.5 -66.5t-175 -22.5h-165v711zM126 28l132 -1q92 0 151.5 17.5t94 56.5t48 100.5t13.5 149.5t-13.5 150t-48 101t-94 57t-151.5 18h-132v-649z" />
    <glyph glyph-name="E" unicode="E" horiz-adv-x="547" 
d="M126 32h400v-32h-434v704h429v-32h-395v-288h345v-31h-345v-321z" />
    <glyph glyph-name="F" unicode="F" horiz-adv-x="530" 
d="M520 672h-394v-299h344v-31h-344v-342h-34v704h428v-32z" />
    <glyph glyph-name="G" unicode="G" horiz-adv-x="656" 
d="M587 333v-257q0 -5 -14.5 -20t-44.5 -31t-77 -28.5t-112 -12.5q-81 0 -135 25.5t-86 73t-45 115.5t-13 152t13 152.5t45 117t86 74.5t135 26q65 0 112 -18t78 -49t45.5 -71t14.5 -84h-34q0 39 -14 73.5t-41 60.5t-67.5 41t-93.5 15q-68 0 -114.5 -21.5t-75.5 -64.5
t-42 -106t-13 -146t13 -145.5t42 -104.5t76 -63.5t115 -21.5q51 0 91 9.5t67.5 21.5t41.5 24t14 17v215h-166v31h199z" />
    <glyph glyph-name="H" unicode="H" horiz-adv-x="683" 
d="M556 704h35v-704h-35v352h-430v-352h-34v704h34v-319h430v319z" />
    <glyph glyph-name="I" unicode="I" horiz-adv-x="218" 
d="M92 0v704h34v-704h-34z" />
    <glyph glyph-name="J" unicode="J" horiz-adv-x="345" 
d="M52 0h-50v34h50q59 0 94.5 11t54.5 37t25.5 69.5t6.5 107.5l-1 445h34l2 -445q0 -71 -7.5 -120.5t-30 -80t-65 -44.5t-113.5 -14z" />
    <glyph glyph-name="K" unicode="K" horiz-adv-x="570" 
d="M518 0l-264 366l-128 -143v-223h-34v704h34v-439l386 439h42l-279 -313l282 -391h-39z" />
    <glyph glyph-name="L" unicode="L" horiz-adv-x="494" 
d="M126 31h353v-31h-387v704h34v-673z" />
    <glyph glyph-name="M" unicode="M" horiz-adv-x="808" 
d="M716 704l-2 -704h-34l4 668l-267 -670h-36l-259 675l2 -673h-32v704h53l256 -665l264 665h51z" />
    <glyph glyph-name="N" unicode="N" horiz-adv-x="704" 
d="M578 704h34v-704h-37l-445 650l-5 -650h-33l5 704h36l447 -651z" />
    <glyph glyph-name="O" unicode="O" horiz-adv-x="686" 
d="M343 -16q-83 0 -137.5 26t-87 73.5t-45.5 115.5t-13 152t13 152t45.5 116.5t87 74.5t137.5 26t137.5 -26t87 -74.5t45.5 -116.5t13 -152t-13 -152t-45.5 -115.5t-87 -73.5t-137.5 -26zM343 15q70 0 117.5 21.5t77 63.5t42 105t12.5 146t-12.5 145.5t-42 105.5t-77 64.5
t-117.5 21.5q-69 0 -117 -21.5t-77 -64.5t-42 -105.5t-13 -145.5t13 -146t42 -105t77 -63.5t117 -21.5z" />
    <glyph glyph-name="P" unicode="P" horiz-adv-x="619" 
d="M92 707h250q57 0 101.5 -10t75 -34.5t46.5 -66.5t16 -106t-15.5 -106t-46 -67t-75.5 -35t-103 -10h-215v-272h-34v707zM126 305l215 -1q42 0 79.5 5.5t65 25t44 56.5t16.5 99t-16.5 98.5t-44 56t-65 25.5t-79.5 6h-215v-371z" />
    <glyph glyph-name="Q" unicode="Q" horiz-adv-x="688" 
d="M648 -56l-22 -25l-122 103q-31 -19 -70.5 -28.5t-90.5 -9.5q-83 0 -137.5 26t-87 73.5t-45.5 115.5t-13 152t13 152t45.5 116.5t87 74.5t137.5 26t137.5 -26t87 -74.5t45.5 -116.5t13 -152q0 -106 -21.5 -185.5t-76.5 -126.5zM94 351q0 -83 13 -146t42 -105t77 -63.5
t117 -21.5q70 0 117.5 21.5t77 63.5t42 105t12.5 146t-12.5 145.5t-42 105.5t-77 64.5t-117.5 21.5q-69 0 -117 -21.5t-77 -64.5t-42 -105.5t-13 -145.5z" />
    <glyph glyph-name="R" unicode="R" horiz-adv-x="640" 
d="M594 0h-39l-160 303q-13 -1 -26 -1.5t-27 -0.5h-216v-301h-34v707h250q59 0 103.5 -9.5t74.5 -32.5t45 -62t15 -99q0 -97 -38.5 -141t-112.5 -56zM126 333l216 -1q41 0 78 4.5t65 21.5t44 51.5t16 94.5q0 59 -16 93t-44 51.5t-65 22.5t-78 5h-216v-343z" />
    <glyph glyph-name="S" unicode="S" horiz-adv-x="618" 
d="M53 205h34q0 -88 54.5 -138t168.5 -52q61 -1 103.5 10.5t69.5 32.5t39 49.5t12 61.5q0 51 -20 82.5t-52.5 50t-74 29t-85 19t-85 19.5t-74 31t-52.5 53.5t-20 87.5q0 41 13.5 74t42 56.5t73 36.5t106.5 12q65 -1 111 -16t75.5 -41t43 -61t13.5 -77h-33q0 27 -9.5 56
t-33 52.5t-64 39t-103.5 16.5q-60 0 -98.5 -12t-61 -33t-31.5 -47.5t-9 -55.5q0 -47 20 -75.5t52.5 -45.5t74 -26.5t85 -18t85 -20.5t74 -34t52.5 -58.5t20 -93.5q0 -88 -65.5 -137.5t-193.5 -47.5q-59 0 -106.5 13.5t-81 40.5t-51.5 68.5t-18 98.5z" />
    <glyph glyph-name="T" unicode="T" horiz-adv-x="536" 
d="M525 704v-32h-240l-4 -672h-35l5 672h-240v32h514z" />
    <glyph glyph-name="U" unicode="U" horiz-adv-x="677" 
d="M338 -16q-82 0 -133 25.5t-79 73t-38 115t-10 151.5v355h34v-355q0 -83 9.5 -145.5t35 -104.5t69 -63t112.5 -21t113 21t69 63t34.5 104.5t9.5 145.5v355h36v-355q0 -84 -10 -151.5t-38.5 -115t-80 -73t-133.5 -25.5z" />
    <glyph glyph-name="V" unicode="V" horiz-adv-x="570" 
d="M530 704h36l-263 -704h-36l-263 704h38l244 -661z" />
    <glyph glyph-name="W" unicode="W" horiz-adv-x="925" 
d="M875 704h36l-212 -704h-37l-200 656l-193 -656h-36l-220 704h38l201 -661l193 661h34l203 -663z" />
    <glyph glyph-name="X" unicode="X" horiz-adv-x="594" 
d="M575 704l-258 -351l254 -353h-39l-235 327l-242 -327h-38l260 355l-251 349h39l233 -324l239 324h38z" />
    <glyph glyph-name="Y" unicode="Y" horiz-adv-x="553" 
d="M502 704h38l-241 -419v-285h-35v285l-251 419h40l229 -382z" />
    <glyph glyph-name="Z" unicode="Z" horiz-adv-x="531" 
d="M59 35h449v-30h-488v32l445 631h-416v31h455v-33z" />
    <glyph glyph-name="bracketleft" unicode="[" horiz-adv-x="307" 
d="M277 728h-144v-893h144v-31h-177v956h177v-32z" />
    <glyph glyph-name="backslash" unicode="\" horiz-adv-x="465" 
d="M405 -40h-35l-310 840h35z" />
    <glyph glyph-name="bracketright" unicode="]" horiz-adv-x="307" 
d="M207 760v-956h-177v31h144v893h-144v32h177z" />
    <glyph glyph-name="asciicircum" unicode="^" horiz-adv-x="395" 
d="M334 471h-32l-105 225l-105 -225h-32l125 262h24z" />
    <glyph glyph-name="underscore" unicode="_" horiz-adv-x="561" 
d="M80 0v29h400v-29h-400z" />
    <glyph glyph-name="grave" unicode="`" horiz-adv-x="253" 
d="M166 637h-32l-76 125h42z" />
    <glyph glyph-name="a" unicode="a" horiz-adv-x="551" 
d="M478 1h-30l-10 95q-20 -48 -70 -76.5t-135 -28.5q-97 0 -137 39.5t-40 112.5q0 63 28 94t78.5 44t120 12.5t151.5 -0.5q0 59 -4 101t-19.5 68t-47 38t-86.5 12q-54 0 -87 -13.5t-51 -34t-23.5 -44t-5.5 -43.5h-31q0 23 6 51.5t26.5 53t60 41.5t105.5 17q77 0 116 -20.5
t55.5 -57.5t17.5 -87.5t1 -110.5v-133zM236 18q84 0 134.5 34.5t63.5 90.5v125h-143t-109 -10.5t-69 -36.5t-24 -79q0 -28 7 -51t24.5 -39t45.5 -25t70 -9z" />
    <glyph glyph-name="b" unicode="b" horiz-adv-x="580" 
d="M319 540q56 0 94.5 -20.5t62.5 -57t35 -87.5t11 -112q0 -60 -11 -110t-35 -86t-62.5 -55.5t-94.5 -19.5q-43 0 -76 10t-57 25.5t-40 35.5t-26 41l-10 -104h-30l10 134v626h33v-323q8 13 24 31t40 34t57 27t75 11zM315 21q89 0 131 63.5t42 178.5t-42 181.5t-131 66.5
q-45 0 -78 -14.5t-56.5 -34.5t-37.5 -40.5t-20 -32.5v-226q5 -22 17.5 -47t35.5 -46t57 -35t82 -14z" />
    <glyph glyph-name="c" unicode="c" horiz-adv-x="537" 
d="M276 -9q-63 0 -105 20t-67 56t-35 86.5t-10 111.5q0 60 10 110.5t35 87t67 57t105 20.5q106 0 156.5 -51.5t50.5 -139.5h-33q-1 78 -46 120t-128 42q-51 0 -86 -17t-56.5 -49t-31 -77.5t-9.5 -102.5q0 -58 9.5 -104t31 -77t56.5 -47.5t86 -16.5q81 0 127 38t47 104h33
q0 -75 -52 -123t-155 -48z" />
    <glyph glyph-name="d" unicode="d" horiz-adv-x="584" 
d="M500 0h-29l-10 106q-10 -21 -26 -41.5t-40 -36.5t-56.5 -26t-76.5 -10q-55 0 -94 19.5t-63 55.5t-35 86t-11 110q0 61 11 112t35 87.5t63 57t94 20.5q42 0 75 -12t57 -28.5t40 -35t24 -32.5v328h33v-626zM265 21q48 0 82 14t57 35.5t36 46.5t18 46v217q-6 13 -20 35
t-37.5 43.5t-57 37t-78.5 15.5q-88 0 -130 -66.5t-42 -181.5t41.5 -178.5t130.5 -63.5z" />
    <glyph glyph-name="e" unicode="e" horiz-adv-x="550" 
d="M278 19q54 0 88.5 15.5t55 37t28.5 44.5t8 38h34q0 -13 -7 -40.5t-29.5 -55t-65 -48t-112.5 -20.5q-120 0 -169.5 68.5t-49.5 204.5t49.5 206.5t169.5 70.5q104 0 161.5 -58.5t57.5 -195.5h-404v-24q0 -49 7 -93.5t27.5 -77.5t56.5 -52.5t94 -19.5zM278 512
q-50 0 -83.5 -15.5t-54.5 -42.5t-31.5 -63t-13.5 -77h366q-2 45 -13 81.5t-32.5 62.5t-55.5 40t-82 14z" />
    <glyph glyph-name="f" unicode="f" horiz-adv-x="297" 
d="M301 738h-41q-37 0 -60 -11t-35.5 -32t-17 -52t-4.5 -71v-41h152v-29h-152v-502h-33v502h-73v29h73v41q0 44 5 80t20.5 62t44.5 40t78 14h43v-30z" />
    <glyph glyph-name="g" unicode="g" horiz-adv-x="572" 
d="M469 531h30l-9 -130v-401q0 -45 -5 -88.5t-26 -77t-64 -54t-120 -20.5q-39 0 -68.5 8t-50.5 20.5t-34.5 29t-22.5 33.5q-20 41 -19 92l32 1v-12t4 -29t13 -37.5t27 -37.5t47.5 -28.5t72.5 -11.5q65 0 101 17.5t54 46.5t22 67.5t4 80.5v99q-10 -20 -26 -39.5t-40 -34.5
t-55.5 -24t-73.5 -9q-55 0 -94 19.5t-63 55.5t-35 86t-11 110q0 61 11 112t35 87.5t63 57t94 20.5q43 0 76.5 -12t58 -28.5t40.5 -34.5t23 -31zM265 21q47 0 80.5 13.5t56.5 34t36.5 45t18.5 45.5v232q-6 12 -20.5 32.5t-38 40t-56.5 33.5t-77 14q-88 0 -130 -66.5
t-42 -181.5t41.5 -178.5t130.5 -63.5z" />
    <glyph glyph-name="h" unicode="h" horiz-adv-x="568" 
d="M302 540q46 0 80 -11t56.5 -37.5t34 -69.5t11.5 -107v-315h-33v314q0 98 -32.5 147t-119.5 49q-40 0 -70.5 -14t-53.5 -34.5t-38 -43.5t-24 -40v-378h-33v760h33v-335q10 17 26 37t39.5 37.5t54 29t69.5 11.5z" />
    <glyph glyph-name="i" unicode="i" horiz-adv-x="207" 
d="M87 646v113h33v-113h-33zM87 0v531h33v-531h-33z" />
    <glyph glyph-name="j" unicode="j" horiz-adv-x="219" 
d="M98 646v113h33v-113h-33zM-21 -172v30q44 0 68.5 9t35.5 29t13 52.5t2 79.5v503h33v-503q0 -55 -3.5 -93t-18.5 -62t-45.5 -34.5t-84.5 -10.5z" />
    <glyph glyph-name="k" unicode="k" horiz-adv-x="478" 
d="M436 0l-216 302l-96 -98v-204h-33v760h33v-515l278 286h41l-200 -206l231 -325h-38z" />
    <glyph glyph-name="l" unicode="l" horiz-adv-x="215" 
d="M91 0v760h33v-760h-33z" />
    <glyph glyph-name="m" unicode="m" horiz-adv-x="915" 
d="M655 540q43 0 76 -11t55 -37.5t33.5 -69.5t11.5 -107v-315h-33v314q0 98 -31.5 147t-114.5 49q-37 0 -66.5 -13.5t-51.5 -33.5t-37 -42.5t-24 -39.5q2 -15 3 -31.5t1 -34.5v-315h-32v314q0 98 -31 147t-114 49q-37 0 -66.5 -14t-51 -34.5t-36.5 -43.5t-23 -40v-378h-33
v395l-10 136h30l10 -112q9 17 24.5 38t38 39.5t52.5 31t68 12.5q66 0 107 -27.5t57 -97.5q9 17 24.5 38.5t39 41t54.5 32.5t70 13z" />
    <glyph glyph-name="n" unicode="n" horiz-adv-x="577" 
d="M311 540q46 0 80 -11t56.5 -37.5t34 -69.5t11.5 -107v-315h-33v314q0 98 -32.5 147t-119.5 49q-39 0 -70 -14t-53.5 -34t-37.5 -42.5t-24 -39.5v-380h-33v395l-10 136h30l10 -111q9 17 25.5 38t40 39t54.5 30.5t71 12.5z" />
    <glyph glyph-name="o" unicode="o" horiz-adv-x="561" 
d="M281 -10q-66 0 -109 20t-68 56t-35 86.5t-10 111.5t10 111.5t35 87.5t68 57.5t109 20.5t108.5 -20.5t68 -57t35.5 -87.5t10 -112t-10 -111.5t-35.5 -86.5t-68 -56t-108.5 -20zM280 19q54 0 90 16.5t58 48t31 77t9 103.5t-9 104t-31 78t-58 49t-90 17t-89.5 -17t-57.5 -49
t-31 -78t-9 -104t9 -103.5t31 -77t57.5 -48t89.5 -16.5z" />
    <glyph glyph-name="p" unicode="p" horiz-adv-x="580" 
d="M319 540q56 0 94.5 -20.5t62.5 -57t35 -87.5t11 -112q0 -60 -11 -110t-35 -86t-62.5 -55.5t-94.5 -19.5q-42 0 -74 9t-56 24t-40 34.5t-26 39.5v-339h-33v642l-10 129h30l10 -106q7 13 22.5 32.5t40 38t58.5 31.5t78 13zM315 21q89 0 131 63.5t42 178.5t-42 181.5
t-131 66.5q-45 0 -78 -15.5t-56.5 -37t-37.5 -43.5t-20 -35v-217q5 -22 17.5 -47t35.5 -46t57 -35t82 -14z" />
    <glyph glyph-name="q" unicode="q" horiz-adv-x="583" 
d="M470 531h29l-9 -107v-664h-33v339q-10 -20 -26 -39.5t-40 -34.5t-55.5 -24t-73.5 -9q-55 0 -94 19.5t-63 55.5t-35 86t-11 110q0 61 11 112t35 87.5t63 57t94 20.5q42 0 75 -11.5t57 -27.5t40 -34t24 -31zM265 21q47 0 80.5 13.5t56.5 34t36.5 45t18.5 45.5v232
q-6 12 -20.5 32.5t-38 40t-56.5 33.5t-77 14q-88 0 -130 -66.5t-42 -181.5t41.5 -178.5t130.5 -63.5z" />
    <glyph glyph-name="r" unicode="r" horiz-adv-x="337" 
d="M110 531l11 -127q5 15 16 38t33.5 44.5t57.5 37.5t86 16v-30q-54 0 -89.5 -20t-57 -47t-31.5 -54t-13 -41v-348h-33v384l-10 147h30z" />
    <glyph glyph-name="s" unicode="s" horiz-adv-x="504" 
d="M45 160h32q0 -68 43 -103.5t132 -36.5q50 -1 83 7.5t53 24t29 36.5t9 45q1 47 -26 70.5t-68 36t-88.5 19.5t-89 21.5t-69 42t-28.5 79.5q0 63 47.5 101.5t150.5 36.5q100 -2 145.5 -41.5t45.5 -116.5h-31q0 27 -7 50.5t-25 41t-49 27.5t-78 11q-49 1 -81 -8.5t-51 -25.5
t-26 -36t-7 -40q0 -44 27.5 -66t68.5 -33.5t88.5 -19t88.5 -22.5t68.5 -44t27.5 -83q0 -68 -49 -106.5t-159 -36.5q-100 2 -153.5 42t-53.5 127z" />
    <glyph glyph-name="t" unicode="t" horiz-adv-x="298" 
d="M238 29h44v-30h-46q-49 0 -76.5 15.5t-41.5 41.5t-17.5 60.5t-3.5 72.5v313h-67v29h67v161l33 9v-170h148v-29h-148v-313q0 -34 3 -63.5t14 -51t32.5 -33.5t58.5 -12z" />
    <glyph glyph-name="u" unicode="u" horiz-adv-x="566" 
d="M493 0h-30l-11 128q-6 -14 -21 -37.5t-39 -45.5t-58 -38t-78 -16q-45 0 -79.5 11t-57.5 37.5t-34.5 69.5t-11.5 106l1 316h33l-1 -313q0 -98 32.5 -147t120.5 -49q46 0 79.5 19t57 44.5t36.5 50.5t18 37v358h33v-384z" />
    <glyph glyph-name="v" unicode="v" horiz-adv-x="471" 
d="M426 531h36l-209 -531h-43l-201 531h38l186 -500z" />
    <glyph glyph-name="w" unicode="w" horiz-adv-x="728" 
d="M685 531h34l-163 -531h-41l-152 479l-144 -479h-41l-169 532h35l155 -498l148 497h34l155 -495z" />
    <glyph glyph-name="x" unicode="x" horiz-adv-x="452" 
d="M443 531l-197 -263l192 -268h-41l-173 242l-176 -242h-39l197 267l-189 264h41l170 -238l176 238h39z" />
    <glyph glyph-name="y" unicode="y" horiz-adv-x="466" 
d="M422 531h35l-277 -749h-33l80 218h-10l-208 531h38l191 -500z" />
    <glyph glyph-name="z" unicode="z" horiz-adv-x="408" 
d="M28 526h359v-32l-336 -460l336 1v-29h-369v31l334 461l-324 -1v29z" />
    <glyph glyph-name="braceleft" unicode="{" horiz-adv-x="365" 
d="M335 762v-32q-46 0 -73.5 -6t-41.5 -20t-18 -36t-4 -55v-256q0 -22 -6.5 -36t-14 -21.5t-14.5 -10t-9 -2.5q2 0 9 -3t14.5 -10.5t14 -21t6.5 -36.5v-255q0 -33 4 -55t18 -36t41.5 -20t73.5 -6v-32q-57 0 -91 8t-51.5 25.5t-22.5 45.5t-5 68v257q0 15 -3 25.5t-12.5 17.5
t-26.5 10t-45 3v30q28 0 45 3t26.5 9.5t12.5 17t3 25.5v259q0 41 5 68.5t22.5 45t51.5 25t91 7.5z" />
    <glyph glyph-name="bar" unicode="|" horiz-adv-x="213" 
d="M91 -196v1016h31v-1016h-31z" />
    <glyph glyph-name="braceright" unicode="}" horiz-adv-x="365" 
d="M30 -188v32q47 0 74 6t41 20t18 36t4 55v256q0 23 6 36.5t14 21t15 10t8 2.5q-1 0 -8 3t-15 10.5t-14 21.5t-6 36v255q0 33 -4 55t-18 36t-41 20t-74 6v32q57 0 91 -8t51.5 -25t22.5 -45t5 -69v-257q0 -15 3 -25.5t12.5 -17.5t26.5 -10t45 -3v-30q-28 0 -45 -3
t-26.5 -9.5t-12.5 -17t-3 -25.5v-259q0 -41 -5 -68.5t-22.5 -45t-51.5 -25t-91 -7.5z" />
    <glyph glyph-name="asciitilde" unicode="~" horiz-adv-x="473" 
d="M395 340h27q0 -10 -4 -24.5t-14.5 -27.5t-29 -22.5t-47.5 -9.5q-34 0 -55.5 8.5t-40 19t-38 19t-48.5 8.5q-19 0 -32 -6.5t-21 -15.5t-11.5 -18t-3.5 -15h-26q0 10 4 24.5t14.5 27.5t29 22.5t46.5 9.5q34 0 55.5 -8.5t40 -19t38 -19t48.5 -8.5q19 0 32 6.5t21 15.5
t11.5 18t3.5 15z" />
    <glyph glyph-name="uni00A0" unicode="&#xa0;" horiz-adv-x="219" 
 />
    <glyph glyph-name="exclamdown" unicode="&#xa1;" horiz-adv-x="215" 
d="M91 437v94h33v-94h-33zM91 -172l1 549h31l1 -549h-33z" />
    <glyph glyph-name="cent" unicode="&#xa2;" horiz-adv-x="537" 
d="M289 591v-493q75 4 117.5 42t43.5 101h33q0 -73 -48.5 -120t-145.5 -51v-91h-30v91q-58 3 -96.5 24.5t-61.5 57.5t-32.5 85t-9.5 107t9.5 107t32.5 85.5t61.5 58t96.5 24.5v90h30v-90q99 -4 146.5 -55t47.5 -136h-33q-1 75 -42.5 117t-118.5 46zM93 344q0 -112 37 -176
t129 -70v492q-46 -3 -78 -21t-51.5 -50t-28 -76.5t-8.5 -98.5z" />
    <glyph glyph-name="sterling" unicode="&#xa3;" horiz-adv-x="499" 
d="M174 180q0 -36 -9.5 -62.5t-23 -44.5t-29.5 -29t-29 -17h377v-31h-430v31q31 9 56 28q22 18 38.5 47t16.5 78q0 28 -2 52.5t-6 46.5h-103v28h98q-6 27 -13 52.5t-12.5 50.5t-9.5 52t-4 57q0 44 14 79t39 59.5t60 37.5t77 13q87 0 138.5 -51t51.5 -137h-34q0 77 -43.5 118
t-112.5 41t-112.5 -41t-43.5 -120q0 -56 13.5 -105t24.5 -106h165v-28h-160q4 -23 6 -47t2 -52z" />
    <glyph glyph-name="currency" unicode="&#xa4;" horiz-adv-x="639" 
d="M581 84l-21 -22l-78 77q-26 -25 -65 -39.5t-96 -14.5t-96 14.5t-65 39.5l-78 -78l-22 22l80 80q-23 32 -32 73.5t-9 86.5q0 44 8.5 84.5t29.5 72.5l-78 79l22 22l75 -76q26 28 66 44t99 16q54 0 92.5 -13.5t64.5 -37.5l77 75l21 -21l-77 -78q25 -34 34.5 -77t9.5 -90
q0 -45 -8.5 -86.5t-31.5 -73.5zM321 115q54 0 90 16t58 44t31 66t9 82t-9 82.5t-31 67.5t-58 45.5t-90 16.5t-90 -16.5t-57.5 -45.5t-30.5 -67.5t-9 -82.5t9 -82t30.5 -66t57.5 -44t90 -16z" />
    <glyph glyph-name="yen" unicode="&#xa5;" horiz-adv-x="531" 
d="M518 704l-215 -366h93v-25h-107l-1 -1v-76h108v-26h-108v-210h-35v210h-111v26h111v76l-1 1h-110v25h95l-224 366h40l219 -356l208 356h38z" />
    <glyph glyph-name="brokenbar" unicode="&#xa6;" horiz-adv-x="213" 
d="M91 395v425h31v-425h-31zM122 245v-425h-31v425h31z" />
    <glyph glyph-name="section" unicode="&#xa7;" horiz-adv-x="511" 
d="M397 244q29 -16 47 -42.5t18 -70.5q0 -69 -51 -106t-158 -37t-157.5 39.5t-50.5 124.5h32q0 -65 40 -100.5t136 -35.5q48 0 81 8.5t54 24t30.5 36.5t9.5 45q0 46 -27.5 69.5t-69 36t-90 20t-90 22t-69 42t-27.5 79.5q0 29 7.5 50t18 36t22.5 25t20 15q-28 15 -45.5 40
t-17.5 67q0 63 46.5 100.5t149.5 37.5q54 0 91.5 -10t60.5 -29.5t33 -48t10 -66.5h-31q0 26 -6 49t-23 40t-49 27t-85 10q-50 0 -82 -9.5t-50 -25t-24.5 -35.5t-6.5 -40q0 -44 27.5 -66t69 -33.5t90 -19t90 -22.5t69 -44t27.5 -83q0 -28 -8 -48.5t-19 -35t-23 -23t-20 -13.5
zM89 399q0 -44 28 -66t69.5 -33.5t90 -19t90.5 -22.5q9 5 20 13.5t21.5 21.5t17.5 30.5t7 39.5q0 47 -28 70t-70 35.5t-91 20t-90 22.5q-9 -5 -20 -14.5t-21 -23t-17 -32t-7 -42.5z" />
    <glyph glyph-name="dieresis" unicode="&#xa8;" horiz-adv-x="331" 
d="M63 637v113h34v-113h-34zM192 637v113h34v-113h-34z" />
    <glyph glyph-name="copyright" unicode="&#xa9;" horiz-adv-x="773" 
d="M386 -4q-94 0 -156.5 28.5t-100 77t-53.5 112.5t-16 134q0 71 16 135.5t53.5 113.5t100 78.5t156.5 29.5q96 0 159 -29.5t100.5 -78.5t52.5 -113.5t15 -135.5q0 -70 -15 -134t-52.5 -112.5t-100.5 -77t-159 -28.5zM386 21q86 0 143 26.5t92 71.5t49.5 104t14.5 125
t-14.5 126t-49.5 106t-92 73t-143 27q-85 0 -142 -27t-91.5 -73t-49.5 -106t-15 -126t15 -125t49.5 -104t91.5 -71.5t142 -26.5zM389 143q-46 0 -77 14.5t-50 41.5t-27 65t-8 86t8 87t27 66t50 41.5t77 14.5q70 0 105.5 -36.5t37.5 -101.5h-33q-2 54 -31 82t-79 28
q-70 0 -99.5 -45.5t-29.5 -135.5q0 -89 29.5 -134t99.5 -45q49 0 78 26t31 77h32q-1 -63 -36.5 -97t-104.5 -34z" />
    <glyph glyph-name="ordfeminine" unicode="&#xaa;" horiz-adv-x="388" 
d="M340 361h-28l-7 64q-14 -32 -48 -51.5t-93 -19.5q-70 0 -98 27.5t-28 79.5q0 44 19 66t54 31t83.5 8.5t106.5 -0.5q0 40 -2.5 68.5t-13 46.5t-31.5 26t-58 8q-36 0 -58 -9t-34 -23t-16 -29.5t-4 -29.5h-30q0 16 4 36t18.5 37.5t42.5 29.5t76 12q55 0 83.5 -14.5t40.5 -40
t13 -61.5t1 -78v-92zM169 376q57 0 90.5 24t41.5 63v82q-53 0 -95.5 0.5t-72.5 -6.5t-46 -25t-16 -54q0 -38 21 -61t77 -23z" />
    <glyph glyph-name="guillemotleft" unicode="&#xab;" horiz-adv-x="414" 
d="M229 418l-123 -156l123 -149h-39l-117 141v16l117 148h39zM342 418l-123 -156l123 -149h-38l-117 141v16l117 148h38z" />
    <glyph glyph-name="registered" unicode="&#xae;" horiz-adv-x="773" 
d="M386 705q96 0 159 -29.5t100.5 -78.5t52.5 -113.5t15 -135.5q0 -70 -15 -134t-52.5 -112.5t-100.5 -77t-159 -28.5q-94 0 -156.5 28.5t-100 77t-53.5 112.5t-16 134q0 71 16 135.5t53.5 113.5t100 78.5t156.5 29.5zM386 21q86 0 143 26.5t92 71.5t49.5 104t14.5 125
t-14.5 126t-49.5 106t-92 73t-143 27q-85 0 -142 -27t-91.5 -73t-49.5 -106t-15 -126t15 -125t49.5 -104t91.5 -71.5t142 -26.5zM539 430q0 -59 -24.5 -83.5t-71.5 -30.5l91 -170h-33l-90 168h-123v-168h-31v400h143q33 0 59 -5t44 -18.5t27 -35.5t9 -57zM288 341h112
q20 0 39 2t34 11t24 27t9 49q0 30 -9 47.5t-24 27t-34 12t-39 2.5h-112v-178z" />
    <glyph glyph-name="macron" unicode="&#xaf;" horiz-adv-x="346" 
d="M60 694h206v-28h-206v28z" />
    <glyph glyph-name="degree" unicode="&#xb0;" horiz-adv-x="294" 
d="M147 521q-48 0 -67.5 27t-19.5 72q0 46 19.5 73.5t67.5 27.5q49 0 68 -27.5t19 -73.5q0 -45 -19 -72t-68 -27zM147 545q19 0 30.5 7t18 17.5t8.5 24t2 26.5t-2 26.5t-8.5 25t-18 18.5t-30.5 7t-30.5 -7t-18 -18.5t-8.5 -25t-2 -26.5t2 -26.5t8.5 -24t18 -17.5t30.5 -7z
" />
    <glyph glyph-name="plusminus" unicode="&#xb1;" horiz-adv-x="496" 
d="M264 365h162v-29h-162v-133h-31v133h-163v29h163v130h31v-130zM70 122v29h356v-29h-356z" />
    <glyph glyph-name="uni00B2" unicode="&#xb2;" horiz-adv-x="394" 
d="M38 347v32q22 18 46 40l48 43.5l55 50.5l50.5 48.5t38.5 45t25 46.5t9 53q0 56 -31.5 84.5t-88.5 28.5t-89.5 -28.5t-32.5 -82.5h-31q0 65 39.5 101t113.5 36q72 0 111 -35.5t39 -101.5q0 -32 -9 -58t-25.5 -50t-39 -47l-50.5 -50l-53 -50.5l-45 -41.5l-43 -38l273 1v-27
h-310z" />
    <glyph glyph-name="uni00B3" unicode="&#xb3;" horiz-adv-x="406" 
d="M190 658q87 0 129 -44t42 -117q0 -72 -39 -116.5t-128 -44.5q-42 0 -72.5 11.5t-50 30t-29 43t-9.5 50.5h30q0 -45 33 -76.5t98 -31.5q69 0 103 34.5t34 100.5q0 63 -36.5 99.5t-103.5 36.5q-11 0 -21.5 -1t-19.5 -2l-20 -4v24l182 157l-252 -2v27h290v-25l-176 -151
q4 1 8 1h8z" />
    <glyph glyph-name="acute" unicode="&#xb4;" horiz-adv-x="253" 
d="M59 637l66 125h42l-77 -125h-31z" />
    <glyph glyph-name="paragraph" unicode="&#xb6;" horiz-adv-x="518" 
d="M427 760v-760h-31v729h-96v-729h-31v325q-62 1 -105.5 11.5t-71 35t-40 66t-12.5 104.5t12.5 104.5t40 66.5t71 35.5t105.5 11.5h158zM74 542q0 -60 13 -96.5t37.5 -56.5t61 -26.5t83.5 -6.5v372q-47 0 -83.5 -6.5t-61 -26t-37.5 -56t-13 -97.5z" />
    <glyph glyph-name="periodcentered" unicode="&#xb7;" horiz-adv-x="190" 
d="M78 239v113h37v-113h-37z" />
    <glyph glyph-name="cedilla" unicode="&#xb8;" horiz-adv-x="281" 
d="M149 3l-27 -56q37 -2 62 -17.5t25 -52.5q0 -44 -26 -59t-74 -15q-11 0 -19.5 1t-14.5 1q-8 2 -14 3v25q6 -1 13 -3q7 -1 15 -1.5t17 -0.5q37 0 54.5 9t17.5 41q0 29 -26 39.5t-61 10.5h-6l35 75h29z" />
    <glyph glyph-name="uni00B9" unicode="&#xb9;" horiz-adv-x="211" 
d="M112 841h25v-498h-30v467l-97 -47v29z" />
    <glyph glyph-name="ordmasculine" unicode="&#xba;" horiz-adv-x="385" 
d="M193 352q-47 0 -77.5 14t-48.5 39.5t-25.5 61t-7.5 78.5q0 44 7.5 79.5t25.5 61t48.5 40t77.5 14.5t77.5 -14t48.5 -39.5t25 -61.5t7 -80q0 -43 -7 -78.5t-25 -61t-48.5 -39.5t-77.5 -14zM193 379q72 0 99 43.5t27 122.5q0 80 -27 124.5t-99 44.5t-99 -44.5t-27 -124.5
q0 -79 27 -122.5t99 -43.5z" />
    <glyph glyph-name="guillemotright" unicode="&#xbb;" horiz-adv-x="414" 
d="M227 270v-16l-117 -141h-38l123 149l-123 156h38zM224 418l117 -148v-16l-117 -141h-39l123 149l-123 156h39z" />
    <glyph glyph-name="onequarter" unicode="&#xbc;" horiz-adv-x="791" 
d="M591 796h35l-547 -836h-34zM107 264v467l-97 -47v29l102 49h25v-498h-30zM760 143v-26h-60v-117h-30v117h-255v26l253 353h32v-353h60zM447 143h223v315z" />
    <glyph glyph-name="onehalf" unicode="&#xbd;" horiz-adv-x="849" 
d="M591 796h35l-547 -836h-34zM107 264v467l-97 -47v29l102 49h25v-498h-30zM530 30l273 1v-27h-310v32q22 18 46 40l48 43.5l55 50.5l50.5 48.5t38.5 45t25 46.5t9 53q0 56 -31.5 84.5t-88.5 28.5t-89.5 -28.5t-32.5 -82.5h-31q0 65 39.5 101t113.5 36q72 0 111 -35.5
t39 -101.5q0 -32 -9 -58t-25.5 -50t-39 -47l-50.5 -50l-53 -50.5l-45 -41.5z" />
    <glyph glyph-name="threequarters" unicode="&#xbe;" horiz-adv-x="975" 
d="M775 796h35l-547 -836h-34zM361 418q0 -72 -39 -116.5t-128 -44.5q-42 0 -72.5 11.5t-50 30t-29 43t-9.5 50.5h30q0 -45 33 -76.5t98 -31.5q69 0 103 34.5t34 100.5q0 63 -36.5 99.5t-103.5 36.5q-11 0 -21.5 -1t-19.5 -2l-20 -4v24l182 157l-252 -2v27h290v-25
l-176 -151q4 1 8 1h8q87 0 129 -44t42 -117zM944 143v-26h-60v-117h-30v117h-255v26l253 353h32v-353h60zM631 143h223v315z" />
    <glyph glyph-name="questiondown" unicode="&#xbf;" horiz-adv-x="475" 
d="M274 529v-95h-33v95h33zM242 374h32l-1 -43q0 -48 -12 -78t-29.5 -51t-38.5 -37t-38.5 -35.5t-29.5 -47.5t-12 -72q0 -158 144 -158t144 162h34q0 -91 -42.5 -142t-135.5 -51q-94 0 -136 50.5t-42 136.5q0 48 12 79t30 52.5t39.5 38t39.5 36.5t30 47t12 70v43z" />
    <glyph glyph-name="Agrave" unicode="&#xc0;" horiz-adv-x="608" 
d="M323 760h-33l-76 107h42zM558 0l-81 210h-348l-80 -210h-36l273 704h36l273 -704h-37zM141 241h325l-163 424z" />
    <glyph glyph-name="Aacute" unicode="&#xc1;" horiz-adv-x="608" 
d="M397 867l-77 -107h-32l66 107h43zM558 0l-81 210h-348l-80 -210h-36l273 704h36l273 -704h-37zM141 241h325l-163 424z" />
    <glyph glyph-name="Acircumflex" unicode="&#xc2;" horiz-adv-x="608" 
d="M304 832l-74 -72h-38l98 101h28l98 -101h-38zM558 0l-81 210h-348l-80 -210h-36l273 704h36l273 -704h-37zM141 241h325l-163 424z" />
    <glyph glyph-name="Atilde" unicode="&#xc3;" horiz-adv-x="608" 
d="M258 809q-14 0 -22 -5.5t-11.5 -13.5t-4.5 -16t-1 -14h-26q0 10 2 23.5t8.5 25.5t19 20t34.5 8t33 -7t18.5 -15t16 -15t25.5 -7q14 0 22 5.5t12 13.5t5 16.5t1 13.5h25q0 -11 -1.5 -24.5t-8 -25.5t-19 -20t-33.5 -8q-22 0 -33.5 7t-19.5 15.5t-16.5 15.5t-25.5 7zM558 0
l-81 210h-348l-80 -210h-36l273 704h36l273 -704h-37zM141 241h325l-163 424z" />
    <glyph glyph-name="Adieresis" unicode="&#xc4;" horiz-adv-x="608" 
d="M258 873v-113h-34v113h34zM385 873v-113h-34v113h34zM558 0l-81 210h-348l-80 -210h-36l273 704h36l273 -704h-37zM141 241h325l-163 424z" />
    <glyph glyph-name="Aring" unicode="&#xc5;" horiz-adv-x="608" 
d="M304 760q-32 0 -49 18.5t-17 45.5t17 45.5t49 18.5t49.5 -18.5t17.5 -45.5t-17.5 -45.5t-49.5 -18.5zM304 865q-18 0 -29 -11t-11 -30t11 -30t29 -11t29 11t11 30t-11 30t-29 11zM558 0l-81 210h-348l-80 -210h-36l273 704h36l273 -704h-37zM141 241h325l-163 424z" />
    <glyph glyph-name="AE" unicode="&#xc6;" horiz-adv-x="877" 
d="M458 32h398v-32h-432v210h-253l-119 -210h-39l400 704h439v-32h-394v-288h344v-31h-344v-321zM189 242h235v416z" />
    <glyph glyph-name="Ccedilla" unicode="&#xc7;" horiz-adv-x="645" 
d="M339 15q204 0 215 197h34q-4 -104 -59.5 -164t-171.5 -64l-22 -46q37 -2 62 -17.5t25 -52.5q0 -44 -26 -59t-74 -15q-11 0 -19.5 1t-14.5 1q-8 2 -14 3v25q6 -1 13 -3q7 -1 15 -1.5t17 -0.5q37 0 54.5 9t17.5 41q0 29 -26 39.5t-61 10.5h-6l30 65q-78 2 -129.5 28.5
t-82.5 74.5t-43.5 115t-12.5 149q0 84 13 152t45 116.5t86 74.5t135 26q128 0 188.5 -63.5t62.5 -176.5h-34q-4 103 -57 155.5t-160 52.5q-68 0 -114.5 -21.5t-75.5 -64t-42 -105.5t-13 -146t13 -146t42 -105t75.5 -63.5t114.5 -21.5z" />
    <glyph glyph-name="Egrave" unicode="&#xc8;" horiz-adv-x="547" 
d="M324 760h-33l-76 107h42zM126 32h400v-32h-434v704h429v-32h-395v-288h345v-31h-345v-321z" />
    <glyph glyph-name="Eacute" unicode="&#xc9;" horiz-adv-x="547" 
d="M398 867l-77 -107h-32l66 107h43zM126 32h400v-32h-434v704h429v-32h-395v-288h345v-31h-345v-321z" />
    <glyph glyph-name="Ecircumflex" unicode="&#xca;" horiz-adv-x="547" 
d="M305 832l-74 -72h-38l98 101h28l98 -101h-38zM126 32h400v-32h-434v704h429v-32h-395v-288h345v-31h-345v-321z" />
    <glyph glyph-name="Edieresis" unicode="&#xcb;" horiz-adv-x="547" 
d="M259 873v-113h-34v113h34zM386 873v-113h-34v113h34zM126 32h400v-32h-434v704h429v-32h-395v-288h345v-31h-345v-321z" />
    <glyph glyph-name="Igrave" unicode="&#xcc;" horiz-adv-x="218" 
d="M129 760h-33l-76 107h42zM92 0v704h34v-704h-34z" />
    <glyph glyph-name="Iacute" unicode="&#xcd;" horiz-adv-x="218" 
d="M94 760l66 107h43l-77 -107h-32zM92 0v704h34v-704h-34z" />
    <glyph glyph-name="Icircumflex" unicode="&#xce;" horiz-adv-x="218" 
d="M124 861l98 -101h-38l-74 72l-74 -72h-38l98 101h28zM92 0v704h34v-704h-34z" />
    <glyph glyph-name="Idieresis" unicode="&#xcf;" horiz-adv-x="218" 
d="M30 760v113h34v-113h-34zM157 760v113h34v-113h-34zM92 0v704h34v-704h-34z" />
    <glyph glyph-name="Eth" unicode="&#xd0;" horiz-adv-x="660" 
d="M92 707h165q108 0 175 -22.5t104.5 -67.5t50.5 -111.5t13 -154.5t-13 -155t-50.5 -111t-104.5 -66.5t-175 -22.5h-165v343h-75v28h75v340zM126 28l132 -1q92 0 151.5 17.5t94 56.5t48 100.5t13.5 149.5t-13.5 150t-48 101t-94 57t-151.5 18h-132v-310h138v-28h-138v-311z
" />
    <glyph glyph-name="Ntilde" unicode="&#xd1;" horiz-adv-x="704" 
d="M307 809q-14 0 -22 -5.5t-11.5 -13.5t-4.5 -16t-1 -14h-26q0 10 2 23.5t8.5 25.5t19 20t34.5 8t33 -7t18.5 -15t16 -15t25.5 -7q14 0 22 5.5t12 13.5t5 16.5t1 13.5h25q0 -11 -1.5 -24.5t-8 -25.5t-19 -20t-33.5 -8q-22 0 -33.5 7t-19.5 15.5t-16.5 15.5t-25.5 7z
M578 704h34v-704h-37l-445 650l-5 -650h-33l5 704h36l447 -651z" />
    <glyph glyph-name="Ograve" unicode="&#xd2;" horiz-adv-x="686" 
d="M362 761h-33l-76 107h42zM343 -16q-83 0 -137.5 26t-87 73.5t-45.5 115.5t-13 152t13 152t45.5 116.5t87 74.5t137.5 26t137.5 -26t87 -74.5t45.5 -116.5t13 -152t-13 -152t-45.5 -115.5t-87 -73.5t-137.5 -26zM343 15q70 0 117.5 21.5t77 63.5t42 105t12.5 146
t-12.5 145.5t-42 105.5t-77 64.5t-117.5 21.5q-69 0 -117 -21.5t-77 -64.5t-42 -105.5t-13 -145.5t13 -146t42 -105t77 -63.5t117 -21.5z" />
    <glyph glyph-name="Oacute" unicode="&#xd3;" horiz-adv-x="686" 
d="M327 761l66 107h43l-77 -107h-32zM343 -16q-83 0 -137.5 26t-87 73.5t-45.5 115.5t-13 152t13 152t45.5 116.5t87 74.5t137.5 26t137.5 -26t87 -74.5t45.5 -116.5t13 -152t-13 -152t-45.5 -115.5t-87 -73.5t-137.5 -26zM343 15q70 0 117.5 21.5t77 63.5t42 105t12.5 146
t-12.5 145.5t-42 105.5t-77 64.5t-117.5 21.5q-69 0 -117 -21.5t-77 -64.5t-42 -105.5t-13 -145.5t13 -146t42 -105t77 -63.5t117 -21.5z" />
    <glyph glyph-name="Ocircumflex" unicode="&#xd4;" horiz-adv-x="686" 
d="M343 833l-74 -72h-38l98 101h28l98 -101h-38zM343 720q83 0 137.5 -26t87 -74.5t45.5 -116.5t13 -152t-13 -152t-45.5 -115.5t-87 -73.5t-137.5 -26t-137.5 26t-87 73.5t-45.5 115.5t-13 152t13 152t45.5 116.5t87 74.5t137.5 26zM343 15q70 0 117.5 21.5t77 63.5t42 105
t12.5 146t-12.5 145.5t-42 105.5t-77 64.5t-117.5 21.5q-69 0 -117 -21.5t-77 -64.5t-42 -105.5t-13 -145.5t13 -146t42 -105t77 -63.5t117 -21.5z" />
    <glyph glyph-name="Otilde" unicode="&#xd5;" horiz-adv-x="686" 
d="M429 843h25q0 -11 -1.5 -24.5t-8 -25.5t-19 -20t-33.5 -8q-22 0 -33.5 7t-19.5 15.5t-16.5 15.5t-25.5 7q-14 0 -22 -5.5t-11.5 -13.5t-4.5 -16t-1 -14h-26q0 10 2 23.5t8.5 25.5t19 20t34.5 8t33 -7t18.5 -15t16 -15t25.5 -7q14 0 22 5.5t12 13.5t5 16.5t1 13.5z
M343 -16q-83 0 -137.5 26t-87 73.5t-45.5 115.5t-13 152t13 152t45.5 116.5t87 74.5t137.5 26t137.5 -26t87 -74.5t45.5 -116.5t13 -152t-13 -152t-45.5 -115.5t-87 -73.5t-137.5 -26zM343 15q70 0 117.5 21.5t77 63.5t42 105t12.5 146t-12.5 145.5t-42 105.5t-77 64.5
t-117.5 21.5q-69 0 -117 -21.5t-77 -64.5t-42 -105.5t-13 -145.5t13 -146t42 -105t77 -63.5t117 -21.5z" />
    <glyph glyph-name="Odieresis" unicode="&#xd6;" horiz-adv-x="686" 
d="M263 761v113h34v-113h-34zM390 761v113h34v-113h-34zM343 -16q-83 0 -137.5 26t-87 73.5t-45.5 115.5t-13 152t13 152t45.5 116.5t87 74.5t137.5 26t137.5 -26t87 -74.5t45.5 -116.5t13 -152t-13 -152t-45.5 -115.5t-87 -73.5t-137.5 -26zM343 15q70 0 117.5 21.5
t77 63.5t42 105t12.5 146t-12.5 145.5t-42 105.5t-77 64.5t-117.5 21.5q-69 0 -117 -21.5t-77 -64.5t-42 -105.5t-13 -145.5t13 -146t42 -105t77 -63.5t117 -21.5z" />
    <glyph glyph-name="multiply" unicode="&#xd7;" horiz-adv-x="464" 
d="M391 446l-139 -143l139 -143l-22 -22l-138 143l-138 -143l-21 22l138 143l-138 143l21 21l138 -142l138 142z" />
    <glyph glyph-name="Oslash" unicode="&#xd8;" horiz-adv-x="686" 
d="M604 714l-51 -75q41 -48 57 -121t16 -167q0 -84 -13 -152t-45.5 -115.5t-87 -73.5t-137.5 -26q-66 0 -114 16.5t-80 47.5l-38 -55h-36l53 78q-38 48 -53 118.5t-15 161.5q0 84 13 152t45.5 116.5t87 74.5t137.5 26q63 0 109.5 -15t78.5 -44l36 53h37zM94 351
q0 -83 13 -145.5t42 -104.5l362 531q-29 28 -70 42t-98 14q-69 0 -117 -21.5t-77 -64.5t-42 -105.5t-13 -145.5zM343 15q70 0 117.5 21.5t77 63.5t42 105t12.5 146q0 87 -14 151t-46 107l-364 -532q30 -31 72.5 -46.5t102.5 -15.5z" />
    <glyph glyph-name="Ugrave" unicode="&#xd9;" horiz-adv-x="677" 
d="M358 760h-33l-76 107h42zM338 -16q-82 0 -133 25.5t-79 73t-38 115t-10 151.5v355h34v-355q0 -83 9.5 -145.5t35 -104.5t69 -63t112.5 -21t113 21t69 63t34.5 104.5t9.5 145.5v355h36v-355q0 -84 -10 -151.5t-38.5 -115t-80 -73t-133.5 -25.5z" />
    <glyph glyph-name="Uacute" unicode="&#xda;" horiz-adv-x="677" 
d="M323 760l66 107h43l-77 -107h-32zM338 -16q-82 0 -133 25.5t-79 73t-38 115t-10 151.5v355h34v-355q0 -83 9.5 -145.5t35 -104.5t69 -63t112.5 -21t113 21t69 63t34.5 104.5t9.5 145.5v355h36v-355q0 -84 -10 -151.5t-38.5 -115t-80 -73t-133.5 -25.5z" />
    <glyph glyph-name="Ucircumflex" unicode="&#xdb;" horiz-adv-x="677" 
d="M339 832l-74 -72h-38l98 101h28l98 -101h-38zM564 704h36v-355q0 -84 -10 -151.5t-38.5 -115t-80 -73t-133.5 -25.5t-133 25.5t-79 73t-38 115t-10 151.5v355h34v-355q0 -83 9.5 -145.5t35 -104.5t69 -63t112.5 -21t113 21t69 63t34.5 104.5t9.5 145.5v355z" />
    <glyph glyph-name="Udieresis" unicode="&#xdc;" horiz-adv-x="677" 
d="M259 760v113h34v-113h-34zM386 760v113h34v-113h-34zM338 -16q-82 0 -133 25.5t-79 73t-38 115t-10 151.5v355h34v-355q0 -83 9.5 -145.5t35 -104.5t69 -63t112.5 -21t113 21t69 63t34.5 104.5t9.5 145.5v355h36v-355q0 -84 -10 -151.5t-38.5 -115t-80 -73t-133.5 -25.5z
" />
    <glyph glyph-name="Yacute" unicode="&#xdd;" horiz-adv-x="553" 
d="M369 867l-77 -107h-32l66 107h43zM502 704h38l-241 -419v-285h-35v285l-251 419h40l229 -382z" />
    <glyph glyph-name="Thorn" unicode="&#xde;" horiz-adv-x="610" 
d="M126 580h207q58 0 102.5 -10t75 -35t46 -67t15.5 -106t-15.5 -106t-46 -67t-75.5 -35t-103 -10h-206v-144h-34v704h34v-124zM126 177l206 -1q42 0 79.5 5.5t65 25t44 56.5t16.5 99t-16.5 98.5t-44 56t-65 25.5t-79.5 6h-206v-371z" />
    <glyph glyph-name="germandbls" unicode="&#xdf;" horiz-adv-x="549" 
d="M469 569q0 -55 -23 -88t-52 -50.5t-57 -23t-39 -6.5q11 0 43 -3t66 -21.5t60.5 -57.5t26.5 -111q0 -55 -16 -94t-52 -64.5t-94.5 -37.5t-144.5 -12v30q76 0 128 9t84.5 29.5t46.5 54.5t14 85q0 60 -21.5 95t-57 53t-82 23.5t-96.5 6.5v29q44 0 85.5 7t74 24.5t52.5 47
t20 75.5q0 36 -8 67.5t-26.5 54t-48 35.5t-72.5 13t-73 -13t-48.5 -36t-26.5 -54t-8 -67v-569h-33v565q0 42 9.5 79t31.5 64.5t58 43.5t89 16h1q53 0 89 -16t58.5 -43t32 -63t9.5 -77z" />
    <glyph glyph-name="agrave" unicode="&#xe0;" horiz-adv-x="551" 
d="M284 637h-32l-76 125h42zM478 1h-30l-10 95q-20 -48 -70 -76.5t-135 -28.5q-97 0 -137 39.5t-40 112.5q0 63 28 94t78.5 44t120 12.5t151.5 -0.5q0 59 -4 101t-19.5 68t-47 38t-86.5 12q-54 0 -87 -13.5t-51 -34t-23.5 -44t-5.5 -43.5h-31q0 23 6 51.5t26.5 53t60 41.5
t105.5 17q77 0 116 -20.5t55.5 -57.5t17.5 -87.5t1 -110.5v-133zM236 18q84 0 134.5 34.5t63.5 90.5v125h-143t-109 -10.5t-69 -36.5t-24 -79q0 -28 7 -51t24.5 -39t45.5 -25t70 -9z" />
    <glyph glyph-name="aacute" unicode="&#xe1;" horiz-adv-x="551" 
d="M346 762l-77 -125h-31l66 125h42zM478 1h-30l-10 95q-20 -48 -70 -76.5t-135 -28.5q-97 0 -137 39.5t-40 112.5q0 63 28 94t78.5 44t120 12.5t151.5 -0.5q0 59 -4 101t-19.5 68t-47 38t-86.5 12q-54 0 -87 -13.5t-51 -34t-23.5 -44t-5.5 -43.5h-31q0 23 6 51.5t26.5 53
t60 41.5t105.5 17q77 0 116 -20.5t55.5 -57.5t17.5 -87.5t1 -110.5v-133zM236 18q84 0 134.5 34.5t63.5 90.5v125h-143t-109 -10.5t-69 -36.5t-24 -79q0 -28 7 -51t24.5 -39t45.5 -25t70 -9z" />
    <glyph glyph-name="acircumflex" unicode="&#xe2;" horiz-adv-x="551" 
d="M272 731l-77 -94h-36l100 125h26l100 -125h-36zM478 1h-30l-10 95q-20 -48 -70 -76.5t-135 -28.5q-97 0 -137 39.5t-40 112.5q0 63 28 94t78.5 44t120 12.5t151.5 -0.5q0 59 -4 101t-19.5 68t-47 38t-86.5 12q-54 0 -87 -13.5t-51 -34t-23.5 -44t-5.5 -43.5h-31
q0 23 6 51.5t26.5 53t60 41.5t105.5 17q77 0 116 -20.5t55.5 -57.5t17.5 -87.5t1 -110.5v-133zM236 18q84 0 134.5 34.5t63.5 90.5v125h-143t-109 -10.5t-69 -36.5t-24 -79q0 -28 7 -51t24.5 -39t45.5 -25t70 -9z" />
    <glyph glyph-name="atilde" unicode="&#xe3;" horiz-adv-x="551" 
d="M226 687q-14 0 -22 -6t-12 -14t-5 -16.5t-1 -13.5h-25q0 10 2 23t8.5 25t19 20t34.5 8t33 -7t18.5 -15.5t16 -15.5t25.5 -7q14 0 22.5 5.5t12.5 13.5t5 16.5t1 14.5h24q0 -11 -1.5 -24.5t-8 -25t-19 -19.5t-33.5 -8q-22 0 -33.5 7t-19.5 16t-16.5 16t-25.5 7zM478 1h-30
l-10 95q-20 -48 -70 -76.5t-135 -28.5q-97 0 -137 39.5t-40 112.5q0 63 28 94t78.5 44t120 12.5t151.5 -0.5q0 59 -4 101t-19.5 68t-47 38t-86.5 12q-54 0 -87 -13.5t-51 -34t-23.5 -44t-5.5 -43.5h-31q0 23 6 51.5t26.5 53t60 41.5t105.5 17q77 0 116 -20.5t55.5 -57.5
t17.5 -87.5t1 -110.5v-133zM236 18q84 0 134.5 34.5t63.5 90.5v125h-143t-109 -10.5t-69 -36.5t-24 -79q0 -28 7 -51t24.5 -39t45.5 -25t70 -9z" />
    <glyph glyph-name="adieresis" unicode="&#xe4;" horiz-adv-x="551" 
d="M225 750v-113h-34v113h34zM354 750v-113h-34v113h34zM478 1h-30l-10 95q-20 -48 -70 -76.5t-135 -28.5q-97 0 -137 39.5t-40 112.5q0 63 28 94t78.5 44t120 12.5t151.5 -0.5q0 59 -4 101t-19.5 68t-47 38t-86.5 12q-54 0 -87 -13.5t-51 -34t-23.5 -44t-5.5 -43.5h-31
q0 23 6 51.5t26.5 53t60 41.5t105.5 17q77 0 116 -20.5t55.5 -57.5t17.5 -87.5t1 -110.5v-133zM236 18q84 0 134.5 34.5t63.5 90.5v125h-143t-109 -10.5t-69 -36.5t-24 -79q0 -28 7 -51t24.5 -39t45.5 -25t70 -9z" />
    <glyph glyph-name="aring" unicode="&#xe5;" horiz-adv-x="551" 
d="M272 636q-34 0 -51.5 19.5t-17.5 46.5t17.5 46.5t51.5 19.5t51.5 -19.5t17.5 -46.5t-17.5 -46.5t-51.5 -19.5zM272 743q-18 0 -29 -11t-11 -30t11 -30t29 -11t29 11t11 30t-11 30t-29 11zM478 1h-30l-10 95q-20 -48 -70 -76.5t-135 -28.5q-97 0 -137 39.5t-40 112.5
q0 63 28 94t78.5 44t120 12.5t151.5 -0.5q0 59 -4 101t-19.5 68t-47 38t-86.5 12q-54 0 -87 -13.5t-51 -34t-23.5 -44t-5.5 -43.5h-31q0 23 6 51.5t26.5 53t60 41.5t105.5 17q77 0 116 -20.5t55.5 -57.5t17.5 -87.5t1 -110.5v-133zM236 18q84 0 134.5 34.5t63.5 90.5v125
h-143t-109 -10.5t-69 -36.5t-24 -79q0 -28 7 -51t24.5 -39t45.5 -25t70 -9z" />
    <glyph glyph-name="ae" unicode="&#xe6;" horiz-adv-x="912" 
d="M824 276l-369 1v-15q0 -49 7 -93.5t27.5 -77.5t56.5 -52.5t94 -19.5q54 0 88.5 15.5t54.5 37t28 44.5t8 38h35q0 -13 -7 -40.5t-29.5 -55t-65 -48t-112.5 -20.5q-80 0 -127.5 30t-69.5 90q-18 -54 -68.5 -86.5t-141.5 -32.5q-49 0 -82.5 11.5t-54.5 32.5t-30.5 50.5
t-9.5 66.5q0 62 27 93.5t75.5 44.5t116 13h147.5q2 22 4 41.5t6 36.5q-3 35 -11.5 60t-25.5 41t-45.5 23t-72.5 7q-54 0 -87 -13.5t-51 -34t-23.5 -44t-5.5 -43.5h-31q0 23 6 51.5t26.5 53t60 41.5t105.5 17q44 0 74.5 -7.5t50.5 -21.5t31 -33.5t16 -44.5q24 53 70 80
t121 27q52 0 92.5 -13t68.5 -44t43 -81.5t15 -125.5h-35zM640 512q-51 0 -85.5 -16.5t-55.5 -45t-30.5 -66.5t-12.5 -80h367q-4 101 -45 154.5t-138 53.5zM236 18q88 0 137 37t58 97q-10 46 -10 111v14h-137.5t-104.5 -10.5t-66.5 -37t-23.5 -78.5q0 -28 7 -52.5t24.5 -42.5
t45.5 -28t70 -10z" />
    <glyph glyph-name="ccedilla" unicode="&#xe7;" horiz-adv-x="537" 
d="M276 20q81 0 127 38t47 104h33q0 -72 -46.5 -118.5t-139.5 -51.5l-22 -47q37 -2 62 -17.5t25 -52.5q0 -44 -26 -59t-74 -15q-11 0 -19.5 1t-14.5 1q-8 2 -14 3v25q6 -1 13 -3q7 -1 15 -1.5t17 -0.5q37 0 54.5 9t17.5 41q0 29 -26 39.5t-61 10.5h-6l30 65q-61 1 -101 21.5
t-64 56.5t-34 86t-10 110t10 110.5t35 87t67 57t105 20.5q106 0 156.5 -51.5t50.5 -139.5h-33q-1 78 -46 120t-128 42q-51 0 -86 -17t-56.5 -49t-31 -77.5t-9.5 -102.5q0 -58 9.5 -104t31 -77t56.5 -47.5t86 -16.5z" />
    <glyph glyph-name="egrave" unicode="&#xe8;" horiz-adv-x="550" 
d="M290 637h-32l-76 125h42zM278 19q54 0 88.5 15.5t55 37t28.5 44.5t8 38h34q0 -13 -7 -40.5t-29.5 -55t-65 -48t-112.5 -20.5q-120 0 -169.5 68.5t-49.5 204.5t49.5 206.5t169.5 70.5q104 0 161.5 -58.5t57.5 -195.5h-404v-24q0 -49 7 -93.5t27.5 -77.5t56.5 -52.5
t94 -19.5zM278 512q-50 0 -83.5 -15.5t-54.5 -42.5t-31.5 -63t-13.5 -77h366q-2 45 -13 81.5t-32.5 62.5t-55.5 40t-82 14z" />
    <glyph glyph-name="eacute" unicode="&#xe9;" horiz-adv-x="550" 
d="M352 762l-77 -125h-31l66 125h42zM278 19q54 0 88.5 15.5t55 37t28.5 44.5t8 38h34q0 -13 -7 -40.5t-29.5 -55t-65 -48t-112.5 -20.5q-120 0 -169.5 68.5t-49.5 204.5t49.5 206.5t169.5 70.5q104 0 161.5 -58.5t57.5 -195.5h-404v-24q0 -49 7 -93.5t27.5 -77.5
t56.5 -52.5t94 -19.5zM278 512q-50 0 -83.5 -15.5t-54.5 -42.5t-31.5 -63t-13.5 -77h366q-2 45 -13 81.5t-32.5 62.5t-55.5 40t-82 14z" />
    <glyph glyph-name="ecircumflex" unicode="&#xea;" horiz-adv-x="550" 
d="M278 731l-77 -94h-36l100 125h26l100 -125h-36zM278 19q54 0 88.5 15.5t55 37t28.5 44.5t8 38h34q0 -13 -7 -40.5t-29.5 -55t-65 -48t-112.5 -20.5q-120 0 -169.5 68.5t-49.5 204.5t49.5 206.5t169.5 70.5q104 0 161.5 -58.5t57.5 -195.5h-404v-24q0 -49 7 -93.5
t27.5 -77.5t56.5 -52.5t94 -19.5zM278 512q-50 0 -83.5 -15.5t-54.5 -42.5t-31.5 -63t-13.5 -77h366q-2 45 -13 81.5t-32.5 62.5t-55.5 40t-82 14z" />
    <glyph glyph-name="edieresis" unicode="&#xeb;" horiz-adv-x="550" 
d="M231 750v-113h-34v113h34zM360 750v-113h-34v113h34zM278 19q54 0 88.5 15.5t55 37t28.5 44.5t8 38h34q0 -13 -7 -40.5t-29.5 -55t-65 -48t-112.5 -20.5q-120 0 -169.5 68.5t-49.5 204.5t49.5 206.5t169.5 70.5q104 0 161.5 -58.5t57.5 -195.5h-404v-24q0 -49 7 -93.5
t27.5 -77.5t56.5 -52.5t94 -19.5zM278 512q-50 0 -83.5 -15.5t-54.5 -42.5t-31.5 -63t-13.5 -77h366q-2 45 -13 81.5t-32.5 62.5t-55.5 40t-82 14z" />
    <glyph glyph-name="igrave" unicode="&#xec;" horiz-adv-x="207" 
d="M115 637h-32l-76 125h42zM87 0v531h33v-531h-33z" />
    <glyph glyph-name="iacute" unicode="&#xed;" horiz-adv-x="207" 
d="M69 637l66 125h42l-77 -125h-31zM87 0v531h33v-531h-33z" />
    <glyph glyph-name="icircumflex" unicode="&#xee;" horiz-adv-x="207" 
d="M116 762l100 -125h-36l-77 94l-77 -94h-36l100 125h26zM87 0v531h33v-531h-33z" />
    <glyph glyph-name="idieresis" unicode="&#xef;" horiz-adv-x="207" 
d="M22 637v113h34v-113h-34zM151 637v113h34v-113h-34zM87 0v531h33v-531h-33z" />
    <glyph glyph-name="eth" unicode="&#xf0;" horiz-adv-x="552" 
d="M494 264v-1q0 -60 -10 -110.5t-35 -86.5t-67 -56t-106 -20t-106 20t-66.5 56t-34.5 86.5t-10 111.5q0 60 10 110.5t34.5 87t66 57t104.5 20.5q58 0 95.5 -25.5t60.5 -60.5q-17 58 -41 107t-48 87l-97 -51l-14 21l98 52q-14 22 -26.5 39t-22.5 28q-11 14 -20 24h42l17 -19
l18.5 -24.5t22.5 -31.5l89 47l14 -21l-89 -47q20 -33 41.5 -75t39 -93t29 -109t11.5 -123zM276 19q52 0 87 16.5t56.5 48t30.5 76.5t9 103q0 23 -1.5 45.5t-5.5 45.5q-5 22 -18.5 49.5t-35 51.5t-52 40.5t-70.5 16.5q-52 0 -87 -17t-56.5 -49t-30.5 -78t-9 -104t9 -103.5
t30.5 -77t56.5 -48t87 -16.5z" />
    <glyph glyph-name="ntilde" unicode="&#xf1;" horiz-adv-x="577" 
d="M248 687q-14 0 -22 -6t-12 -14t-5 -16.5t-1 -13.5h-25q0 10 2 23t8.5 25t19 20t34.5 8t33 -7t18.5 -15.5t16 -15.5t25.5 -7q14 0 22.5 5.5t12.5 13.5t5 16.5t1 14.5h24q0 -11 -1.5 -24.5t-8 -25t-19 -19.5t-33.5 -8q-22 0 -33.5 7t-19.5 16t-16.5 16t-25.5 7zM311 540
q46 0 80 -11t56.5 -37.5t34 -69.5t11.5 -107v-315h-33v314q0 98 -32.5 147t-119.5 49q-39 0 -70 -14t-53.5 -34t-37.5 -42.5t-24 -39.5v-380h-33v395l-10 136h30l10 -111q9 17 25.5 38t40 39t54.5 30.5t71 12.5z" />
    <glyph glyph-name="ograve" unicode="&#xf2;" horiz-adv-x="561" 
d="M292 629h-32l-76 125h42zM281 -10q-66 0 -109 20t-68 56t-35 86.5t-10 111.5t10 111.5t35 87.5t68 57.5t109 20.5t108.5 -20.5t68 -57t35.5 -87.5t10 -112t-10 -111.5t-35.5 -86.5t-68 -56t-108.5 -20zM280 19q54 0 90 16.5t58 48t31 77t9 103.5t-9 104t-31 78t-58 49
t-90 17t-89.5 -17t-57.5 -49t-31 -78t-9 -104t9 -103.5t31 -77t57.5 -48t89.5 -16.5z" />
    <glyph glyph-name="oacute" unicode="&#xf3;" horiz-adv-x="561" 
d="M246 629l66 125h42l-77 -125h-31zM281 -10q-66 0 -109 20t-68 56t-35 86.5t-10 111.5t10 111.5t35 87.5t68 57.5t109 20.5t108.5 -20.5t68 -57t35.5 -87.5t10 -112t-10 -111.5t-35.5 -86.5t-68 -56t-108.5 -20zM280 19q54 0 90 16.5t58 48t31 77t9 103.5t-9 104t-31 78
t-58 49t-90 17t-89.5 -17t-57.5 -49t-31 -78t-9 -104t9 -103.5t31 -77t57.5 -48t89.5 -16.5z" />
    <glyph glyph-name="ocircumflex" unicode="&#xf4;" horiz-adv-x="561" 
d="M280 723l-77 -94h-36l100 125h26l100 -125h-36zM281 541q66 0 108.5 -20.5t68 -57t35.5 -87.5t10 -112t-10 -111.5t-35.5 -86.5t-68 -56t-108.5 -20t-109 20t-68 56t-35 86.5t-10 111.5t10 111.5t35 87.5t68 57.5t109 20.5zM280 19q54 0 90 16.5t58 48t31 77t9 103.5
t-9 104t-31 78t-58 49t-90 17t-89.5 -17t-57.5 -49t-31 -78t-9 -104t9 -103.5t31 -77t57.5 -48t89.5 -16.5z" />
    <glyph glyph-name="otilde" unicode="&#xf5;" horiz-adv-x="561" 
d="M367 710h24q0 -11 -1.5 -24.5t-8 -25t-19 -19.5t-33.5 -8q-22 0 -33.5 7t-19.5 16t-16.5 16t-25.5 7q-14 0 -22 -6t-12 -14t-5 -16.5t-1 -13.5h-25q0 10 2 23t8.5 25t19 20t34.5 8t33 -7t18.5 -15.5t16 -15.5t25.5 -7q14 0 22.5 5.5t12.5 13.5t5 16.5t1 14.5zM281 -10
q-66 0 -109 20t-68 56t-35 86.5t-10 111.5t10 111.5t35 87.5t68 57.5t109 20.5t108.5 -20.5t68 -57t35.5 -87.5t10 -112t-10 -111.5t-35.5 -86.5t-68 -56t-108.5 -20zM280 19q54 0 90 16.5t58 48t31 77t9 103.5t-9 104t-31 78t-58 49t-90 17t-89.5 -17t-57.5 -49t-31 -78
t-9 -104t9 -103.5t31 -77t57.5 -48t89.5 -16.5z" />
    <glyph glyph-name="odieresis" unicode="&#xf6;" horiz-adv-x="561" 
d="M199 629v113h34v-113h-34zM328 629v113h34v-113h-34zM281 -10q-66 0 -109 20t-68 56t-35 86.5t-10 111.5t10 111.5t35 87.5t68 57.5t109 20.5t108.5 -20.5t68 -57t35.5 -87.5t10 -112t-10 -111.5t-35.5 -86.5t-68 -56t-108.5 -20zM280 19q54 0 90 16.5t58 48t31 77
t9 103.5t-9 104t-31 78t-58 49t-90 17t-89.5 -17t-57.5 -49t-31 -78t-9 -104t9 -103.5t31 -77t57.5 -48t89.5 -16.5z" />
    <glyph glyph-name="divide" unicode="&#xf7;" horiz-adv-x="460" 
d="M214 404v94h32v-94h-32zM41 294v29h378v-29h-378zM214 119v94h32v-94h-32z" />
    <glyph glyph-name="oslash" unicode="&#xf8;" horiz-adv-x="561" 
d="M491 537l-43 -61q31 -37 43 -91.5t12 -120.5q0 -61 -10 -111.5t-35.5 -86.5t-68 -56t-108.5 -20q-50 0 -85.5 11.5t-61.5 32.5l-26 -37h-35l40 57q-30 37 -42 90.5t-12 119.5q0 61 10 111.5t35 87.5t68 57.5t109 20.5q49 0 85 -11.5t62 -32.5l28 40h35zM93 264
q0 -59 9 -104.5t32 -77.5l274 388q-45 42 -128 42q-54 0 -89.5 -17t-57.5 -49t-31 -78t-9 -104zM280 19q54 0 90 16.5t58 48t31 77t9 103.5q0 59 -9 105t-32 78l-274 -387q44 -41 127 -41z" />
    <glyph glyph-name="ugrave" unicode="&#xf9;" horiz-adv-x="566" 
d="M296 637h-32l-76 125h42zM493 0h-30l-11 128q-6 -14 -21 -37.5t-39 -45.5t-58 -38t-78 -16q-45 0 -79.5 11t-57.5 37.5t-34.5 69.5t-11.5 106l1 316h33l-1 -313q0 -98 32.5 -147t120.5 -49q46 0 79.5 19t57 44.5t36.5 50.5t18 37v358h33v-384z" />
    <glyph glyph-name="uacute" unicode="&#xfa;" horiz-adv-x="566" 
d="M358 762l-77 -125h-31l66 125h42zM493 0h-30l-11 128q-6 -14 -21 -37.5t-39 -45.5t-58 -38t-78 -16q-45 0 -79.5 11t-57.5 37.5t-34.5 69.5t-11.5 106l1 316h33l-1 -313q0 -98 32.5 -147t120.5 -49q46 0 79.5 19t57 44.5t36.5 50.5t18 37v358h33v-384z" />
    <glyph glyph-name="ucircumflex" unicode="&#xfb;" horiz-adv-x="566" 
d="M284 731l-77 -94h-36l100 125h26l100 -125h-36zM493 0h-30l-11 128q-6 -14 -21 -37.5t-39 -45.5t-58 -38t-78 -16q-45 0 -79.5 11t-57.5 37.5t-34.5 69.5t-11.5 106l1 316h33l-1 -313q0 -98 32.5 -147t120.5 -49q46 0 79.5 19t57 44.5t36.5 50.5t18 37v358h33v-384z" />
    <glyph glyph-name="udieresis" unicode="&#xfc;" horiz-adv-x="566" 
d="M237 750v-113h-34v113h34zM366 750v-113h-34v113h34zM493 0h-30l-11 128q-6 -14 -21 -37.5t-39 -45.5t-58 -38t-78 -16q-45 0 -79.5 11t-57.5 37.5t-34.5 69.5t-11.5 106l1 316h33l-1 -313q0 -98 32.5 -147t120.5 -49q46 0 79.5 19t57 44.5t36.5 50.5t18 37v358h33v-384z
" />
    <glyph glyph-name="yacute" unicode="&#xfd;" horiz-adv-x="466" 
d="M306 762l-77 -125h-31l66 125h42zM422 531h35l-277 -749h-33l80 218h-10l-208 531h38l191 -500z" />
    <glyph glyph-name="thorn" unicode="&#xfe;" horiz-adv-x="570" 
d="M309 540q56 0 94.5 -20.5t62.5 -57t35 -87.5t11 -112q0 -60 -11 -110t-35 -86t-62.5 -55.5t-94.5 -19.5q-42 0 -74 9t-56 24t-40 34.5t-26 39.5v-339h-33v1000h33v-331q8 14 24 33.5t40 36.5t57 29t75 12zM305 21q89 0 131 63.5t42 178.5t-42 181.5t-131 66.5
q-45 0 -78 -15.5t-56.5 -37t-37.5 -43.5t-20 -35v-217q5 -22 17.5 -47t35.5 -46t57 -35t82 -14z" />
    <glyph glyph-name="ydieresis" unicode="&#xff;" horiz-adv-x="466" 
d="M185 750v-113h-34v113h34zM314 750v-113h-34v113h34zM422 531h35l-277 -749h-33l80 218h-10l-208 531h38l191 -500z" />
    <glyph glyph-name="Amacron" unicode="&#x100;" horiz-adv-x="608" 
d="M407 817v-29h-206v29h206zM558 0l-81 210h-348l-80 -210h-36l273 704h36l273 -704h-37zM141 241h325l-163 424z" />
    <glyph glyph-name="amacron" unicode="&#x101;" horiz-adv-x="551" 
d="M375 694v-28h-206v28h206zM478 1h-30l-10 95q-20 -48 -70 -76.5t-135 -28.5q-97 0 -137 39.5t-40 112.5q0 63 28 94t78.5 44t120 12.5t151.5 -0.5q0 59 -4 101t-19.5 68t-47 38t-86.5 12q-54 0 -87 -13.5t-51 -34t-23.5 -44t-5.5 -43.5h-31q0 23 6 51.5t26.5 53t60 41.5
t105.5 17q77 0 116 -20.5t55.5 -57.5t17.5 -87.5t1 -110.5v-133zM236 18q84 0 134.5 34.5t63.5 90.5v125h-143t-109 -10.5t-69 -36.5t-24 -79q0 -28 7 -51t24.5 -39t45.5 -25t70 -9z" />
    <glyph glyph-name="Abreve" unicode="&#x102;" horiz-adv-x="608" 
d="M304 760q-26 0 -46 8.5t-33 21.5t-19.5 28t-6.5 28h30q0 -19 20 -38.5t55 -19.5t55.5 19.5t20.5 38.5h29q0 -13 -6.5 -28t-19.5 -28t-33 -21.5t-46 -8.5zM558 0l-81 210h-348l-80 -210h-36l273 704h36l273 -704h-37zM141 241h325l-163 424z" />
    <glyph glyph-name="abreve" unicode="&#x103;" horiz-adv-x="551" 
d="M272 636q-26 0 -45.5 10t-33 24.5t-20 31.5t-6.5 30h29q0 -9 5.5 -21t15.5 -22t24 -17t31 -7t31.5 7t24.5 17t15.5 22t5.5 21h28q0 -13 -6.5 -30t-20 -31.5t-33 -24.5t-45.5 -10zM478 1h-30l-10 95q-20 -48 -70 -76.5t-135 -28.5q-97 0 -137 39.5t-40 112.5q0 63 28 94
t78.5 44t120 12.5t151.5 -0.5q0 59 -4 101t-19.5 68t-47 38t-86.5 12q-54 0 -87 -13.5t-51 -34t-23.5 -44t-5.5 -43.5h-31q0 23 6 51.5t26.5 53t60 41.5t105.5 17q77 0 116 -20.5t55.5 -57.5t17.5 -87.5t1 -110.5v-133zM236 18q84 0 134.5 34.5t63.5 90.5v125h-143
t-109 -10.5t-69 -36.5t-24 -79q0 -28 7 -51t24.5 -39t45.5 -25t70 -9z" />
    <glyph glyph-name="Aogonek" unicode="&#x104;" horiz-adv-x="608" 
d="M500 -98q0 -24 13 -34t30 -10q9 0 17.5 2t15.5 4q8 3 15 7v-24q-7 -4 -15 -8q-8 -3 -17.5 -5t-21.5 -2q-33 0 -51 17.5t-18 48.5q0 22 11 40.5t25 32.5t29 23l22 13l-78 203h-348l-80 -210h-36l273 704h36l273 -704h-9q-5 -2 -19 -10t-29 -21t-26.5 -30t-11.5 -37z
M141 241h325l-163 424z" />
    <glyph glyph-name="aogonek" unicode="&#x105;" horiz-adv-x="551" 
d="M431 -142q9 0 17.5 2t15.5 4q8 3 15 7v-24q-7 -4 -15 -8q-8 -3 -17.5 -5t-21.5 -2q-33 0 -51 17.5t-18 48.5q0 24 12.5 43.5t28 33.5t30.5 23t20 11l-9 87q-20 -48 -70 -76.5t-135 -28.5q-97 0 -137 39.5t-40 112.5q0 63 28 94t78.5 44t120 12.5t151.5 -0.5q0 59 -4 101
t-19.5 68t-47 38t-86.5 12q-54 0 -87 -13.5t-51 -34t-23.5 -44t-5.5 -43.5h-31q0 23 6 51.5t26.5 53t60 41.5t105.5 17q77 0 116 -20.5t55.5 -57.5t17.5 -87.5t1 -110.5v-133l11 -130h-2q-25 -12 -44 -27q-18 -14 -31 -31.5t-13 -40.5q0 -24 13 -34t30 -10zM236 18
q84 0 134.5 34.5t63.5 90.5v125h-143t-109 -10.5t-69 -36.5t-24 -79q0 -28 7 -51t24.5 -39t45.5 -25t70 -9z" />
    <glyph glyph-name="Cacute" unicode="&#x106;" horiz-adv-x="645" 
d="M318 761l66 107h43l-77 -107h-32zM339 -16q-81 0 -135 26t-86 73.5t-45 115.5t-13 152t13 152t45 116.5t86 74.5t135 26q128 0 188.5 -63.5t62.5 -176.5h-34q-4 103 -57 155.5t-160 52.5q-68 0 -114.5 -21.5t-75.5 -64t-42 -105.5t-13 -146t13 -146t42 -105t75.5 -63.5
t114.5 -21.5q204 0 215 197h34q-4 -108 -64 -168t-185 -60z" />
    <glyph glyph-name="cacute" unicode="&#x107;" horiz-adv-x="537" 
d="M238 637l66 125h42l-77 -125h-31zM276 -9q-63 0 -105 20t-67 56t-35 86.5t-10 111.5q0 60 10 110.5t35 87t67 57t105 20.5q106 0 156.5 -51.5t50.5 -139.5h-33q-1 78 -46 120t-128 42q-51 0 -86 -17t-56.5 -49t-31 -77.5t-9.5 -102.5q0 -58 9.5 -104t31 -77t56.5 -47.5
t86 -16.5q81 0 127 38t47 104h33q0 -75 -52 -123t-155 -48z" />
    <glyph glyph-name="Ccircumflex" unicode="&#x108;" horiz-adv-x="645" 
d="M334 833l-74 -72h-38l98 101h28l98 -101h-38zM339 15q204 0 215 197h34q-4 -108 -64 -168t-185 -60q-81 0 -135 26t-86 73.5t-45 115.5t-13 152t13 152t45 116.5t86 74.5t135 26q128 0 188.5 -63.5t62.5 -176.5h-34q-4 103 -57 155.5t-160 52.5q-68 0 -114.5 -21.5
t-75.5 -64t-42 -105.5t-13 -146t13 -146t42 -105t75.5 -63.5t114.5 -21.5z" />
    <glyph glyph-name="ccircumflex" unicode="&#x109;" horiz-adv-x="537" 
d="M272 731l-77 -94h-36l100 125h26l100 -125h-36zM276 20q81 0 127 38t47 104h33q0 -75 -52 -123t-155 -48q-63 0 -105 20t-67 56t-35 86.5t-10 111.5q0 60 10 110.5t35 87t67 57t105 20.5q106 0 156.5 -51.5t50.5 -139.5h-33q-1 78 -46 120t-128 42q-51 0 -86 -17
t-56.5 -49t-31 -77.5t-9.5 -102.5q0 -58 9.5 -104t31 -77t56.5 -47.5t86 -16.5z" />
    <glyph glyph-name="Cdotaccent" unicode="&#x10a;" horiz-adv-x="645" 
d="M318 761v113h33v-113h-33zM339 -16q-81 0 -135 26t-86 73.5t-45 115.5t-13 152t13 152t45 116.5t86 74.5t135 26q128 0 188.5 -63.5t62.5 -176.5h-34q-4 103 -57 155.5t-160 52.5q-68 0 -114.5 -21.5t-75.5 -64t-42 -105.5t-13 -146t13 -146t42 -105t75.5 -63.5
t114.5 -21.5q204 0 215 197h34q-4 -108 -64 -168t-185 -60z" />
    <glyph glyph-name="cdotaccent" unicode="&#x10b;" horiz-adv-x="537" 
d="M256 646v113h33v-113h-33zM276 -9q-63 0 -105 20t-67 56t-35 86.5t-10 111.5q0 60 10 110.5t35 87t67 57t105 20.5q106 0 156.5 -51.5t50.5 -139.5h-33q-1 78 -46 120t-128 42q-51 0 -86 -17t-56.5 -49t-31 -77.5t-9.5 -102.5q0 -58 9.5 -104t31 -77t56.5 -47.5t86 -16.5
q81 0 127 38t47 104h33q0 -75 -52 -123t-155 -48z" />
    <glyph glyph-name="Ccaron" unicode="&#x10c;" horiz-adv-x="645" 
d="M348 761h-28l-98 101h37l75 -72l74 72h38zM339 15q204 0 215 197h34q-4 -108 -64 -168t-185 -60q-81 0 -135 26t-86 73.5t-45 115.5t-13 152t13 152t45 116.5t86 74.5t135 26q128 0 188.5 -63.5t62.5 -176.5h-34q-4 103 -57 155.5t-160 52.5q-68 0 -114.5 -21.5
t-75.5 -64t-42 -105.5t-13 -146t13 -146t42 -105t75.5 -63.5t114.5 -21.5z" />
    <glyph glyph-name="ccaron" unicode="&#x10d;" horiz-adv-x="537" 
d="M285 637h-26l-100 125h35l77 -94l77 94h37zM276 20q81 0 127 38t47 104h33q0 -75 -52 -123t-155 -48q-63 0 -105 20t-67 56t-35 86.5t-10 111.5q0 60 10 110.5t35 87t67 57t105 20.5q106 0 156.5 -51.5t50.5 -139.5h-33q-1 78 -46 120t-128 42q-51 0 -86 -17t-56.5 -49
t-31 -77.5t-9.5 -102.5q0 -58 9.5 -104t31 -77t56.5 -47.5t86 -16.5z" />
    <glyph glyph-name="Dcaron" unicode="&#x10e;" horiz-adv-x="660" 
d="M324 760h-28l-98 101h37l75 -72l74 72h38zM92 707h165q108 0 175 -22.5t104.5 -67.5t50.5 -111.5t13 -154.5t-13 -155t-50.5 -111t-104.5 -66.5t-175 -22.5h-165v711zM126 28l132 -1q92 0 151.5 17.5t94 56.5t48 100.5t13.5 149.5t-13.5 150t-48 101t-94 57t-151.5 18
h-132v-649z" />
    <glyph glyph-name="dcaron" unicode="&#x10f;" horiz-adv-x="584" 
d="M491 760v-626l9 -134h-29l-10 106q-10 -21 -26 -41.5t-40 -36.5t-56.5 -26t-76.5 -10q-55 0 -94 19.5t-63 55.5t-35 86t-11 110q0 61 11 112t35 87.5t63 57t94 20.5q42 0 75 -12t57 -28.5t40 -35t24 -32.5v328h33zM265 21q48 0 82 14t57 35.5t36 46.5t18 46v217
q-6 13 -20 35t-37.5 43.5t-57 37t-78.5 15.5q-88 0 -130 -66.5t-42 -181.5t41.5 -178.5t130.5 -63.5zM565 760h40l-58 -129h-29z" />
    <glyph glyph-name="Dcroat" unicode="&#x110;" horiz-adv-x="660" 
d="M92 707h165q108 0 175 -22.5t104.5 -67.5t50.5 -111.5t13 -154.5t-13 -155t-50.5 -111t-104.5 -66.5t-175 -22.5h-165v343h-75v28h75v340zM126 28l132 -1q92 0 151.5 17.5t94 56.5t48 100.5t13.5 149.5t-13.5 150t-48 101t-94 57t-151.5 18h-132v-310h138v-28h-138v-311z
" />
    <glyph glyph-name="dcroat" unicode="&#x111;" horiz-adv-x="584" 
d="M561 595h-70v-461l9 -134h-29l-10 106q-10 -21 -26 -41.5t-40 -36.5t-56.5 -26t-76.5 -10q-55 0 -94 19.5t-63 55.5t-35 86t-11 110q0 61 11 112t35 87.5t63 57t94 20.5q42 0 75 -12t57 -28.5t40 -35t24 -32.5v163h-144v28h144v137h33v-137h70v-28zM265 21q48 0 82 14
t57 35.5t36 46.5t18 46v217q-6 13 -20 35t-37.5 43.5t-57 37t-78.5 15.5q-88 0 -130 -66.5t-42 -181.5t41.5 -178.5t130.5 -63.5z" />
    <glyph glyph-name="Emacron" unicode="&#x112;" horiz-adv-x="547" 
d="M408 817v-29h-206v29h206zM126 32h400v-32h-434v704h429v-32h-395v-288h345v-31h-345v-321z" />
    <glyph glyph-name="emacron" unicode="&#x113;" horiz-adv-x="550" 
d="M381 694v-28h-206v28h206zM278 19q54 0 88.5 15.5t55 37t28.5 44.5t8 38h34q0 -13 -7 -40.5t-29.5 -55t-65 -48t-112.5 -20.5q-120 0 -169.5 68.5t-49.5 204.5t49.5 206.5t169.5 70.5q104 0 161.5 -58.5t57.5 -195.5h-404v-24q0 -49 7 -93.5t27.5 -77.5t56.5 -52.5
t94 -19.5zM278 512q-50 0 -83.5 -15.5t-54.5 -42.5t-31.5 -63t-13.5 -77h366q-2 45 -13 81.5t-32.5 62.5t-55.5 40t-82 14z" />
    <glyph glyph-name="Ebreve" unicode="&#x114;" horiz-adv-x="547" 
d="M305 760q-26 0 -46 8.5t-33 21.5t-19.5 28t-6.5 28h30q0 -19 20 -38.5t55 -19.5t55.5 19.5t20.5 38.5h29q0 -13 -6.5 -28t-19.5 -28t-33 -21.5t-46 -8.5zM126 32h400v-32h-434v704h429v-32h-395v-288h345v-31h-345v-321z" />
    <glyph glyph-name="ebreve" unicode="&#x115;" horiz-adv-x="550" 
d="M278 636q-26 0 -45.5 10t-33 24.5t-20 31.5t-6.5 30h29q0 -9 5.5 -21t15.5 -22t24 -17t31 -7t31.5 7t24.5 17t15.5 22t5.5 21h28q0 -13 -6.5 -30t-20 -31.5t-33 -24.5t-45.5 -10zM278 19q54 0 88.5 15.5t55 37t28.5 44.5t8 38h34q0 -13 -7 -40.5t-29.5 -55t-65 -48
t-112.5 -20.5q-120 0 -169.5 68.5t-49.5 204.5t49.5 206.5t169.5 70.5q104 0 161.5 -58.5t57.5 -195.5h-404v-24q0 -49 7 -93.5t27.5 -77.5t56.5 -52.5t94 -19.5zM278 512q-50 0 -83.5 -15.5t-54.5 -42.5t-31.5 -63t-13.5 -77h366q-2 45 -13 81.5t-32.5 62.5t-55.5 40
t-82 14z" />
    <glyph glyph-name="Edotaccent" unicode="&#x116;" horiz-adv-x="547" 
d="M322 873v-113h-33v113h33zM126 32h400v-32h-434v704h429v-32h-395v-288h345v-31h-345v-321z" />
    <glyph glyph-name="edotaccent" unicode="&#x117;" horiz-adv-x="550" 
d="M295 759v-113h-33v113h33zM278 19q54 0 88.5 15.5t55 37t28.5 44.5t8 38h34q0 -13 -7 -40.5t-29.5 -55t-65 -48t-112.5 -20.5q-120 0 -169.5 68.5t-49.5 204.5t49.5 206.5t169.5 70.5q104 0 161.5 -58.5t57.5 -195.5h-404v-24q0 -49 7 -93.5t27.5 -77.5t56.5 -52.5
t94 -19.5zM278 512q-50 0 -83.5 -15.5t-54.5 -42.5t-31.5 -63t-13.5 -77h366q-2 45 -13 81.5t-32.5 62.5t-55.5 40t-82 14z" />
    <glyph glyph-name="Eogonek" unicode="&#x118;" horiz-adv-x="547" 
d="M480 -143q9 0 17.5 2t15.5 4q8 3 15 7v-24q-7 -4 -15 -8q-8 -3 -17.5 -5t-21.5 -2q-33 0 -51 17.5t-18 48.5q0 19 8 35.5t20 29.5t25 22.5t23 15.5h-389v704h429v-32h-395v-288h345v-31h-345v-321h400v-32h-1q-25 -12 -44 -27q-18 -14 -31 -31.5t-13 -40.5q0 -24 13 -34
t30 -10z" />
    <glyph glyph-name="eogonek" unicode="&#x119;" horiz-adv-x="550" 
d="M278 19q54 0 88.5 15.5t55 37t28.5 44.5t8 38h34q0 -9 -3 -25t-11.5 -35t-24 -38t-40.5 -34q-1 0 -2 -1l-15 -8l-21.5 -14.5t-23.5 -20t-18.5 -25.5t-7.5 -30q0 -24 13 -34t30 -10q9 0 17.5 2t15.5 4q8 3 15 7v-24q-7 -4 -15 -8q-8 -3 -17.5 -5t-21.5 -2q-33 0 -51 17.5
t-18 48.5q0 23 11.5 42t26.5 33q-12 -2 -25.5 -3t-27.5 -1q-120 0 -169.5 68.5t-49.5 204.5t49.5 206.5t169.5 70.5q104 0 161.5 -58.5t57.5 -195.5h-404v-24q0 -49 7 -93.5t27.5 -77.5t56.5 -52.5t94 -19.5zM278 512q-50 0 -83.5 -15.5t-54.5 -42.5t-31.5 -63t-13.5 -77
h366q-2 45 -13 81.5t-32.5 62.5t-55.5 40t-82 14z" />
    <glyph glyph-name="Ecaron" unicode="&#x11a;" horiz-adv-x="547" 
d="M319 760h-28l-98 101h37l75 -72l74 72h38zM126 32h400v-32h-434v704h429v-32h-395v-288h345v-31h-345v-321z" />
    <glyph glyph-name="ecaron" unicode="&#x11b;" horiz-adv-x="550" 
d="M291 637h-26l-100 125h35l77 -94l77 94h37zM278 19q54 0 88.5 15.5t55 37t28.5 44.5t8 38h34q0 -13 -7 -40.5t-29.5 -55t-65 -48t-112.5 -20.5q-120 0 -169.5 68.5t-49.5 204.5t49.5 206.5t169.5 70.5q104 0 161.5 -58.5t57.5 -195.5h-404v-24q0 -49 7 -93.5t27.5 -77.5
t56.5 -52.5t94 -19.5zM278 512q-50 0 -83.5 -15.5t-54.5 -42.5t-31.5 -63t-13.5 -77h366q-2 45 -13 81.5t-32.5 62.5t-55.5 40t-82 14z" />
    <glyph glyph-name="Gcircumflex" unicode="&#x11c;" horiz-adv-x="656" 
d="M337 833l-74 -72h-38l98 101h28l98 -101h-38zM587 333v-257q0 -5 -14.5 -20t-44.5 -31t-77 -28.5t-112 -12.5q-81 0 -135 25.5t-86 73t-45 115.5t-13 152t13 152.5t45 117t86 74.5t135 26q65 0 112 -18t78 -49t45.5 -71t14.5 -84h-34q0 39 -14 73.5t-41 60.5t-67.5 41
t-93.5 15q-68 0 -114.5 -21.5t-75.5 -64.5t-42 -106t-13 -146t13 -145.5t42 -104.5t76 -63.5t115 -21.5q51 0 91 9.5t67.5 21.5t41.5 24t14 17v215h-166v31h199z" />
    <glyph glyph-name="gcircumflex" unicode="&#x11d;" horiz-adv-x="572" 
d="M282 731l-77 -94h-36l100 125h26l100 -125h-36zM469 531h30l-9 -130v-401q0 -45 -5 -88.5t-26 -77t-64 -54t-120 -20.5q-39 0 -68.5 8t-50.5 20.5t-34.5 29t-22.5 33.5q-20 41 -19 92l32 1v-12t4 -29t13 -37.5t27 -37.5t47.5 -28.5t72.5 -11.5q65 0 101 17.5t54 46.5
t22 67.5t4 80.5v99q-10 -20 -26 -39.5t-40 -34.5t-55.5 -24t-73.5 -9q-55 0 -94 19.5t-63 55.5t-35 86t-11 110q0 61 11 112t35 87.5t63 57t94 20.5q43 0 76.5 -12t58 -28.5t40.5 -34.5t23 -31zM265 21q47 0 80.5 13.5t56.5 34t36.5 45t18.5 45.5v232q-6 12 -20.5 32.5
t-38 40t-56.5 33.5t-77 14q-88 0 -130 -66.5t-42 -181.5t41.5 -178.5t130.5 -63.5z" />
    <glyph glyph-name="Gbreve" unicode="&#x11e;" horiz-adv-x="656" 
d="M337 761q-26 0 -46 8.5t-33 21.5t-19.5 28t-6.5 28h30q0 -19 20 -38.5t55 -19.5t55.5 19.5t20.5 38.5h29q0 -13 -6.5 -28t-19.5 -28t-33 -21.5t-46 -8.5zM587 333v-257q0 -5 -14.5 -20t-44.5 -31t-77 -28.5t-112 -12.5q-81 0 -135 25.5t-86 73t-45 115.5t-13 152
t13 152.5t45 117t86 74.5t135 26q65 0 112 -18t78 -49t45.5 -71t14.5 -84h-34q0 39 -14 73.5t-41 60.5t-67.5 41t-93.5 15q-68 0 -114.5 -21.5t-75.5 -64.5t-42 -106t-13 -146t13 -145.5t42 -104.5t76 -63.5t115 -21.5q51 0 91 9.5t67.5 21.5t41.5 24t14 17v215h-166v31h199
z" />
    <glyph glyph-name="gbreve" unicode="&#x11f;" horiz-adv-x="572" 
d="M282 636q-26 0 -45.5 10t-33 24.5t-20 31.5t-6.5 30h29q0 -9 5.5 -21t15.5 -22t24 -17t31 -7t31.5 7t24.5 17t15.5 22t5.5 21h28q0 -13 -6.5 -30t-20 -31.5t-33 -24.5t-45.5 -10zM469 531h30l-9 -130v-401q0 -45 -5 -88.5t-26 -77t-64 -54t-120 -20.5q-39 0 -68.5 8
t-50.5 20.5t-34.5 29t-22.5 33.5q-20 41 -19 92l32 1v-12t4 -29t13 -37.5t27 -37.5t47.5 -28.5t72.5 -11.5q65 0 101 17.5t54 46.5t22 67.5t4 80.5v99q-10 -20 -26 -39.5t-40 -34.5t-55.5 -24t-73.5 -9q-55 0 -94 19.5t-63 55.5t-35 86t-11 110q0 61 11 112t35 87.5t63 57
t94 20.5q43 0 76.5 -12t58 -28.5t40.5 -34.5t23 -31zM265 21q47 0 80.5 13.5t56.5 34t36.5 45t18.5 45.5v232q-6 12 -20.5 32.5t-38 40t-56.5 33.5t-77 14q-88 0 -130 -66.5t-42 -181.5t41.5 -178.5t130.5 -63.5z" />
    <glyph glyph-name="Gdotaccent" unicode="&#x120;" horiz-adv-x="656" 
d="M354 874v-113h-33v113h33zM587 333v-257q0 -5 -14.5 -20t-44.5 -31t-77 -28.5t-112 -12.5q-81 0 -135 25.5t-86 73t-45 115.5t-13 152t13 152.5t45 117t86 74.5t135 26q65 0 112 -18t78 -49t45.5 -71t14.5 -84h-34q0 39 -14 73.5t-41 60.5t-67.5 41t-93.5 15
q-68 0 -114.5 -21.5t-75.5 -64.5t-42 -106t-13 -146t13 -145.5t42 -104.5t76 -63.5t115 -21.5q51 0 91 9.5t67.5 21.5t41.5 24t14 17v215h-166v31h199z" />
    <glyph glyph-name="gdotaccent" unicode="&#x121;" horiz-adv-x="572" 
d="M299 759v-113h-33v113h33zM469 531h30l-9 -130v-401q0 -45 -5 -88.5t-26 -77t-64 -54t-120 -20.5q-39 0 -68.5 8t-50.5 20.5t-34.5 29t-22.5 33.5q-20 41 -19 92l32 1v-12t4 -29t13 -37.5t27 -37.5t47.5 -28.5t72.5 -11.5q65 0 101 17.5t54 46.5t22 67.5t4 80.5v99
q-10 -20 -26 -39.5t-40 -34.5t-55.5 -24t-73.5 -9q-55 0 -94 19.5t-63 55.5t-35 86t-11 110q0 61 11 112t35 87.5t63 57t94 20.5q43 0 76.5 -12t58 -28.5t40.5 -34.5t23 -31zM265 21q47 0 80.5 13.5t56.5 34t36.5 45t18.5 45.5v232q-6 12 -20.5 32.5t-38 40t-56.5 33.5
t-77 14q-88 0 -130 -66.5t-42 -181.5t41.5 -178.5t130.5 -63.5z" />
    <glyph glyph-name="Gcommaaccent" unicode="&#x122;" horiz-adv-x="656" 
d="M587 333v-257q0 -5 -14.5 -20t-44.5 -31t-77 -28.5t-112 -12.5q-81 0 -135 25.5t-86 73t-45 115.5t-13 152t13 152.5t45 117t86 74.5t135 26q65 0 112 -18t78 -49t45.5 -71t14.5 -84h-34q0 39 -14 73.5t-41 60.5t-67.5 41t-93.5 15q-68 0 -114.5 -21.5t-75.5 -64.5
t-42 -106t-13 -146t13 -145.5t42 -104.5t76 -63.5t115 -21.5q51 0 91 9.5t67.5 21.5t41.5 24t14 17v215h-166v31h199zM324 -118q4 16 6.5 30l4.5 25q1 13 2 24h36q-1 -12 -3 -25q-2 -12 -5 -26t-7 -29q-5 -18 -10.5 -33t-10.5 -26q-6 -13 -12 -24h-30q5 11 10 24
q5 12 9.5 27z" />
    <glyph glyph-name="gcommaaccent" unicode="&#x123;" horiz-adv-x="572" 
d="M282 572h-37q0 10 1 24q1 13 3.5 30.5t8.5 40.5t13.5 42.5t13.5 33.5q7 16 15 29h31l-13 -29q-6 -15 -12 -34t-11 -43q-6 -24 -8.5 -41.5t-3.5 -29.5q-1 -13 -1 -23zM469 531h30l-9 -130v-401q0 -45 -5 -88.5t-26 -77t-64 -54t-120 -20.5q-39 0 -68.5 8t-50.5 20.5
t-34.5 29t-22.5 33.5q-20 41 -19 92l32 1v-12t4 -29t13 -37.5t27 -37.5t47.5 -28.5t72.5 -11.5q65 0 101 17.5t54 46.5t22 67.5t4 80.5v99q-10 -20 -26 -39.5t-40 -34.5t-55.5 -24t-73.5 -9q-55 0 -94 19.5t-63 55.5t-35 86t-11 110q0 61 11 112t35 87.5t63 57t94 20.5
q43 0 76.5 -12t58 -28.5t40.5 -34.5t23 -31zM265 21q47 0 80.5 13.5t56.5 34t36.5 45t18.5 45.5v232q-6 12 -20.5 32.5t-38 40t-56.5 33.5t-77 14q-88 0 -130 -66.5t-42 -181.5t41.5 -178.5t130.5 -63.5z" />
    <glyph glyph-name="Hcircumflex" unicode="&#x124;" horiz-adv-x="683" 
d="M342 832l-74 -72h-38l98 101h28l98 -101h-38zM556 704h35v-704h-35v352h-430v-352h-34v704h34v-319h430v319z" />
    <glyph glyph-name="hcircumflex" unicode="&#x125;" horiz-adv-x="568" 
d="M172 783l-74 72l-74 -72h-38l98 101h28l98 -101h-38zM302 540q46 0 80 -11t56.5 -37.5t34 -69.5t11.5 -107v-315h-33v314q0 98 -32.5 147t-119.5 49q-40 0 -70.5 -14t-53.5 -34.5t-38 -43.5t-24 -40v-378h-33v760h33v-335q10 17 26 37t39.5 37.5t54 29t69.5 11.5z" />
    <glyph glyph-name="Hbar" unicode="&#x126;" horiz-adv-x="683" 
d="M655 555v-30h-64v-525h-35v352h-430v-352h-34v525h-55v30h55v149h34v-149h430v149h35v-149h64zM556 385v140h-430v-140h430z" />
    <glyph glyph-name="hbar" unicode="&#x127;" horiz-adv-x="568" 
d="M302 540q46 0 80 -11t56.5 -37.5t34 -69.5t11.5 -107v-315h-33v314q0 98 -32.5 147t-119.5 49q-40 0 -70.5 -14t-53.5 -34.5t-38 -43.5t-24 -40v-378h-33v596h-77v28h77v136h33v-136h137v-28h-137v-171q10 17 26 37t39.5 37.5t54 29t69.5 11.5z" />
    <glyph glyph-name="Itilde" unicode="&#x128;" horiz-adv-x="218" 
d="M196 842h25q0 -11 -1.5 -24.5t-8 -25.5t-19 -20t-33.5 -8q-22 0 -33.5 7t-19.5 15.5t-16.5 15.5t-25.5 7q-14 0 -22 -5.5t-11.5 -13.5t-4.5 -16t-1 -14h-26q0 10 2 23.5t8.5 25.5t19 20t34.5 8t33 -7t18.5 -15t16 -15t25.5 -7q14 0 22 5.5t12 13.5t5 16.5t1 13.5zM92 0
v704h34v-704h-34z" />
    <glyph glyph-name="itilde" unicode="&#x129;" horiz-adv-x="207" 
d="M190 718h24q0 -11 -1.5 -24.5t-8 -25t-19 -19.5t-33.5 -8q-22 0 -33.5 7t-19.5 16t-16.5 16t-25.5 7q-14 0 -22 -6t-12 -14t-5 -16.5t-1 -13.5h-25q0 10 2 23t8.5 25t19 20t34.5 8t33 -7t18.5 -15.5t16 -15.5t25.5 -7q14 0 22.5 5.5t12.5 13.5t5 16.5t1 14.5zM87 0v531
h33v-531h-33z" />
    <glyph glyph-name="Imacron" unicode="&#x12a;" horiz-adv-x="218" 
d="M7 817h206v-29h-206v29zM92 0v704h34v-704h-34z" />
    <glyph glyph-name="imacron" unicode="&#x12b;" horiz-adv-x="207" 
d="M0 694h206v-28h-206v28zM87 0v531h33v-531h-33z" />
    <glyph glyph-name="Ibreve" unicode="&#x12c;" horiz-adv-x="218" 
d="M186 846h29q0 -13 -6.5 -28t-19.5 -28t-33 -21.5t-46 -8.5t-46 8.5t-33 21.5t-19.5 28t-6.5 28h30q0 -19 20 -38.5t55 -19.5t55.5 19.5t20.5 38.5zM92 0v704h34v-704h-34z" />
    <glyph glyph-name="ibreve" unicode="&#x12d;" horiz-adv-x="207" 
d="M180 732h28q0 -13 -6.5 -30t-20 -31.5t-33 -24.5t-45.5 -10t-45.5 10t-33 24.5t-20 31.5t-6.5 30h29q0 -9 5.5 -21t15.5 -22t24 -17t31 -7t31.5 7t24.5 17t15.5 22t5.5 21zM87 0v531h33v-531h-33z" />
    <glyph glyph-name="Iogonek" unicode="&#x12e;" horiz-adv-x="218" 
d="M126 0h-6q-5 -2 -19 -10t-29 -21t-26.5 -30t-11.5 -37q0 -24 13 -34t30 -10q9 0 17.5 2t15.5 4q8 3 15 7v-24q-7 -4 -15 -8q-8 -3 -17.5 -5t-21.5 -2q-33 0 -51 17.5t-18 48.5q0 23 12 42t27 33.5t30 23.5t21 12v695h34v-704z" />
    <glyph glyph-name="iogonek" unicode="&#x12f;" horiz-adv-x="207" 
d="M87 759h33v-113h-33v113zM87 9v522h33v-531h-5q-25 -12 -44 -27q-18 -14 -31 -31.5t-13 -40.5q0 -24 13 -34t30 -10q9 0 17.5 2t15.5 4q8 3 15 7v-24q-7 -4 -15 -8q-8 -3 -17.5 -5t-21.5 -2q-33 0 -51 17.5t-18 48.5q0 25 13 45t29.5 34t31 22.5t18.5 10.5z" />
    <glyph glyph-name="Idotaccent" unicode="&#x130;" horiz-adv-x="218" 
d="M94 760v113h33v-113h-33zM92 0v704h34v-704h-34z" />
    <glyph glyph-name="dotlessi" unicode="&#x131;" horiz-adv-x="207" 
d="M87 0v531h33v-531h-33z" />
    <glyph glyph-name="IJ" unicode="&#x132;" horiz-adv-x="563" 
d="M92 0v704h34v-704h-34zM270 0h-50v34h50q59 0 94.5 11t54.5 37t25.5 69.5t6.5 107.5l-1 445h34l2 -445q0 -71 -7.5 -120.5t-30 -80t-65 -44.5t-113.5 -14z" />
    <glyph glyph-name="ij" unicode="&#x133;" horiz-adv-x="426" 
d="M87 646v113h33v-113h-33zM305 646v113h33v-113h-33zM87 0v531h33v-531h-33zM186 -172v30q44 0 68.5 9t35.5 29t13 52.5t2 79.5v503h33v-503q0 -55 -3.5 -93t-18.5 -62t-45.5 -34.5t-84.5 -10.5z" />
    <glyph glyph-name="Jcircumflex" unicode="&#x134;" horiz-adv-x="345" 
d="M171 832l-74 -72h-38l98 101h28l98 -101h-38zM232 704h34l2 -445q0 -71 -7.5 -120.5t-30 -80t-65 -44.5t-113.5 -14h-50v34h50q59 0 94.5 11t54.5 37t25.5 69.5t6.5 107.5z" />
    <glyph glyph-name="jcircumflex" unicode="&#x135;" horiz-adv-x="219" 
d="M127 762l100 -125h-36l-77 94l-77 -94h-36l100 125h26zM98 28v503h33v-503q0 -55 -3.5 -93t-18.5 -62t-45.5 -34.5t-84.5 -10.5v30q44 0 68.5 9t35.5 29t13 52.5t2 79.5z" />
    <glyph glyph-name="Kcommaaccent" unicode="&#x136;" horiz-adv-x="570" 
d="M275 391l282 -391h-39l-264 366l-128 -143v-223h-34v704h34v-439l386 439h42zM269 -118q4 16 6.5 30l4.5 25q1 13 2 24h36q-1 -12 -3 -25q-2 -12 -5 -26t-7 -29q-5 -18 -10.5 -33t-10.5 -26q-6 -13 -12 -24h-30q5 11 10 24q5 12 9.5 27z" />
    <glyph glyph-name="kcommaaccent" unicode="&#x137;" horiz-adv-x="478" 
d="M243 325l231 -325h-38l-216 302l-96 -98v-204h-33v760h33v-515l278 286h41zM238 -118q4 16 6.5 30l4.5 25q1 13 2 24h36q-1 -12 -3 -25q-2 -12 -5 -26t-7 -29q-5 -18 -10.5 -33t-10.5 -26q-6 -13 -12 -24h-30q5 11 10 24q5 12 9.5 27z" />
    <glyph glyph-name="kgreenlandic" unicode="&#x138;" horiz-adv-x="478" 
d="M436 0l-216 303l-96 -99v-204h-33v531h33v-286l278 286h41l-201 -206l232 -325h-38z" />
    <glyph glyph-name="Lacute" unicode="&#x139;" horiz-adv-x="494" 
d="M213 867l-77 -107h-32l66 107h43zM126 31h353v-31h-387v704h34v-673z" />
    <glyph glyph-name="lacute" unicode="&#x13a;" horiz-adv-x="215" 
d="M91 815l66 107h43l-77 -107h-32zM91 0v760h33v-760h-33z" />
    <glyph glyph-name="Lcommaaccent" unicode="&#x13b;" horiz-adv-x="494" 
d="M126 31h353v-31h-387v704h34v-673zM254 -118q4 16 6.5 30l4.5 25q1 13 2 24h36q-1 -12 -3 -25q-2 -12 -5 -26t-7 -29q-5 -18 -10.5 -33t-10.5 -26q-6 -13 -12 -24h-30q5 11 10 24q5 12 9.5 27z" />
    <glyph glyph-name="lcommaaccent" unicode="&#x13c;" horiz-adv-x="215" 
d="M91 0v760h33v-760h-33zM77 -202h-30q5 11 10 24q5 12 9.5 27l9.5 33q4 16 6.5 30l4.5 25q1 13 2 24h36q-1 -12 -3 -25q-2 -12 -5 -26t-7 -29q-5 -18 -10.5 -33t-10.5 -26q-6 -13 -12 -24z" />
    <glyph glyph-name="Lcaron" unicode="&#x13d;" horiz-adv-x="494" 
d="M329 762l-59 -112h-32l49 112h42zM126 31h353v-31h-387v704h34v-673z" />
    <glyph glyph-name="lcaron" unicode="&#x13e;" horiz-adv-x="215" 
d="M91 0v760h33v-760h-33zM168 631l47 129h40l-58 -129h-29z" />
    <glyph glyph-name="Ldot" unicode="&#x13f;" horiz-adv-x="494" 
d="M126 31h353v-31h-387v704h34v-673zM294 409v-112h-33v112h33z" />
    <glyph glyph-name="ldot" unicode="&#x140;" horiz-adv-x="229" 
d="M91 0v760h33v-760h-33zM168 329v112h34v-112h-34z" />
    <glyph glyph-name="Lslash" unicode="&#x141;" horiz-adv-x="494" 
d="M126 31h353v-31h-387v321l-80 -53l-15 24l95 63v349h34v-327l83 55l15 -24l-98 -65v-312z" />
    <glyph glyph-name="lslash" unicode="&#x142;" horiz-adv-x="215" 
d="M225 440l-101 -67v-373h-33v352l-78 -52l-15 24l93 61v375h33v-353l86 57z" />
    <glyph glyph-name="Nacute" unicode="&#x143;" horiz-adv-x="704" 
d="M446 867l-77 -107h-32l66 107h43zM578 704h34v-704h-37l-445 650l-5 -650h-33l5 704h36l447 -651z" />
    <glyph glyph-name="nacute" unicode="&#x144;" horiz-adv-x="577" 
d="M368 762l-77 -125h-31l66 125h42zM311 540q46 0 80 -11t56.5 -37.5t34 -69.5t11.5 -107v-315h-33v314q0 98 -32.5 147t-119.5 49q-39 0 -70 -14t-53.5 -34t-37.5 -42.5t-24 -39.5v-380h-33v395l-10 136h30l10 -111q9 17 25.5 38t40 39t54.5 30.5t71 12.5z" />
    <glyph glyph-name="Ncommaaccent" unicode="&#x145;" horiz-adv-x="704" 
d="M578 704h34v-704h-37l-445 650l-5 -650h-33l5 704h36l447 -651zM334 -118q4 16 6.5 30l4.5 25q1 13 2 24h36q-1 -12 -3 -25q-2 -12 -5 -26t-7 -29q-5 -18 -10.5 -33t-10.5 -26q-6 -13 -12 -24h-30q5 11 10 24q5 12 9.5 27z" />
    <glyph glyph-name="ncommaaccent" unicode="&#x146;" horiz-adv-x="577" 
d="M311 540q46 0 80 -11t56.5 -37.5t34 -69.5t11.5 -107v-315h-33v314q0 98 -32.5 147t-119.5 49q-39 0 -70 -14t-53.5 -34t-37.5 -42.5t-24 -39.5v-380h-33v395l-10 136h30l10 -111q9 17 25.5 38t40 39t54.5 30.5t71 12.5zM267 -118q4 16 6.5 30l4.5 25q1 13 2 24h36
q-1 -12 -3 -25q-2 -12 -5 -26t-7 -29q-5 -18 -10.5 -33t-10.5 -26q-6 -13 -12 -24h-30q5 11 10 24q5 12 9.5 27z" />
    <glyph glyph-name="Ncaron" unicode="&#x147;" horiz-adv-x="704" 
d="M367 760h-28l-98 101h37l75 -72l74 72h38zM578 704h34v-704h-37l-445 650l-5 -650h-33l5 704h36l447 -651z" />
    <glyph glyph-name="ncaron" unicode="&#x148;" horiz-adv-x="577" 
d="M307 637h-26l-100 125h35l77 -94l77 94h37zM311 540q46 0 80 -11t56.5 -37.5t34 -69.5t11.5 -107v-315h-33v314q0 98 -32.5 147t-119.5 49q-39 0 -70 -14t-53.5 -34t-37.5 -42.5t-24 -39.5v-380h-33v395l-10 136h30l10 -111q9 17 25.5 38t40 39t54.5 30.5t71 12.5z" />
    <glyph glyph-name="Eng" unicode="&#x14a;" horiz-adv-x="704" 
d="M578 704h34v-704q0 -54 -6.5 -94.5t-24.5 -67.5t-50.5 -41t-84.5 -14h-49v32h50q40 0 65.5 11t40.5 34t20.5 57.5t5.5 82.5l-449 650l-5 -650h-33l5 704h36l447 -651z" />
    <glyph glyph-name="eng" unicode="&#x14b;" horiz-adv-x="577" 
d="M311 540q46 0 80 -11t57 -37.5t34 -69.5t11 -107v-273q0 -55 -3.5 -93t-18.5 -62t-45.5 -34.5t-84.5 -10.5v31q45 0 69 9t35 28.5t13 51.5t2 79v273q0 98 -32.5 147t-119.5 49q-39 0 -70 -14t-53.5 -34t-37.5 -42.5t-24 -39.5v-380h-33v395l-10 136h30l10 -111
q9 17 25.5 38t40 39t54.5 30.5t71 12.5z" />
    <glyph glyph-name="Omacron" unicode="&#x14c;" horiz-adv-x="686" 
d="M240 818h206v-29h-206v29zM343 -16q-83 0 -137.5 26t-87 73.5t-45.5 115.5t-13 152t13 152t45.5 116.5t87 74.5t137.5 26t137.5 -26t87 -74.5t45.5 -116.5t13 -152t-13 -152t-45.5 -115.5t-87 -73.5t-137.5 -26zM343 15q70 0 117.5 21.5t77 63.5t42 105t12.5 146
t-12.5 145.5t-42 105.5t-77 64.5t-117.5 21.5q-69 0 -117 -21.5t-77 -64.5t-42 -105.5t-13 -145.5t13 -146t42 -105t77 -63.5t117 -21.5z" />
    <glyph glyph-name="omacron" unicode="&#x14d;" horiz-adv-x="561" 
d="M177 686h206v-28h-206v28zM281 -10q-66 0 -109 20t-68 56t-35 86.5t-10 111.5t10 111.5t35 87.5t68 57.5t109 20.5t108.5 -20.5t68 -57t35.5 -87.5t10 -112t-10 -111.5t-35.5 -86.5t-68 -56t-108.5 -20zM280 19q54 0 90 16.5t58 48t31 77t9 103.5t-9 104t-31 78t-58 49
t-90 17t-89.5 -17t-57.5 -49t-31 -78t-9 -104t9 -103.5t31 -77t57.5 -48t89.5 -16.5z" />
    <glyph glyph-name="Obreve" unicode="&#x14e;" horiz-adv-x="686" 
d="M419 847h29q0 -13 -6.5 -28t-19.5 -28t-33 -21.5t-46 -8.5t-46 8.5t-33 21.5t-19.5 28t-6.5 28h30q0 -19 20 -38.5t55 -19.5t55.5 19.5t20.5 38.5zM343 -16q-83 0 -137.5 26t-87 73.5t-45.5 115.5t-13 152t13 152t45.5 116.5t87 74.5t137.5 26t137.5 -26t87 -74.5
t45.5 -116.5t13 -152t-13 -152t-45.5 -115.5t-87 -73.5t-137.5 -26zM343 15q70 0 117.5 21.5t77 63.5t42 105t12.5 146t-12.5 145.5t-42 105.5t-77 64.5t-117.5 21.5q-69 0 -117 -21.5t-77 -64.5t-42 -105.5t-13 -145.5t13 -146t42 -105t77 -63.5t117 -21.5z" />
    <glyph glyph-name="obreve" unicode="&#x14f;" horiz-adv-x="561" 
d="M357 724h28q0 -13 -6.5 -30t-20 -31.5t-33 -24.5t-45.5 -10t-45.5 10t-33 24.5t-20 31.5t-6.5 30h29q0 -9 5.5 -21t15.5 -22t24 -17t31 -7t31.5 7t24.5 17t15.5 22t5.5 21zM281 -10q-66 0 -109 20t-68 56t-35 86.5t-10 111.5t10 111.5t35 87.5t68 57.5t109 20.5
t108.5 -20.5t68 -57t35.5 -87.5t10 -112t-10 -111.5t-35.5 -86.5t-68 -56t-108.5 -20zM280 19q54 0 90 16.5t58 48t31 77t9 103.5t-9 104t-31 78t-58 49t-90 17t-89.5 -17t-57.5 -49t-31 -78t-9 -104t9 -103.5t31 -77t57.5 -48t89.5 -16.5z" />
    <glyph glyph-name="Ohungarumlaut" unicode="&#x150;" horiz-adv-x="686" 
d="M259 761l59 107h43l-70 -107h-32zM370 761l68 107h43l-78 -107h-33zM343 -16q-83 0 -137.5 26t-87 73.5t-45.5 115.5t-13 152t13 152t45.5 116.5t87 74.5t137.5 26t137.5 -26t87 -74.5t45.5 -116.5t13 -152t-13 -152t-45.5 -115.5t-87 -73.5t-137.5 -26zM343 15
q70 0 117.5 21.5t77 63.5t42 105t12.5 146t-12.5 145.5t-42 105.5t-77 64.5t-117.5 21.5q-69 0 -117 -21.5t-77 -64.5t-42 -105.5t-13 -145.5t13 -146t42 -105t77 -63.5t117 -21.5z" />
    <glyph glyph-name="ohungarumlaut" unicode="&#x151;" horiz-adv-x="561" 
d="M195 629l59 125h42l-70 -125h-31zM306 629l68 125h42l-78 -125h-32zM281 -10q-66 0 -109 20t-68 56t-35 86.5t-10 111.5t10 111.5t35 87.5t68 57.5t109 20.5t108.5 -20.5t68 -57t35.5 -87.5t10 -112t-10 -111.5t-35.5 -86.5t-68 -56t-108.5 -20zM280 19q54 0 90 16.5
t58 48t31 77t9 103.5t-9 104t-31 78t-58 49t-90 17t-89.5 -17t-57.5 -49t-31 -78t-9 -104t9 -103.5t31 -77t57.5 -48t89.5 -16.5z" />
    <glyph glyph-name="OE" unicode="&#x152;" horiz-adv-x="952" 
d="M531 32h400v-32h-590q-82 0 -136 26t-86.5 73t-45.5 111.5t-13 140.5q0 77 13 141.5t45.5 111.5t86.5 73.5t136 26.5h585v-32h-395v-288h345v-31h-345v-321zM343 31h154v642h-154q-69 0 -117 -22t-77 -63.5t-42 -101.5t-13 -135q0 -76 13 -135.5t42 -100.5t77 -62.5
t117 -21.5z" />
    <glyph glyph-name="oe" unicode="&#x153;" horiz-adv-x="955" 
d="M684 19q54 0 88.5 15.5t54.5 37t28 44.5t8 38h35q0 -13 -7.5 -40.5t-30 -55t-64.5 -48t-112 -20.5q-86 0 -133.5 34t-67.5 103q-18 -64 -65 -100.5t-137 -36.5q-66 0 -109 20t-68 56t-35 86.5t-10 111.5t10 111.5t35 87.5t68 57.5t109 20.5q90 1 137 -37.5t66 -103.5
q20 69 67.5 104.5t132.5 35.5q52 0 92.5 -13t68.5 -44.5t42.5 -84t14.5 -130.5h-403v-6q0 -49 7 -93.5t27 -77.5t56.5 -52.5t94.5 -19.5zM280 19q54 0 90 16.5t57.5 48t30.5 77t9 103.5t-9 104t-30.5 78t-57.5 49t-90 17t-89.5 -17t-57.5 -49t-31 -78t-9 -104t9 -103.5
t31 -77t57.5 -48t89.5 -16.5zM684 512q-52 0 -87 -17.5t-56 -47t-30 -68.5t-11 -83h367q-4 107 -44.5 161.5t-138.5 54.5z" />
    <glyph glyph-name="Racute" unicode="&#x154;" horiz-adv-x="640" 
d="M410 867l-77 -107h-32l66 107h43zM594 0h-39l-160 303q-13 -1 -26 -1.5t-27 -0.5h-216v-301h-34v707h250q59 0 103.5 -9.5t74.5 -32.5t45 -62t15 -99q0 -97 -38.5 -141t-112.5 -56zM126 333l216 -1q41 0 78 4.5t65 21.5t44 51.5t16 94.5q0 59 -16 93t-44 51.5t-65 22.5
t-78 5h-216v-343z" />
    <glyph glyph-name="racute" unicode="&#x155;" horiz-adv-x="337" 
d="M257 762l-77 -125h-31l66 125h42zM110 531l11 -127q5 15 16 38t33.5 44.5t57.5 37.5t86 16v-30q-54 0 -89.5 -20t-57 -47t-31.5 -54t-13 -41v-348h-33v384l-10 147h30z" />
    <glyph glyph-name="Rcommaaccent" unicode="&#x156;" horiz-adv-x="640" 
d="M594 0h-39l-160 303q-13 -1 -26 -1.5t-27 -0.5h-216v-301h-34v707h250q59 0 103.5 -9.5t74.5 -32.5t45 -62t15 -99q0 -97 -38.5 -141t-112.5 -56zM126 333l216 -1q41 0 78 4.5t65 21.5t44 51.5t16 94.5q0 59 -16 93t-44 51.5t-65 22.5t-78 5h-216v-343zM295 -118
q4 16 6.5 30l4.5 25q1 13 2 24h36q-1 -12 -3 -25q-2 -12 -5 -26t-7 -29q-5 -18 -10.5 -33t-10.5 -26q-6 -13 -12 -24h-30q5 11 10 24q5 12 9.5 27z" />
    <glyph glyph-name="rcommaaccent" unicode="&#x157;" horiz-adv-x="337" 
d="M110 531l11 -127q5 15 16 38t33.5 44.5t57.5 37.5t86 16v-30q-54 0 -89.5 -20t-57 -47t-31.5 -54t-13 -41v-348h-33v384l-10 147h30zM76 -118q4 16 6.5 30l4.5 25q1 13 2 24h36q-1 -12 -3 -25q-2 -12 -5 -26t-7 -29q-5 -18 -10.5 -33t-10.5 -26q-6 -13 -12 -24h-30
q5 11 10 24q5 12 9.5 27z" />
    <glyph glyph-name="Rcaron" unicode="&#x158;" horiz-adv-x="640" 
d="M331 760h-28l-98 101h37l75 -72l74 72h38zM594 0h-39l-160 303q-13 -1 -26 -1.5t-27 -0.5h-216v-301h-34v707h250q59 0 103.5 -9.5t74.5 -32.5t45 -62t15 -99q0 -97 -38.5 -141t-112.5 -56zM126 333l216 -1q41 0 78 4.5t65 21.5t44 51.5t16 94.5q0 59 -16 93t-44 51.5
t-65 22.5t-78 5h-216v-343z" />
    <glyph glyph-name="rcaron" unicode="&#x159;" horiz-adv-x="337" 
d="M196 637h-26l-100 125h35l77 -94l77 94h37zM110 531l11 -127q5 15 16 38t33.5 44.5t57.5 37.5t86 16v-30q-54 0 -89.5 -20t-57 -47t-31.5 -54t-13 -41v-348h-33v384l-10 147h30z" />
    <glyph glyph-name="Sacute" unicode="&#x15a;" horiz-adv-x="618" 
d="M296 761l66 107h43l-77 -107h-32zM53 205h34q0 -88 54.5 -138t168.5 -52q61 -1 103.5 10.5t69.5 32.5t39 49.5t12 61.5q0 51 -20 82.5t-52.5 50t-74 29t-85 19t-85 19.5t-74 31t-52.5 53.5t-20 87.5q0 41 13.5 74t42 56.5t73 36.5t106.5 12q65 -1 111 -16t75.5 -41
t43 -61t13.5 -77h-33q0 27 -9.5 56t-33 52.5t-64 39t-103.5 16.5q-60 0 -98.5 -12t-61 -33t-31.5 -47.5t-9 -55.5q0 -47 20 -75.5t52.5 -45.5t74 -26.5t85 -18t85 -20.5t74 -34t52.5 -58.5t20 -93.5q0 -88 -65.5 -137.5t-193.5 -47.5q-59 0 -106.5 13.5t-81 40.5t-51.5 68.5
t-18 98.5z" />
    <glyph glyph-name="sacute" unicode="&#x15b;" horiz-adv-x="504" 
d="M219 637l66 125h42l-77 -125h-31zM45 160h32q0 -68 43 -103.5t132 -36.5q50 -1 83 7.5t53 24t29 36.5t9 45q1 47 -26 70.5t-68 36t-88.5 19.5t-89 21.5t-69 42t-28.5 79.5q0 63 47.5 101.5t150.5 36.5q100 -2 145.5 -41.5t45.5 -116.5h-31q0 27 -7 50.5t-25 41t-49 27.5
t-78 11q-49 1 -81 -8.5t-51 -25.5t-26 -36t-7 -40q0 -44 27.5 -66t68.5 -33.5t88.5 -19t88.5 -22.5t68.5 -44t27.5 -83q0 -68 -49 -106.5t-159 -36.5q-100 2 -153.5 42t-53.5 127z" />
    <glyph glyph-name="Scircumflex" unicode="&#x15c;" horiz-adv-x="618" 
d="M312 833l-74 -72h-38l98 101h28l98 -101h-38zM106 541q0 -47 20 -75.5t52.5 -45.5t74 -26.5t85 -18t85 -20.5t74 -34t52.5 -58.5t20 -93.5q0 -88 -65.5 -137.5t-193.5 -47.5q-59 0 -106.5 13.5t-81 40.5t-51.5 68.5t-18 98.5h34q0 -88 54.5 -138t168.5 -52
q61 -1 103.5 10.5t69.5 32.5t39 49.5t12 61.5q0 51 -20 82.5t-52.5 50t-74 29t-85 19t-85 19.5t-74 31t-52.5 53.5t-20 87.5q0 41 13.5 74t42 56.5t73 36.5t106.5 12q65 -1 111 -16t75.5 -41t43 -61t13.5 -77h-33q0 27 -9.5 56t-33 52.5t-64 39t-103.5 16.5q-60 0 -98.5 -12
t-61 -33t-31.5 -47.5t-9 -55.5z" />
    <glyph glyph-name="scircumflex" unicode="&#x15d;" horiz-adv-x="504" 
d="M253 731l-77 -94h-36l100 125h26l100 -125h-36zM91 402q0 -44 27.5 -66t68.5 -33.5t88.5 -19t88.5 -22.5t68.5 -44t27.5 -83q0 -68 -49 -106.5t-159 -36.5q-100 2 -153.5 42t-53.5 127h32q0 -68 43 -103.5t132 -36.5q50 -1 83 7.5t53 24t29 36.5t9 45q1 47 -26 70.5
t-68 36t-88.5 19.5t-89 21.5t-69 42t-28.5 79.5q0 63 47.5 101.5t150.5 36.5q100 -2 145.5 -41.5t45.5 -116.5h-31q0 27 -7 50.5t-25 41t-49 27.5t-78 11q-49 1 -81 -8.5t-51 -25.5t-26 -36t-7 -40z" />
    <glyph glyph-name="Scedilla" unicode="&#x15e;" horiz-adv-x="618" 
d="M569 169q0 -85 -61 -134t-181 -51l-22 -46q37 -2 62 -17.5t25 -52.5q0 -44 -26 -59t-74 -15q-11 0 -19.5 1t-14.5 1q-8 2 -14 3v25q6 -1 13 -3q7 -1 15 -1.5t17 -0.5q37 0 54.5 9t17.5 41q0 29 -26 39.5t-61 10.5h-6l30 65q-112 3 -178.5 56t-66.5 165h34
q0 -88 54.5 -138t168.5 -52q61 -1 103.5 10.5t69.5 32.5t39 49.5t12 61.5q0 51 -20 82.5t-52.5 50t-74 29t-85 19t-85 19.5t-74 31t-52.5 53.5t-20 87.5q0 41 13.5 74t42 56.5t73 36.5t106.5 12q65 -1 111 -16t75.5 -41t43 -61t13.5 -77h-33q0 27 -9.5 56t-33 52.5t-64 39
t-103.5 16.5q-60 0 -98.5 -12t-61 -33t-31.5 -47.5t-9 -55.5q0 -47 20 -75.5t52.5 -45.5t74 -26.5t85 -18t85 -20.5t74 -34t52.5 -58.5t20 -93.5z" />
    <glyph glyph-name="scedilla" unicode="&#x15f;" horiz-adv-x="504" 
d="M460 134q0 -66 -45.5 -104t-148.5 -39l-22 -45q37 -2 62 -17.5t25 -52.5q0 -44 -26 -59t-74 -15q-11 0 -19.5 1t-14.5 1q-8 2 -14 3v25q6 -1 13 -3q7 -1 15 -1.5t17 -0.5q37 0 54.5 9t17.5 41q0 29 -26 39.5t-61 10.5h-6l30 64q-93 5 -142.5 45t-49.5 124h32
q0 -68 43 -103.5t132 -36.5q50 -1 83 7.5t53 24t29 36.5t9 45q1 47 -26 70.5t-68 36t-88.5 19.5t-89 21.5t-69 42t-28.5 79.5q0 63 47.5 101.5t150.5 36.5q100 -2 145.5 -41.5t45.5 -116.5h-31q0 27 -7 50.5t-25 41t-49 27.5t-78 11q-49 1 -81 -8.5t-51 -25.5t-26 -36
t-7 -40q0 -44 27.5 -66t68.5 -33.5t88.5 -19t88.5 -22.5t68.5 -44t27.5 -83z" />
    <glyph glyph-name="Scaron" unicode="&#x160;" horiz-adv-x="618" 
d="M326 761h-28l-98 101h37l75 -72l74 72h38zM106 541q0 -47 20 -75.5t52.5 -45.5t74 -26.5t85 -18t85 -20.5t74 -34t52.5 -58.5t20 -93.5q0 -88 -65.5 -137.5t-193.5 -47.5q-59 0 -106.5 13.5t-81 40.5t-51.5 68.5t-18 98.5h34q0 -88 54.5 -138t168.5 -52q61 -1 103.5 10.5
t69.5 32.5t39 49.5t12 61.5q0 51 -20 82.5t-52.5 50t-74 29t-85 19t-85 19.5t-74 31t-52.5 53.5t-20 87.5q0 41 13.5 74t42 56.5t73 36.5t106.5 12q65 -1 111 -16t75.5 -41t43 -61t13.5 -77h-33q0 27 -9.5 56t-33 52.5t-64 39t-103.5 16.5q-60 0 -98.5 -12t-61 -33
t-31.5 -47.5t-9 -55.5z" />
    <glyph glyph-name="scaron" unicode="&#x161;" horiz-adv-x="504" 
d="M266 637h-26l-100 125h35l77 -94l77 94h37zM91 402q0 -44 27.5 -66t68.5 -33.5t88.5 -19t88.5 -22.5t68.5 -44t27.5 -83q0 -68 -49 -106.5t-159 -36.5q-100 2 -153.5 42t-53.5 127h32q0 -68 43 -103.5t132 -36.5q50 -1 83 7.5t53 24t29 36.5t9 45q1 47 -26 70.5t-68 36
t-88.5 19.5t-89 21.5t-69 42t-28.5 79.5q0 63 47.5 101.5t150.5 36.5q100 -2 145.5 -41.5t45.5 -116.5h-31q0 27 -7 50.5t-25 41t-49 27.5t-78 11q-49 1 -81 -8.5t-51 -25.5t-26 -36t-7 -40z" />
    <glyph glyph-name="uni0162" unicode="&#x162;" horiz-adv-x="536" 
d="M281 0h-5l-27 -56q37 -2 62 -17.5t25 -52.5q0 -44 -26 -59t-74 -15q-11 0 -19.5 1t-14.5 1q-8 2 -14 3v25q6 -1 13 -3q7 -1 15 -1.5t17 -0.5q37 0 54.5 9t17.5 41q0 29 -26 39.5t-61 10.5h-6l35 75h-1l5 672h-240v32h514v-32h-240z" />
    <glyph glyph-name="uni0163" unicode="&#x163;" horiz-adv-x="298" 
d="M282 -1h-46q-25 0 -42 4l-22 -47q37 -2 62 -17.5t25 -52.5q0 -44 -26 -59t-74 -15q-11 0 -19.5 1t-14.5 1q-8 2 -14 3v25q6 -1 13 -3q7 -1 15 -1.5t17 -0.5q37 0 54.5 9t17.5 41q0 29 -26 39.5t-61 10.5h-6l34 73q-25 10 -39 28t-21.5 41.5t-9.5 51.5t-2 58v313h-67v29
h67v161l33 9v-170h148v-29h-148v-313q0 -34 3 -63.5t14 -51t32.5 -33.5t58.5 -12h44v-30z" />
    <glyph glyph-name="Tcaron" unicode="&#x164;" horiz-adv-x="536" 
d="M283 760h-28l-98 101h37l75 -72l74 72h38zM525 704v-32h-240l-4 -672h-35l5 672h-240v32h514z" />
    <glyph glyph-name="tcaron" unicode="&#x165;" horiz-adv-x="298" 
d="M280 734l-58 -129h-29l47 129h40zM238 29h44v-30h-46q-49 0 -76.5 15.5t-41.5 41.5t-17.5 60.5t-3.5 72.5v313h-67v29h67v161l33 9v-170h148v-29h-148v-313q0 -34 3 -63.5t14 -51t32.5 -33.5t58.5 -12z" />
    <glyph glyph-name="Tbar" unicode="&#x166;" horiz-adv-x="554" 
d="M534 672h-240l-2 -307h129v-30h-129l-2 -335h-35l2 335h-123v30h124l2 307h-240v32h514v-32z" />
    <glyph glyph-name="tbar" unicode="&#x167;" horiz-adv-x="298" 
d="M238 29h44v-30h-46q-49 0 -76.5 15.5t-41.5 41.5t-17.5 60.5t-3.5 72.5v76h-71v28h71v209h-67v29h67v161l33 9v-170h148v-29h-148v-209h143v-28h-143v-76q0 -34 3 -63.5t14 -51t32.5 -33.5t58.5 -12z" />
    <glyph glyph-name="Utilde" unicode="&#x168;" horiz-adv-x="677" 
d="M425 842h25q0 -11 -1.5 -24.5t-8 -25.5t-19 -20t-33.5 -8q-22 0 -33.5 7t-19.5 15.5t-16.5 15.5t-25.5 7q-14 0 -22 -5.5t-11.5 -13.5t-4.5 -16t-1 -14h-26q0 10 2 23.5t8.5 25.5t19 20t34.5 8t33 -7t18.5 -15t16 -15t25.5 -7q14 0 22 5.5t12 13.5t5 16.5t1 13.5z
M338 -16q-82 0 -133 25.5t-79 73t-38 115t-10 151.5v355h34v-355q0 -83 9.5 -145.5t35 -104.5t69 -63t112.5 -21t113 21t69 63t34.5 104.5t9.5 145.5v355h36v-355q0 -84 -10 -151.5t-38.5 -115t-80 -73t-133.5 -25.5z" />
    <glyph glyph-name="utilde" unicode="&#x169;" horiz-adv-x="566" 
d="M238 687q-14 0 -22 -6t-12 -14t-5 -16.5t-1 -13.5h-25q0 10 2 23t8.5 25t19 20t34.5 8t33 -7t18.5 -15.5t16 -15.5t25.5 -7q14 0 22.5 5.5t12.5 13.5t5 16.5t1 14.5h24q0 -11 -1.5 -24.5t-8 -25t-19 -19.5t-33.5 -8q-22 0 -33.5 7t-19.5 16t-16.5 16t-25.5 7zM493 0h-30
l-11 128q-6 -14 -21 -37.5t-39 -45.5t-58 -38t-78 -16q-45 0 -79.5 11t-57.5 37.5t-34.5 69.5t-11.5 106l1 316h33l-1 -313q0 -98 32.5 -147t120.5 -49q46 0 79.5 19t57 44.5t36.5 50.5t18 37v358h33v-384z" />
    <glyph glyph-name="Umacron" unicode="&#x16a;" horiz-adv-x="677" 
d="M236 817h206v-29h-206v29zM338 -16q-82 0 -133 25.5t-79 73t-38 115t-10 151.5v355h34v-355q0 -83 9.5 -145.5t35 -104.5t69 -63t112.5 -21t113 21t69 63t34.5 104.5t9.5 145.5v355h36v-355q0 -84 -10 -151.5t-38.5 -115t-80 -73t-133.5 -25.5z" />
    <glyph glyph-name="umacron" unicode="&#x16b;" horiz-adv-x="566" 
d="M387 694v-28h-206v28h206zM493 0h-30l-11 128q-6 -14 -21 -37.5t-39 -45.5t-58 -38t-78 -16q-45 0 -79.5 11t-57.5 37.5t-34.5 69.5t-11.5 106l1 316h33l-1 -313q0 -98 32.5 -147t120.5 -49q46 0 79.5 19t57 44.5t36.5 50.5t18 37v358h33v-384z" />
    <glyph glyph-name="Ubreve" unicode="&#x16c;" horiz-adv-x="677" 
d="M415 846h29q0 -13 -6.5 -28t-19.5 -28t-33 -21.5t-46 -8.5t-46 8.5t-33 21.5t-19.5 28t-6.5 28h30q0 -19 20 -38.5t55 -19.5t55.5 19.5t20.5 38.5zM338 -16q-82 0 -133 25.5t-79 73t-38 115t-10 151.5v355h34v-355q0 -83 9.5 -145.5t35 -104.5t69 -63t112.5 -21t113 21
t69 63t34.5 104.5t9.5 145.5v355h36v-355q0 -84 -10 -151.5t-38.5 -115t-80 -73t-133.5 -25.5z" />
    <glyph glyph-name="ubreve" unicode="&#x16d;" horiz-adv-x="566" 
d="M284 636q-26 0 -45.5 10t-33 24.5t-20 31.5t-6.5 30h29q0 -9 5.5 -21t15.5 -22t24 -17t31 -7t31.5 7t24.5 17t15.5 22t5.5 21h28q0 -13 -6.5 -30t-20 -31.5t-33 -24.5t-45.5 -10zM493 0h-30l-11 128q-6 -14 -21 -37.5t-39 -45.5t-58 -38t-78 -16q-45 0 -79.5 11
t-57.5 37.5t-34.5 69.5t-11.5 106l1 316h33l-1 -313q0 -98 32.5 -147t120.5 -49q46 0 79.5 19t57 44.5t36.5 50.5t18 37v358h33v-384z" />
    <glyph glyph-name="Uring" unicode="&#x16e;" horiz-adv-x="677" 
d="M339 760q-32 0 -49 18.5t-17 45.5t17 45.5t49 18.5t49.5 -18.5t17.5 -45.5t-17.5 -45.5t-49.5 -18.5zM339 783q18 0 29 11t11 30t-11 30t-29 11t-29 -11t-11 -30t11 -30t29 -11zM338 -16q-82 0 -133 25.5t-79 73t-38 115t-10 151.5v355h34v-355q0 -83 9.5 -145.5
t35 -104.5t69 -63t112.5 -21t113 21t69 63t34.5 104.5t9.5 145.5v355h36v-355q0 -84 -10 -151.5t-38.5 -115t-80 -73t-133.5 -25.5z" />
    <glyph glyph-name="uring" unicode="&#x16f;" horiz-adv-x="566" 
d="M284 636q-34 0 -51.5 19.5t-17.5 46.5t17.5 46.5t51.5 19.5t51.5 -19.5t17.5 -46.5t-17.5 -46.5t-51.5 -19.5zM284 743q-18 0 -29 -11t-11 -30t11 -30t29 -11t29 11t11 30t-11 30t-29 11zM493 0h-30l-11 128q-6 -14 -21 -37.5t-39 -45.5t-58 -38t-78 -16q-45 0 -79.5 11
t-57.5 37.5t-34.5 69.5t-11.5 106l1 316h33l-1 -313q0 -98 32.5 -147t120.5 -49q46 0 79.5 19t57 44.5t36.5 50.5t18 37v358h33v-384z" />
    <glyph glyph-name="Uhungarumlaut" unicode="&#x170;" horiz-adv-x="677" 
d="M255 760l59 107h43l-70 -107h-32zM366 760l68 107h43l-78 -107h-33zM338 -16q-82 0 -133 25.5t-79 73t-38 115t-10 151.5v355h34v-355q0 -83 9.5 -145.5t35 -104.5t69 -63t112.5 -21t113 21t69 63t34.5 104.5t9.5 145.5v355h36v-355q0 -84 -10 -151.5t-38.5 -115t-80 -73
t-133.5 -25.5z" />
    <glyph glyph-name="uhungarumlaut" unicode="&#x171;" horiz-adv-x="566" 
d="M300 762l-70 -125h-31l59 125h42zM420 762l-78 -125h-32l68 125h42zM493 0h-30l-11 128q-6 -14 -21 -37.5t-39 -45.5t-58 -38t-78 -16q-45 0 -79.5 11t-57.5 37.5t-34.5 69.5t-11.5 106l1 316h33l-1 -313q0 -98 32.5 -147t120.5 -49q46 0 79.5 19t57 44.5t36.5 50.5
t18 37v358h33v-384z" />
    <glyph glyph-name="Uogonek" unicode="&#x172;" horiz-adv-x="677" 
d="M564 704h36v-355q0 -59 -4.5 -110.5t-17 -93.5t-34 -73.5t-55.5 -52.5l-2 -1q-3 -2 -5 -3l-6 -3q-9 -5 -21.5 -14t-24.5 -20.5t-20 -26t-8 -31.5q0 -24 13 -34t30 -10q9 0 17.5 2t15.5 4q8 3 15 7v-24q-7 -4 -15 -8q-8 -3 -17.5 -5t-21.5 -2q-33 0 -51 17.5t-18 48.5
q0 23 11 41t26 32q-16 -2 -33 -3.5t-36 -1.5q-82 0 -133 25.5t-79 73t-38 115t-10 151.5v355h34v-355q0 -83 9.5 -145.5t35 -104.5t69 -63t112.5 -21t113 21t69 63t34.5 104.5t9.5 145.5v355z" />
    <glyph glyph-name="uogonek" unicode="&#x173;" horiz-adv-x="566" 
d="M446 -143q9 0 17.5 2t15.5 4q8 3 15 7v-24q-7 -4 -15 -8q-8 -3 -17.5 -5t-21.5 -2q-33 0 -51 17.5t-18 48.5q0 24 12.5 43.5t28.5 33.5t31 23t19 11l-10 120q-6 -14 -21 -37.5t-39 -45.5t-58 -38t-78 -16q-45 0 -79.5 11t-57.5 37.5t-34.5 69.5t-11.5 106l1 316h33
l-1 -313q0 -98 32.5 -147t120.5 -49q46 0 79.5 19t57 44.5t36.5 50.5t18 37v358h33v-384l10 -147h-2q-25 -12 -44 -27q-18 -14 -31 -31.5t-13 -40.5q0 -24 13 -34t30 -10z" />
    <glyph glyph-name="Wcircumflex" unicode="&#x174;" horiz-adv-x="925" 
d="M463 832l-74 -72h-38l98 101h28l98 -101h-38zM875 704h36l-212 -704h-37l-200 656l-193 -656h-36l-220 704h38l201 -661l193 661h34l203 -663z" />
    <glyph glyph-name="wcircumflex" unicode="&#x175;" horiz-adv-x="728" 
d="M364 731l-77 -94h-36l100 125h26l100 -125h-36zM685 531h34l-163 -531h-41l-152 479l-144 -479h-41l-169 532h35l155 -498l148 497h34l155 -495z" />
    <glyph glyph-name="Ycircumflex" unicode="&#x176;" horiz-adv-x="553" 
d="M276 832l-74 -72h-38l98 101h28l98 -101h-38zM502 704h38l-241 -419v-285h-35v285l-251 419h40l229 -382z" />
    <glyph glyph-name="ycircumflex" unicode="&#x177;" horiz-adv-x="466" 
d="M232 731l-77 -94h-36l100 125h26l100 -125h-36zM422 531h35l-277 -749h-33l80 218h-10l-208 531h38l191 -500z" />
    <glyph glyph-name="Ydieresis" unicode="&#x178;" horiz-adv-x="553" 
d="M230 873v-113h-34v113h34zM357 873v-113h-34v113h34zM502 704h38l-241 -419v-285h-35v285l-251 419h40l229 -382z" />
    <glyph glyph-name="Zacute" unicode="&#x179;" horiz-adv-x="531" 
d="M371 867l-77 -107h-32l66 107h43zM59 35h449v-30h-488v32l445 631h-416v31h455v-33z" />
    <glyph glyph-name="zacute" unicode="&#x17a;" horiz-adv-x="408" 
d="M286 762l-77 -125h-31l66 125h42zM28 526h359v-32l-336 -460l336 1v-29h-369v31l334 461l-324 -1v29z" />
    <glyph glyph-name="Zdotaccent" unicode="&#x17b;" horiz-adv-x="531" 
d="M295 873v-113h-33v113h33zM59 35h449v-30h-488v32l445 631h-416v31h455v-33z" />
    <glyph glyph-name="zdotaccent" unicode="&#x17c;" horiz-adv-x="408" 
d="M229 759v-113h-33v113h33zM28 526h359v-32l-336 -460l336 1v-29h-369v31l334 461l-324 -1v29z" />
    <glyph glyph-name="Zcaron" unicode="&#x17d;" horiz-adv-x="531" 
d="M292 760h-28l-98 101h37l75 -72l74 72h38zM59 35h449v-30h-488v32l445 631h-416v31h455v-33z" />
    <glyph glyph-name="zcaron" unicode="&#x17e;" horiz-adv-x="408" 
d="M225 637h-26l-100 125h35l77 -94l77 94h37zM28 526h359v-32l-336 -460l336 1v-29h-369v31l334 461l-324 -1v29z" />
    <glyph glyph-name="uni018F" unicode="&#x18f;" horiz-adv-x="686" 
d="M343 720q83 0 137.5 -26t87 -74.5t45.5 -116.5t13 -152t-13 -152t-45.5 -115.5t-87 -73.5t-137.5 -26t-137.5 26t-87 73.5t-45.5 114.5t-13 150h34l498 -1v4q0 83 -12.5 145.5t-42 105.5t-77 64.5t-117.5 21.5q-106 0 -161.5 -48.5t-74.5 -145.5h-36q10 53 30 95t52.5 71
t79 44.5t110.5 15.5zM343 15q66 0 112.5 19.5t76 57.5t43.5 95t17 132h-498q2 -75 16.5 -131.5t44 -95t76 -58t112.5 -19.5z" />
    <glyph glyph-name="uni019D" unicode="&#x19d;" horiz-adv-x="704" 
d="M578 704h34v-704h-37l-445 650l-5 -650q0 -57 -5.5 -98.5t-22.5 -67.5t-48 -38.5t-82 -12.5h-49v33h51q38 0 62 9.5t37.5 31t18.5 57t5 86.5l5 704h36l447 -651z" />
    <glyph glyph-name="Gcaron" unicode="&#x1e6;" horiz-adv-x="656" 
d="M351 761h-28l-98 101h37l75 -72l74 72h38zM587 333v-257q0 -5 -14.5 -20t-44.5 -31t-77 -28.5t-112 -12.5q-81 0 -135 25.5t-86 73t-45 115.5t-13 152t13 152.5t45 117t86 74.5t135 26q65 0 112 -18t78 -49t45.5 -71t14.5 -84h-34q0 39 -14 73.5t-41 60.5t-67.5 41
t-93.5 15q-68 0 -114.5 -21.5t-75.5 -64.5t-42 -106t-13 -146t13 -145.5t42 -104.5t76 -63.5t115 -21.5q51 0 91 9.5t67.5 21.5t41.5 24t14 17v215h-166v31h199z" />
    <glyph glyph-name="gcaron" unicode="&#x1e7;" horiz-adv-x="572" 
d="M295 637h-26l-100 125h35l77 -94l77 94h37zM469 531h30l-9 -130v-401q0 -45 -5 -88.5t-26 -77t-64 -54t-120 -20.5q-39 0 -68.5 8t-50.5 20.5t-34.5 29t-22.5 33.5q-20 41 -19 92l32 1v-12t4 -29t13 -37.5t27 -37.5t47.5 -28.5t72.5 -11.5q65 0 101 17.5t54 46.5t22 67.5
t4 80.5v99q-10 -20 -26 -39.5t-40 -34.5t-55.5 -24t-73.5 -9q-55 0 -94 19.5t-63 55.5t-35 86t-11 110q0 61 11 112t35 87.5t63 57t94 20.5q43 0 76.5 -12t58 -28.5t40.5 -34.5t23 -31zM265 21q47 0 80.5 13.5t56.5 34t36.5 45t18.5 45.5v232q-6 12 -20.5 32.5t-38 40
t-56.5 33.5t-77 14q-88 0 -130 -66.5t-42 -181.5t41.5 -178.5t130.5 -63.5z" />
    <glyph glyph-name="uni01EA" unicode="&#x1ea;" horiz-adv-x="686" 
d="M482 11q-10 -6 -22 -14.5t-22.5 -20t-18 -25.5t-7.5 -30q0 -24 13 -34t30 -10q9 0 17.5 2t15.5 4q8 3 15 7v-24q-7 -4 -15 -8q-8 -3 -17.5 -5t-21.5 -2q-33 0 -51 17.5t-18 48.5q0 23 11 41t25 32q-33 -6 -73 -6q-83 0 -137.5 26t-87 73.5t-45.5 115.5t-13 152t13 152
t45.5 116.5t87 74.5t137.5 26t137.5 -26t87 -74.5t45.5 -116.5t13 -152q0 -63 -7 -116.5t-24 -97t-44.5 -75.5t-68.5 -51zM94 351q0 -83 13 -146t42 -105t77 -63.5t117 -21.5q70 0 117.5 21.5t77 63.5t42 105t12.5 146t-12.5 145.5t-42 105.5t-77 64.5t-117.5 21.5
q-69 0 -117 -21.5t-77 -64.5t-42 -105.5t-13 -145.5z" />
    <glyph glyph-name="uni01EB" unicode="&#x1eb;" horiz-adv-x="561" 
d="M388 9q-9 -5 -22 -13.5t-25 -20.5t-20 -26.5t-8 -31.5q0 -24 13 -34t30 -10q9 0 17.5 2t15.5 4q8 3 15 7v-24q-7 -4 -15 -8q-8 -3 -17.5 -5t-21.5 -2q-33 0 -51 17.5t-18 48.5q0 25 13 45t30 35q-19 -3 -43 -3q-66 0 -109 20t-68 56t-35 86.5t-10 111.5t10 111.5t35 87.5
t68 57.5t109 20.5t108.5 -20.5t68 -57t35.5 -87.5t10 -112q0 -91 -24.5 -158.5t-90.5 -96.5zM280 19q54 0 90 16.5t58 48t31 77t9 103.5t-9 104t-31 78t-58 49t-90 17t-89.5 -17t-57.5 -49t-31 -78t-9 -104t9 -103.5t31 -77t57.5 -48t89.5 -16.5z" />
    <glyph glyph-name="Aringacute" unicode="&#x1fa;" horiz-adv-x="608" 
d="M397 1051l-77 -107h-32l66 107h43zM304 760q-32 0 -49 18.5t-17 45.5t17 45.5t49 18.5t49.5 -18.5t17.5 -45.5t-17.5 -45.5t-49.5 -18.5zM304 865q-18 0 -29 -11t-11 -30t11 -30t29 -11t29 11t11 30t-11 30t-29 11zM558 0l-81 210h-348l-80 -210h-36l273 704h36l273 -704
h-37zM141 241h325l-163 424z" />
    <glyph glyph-name="aringacute" unicode="&#x1fb;" horiz-adv-x="551" 
d="M355 944l-77 -125h-31l66 125h42zM272 636q-34 0 -51.5 19.5t-17.5 46.5t17.5 46.5t51.5 19.5t51.5 -19.5t17.5 -46.5t-17.5 -46.5t-51.5 -19.5zM272 743q-18 0 -29 -11t-11 -30t11 -30t29 -11t29 11t11 30t-11 30t-29 11zM478 1h-30l-10 95q-20 -48 -70 -76.5
t-135 -28.5q-97 0 -137 39.5t-40 112.5q0 63 28 94t78.5 44t120 12.5t151.5 -0.5q0 59 -4 101t-19.5 68t-47 38t-86.5 12q-54 0 -87 -13.5t-51 -34t-23.5 -44t-5.5 -43.5h-31q0 23 6 51.5t26.5 53t60 41.5t105.5 17q77 0 116 -20.5t55.5 -57.5t17.5 -87.5t1 -110.5v-133z
M236 18q84 0 134.5 34.5t63.5 90.5v125h-143t-109 -10.5t-69 -36.5t-24 -79q0 -28 7 -51t24.5 -39t45.5 -25t70 -9z" />
    <glyph glyph-name="AEacute" unicode="&#x1fc;" horiz-adv-x="877" 
d="M551 867l-77 -107h-32l66 107h43zM458 32h398v-32h-432v210h-253l-119 -210h-39l400 704h439v-32h-394v-288h344v-31h-344v-321zM189 242h235v416z" />
    <glyph glyph-name="aeacute" unicode="&#x1fd;" horiz-adv-x="912" 
d="M553 762l-77 -125h-31l66 125h42zM824 276l-369 1v-15q0 -49 7 -93.5t27.5 -77.5t56.5 -52.5t94 -19.5q54 0 88.5 15.5t54.5 37t28 44.5t8 38h35q0 -13 -7 -40.5t-29.5 -55t-65 -48t-112.5 -20.5q-80 0 -127.5 30t-69.5 90q-18 -54 -68.5 -86.5t-141.5 -32.5
q-49 0 -82.5 11.5t-54.5 32.5t-30.5 50.5t-9.5 66.5q0 62 27 93.5t75.5 44.5t116 13h147.5q2 22 4 41.5t6 36.5q-3 35 -11.5 60t-25.5 41t-45.5 23t-72.5 7q-54 0 -87 -13.5t-51 -34t-23.5 -44t-5.5 -43.5h-31q0 23 6 51.5t26.5 53t60 41.5t105.5 17q44 0 74.5 -7.5
t50.5 -21.5t31 -33.5t16 -44.5q24 53 70 80t121 27q52 0 92.5 -13t68.5 -44t43 -81.5t15 -125.5h-35zM640 512q-51 0 -85.5 -16.5t-55.5 -45t-30.5 -66.5t-12.5 -80h367q-4 101 -45 154.5t-138 53.5zM236 18q88 0 137 37t58 97q-10 46 -10 111v14h-137.5t-104.5 -10.5
t-66.5 -37t-23.5 -78.5q0 -28 7 -52.5t24.5 -42.5t45.5 -28t70 -10z" />
    <glyph glyph-name="Oslashacute" unicode="&#x1fe;" horiz-adv-x="686" 
d="M430 868l-77 -107h-32l66 107h43zM604 714l-51 -75q41 -48 57 -121t16 -167q0 -84 -13 -152t-45.5 -115.5t-87 -73.5t-137.5 -26q-66 0 -114 16.5t-80 47.5l-38 -55h-36l53 78q-38 48 -53 118.5t-15 161.5q0 84 13 152t45.5 116.5t87 74.5t137.5 26q63 0 109.5 -15
t78.5 -44l36 53h37zM94 351q0 -83 13 -145.5t42 -104.5l362 531q-29 28 -70 42t-98 14q-69 0 -117 -21.5t-77 -64.5t-42 -105.5t-13 -145.5zM343 15q70 0 117.5 21.5t77 63.5t42 105t12.5 146q0 87 -14 151t-46 107l-364 -532q30 -31 72.5 -46.5t102.5 -15.5z" />
    <glyph glyph-name="oslashacute" unicode="&#x1ff;" horiz-adv-x="561" 
d="M354 754l-77 -125h-31l66 125h42zM491 537l-43 -61q31 -37 43 -91.5t12 -120.5q0 -61 -10 -111.5t-35.5 -86.5t-68 -56t-108.5 -20q-50 0 -85.5 11.5t-61.5 32.5l-26 -37h-35l40 57q-30 37 -42 90.5t-12 119.5q0 61 10 111.5t35 87.5t68 57.5t109 20.5q49 0 85 -11.5
t62 -32.5l28 40h35zM93 264q0 -59 9 -104.5t32 -77.5l274 388q-45 42 -128 42q-54 0 -89.5 -17t-57.5 -49t-31 -78t-9 -104zM280 19q54 0 90 16.5t58 48t31 77t9 103.5q0 59 -9 105t-32 78l-274 -387q44 -41 127 -41z" />
    <glyph glyph-name="Scommaaccent" unicode="&#x218;" horiz-adv-x="618" 
d="M53 205h34q0 -88 54.5 -138t168.5 -52q61 -1 103.5 10.5t69.5 32.5t39 49.5t12 61.5q0 51 -20 82.5t-52.5 50t-74 29t-85 19t-85 19.5t-74 31t-52.5 53.5t-20 87.5q0 41 13.5 74t42 56.5t73 36.5t106.5 12q65 -1 111 -16t75.5 -41t43 -61t13.5 -77h-33q0 27 -9.5 56
t-33 52.5t-64 39t-103.5 16.5q-60 0 -98.5 -12t-61 -33t-31.5 -47.5t-9 -55.5q0 -47 20 -75.5t52.5 -45.5t74 -26.5t85 -18t85 -20.5t74 -34t52.5 -58.5t20 -93.5q0 -88 -65.5 -137.5t-193.5 -47.5q-59 0 -106.5 13.5t-81 40.5t-51.5 68.5t-18 98.5zM306 -211h-30
q5 11 10 24q5 12 9.5 27l9.5 33q4 16 6.5 30l4.5 25q1 13 2 24h36q-1 -12 -3 -25q-2 -12 -5 -26t-7 -29q-5 -18 -10.5 -33t-10.5 -26q-6 -13 -12 -24z" />
    <glyph glyph-name="scommaaccent" unicode="&#x219;" horiz-adv-x="504" 
d="M45 160h32q0 -68 43 -103.5t132 -36.5q50 -1 83 7.5t53 24t29 36.5t9 45q1 47 -26 70.5t-68 36t-88.5 19.5t-89 21.5t-69 42t-28.5 79.5q0 63 47.5 101.5t150.5 36.5q100 -2 145.5 -41.5t45.5 -116.5h-31q0 27 -7 50.5t-25 41t-49 27.5t-78 11q-49 1 -81 -8.5t-51 -25.5
t-26 -36t-7 -40q0 -44 27.5 -66t68.5 -33.5t88.5 -19t88.5 -22.5t68.5 -44t27.5 -83q0 -68 -49 -106.5t-159 -36.5q-100 2 -153.5 42t-53.5 127zM245 -203h-30q5 11 10 24q5 12 9.5 27l9.5 33q4 16 6.5 30l4.5 25q1 13 2 24h36q-1 -12 -3 -25q-2 -12 -5 -26t-7 -29
q-5 -18 -10.5 -33t-10.5 -26q-6 -13 -12 -24z" />
    <glyph glyph-name="uni021A" unicode="&#x21a;" horiz-adv-x="554" 
d="M534 704v-32h-240l-4 -672h-35l5 672h-240v32h514zM241 -121q4 16 6 30t4 25q1 13 2 24h36q-1 -12 -3 -25l-4.5 -26t-7.5 -29q-5 -18 -10.5 -33t-10.5 -26q-6 -13 -12 -24h-30q5 11 10 24q5 12 10 27t10 33z" />
    <glyph glyph-name="uni021B" unicode="&#x21b;" horiz-adv-x="298" 
d="M238 29h44v-30h-46q-49 0 -76.5 15.5t-41.5 41.5t-17.5 60.5t-3.5 72.5v313h-67v29h67v161l33 9v-170h148v-29h-148v-313q0 -34 3 -63.5t14 -51t32.5 -33.5t58.5 -12zM172 -109q4 16 6.5 30l4.5 25q1 13 2 24h36q-1 -12 -3 -25q-2 -12 -5 -26t-7 -29q-5 -18 -10.5 -33
t-10.5 -26q-6 -13 -12 -24h-30q5 11 10 24q5 12 9.5 27z" />
    <glyph glyph-name="uni0232" unicode="&#x232;" horiz-adv-x="553" 
d="M379 817v-29h-206v29h206zM502 704h38l-241 -419v-285h-35v285l-251 419h40l229 -382z" />
    <glyph glyph-name="uni0233" unicode="&#x233;" horiz-adv-x="466" 
d="M335 694v-28h-206v28h206zM422 531h35l-277 -749h-33l80 218h-10l-208 531h38l191 -500z" />
    <glyph glyph-name="uni0237" unicode="&#x237;" horiz-adv-x="219" 
d="M-21 -172v30q44 0 68.5 9t35.5 29t13 52.5t2 79.5v503h33v-503q0 -55 -3.5 -93t-18.5 -62t-45.5 -34.5t-84.5 -10.5z" />
    <glyph glyph-name="uni0259" unicode="&#x259;" horiz-adv-x="555" 
d="M277 540q121 0 170.5 -68t49.5 -204t-49.5 -207t-170.5 -71q-52 0 -92.5 13.5t-68.5 45t-42.5 83.5t-14.5 130h404v7q0 50 -7 94t-27.5 77t-56.5 52.5t-94 19.5q-54 0 -88.5 -15.5t-55 -37t-28 -44.5t-7.5 -39h-35q0 14 7 41.5t29.5 54.5t64.5 47.5t112 20.5zM278 18
q53 0 87 17.5t55 47.5t30.5 69.5t11.5 82.5h-369q5 -106 46 -161.5t139 -55.5z" />
    <glyph glyph-name="uni0272" unicode="&#x272;" horiz-adv-x="585" 
d="M319 540q46 0 80 -11t56.5 -37.5t34 -69.5t11.5 -107v-315h-33v314q0 98 -32.5 147t-119.5 49q-39 0 -70 -14t-53.5 -34t-37.5 -42.5t-24 -39.5v-338q0 -55 -3.5 -93t-18.5 -62t-45.5 -34.5t-84.5 -10.5v31q44 0 68.5 9t35.5 29t13 52t2 79v353l-10 136h30l10 -111
q9 17 25.5 38t40 39t54.5 30.5t71 12.5z" />
    <glyph glyph-name="circumflex" unicode="&#x2c6;" horiz-adv-x="357" 
d="M283 637h-36l-77 94l-77 -94h-36l100 125h26z" />
    <glyph glyph-name="caron" unicode="&#x2c7;" horiz-adv-x="357" 
d="M246 762h37l-100 -125h-26l-100 125h35l77 -94z" />
    <glyph glyph-name="breve" unicode="&#x2d8;" horiz-adv-x="346" 
d="M237 732h28q0 -13 -6.5 -30t-20 -31.5t-33 -24.5t-45.5 -10t-45.5 10t-33 24.5t-20 31.5t-6.5 30h29q0 -9 5.5 -21t15.5 -22t24 -17t31 -7t31.5 7t24.5 17t15.5 22t5.5 21z" />
    <glyph glyph-name="dotaccent" unicode="&#x2d9;" horiz-adv-x="188" 
d="M62 646v113h33v-113h-33z" />
    <glyph glyph-name="ring" unicode="&#x2da;" horiz-adv-x="288" 
d="M129 636q-34 0 -51.5 19.5t-17.5 46.5t17.5 46.5t51.5 19.5t51.5 -19.5t17.5 -46.5t-17.5 -46.5t-51.5 -19.5zM129 661q18 0 29 11t11 30t-11 30t-29 11t-29 -11t-11 -30t11 -30t29 -11z" />
    <glyph glyph-name="ogonek" unicode="&#x2db;" horiz-adv-x="286" 
d="M113 10l27 -9q-25 -12 -44 -27q-18 -14 -31 -31.5t-13 -40.5q0 -24 13 -34t30 -10q9 0 17.5 2t15.5 4q8 3 15 7v-24q-7 -4 -15 -8q-8 -3 -17.5 -5t-21.5 -2q-33 0 -51 17.5t-18 48.5q0 26 14.5 47t32.5 35q20 17 46 30z" />
    <glyph glyph-name="tilde" unicode="&#x2dc;" horiz-adv-x="357" 
d="M258 718h24q0 -11 -1.5 -24.5t-8 -25t-19 -19.5t-33.5 -8q-22 0 -33.5 7t-19.5 16t-16.5 16t-25.5 7q-14 0 -22 -6t-12 -14t-5 -16.5t-1 -13.5h-25q0 10 2 23t8.5 25t19 20t34.5 8t33 -7t18.5 -15.5t16 -15.5t25.5 -7q14 0 22.5 5.5t12.5 13.5t5 16.5t1 14.5z" />
    <glyph glyph-name="hungarumlaut" unicode="&#x2dd;" horiz-adv-x="344" 
d="M59 637l59 125h42l-70 -125h-31zM170 637l68 125h42l-78 -125h-32z" />
    <glyph glyph-name="gravecomb" unicode="&#x300;" 
d="M-59 637h-32l-76 125h42z" />
    <glyph glyph-name="acutecomb" unicode="&#x301;" 
d="M-166 637l66 125h42l-77 -125h-31z" />
    <glyph glyph-name="uni0302" unicode="&#x302;" 
d="M-57 637h-36l-77 94l-77 -94h-36l100 125h26z" />
    <glyph glyph-name="tildecomb" unicode="&#x303;" 
d="M-85 718h24q0 -11 -1.5 -24.5t-8 -25t-19 -19.5t-33.5 -8q-23 0 -34 7t-19 16t-16.5 16t-25.5 7q-14 0 -22 -6t-12 -14t-5 -16.5t-1 -13.5h-25q0 10 2 23t8.5 25t19 20t34.5 8t33 -7t18.5 -15.5t16 -15.5t25.5 -7q14 0 22.5 5.5t12.5 13.5t5 16.5t1 14.5z" />
    <glyph glyph-name="uni0304" unicode="&#x304;" 
d="M-266 694h206v-28h-206v28z" />
    <glyph glyph-name="uni0306" unicode="&#x306;" 
d="M-83 732h28q0 -13 -6.5 -30t-20 -31.5t-33 -24.5t-45.5 -10t-45.5 10t-33 24.5t-20 31.5t-6.5 30h29q0 -9 5.5 -21t15.5 -22t24 -17t31 -7t31.5 7t24.5 17t15.5 22t5.5 21z" />
    <glyph glyph-name="uni0307" unicode="&#x307;" 
d="M-94 646v113h33v-113h-33z" />
    <glyph glyph-name="uni0308" unicode="&#x308;" 
d="M-226 637v113h34v-113h-34zM-97 637v113h34v-113h-34z" />
    <glyph glyph-name="uni030A" unicode="&#x30a;" 
d="M-129 636q-34 0 -51.5 19.5t-17.5 46.5t17.5 46.5t51.5 19.5t51.5 -19.5t17.5 -46.5t-17.5 -46.5t-51.5 -19.5zM-129 661q18 0 29 11t11 30t-11 30t-29 11t-29 -11t-11 -30t11 -30t29 -11z" />
    <glyph glyph-name="uni030B" unicode="&#x30b;" 
d="M-279 637l59 125h42l-70 -125h-31zM-168 637l68 125h42l-78 -125h-32z" />
    <glyph glyph-name="uni030C" unicode="&#x30c;" 
d="M-94 762h37l-100 -125h-26l-100 125h35l77 -94z" />
    <glyph glyph-name="uni0312" unicode="&#x312;" 
d="M-89 772h31l-13 -29q-6 -15 -12 -34t-11 -43q-6 -24 -8.5 -41.5t-3.5 -29.5q-1 -13 -1 -23h-37q0 10 1 24q1 13 3.5 30.5t8.5 40.5t13.5 42.5t13.5 33.5q7 16 15 29z" />
    <glyph glyph-name="dotbelowcomb" unicode="&#x323;" 
d="M-94 -173v95h33v-95h-33z" />
    <glyph glyph-name="uni0326" unicode="&#x326;" 
d="M-144 -202h-30q5 11 10 24q5 12 9.5 27l9.5 33q4 16 6.5 30l4.5 25q1 13 2 24h36q-1 -12 -3 -25q-2 -12 -5 -26t-7 -29q-5 -18 -10.5 -33t-10.5 -26q-6 -13 -12 -24z" />
    <glyph glyph-name="uni0327" unicode="&#x327;" 
d="M-109 3l-27 -56q37 -2 62 -17.5t25 -52.5q0 -44 -26 -59t-74 -15q-11 0 -19.5 1t-15.5 1q-7 2 -13 3v25q6 -1 13 -3q7 -1 15 -1.5t17 -0.5q37 0 54.5 9t17.5 41q0 29 -26 39.5t-61 10.5h-6l35 75h29z" />
    <glyph glyph-name="uni0328" unicode="&#x328;" 
d="M-132 10l27 -9q-25 -12 -44 -27q-18 -14 -31 -31.5t-13 -40.5q0 -24 13 -34t30 -10q9 0 17.5 2t15.5 4q8 3 15 7v-24q-7 -4 -15 -8q-8 -3 -17.5 -5t-21.5 -2q-33 0 -51 17.5t-18 48.5q0 26 14.5 47t31.5 35q21 17 47 30z" />
    <glyph glyph-name="uni0335" unicode="&#x335;" 
d="M-296 308v28h247v-28h-247z" />
    <glyph glyph-name="uni0336" unicode="&#x336;" 
d="M-683 307v30h618v-30h-618z" />
    <glyph glyph-name="uni0337" unicode="&#x337;" 
d="M-265 226l-15 24l212 140l15 -24z" />
    <glyph glyph-name="uni0338" unicode="&#x338;" 
d="M-369 111l383 540h35l-383 -540h-35z" />
    <glyph glyph-name="pi" unicode="&#x3c0;" horiz-adv-x="610" 
d="M539 28h13v-28h-13q-39 0 -61.5 13t-33.5 35.5t-14 52t-3 62.5v343h-258v-506h-31v506h-90v29h500v-29h-90v-343q0 -27 2 -51t10.5 -43t24.5 -30t44 -11z" />
    <glyph glyph-name="Wgrave" unicode="&#x1e80;" horiz-adv-x="925" 
d="M482 760h-33l-76 107h42zM875 704h36l-212 -704h-37l-200 656l-193 -656h-36l-220 704h38l201 -661l193 661h34l203 -663z" />
    <glyph glyph-name="wgrave" unicode="&#x1e81;" horiz-adv-x="728" 
d="M376 637h-32l-76 125h42zM685 531h34l-163 -531h-41l-152 479l-144 -479h-41l-169 532h35l155 -498l148 497h34l155 -495z" />
    <glyph glyph-name="Wacute" unicode="&#x1e82;" horiz-adv-x="925" 
d="M556 867l-77 -107h-32l66 107h43zM875 704h36l-212 -704h-37l-200 656l-193 -656h-36l-220 704h38l201 -661l193 661h34l203 -663z" />
    <glyph glyph-name="wacute" unicode="&#x1e83;" horiz-adv-x="728" 
d="M438 762l-77 -125h-31l66 125h42zM685 531h34l-163 -531h-41l-152 479l-144 -479h-41l-169 532h35l155 -498l148 497h34l155 -495z" />
    <glyph glyph-name="Wdieresis" unicode="&#x1e84;" horiz-adv-x="925" 
d="M417 873v-113h-34v113h34zM544 873v-113h-34v113h34zM875 704h36l-212 -704h-37l-200 656l-193 -656h-36l-220 704h38l201 -661l193 661h34l203 -663z" />
    <glyph glyph-name="wdieresis" unicode="&#x1e85;" horiz-adv-x="728" 
d="M317 750v-113h-34v113h34zM446 750v-113h-34v113h34zM685 531h34l-163 -531h-41l-152 479l-144 -479h-41l-169 532h35l155 -498l148 497h34l155 -495z" />
    <glyph glyph-name="uni1EA0" unicode="&#x1ea0;" horiz-adv-x="608" 
d="M595 0h-37l-81 210h-348l-80 -210h-36l273 704h36zM141 241h325l-163 424zM288 -173v95h33v-95h-33z" />
    <glyph glyph-name="uni1EA1" unicode="&#x1ea1;" horiz-adv-x="551" 
d="M478 1h-30l-10 95q-20 -48 -70 -76.5t-135 -28.5q-97 0 -137 39.5t-40 112.5q0 63 28 94t78.5 44t120 12.5t151.5 -0.5q0 59 -4 101t-19.5 68t-47 38t-86.5 12q-54 0 -87 -13.5t-51 -34t-23.5 -44t-5.5 -43.5h-31q0 23 6 51.5t26.5 53t60 41.5t105.5 17q77 0 116 -20.5
t55.5 -57.5t17.5 -87.5t1 -110.5v-133zM236 18q84 0 134.5 34.5t63.5 90.5v125h-143t-109 -10.5t-69 -36.5t-24 -79q0 -28 7 -51t24.5 -39t45.5 -25t70 -9zM256 -173v95h33v-95h-33z" />
    <glyph glyph-name="uni1EB8" unicode="&#x1eb8;" horiz-adv-x="547" 
d="M126 32h400v-32h-434v704h429v-32h-395v-288h345v-31h-345v-321zM291 -173v95h33v-95h-33z" />
    <glyph glyph-name="uni1EB9" unicode="&#x1eb9;" horiz-adv-x="550" 
d="M278 19q54 0 88.5 15.5t55 37t28.5 44.5t8 38h34q0 -13 -7 -40.5t-29.5 -55t-65 -48t-112.5 -20.5q-120 0 -169.5 68.5t-49.5 204.5t49.5 206.5t169.5 70.5q104 0 161.5 -58.5t57.5 -195.5h-404v-24q0 -49 7 -93.5t27.5 -77.5t56.5 -52.5t94 -19.5zM278 512
q-50 0 -83.5 -15.5t-54.5 -42.5t-31.5 -63t-13.5 -77h366q-2 45 -13 81.5t-32.5 62.5t-55.5 40t-82 14zM264 -173v95h33v-95h-33z" />
    <glyph glyph-name="uni1EBC" unicode="&#x1ebc;" horiz-adv-x="547" 
d="M259 809q-14 0 -22 -5.5t-11.5 -13.5t-4.5 -16t-1 -14h-26q0 10 2 23.5t8.5 25.5t19 20t34.5 8t33 -7t18.5 -15t16 -15t25.5 -7q14 0 22 5.5t12 13.5t5 16.5t1 13.5h25q0 -11 -1.5 -24.5t-8 -25.5t-19 -20t-33.5 -8q-22 0 -33.5 7t-19.5 15.5t-16.5 15.5t-25.5 7zM126 32
h400v-32h-434v704h429v-32h-395v-288h345v-31h-345v-321z" />
    <glyph glyph-name="uni1EBD" unicode="&#x1ebd;" horiz-adv-x="550" 
d="M232 687q-14 0 -22 -6t-12 -14t-5 -16.5t-1 -13.5h-25q0 10 2 23t8.5 25t19 20t34.5 8t33 -7t18.5 -15.5t16 -15.5t25.5 -7q14 0 22.5 5.5t12.5 13.5t5 16.5t1 14.5h24q0 -11 -1.5 -24.5t-8 -25t-19 -19.5t-33.5 -8q-22 0 -33.5 7t-19.5 16t-16.5 16t-25.5 7zM278 19
q54 0 88.5 15.5t55 37t28.5 44.5t8 38h34q0 -13 -7 -40.5t-29.5 -55t-65 -48t-112.5 -20.5q-120 0 -169.5 68.5t-49.5 204.5t49.5 206.5t169.5 70.5q104 0 161.5 -58.5t57.5 -195.5h-404v-24q0 -49 7 -93.5t27.5 -77.5t56.5 -52.5t94 -19.5zM278 512q-50 0 -83.5 -15.5
t-54.5 -42.5t-31.5 -63t-13.5 -77h366q-2 45 -13 81.5t-32.5 62.5t-55.5 40t-82 14z" />
    <glyph glyph-name="uni1ECA" unicode="&#x1eca;" horiz-adv-x="218" 
d="M92 0v704h34v-704h-34zM94 -173v95h33v-95h-33z" />
    <glyph glyph-name="uni1ECB" unicode="&#x1ecb;" horiz-adv-x="207" 
d="M87 646v113h33v-113h-33zM87 0v531h33v-531h-33zM90 -173v95h33v-95h-33z" />
    <glyph glyph-name="uni1ECC" unicode="&#x1ecc;" horiz-adv-x="686" 
d="M343 -16q-83 0 -137.5 26t-87 73.5t-45.5 115.5t-13 152t13 152t45.5 116.5t87 74.5t137.5 26t137.5 -26t87 -74.5t45.5 -116.5t13 -152t-13 -152t-45.5 -115.5t-87 -73.5t-137.5 -26zM343 15q70 0 117.5 21.5t77 63.5t42 105t12.5 146t-12.5 145.5t-42 105.5t-77 64.5
t-117.5 21.5q-69 0 -117 -21.5t-77 -64.5t-42 -105.5t-13 -145.5t13 -146t42 -105t77 -63.5t117 -21.5zM327 -173v95h33v-95h-33z" />
    <glyph glyph-name="uni1ECD" unicode="&#x1ecd;" horiz-adv-x="561" 
d="M281 -10q-66 0 -109 20t-68 56t-35 86.5t-10 111.5t10 111.5t35 87.5t68 57.5t109 20.5t108.5 -20.5t68 -57t35.5 -87.5t10 -112t-10 -111.5t-35.5 -86.5t-68 -56t-108.5 -20zM280 19q54 0 90 16.5t58 48t31 77t9 103.5t-9 104t-31 78t-58 49t-90 17t-89.5 -17t-57.5 -49
t-31 -78t-9 -104t9 -103.5t31 -77t57.5 -48t89.5 -16.5zM264 -173v95h33v-95h-33z" />
    <glyph glyph-name="uni1EE4" unicode="&#x1ee4;" horiz-adv-x="677" 
d="M338 -16q-82 0 -133 25.5t-79 73t-38 115t-10 151.5v355h34v-355q0 -83 9.5 -145.5t35 -104.5t69 -63t112.5 -21t113 21t69 63t34.5 104.5t9.5 145.5v355h36v-355q0 -84 -10 -151.5t-38.5 -115t-80 -73t-133.5 -25.5zM323 -173v95h33v-95h-33z" />
    <glyph glyph-name="uni1EE5" unicode="&#x1ee5;" horiz-adv-x="566" 
d="M493 0h-30l-11 128q-6 -14 -21 -37.5t-39 -45.5t-58 -38t-78 -16q-45 0 -79.5 11t-57.5 37.5t-34.5 69.5t-11.5 106l1 316h33l-1 -313q0 -98 32.5 -147t120.5 -49q46 0 79.5 19t57 44.5t36.5 50.5t18 37v358h33v-384zM268 -173v95h33v-95h-33z" />
    <glyph glyph-name="Ygrave" unicode="&#x1ef2;" horiz-adv-x="553" 
d="M295 760h-33l-76 107h42zM502 704h38l-241 -419v-285h-35v285l-251 419h40l229 -382z" />
    <glyph glyph-name="ygrave" unicode="&#x1ef3;" horiz-adv-x="466" 
d="M244 637h-32l-76 125h42zM422 531h35l-277 -749h-33l80 218h-10l-208 531h38l191 -500z" />
    <glyph glyph-name="uni1EF8" unicode="&#x1ef8;" horiz-adv-x="553" 
d="M230 809q-14 0 -22 -5.5t-11.5 -13.5t-4.5 -16t-1 -14h-26q0 10 2 23.5t8.5 25.5t19 20t34.5 8t33 -7t18.5 -15t16 -15t25.5 -7q14 0 22 5.5t12 13.5t5 16.5t1 13.5h25q0 -11 -1.5 -24.5t-8 -25.5t-19 -20t-33.5 -8q-22 0 -33.5 7t-19.5 15.5t-16.5 15.5t-25.5 7z
M502 704h38l-241 -419v-285h-35v285l-251 419h40l229 -382z" />
    <glyph glyph-name="uni1EF9" unicode="&#x1ef9;" horiz-adv-x="466" 
d="M186 687q-14 0 -22 -6t-12 -14t-5 -16.5t-1 -13.5h-25q0 10 2 23t8.5 25t19 20t34.5 8t33 -7t18.5 -15.5t16 -15.5t25.5 -7q14 0 22.5 5.5t12.5 13.5t5 16.5t1 14.5h24q0 -11 -1.5 -24.5t-8 -25t-19 -19.5t-33.5 -8q-22 0 -33.5 7t-19.5 16t-16.5 16t-25.5 7zM422 531h35
l-277 -749h-33l80 218h-10l-208 531h38l191 -500z" />
    <glyph glyph-name="uni2009" unicode="&#x2009;" horiz-adv-x="78" 
 />
    <glyph glyph-name="endash" unicode="&#x2013;" horiz-adv-x="561" 
d="M60 305v30h440v-30h-440z" />
    <glyph glyph-name="emdash" unicode="&#x2014;" horiz-adv-x="904" 
d="M80 305v30h744v-30h-744z" />
    <glyph glyph-name="uni2016" unicode="&#x2016;" horiz-adv-x="369" 
d="M91 -180v1000h31v-1000h-31zM247 -180v1000h31v-1000h-31z" />
    <glyph glyph-name="quoteleft" unicode="&#x2018;" horiz-adv-x="164" 
d="M76 560h-37q0 10 1 24l4.5 30t8.5 40q6 24 13 43.5t14 33.5q7 16 15 29h31l-13 -29q-6 -16 -12 -35t-12 -43q-5 -23 -8 -40.5t-4 -29.5q-1 -13 -1 -23z" />
    <glyph glyph-name="quoteright" unicode="&#x2019;" horiz-adv-x="162" 
d="M69 560h-31l13 29q6 15 12 34t12 43q5 24 8 41.5t4 29.5q1 13 1 23h36q0 -10 -1 -24q-1 -13 -3.5 -30.5t-8.5 -40.5t-13 -42.5t-14 -33.5q-7 -16 -15 -29z" />
    <glyph glyph-name="quotesinglbase" unicode="&#x201a;" horiz-adv-x="185" 
d="M83 -88h-31q7 13 13 30q6 15 12.5 34t11.5 43q5 23 8 40.5t4 29.5q1 14 1 24h37q0 -10 -1 -24l-4.5 -30.5t-8.5 -40.5t-13 -42.5t-14 -33.5q-7 -17 -15 -30z" />
    <glyph glyph-name="quotedblleft" unicode="&#x201c;" horiz-adv-x="267" 
d="M85 560h-37q0 10 1 24l4.5 30t8.5 40q6 24 13 43.5t14 33.5q7 16 15 29h31q-7 -13 -13 -29l-12.5 -35t-11.5 -43q-5 -23 -8 -40.5t-4 -29.5q-1 -13 -1 -23zM189 560h-37q0 10 1 24q1 13 3.5 30t8.5 40q6 24 13.5 43.5t13.5 33.5q7 16 15 29h31l-13 -29q-6 -16 -12 -35
t-11 -43q-6 -23 -8.5 -40.5t-3.5 -29.5q-1 -13 -1 -23z" />
    <glyph glyph-name="quotedblright" unicode="&#x201d;" horiz-adv-x="267" 
d="M60 560h-31l13 29q6 15 12 34t12 43q5 24 8 41.5t4 29.5q1 13 1 23h36q0 -10 -1 -24q-1 -13 -3.5 -30.5t-8.5 -40.5t-13 -42.5t-14 -33.5q-7 -16 -15 -29zM164 560h-32q7 13 13 29q6 15 12.5 34t11.5 43q6 24 8.5 41.5t3.5 29.5q1 13 1 23h37q0 -10 -1 -24
q-1 -13 -3.5 -30.5t-8.5 -40.5t-13.5 -42.5t-13.5 -33.5q-7 -16 -15 -29z" />
    <glyph glyph-name="quotedblbase" unicode="&#x201e;" horiz-adv-x="267" 
d="M60 -107h-31l13 29q6 15 12 34t12 43q5 24 8 41.5t4 29.5q1 13 1 23h36q0 -10 -1 -24q-1 -13 -3.5 -30.5t-8.5 -40.5t-13 -42.5t-14 -33.5q-7 -16 -15 -29zM164 -107h-32q7 13 13 29q6 15 12.5 34t11.5 43q6 24 8.5 41.5t3.5 29.5q1 13 1 23h37q0 -10 -1 -24l-4.5 -30.5
t-8.5 -40.5t-13 -42.5t-13 -33.5q-7 -16 -15 -29z" />
    <glyph glyph-name="dagger" unicode="&#x2020;" horiz-adv-x="534" 
d="M454 555v-29h-171v-526h-31v526h-172v29h172v208h31v-208h171z" />
    <glyph glyph-name="daggerdbl" unicode="&#x2021;" horiz-adv-x="534" 
d="M454 526h-171v-289h171v-29h-171v-208h-31v208h-172v29h172v289h-172v29h172v208h31v-208h171v-29z" />
    <glyph glyph-name="bullet" unicode="&#x2022;" horiz-adv-x="411" 
d="M176 245v101h60v-101h-60z" />
    <glyph glyph-name="ellipsis" unicode="&#x2026;" horiz-adv-x="474" 
d="M96 0v113h37v-113h-37zM219 0v113h36v-113h-36zM341 0v113h37v-113h-37z" />
    <glyph glyph-name="perthousand" unicode="&#x2030;" horiz-adv-x="1014" 
d="M183 378q-40 0 -67.5 12t-44.5 33.5t-24.5 51.5t-7.5 66q0 37 7.5 68t24.5 53t44.5 34t67.5 12q41 0 68 -12t44 -34t24 -53t7 -68q0 -36 -7 -66t-24 -51.5t-44 -33.5t-68 -12zM183 403q63 0 88 35.5t25 102.5q0 68 -25 105t-88 37q-62 0 -88 -37t-26 -105
q0 -67 26 -102.5t88 -35.5zM92 0l460 702h36l-460 -702h-36zM496 -6q-40 0 -67.5 12t-44.5 33.5t-24.5 51.5t-7.5 66q0 37 7.5 68t24.5 53t44.5 34t67.5 12q41 0 68.5 -12t44.5 -34t24 -53t7 -68q0 -36 -7 -66t-24 -51.5t-44.5 -33.5t-68.5 -12zM496 19q63 0 88 35.5
t25 102.5q0 66 -25 104t-88 38q-61 0 -87 -37t-26 -105q0 -67 26 -102.5t87 -35.5zM825 -6q-40 0 -67.5 12t-44.5 33.5t-24.5 51.5t-7.5 66q0 37 7.5 68t24.5 53t44.5 34t67.5 12q41 0 68 -12t44 -34t24 -53t7 -68q0 -36 -7 -66t-24 -51.5t-44 -33.5t-68 -12zM825 19
q63 0 88 35.5t25 102.5q0 66 -25 104t-88 38q-62 0 -88 -37t-26 -105q0 -67 26 -102.5t88 -35.5z" />
    <glyph glyph-name="guilsinglleft" unicode="&#x2039;" horiz-adv-x="309" 
d="M233 418l-123 -156l123 -149h-38l-117 141v16l117 148h38z" />
    <glyph glyph-name="guilsinglright" unicode="&#x203a;" horiz-adv-x="309" 
d="M115 418l117 -148v-16l-117 -141h-39l123 149l-123 156h39z" />
    <glyph glyph-name="fraction" unicode="&#x2044;" horiz-adv-x="241" 
d="M-168 -40l546 836h35l-547 -836h-34z" />
    <glyph glyph-name="uni2070" unicode="&#x2070;" horiz-adv-x="471" 
d="M236 336q-51 0 -85.5 15.5t-55.5 47t-29.5 79t-8.5 111.5q0 65 8.5 113t29.5 80t55.5 47.5t85.5 15.5t85 -15.5t54.5 -47.5t29 -80t8.5 -113q0 -64 -8.5 -111.5t-29 -79t-54.5 -47t-85 -15.5zM236 362q78 0 112.5 51.5t34.5 175.5q0 63 -8.5 106.5t-26 70.5t-45.5 39.5
t-67 12.5t-67 -12.5t-46 -39.5t-26.5 -70.5t-8.5 -106.5q0 -124 34.5 -175.5t113.5 -51.5z" />
    <glyph glyph-name="uni2074" unicode="&#x2074;" horiz-adv-x="404" 
d="M373 486v-26h-60v-117h-30v117h-255v26l253 353h32v-353h60zM60 486h223v315z" />
    <glyph glyph-name="uni2075" unicode="&#x2075;" horiz-adv-x="431" 
d="M222 666q80 0 121 -44.5t41 -120.5q0 -75 -39.5 -120t-127.5 -45q-45 0 -77 11t-52.5 29.5t-30.5 42.5t-10 49h30q0 -42 35 -74t105 -32q67 0 102 35t35 104q0 68 -37 103.5t-100 35.5q-37 0 -60.5 -9t-37.5 -19q-17 -13 -26 -29h-29l38 225l4 25h252v-26l-227 1
l-31 -186q11 12 39 28t83 16z" />
    <glyph glyph-name="uni2076" unicode="&#x2076;" horiz-adv-x="458" 
d="M240 669q86 0 123.5 -45.5t37.5 -121.5q0 -75 -39.5 -120.5t-132.5 -45.5q-92 0 -132 54.5t-40 171.5q0 78 9.5 132t30.5 88t54 49.5t79 15.5q44 0 73 -12.5t46 -32t24.5 -42.5t7.5 -44h-30q0 18 -6.5 37t-21 34.5t-37.5 25t-56 9.5q-34 0 -60 -11.5t-43.5 -39t-27 -73
t-11.5 -113.5q8 14 20.5 29t30.5 27t43 20t58 8zM230 361q140 0 140 140q0 142 -133 142q-37 0 -63.5 -11.5t-44 -27.5t-27 -33.5t-14.5 -28.5q3 -98 38.5 -139.5t103.5 -41.5z" />
    <glyph glyph-name="uni2077" unicode="&#x2077;" horiz-adv-x="345" 
d="M131 343h-32q0 48 8.5 94t23 88t32.5 79.5t37 68.5q44 75 100 137l-283 -1v27h315v-27q-56 -63 -100 -138q-27 -43 -42.5 -77t-28.5 -74t-21.5 -85t-8.5 -92z" />
    <glyph glyph-name="uni2078" unicode="&#x2078;" horiz-adv-x="457" 
d="M57 477q0 37 11.5 61.5t27.5 39.5t33.5 22t28.5 7q-8 1 -22 6.5t-28 18t-24 32t-10 48.5q0 60 35 97.5t120 37.5t120 -37.5t35 -97.5q0 -29 -10 -48.5t-24 -32t-28.5 -18t-23.5 -6.5q11 0 28 -7t33.5 -22t28.5 -39.5t12 -61.5q0 -64 -39.5 -102.5t-131.5 -38.5t-132 38.5
t-40 102.5zM88 479q0 -61 36 -89t105 -28t104.5 28t35.5 89q0 57 -33 85.5t-107 28.5t-107.5 -28.5t-33.5 -85.5zM104 710q0 -45 29 -68t96 -23q66 0 95 23t29 68q0 57 -30.5 84t-93.5 27t-94 -27t-31 -84z" />
    <glyph glyph-name="uni2079" unicode="&#x2079;" horiz-adv-x="458" 
d="M228 847q92 0 132.5 -55.5t40.5 -185.5q0 -77 -9.5 -128.5t-30.5 -83t-53.5 -45t-79.5 -13.5q-46 0 -78 13t-51 32t-27.5 42t-8.5 42h31q0 -18 7.5 -36.5t23.5 -33.5t41.5 -24.5t61.5 -9.5q34 0 60 9.5t43.5 34t27.5 67t11 109.5q-8 -14 -20.5 -29t-30.5 -27t-43 -20
t-58 -8q-85 0 -123 49.5t-38 132.5q0 77 39.5 122.5t131.5 45.5zM221 524q36 0 62 11t44 26.5t28 32t15 27.5q-1 57 -10.5 95.5t-27 62t-43.5 33t-61 9.5q-140 0 -140 -142q0 -76 33.5 -115.5t99.5 -39.5z" />
    <glyph glyph-name="Euro" unicode="&#x20ac;" horiz-adv-x="600" 
d="M343 42q37 0 66.5 11.5t51 31t34 46t15.5 55.5h32q-2 -34 -15.5 -65.5t-38 -56t-61 -39t-84.5 -14.5q-56 0 -96 17.5t-67 49t-42 75.5t-22 97h-86v26h84q-3 36 -3 74q0 16 0.5 31t1.5 29h-83v26h85q6 56 20.5 103t41.5 80.5t67.5 52.5t98.5 19q50 0 87.5 -16t62.5 -42
t38 -60t14 -70h-33q-2 32 -14 60.5t-33.5 50t-52 34t-69.5 12.5q-91 0 -137 -59.5t-58 -164.5h220v-26h-222q-1 -14 -1.5 -29t-0.5 -31q0 -39 3 -74h221v-26h-218q14 -99 59 -153.5t134 -54.5z" />
    <glyph glyph-name="uni20BD" unicode="&#x20bd;" horiz-adv-x="599" 
d="M322 331h-156v-94h187v-29h-187v-208h-34v208h-102v29h102v94h-102v31h102v345h190q57 0 101.5 -9.5t75 -31.5t46.5 -58t16 -89t-16 -89t-46.5 -58t-75 -31.5t-101.5 -9.5zM166 676v-314l156 -1q42 0 79 5.5t65 22t44.5 48t16.5 82.5t-16.5 82t-44.5 47.5t-65 22t-79 5.5
h-156z" />
    <glyph glyph-name="uni2116" unicode="&#x2116;" horiz-adv-x="1178" 
d="M580 53l-2 651h34v-704h-37l-445 650l-5 -650h-33l5 704h36zM887 111q-54 0 -89 16.5t-55.5 46t-28.5 71t-8 91.5t8 91.5t28.5 71.5t55.5 47t89 17q56 0 91.5 -16.5t55.5 -46.5t28 -72t8 -92t-8 -91.5t-28 -71t-55.5 -46t-91.5 -16.5zM887 535q-42 0 -70.5 -14t-46 -39.5
t-24.5 -62.5t-7 -83q0 -94 32 -145t117 -51q43 0 72 13t46 38t24.5 61.5t7.5 83.5q0 46 -7.5 83t-25 62.5t-46.5 39.5t-72 14zM701 29h376v-29h-376v29z" />
    <glyph glyph-name="uni2117" unicode="&#x2117;" horiz-adv-x="773" 
d="M386 705q96 0 159 -29.5t100.5 -78.5t52.5 -113.5t15 -135.5q0 -70 -15 -134t-52.5 -112.5t-100.5 -77t-159 -28.5q-94 0 -156.5 28.5t-100 77t-53.5 112.5t-16 134q0 71 16 135.5t53.5 113.5t100 78.5t156.5 29.5zM386 21q86 0 143 26.5t92 71.5t49.5 104t14.5 125
t-14.5 126t-49.5 106t-92 73t-143 27q-85 0 -142 -27t-91.5 -73t-49.5 -106t-15 -126t15 -125t49.5 -104t91.5 -71.5t142 -26.5zM262 546h143q33 0 59 -5.5t44 -19.5t27 -39t9 -63q0 -39 -9 -63.5t-27 -38.5t-44 -19t-59 -5h-112v-148h-31v401zM293 320h112q20 0 39 2.5
t34 12.5t24 30t9 54t-9 54t-24 30t-34 13t-39 3h-112v-199z" />
    <glyph glyph-name="uni2120" unicode="&#x2120;" horiz-adv-x="723" 
d="M71 644q0 -29 16.5 -43.5t40.5 -22t53 -12.5t53 -15.5t40.5 -30.5t16.5 -58q0 -43 -33 -67t-93 -24q-63 0 -94 26t-31 82h25q0 -36 24 -60.5t76 -24.5q48 0 74 20.5t26 46.5q0 32 -16.5 48t-40.5 24.5t-53 13.5t-53 15t-40.5 28.5t-16.5 53.5q0 40 29 64t89 24
q34 0 56.5 -7.5t36 -20.5t19.5 -30.5t6 -37.5h-25q0 11 -4 23.5t-14 23.5t-28 18.5t-47 7.5q-25 0 -43 -6t-28.5 -15.5t-15.5 -21t-5 -22.5zM663 723l-1 -344h-26l2 303l-121 -304h-27l-118 308l1 -307h-24v344h34l122 -314l124 314h34z" />
    <glyph glyph-name="trademark" unicode="&#x2122;" horiz-adv-x="685" 
d="M270 723v-23h-112l-3 -321h-24l1 321h-112v23h250zM625 723l-1 -344h-25l1 304l-122 -305h-25l-119 306v-305h-24v344h35l122 -314l125 314h33z" />
    <glyph glyph-name="oneeighth" unicode="&#x215b;" horiz-adv-x="884" 
d="M811 369q0 -29 -10 -48.5t-24 -32t-28.5 -18t-23.5 -6.5q11 0 28 -7t33.5 -22t28.5 -39.5t12 -61.5q0 -64 -39.5 -102.5t-131.5 -38.5t-132 38.5t-40 102.5q0 37 11.5 61.5t27.5 39.5t33.5 22t28.5 7q-8 1 -22 6.5t-28 18t-24 32t-10 48.5q0 60 35 97.5t120 37.5
t120 -37.5t35 -97.5zM656 19q69 0 104.5 28t35.5 89q0 57 -33 85.5t-107 28.5t-107.5 -28.5t-33.5 -85.5q0 -61 36 -89t105 -28zM531 367q0 -45 29 -68t96 -23q66 0 95 23t29 68q0 57 -30.5 84t-93.5 27t-94 -27t-31 -84zM591 796h35l-547 -836h-34zM107 264v467l-97 -47v29
l102 49h25v-498h-30z" />
    <glyph glyph-name="threeeighths" unicode="&#x215c;" horiz-adv-x="1068" 
d="M995 369q0 -29 -10 -48.5t-24 -32t-28.5 -18t-23.5 -6.5q11 0 28 -7t33.5 -22t28.5 -39.5t12 -61.5q0 -64 -39.5 -102.5t-131.5 -38.5t-132 38.5t-40 102.5q0 37 11.5 61.5t27.5 39.5t33.5 22t28.5 7q-8 1 -22 6.5t-28 18t-24 32t-10 48.5q0 60 35 97.5t120 37.5
t120 -37.5t35 -97.5zM840 19q69 0 104.5 28t35.5 89q0 57 -33 85.5t-107 28.5t-107.5 -28.5t-33.5 -85.5q0 -61 36 -89t105 -28zM715 367q0 -45 29 -68t96 -23q66 0 95 23t29 68q0 57 -30.5 84t-93.5 27t-94 -27t-31 -84zM361 418q0 -72 -39 -116.5t-128 -44.5
q-42 0 -72.5 11.5t-50 30t-29 43t-9.5 50.5h30q0 -45 33 -76.5t98 -31.5q69 0 103 34.5t34 100.5q0 63 -36.5 99.5t-103.5 36.5q-11 0 -21.5 -1t-19.5 -2l-20 -4v24l182 157l-252 -2v27h290v-25l-176 -151q4 1 8 1h8q87 0 129 -44t42 -117zM775 796h35l-547 -836h-34z" />
    <glyph glyph-name="fiveeighths" unicode="&#x215d;" horiz-adv-x="1093" 
d="M1020 369q0 -29 -10 -48.5t-24 -32t-28.5 -18t-23.5 -6.5q11 0 28 -7t33.5 -22t28.5 -39.5t12 -61.5q0 -64 -39.5 -102.5t-131.5 -38.5t-132 38.5t-40 102.5q0 37 11.5 61.5t27.5 39.5t33.5 22t28.5 7q-8 1 -22 6.5t-28 18t-24 32t-10 48.5q0 60 35 97.5t120 37.5
t120 -37.5t35 -97.5zM865 19q69 0 104.5 28t35.5 89q0 57 -33 85.5t-107 28.5t-107.5 -28.5t-33.5 -85.5q0 -61 36 -89t105 -28zM740 367q0 -45 29 -68t96 -23q66 0 95 23t29 68q0 57 -30.5 84t-93.5 27t-94 -27t-31 -84zM384 422q0 -75 -39.5 -120t-127.5 -45q-45 0 -77 11
t-52.5 29.5t-30.5 42.5t-10 49h30q0 -42 35 -74t105 -32q67 0 102 35t35 104q0 68 -37 103.5t-100 35.5q-37 0 -60.5 -9t-37.5 -19q-17 -13 -26 -29h-29l38 225l4 25h252v-26l-227 1l-31 -186q11 12 39 28t83 16q80 0 121 -44.5t41 -120.5zM800 796h35l-547 -836h-34z" />
    <glyph glyph-name="seveneighths" unicode="&#x215e;" horiz-adv-x="958" 
d="M558 134q0 37 11.5 61.5t27.5 39.5t33.5 22t28.5 7q-8 1 -22 6.5t-28 18t-24 32t-10 48.5q0 60 35 97.5t120 37.5t120 -37.5t35 -97.5q0 -29 -10 -48.5t-24 -32t-28.5 -18t-23.5 -6.5q11 0 28 -7t33.5 -22t28.5 -39.5t12 -61.5q0 -64 -39.5 -102.5t-131.5 -38.5
t-132 38.5t-40 102.5zM589 136q0 -61 36 -89t105 -28t104.5 28t35.5 89q0 57 -33 85.5t-107 28.5t-107.5 -28.5t-33.5 -85.5zM605 367q0 -45 29 -68t96 -23q66 0 95 23t29 68q0 57 -30.5 84t-93.5 27t-94 -27t-31 -84zM119 -40l546 836h35l-547 -836h-34zM131 264h-32
q0 48 8.5 94t23 88t32.5 79.5t37 68.5q44 75 100 137l-283 -1v27h315v-27q-56 -63 -100 -138q-27 -43 -42.5 -77t-28.5 -74t-21.5 -85t-8.5 -92z" />
    <glyph glyph-name="arrowleft" unicode="&#x2190;" horiz-adv-x="686" 
d="M638 281l-530 3l229 -177l-20 -23l-269 213l269 216l19 -22l-230 -178l531 2z" />
    <glyph glyph-name="arrowup" unicode="&#x2191;" horiz-adv-x="525" 
d="M477 330l-23 -20l-178 231l3 -532h-34l3 532l-178 -231l-22 20l214 269z" />
    <glyph glyph-name="arrowright" unicode="&#x2192;" horiz-adv-x="687" 
d="M369 516l270 -214l-270 -215l-19 22l229 177l-530 -2l-1 34l531 -2l-230 177z" />
    <glyph glyph-name="arrowdown" unicode="&#x2193;" horiz-adv-x="525" 
d="M454 284l23 -20l-213 -270l-216 270l22 20l178 -231l-3 531l35 1l-3 -530z" />
    <glyph glyph-name="arrowboth" unicode="&#x2194;" horiz-adv-x="933" 
d="M616 475l269 -216l-269 -213l-20 23l227 175l-715 2l229 -177l-20 -23l-269 213l269 216l19 -22l-230 -178l718 2l-227 176z" />
    <glyph glyph-name="arrowupdn" unicode="&#x2195;" horiz-adv-x="525" 
d="M279 -88l176 227l22 -19l-216 -269l-213 269l23 20l175 -227l2 714l-177 -228l-23 20l213 269l216 -269l-22 -20l-178 230z" />
    <glyph glyph-name="uni2196" unicode="&#x2196;" horiz-adv-x="526" 
d="M488 85l-23 -25l-373 377l37 -288l-31 -1l-40 341l344 -38l-2 -29l-289 37z" />
    <glyph glyph-name="uni2197" unicode="&#x2197;" horiz-adv-x="525" 
d="M125 449l342 40l-38 -343l-30 2l38 289l-375 -377l-24 23l377 373l-288 -37z" />
    <glyph glyph-name="uni2198" unicode="&#x2198;" horiz-adv-x="526" 
d="M124 100l3 30l288 -37l-377 373l23 25l374 -377l-37 288l30 1l40 -341z" />
    <glyph glyph-name="uni2199" unicode="&#x2199;" horiz-adv-x="524" 
d="M110 94l287 37l2 -30l-341 -41l37 344l29 -2l-37 -290l375 379l24 -24z" />
    <glyph glyph-name="minus" unicode="&#x2212;" horiz-adv-x="412" 
d="M50 294v29h312v-29h-312z" />
    <glyph glyph-name="infinity" unicode="&#x221e;" horiz-adv-x="710" 
d="M672 304q0 -30 -8 -56.5t-25 -46.5t-45 -31.5t-68 -11.5h-1q-33 0 -58 10t-45 27t-36 39t-31 45q-15 -23 -31 -45t-36 -39t-45 -27t-58 -10h-1q-40 0 -67.5 11.5t-45 31.5t-25 46.5t-7.5 56.5t7.5 56.5t25 46.5t45 31.5t67.5 11.5h1q33 0 58 -10t45 -27t36 -39t31 -45
q15 23 31 45t36 39t45 27t58 10h1q40 0 68 -11.5t45 -31.5t25 -46.5t8 -56.5zM526 184q63 0 89 33.5t26 86.5t-26 86.5t-89 33.5q-29 0 -51.5 -10t-41 -26.5t-33.5 -38.5t-29 -45q14 -23 29 -45t33.5 -38.5t41 -26.5t51.5 -10zM184 184q29 0 51.5 10t41 26.5t33.5 38.5
t29 45q-14 23 -29 45t-33.5 38.5t-41 26.5t-51.5 10q-62 0 -88.5 -33.5t-26.5 -86.5t26.5 -86.5t88.5 -33.5z" />
    <glyph glyph-name="approxequal" unicode="&#x2248;" horiz-adv-x="493" 
d="M405 406h27q0 -10 -4 -24.5t-14.5 -27.5t-29 -22.5t-47.5 -9.5q-34 0 -55.5 8.5t-40 19t-38 19t-48.5 8.5q-19 0 -32 -6.5t-21 -15.5t-11.5 -18t-3.5 -15h-26q0 10 4 24t14.5 27.5t29 23t46.5 9.5q34 0 55.5 -8.5t40 -19t38 -19t48.5 -8.5q19 0 32 6.5t21 15.5t11.5 18
t3.5 15zM405 277h27q0 -10 -4 -24t-14.5 -27t-29 -22.5t-47.5 -9.5q-34 0 -55.5 8.5t-40 19t-38 19t-48.5 8.5q-19 0 -32 -6.5t-21 -15.5t-11.5 -18t-3.5 -15h-26q0 10 4 24t14.5 27t29 22.5t46.5 9.5q34 0 55.5 -8.5t40 -19t38 -19t48.5 -8.5q19 0 32 6.5t21 15.5t11.5 18
t3.5 15z" />
    <glyph glyph-name="notequal" unicode="&#x2260;" horiz-adv-x="483" 
d="M420 354h-138l-61 -105h199v-30h-216l-57 -99h-32l57 99h-110v30h128l61 105h-189v30h206l55 95h31l-55 -95h121v-30z" />
    <glyph glyph-name="lessequal" unicode="&#x2264;" horiz-adv-x="530" 
d="M440 490v-32l-325 -109l325 -126v-32l-360 146v25zM81 122v29h358v-29h-358z" />
    <glyph glyph-name="greaterequal" unicode="&#x2265;" horiz-adv-x="530" 
d="M90 490l360 -128v-25l-360 -146v32l325 126l-325 109v32zM91 122v29h358v-29h-358z" />
    <glyph glyph-name="acutecomb.case" 
d="M-167 760l66 107h43l-77 -107h-32z" />
    <glyph glyph-name="at.case" horiz-adv-x="844" 
d="M784 340q0 -71 -8 -119.5t-23 -78.5t-37.5 -43.5t-51.5 -13.5h-1q-53 1 -75.5 38t-27.5 92q-9 -18 -22 -35t-31 -30t-41.5 -21t-53.5 -8q-89 0 -130.5 53.5t-41.5 168.5q0 109 41.5 168t130.5 59q31 0 55 -8t42 -20t30 -26t19 -26l3 64h29v-299q0 -69 17 -107t59 -38
q20 0 36.5 10t28.5 35.5t18.5 70t6.5 114.5q0 83 -17 153t-56 120.5t-103 79t-159 28.5q-93 0 -156.5 -29.5t-102.5 -81t-56 -121t-17 -149.5q0 -79 16.5 -146.5t55.5 -116t103 -76t158 -27.5q51 0 94.5 7.5t77.5 24.5v-29q-35 -13 -77 -20.5t-96 -7.5q-102 0 -171 30
t-111.5 83t-60.5 124.5t-18 153.5q0 83 18 156.5t60 129t111.5 88t171.5 32.5q104 0 173.5 -31t111.5 -86t60 -129t18 -160zM415 148q31 0 55.5 11.5t42 29.5t29 39.5t16.5 41.5v178q-6 12 -16.5 28.5t-27.5 31.5t-41.5 25.5t-57.5 10.5q-66 0 -104 -49t-38 -152
q0 -55 10 -92t28 -60t44.5 -33t59.5 -10z" />
    <glyph glyph-name="bitcoin" horiz-adv-x="565" 
d="M510 223q0 -40 -6 -71.5t-25.5 -54t-56 -35t-96.5 -14.5v-97h-26v97h-65v-97h-26v97h-117v641h117v92h26v-92h65v92h26v-93q48 -2 80.5 -15t51.5 -33.5t27 -48.5t8 -60q0 -26 -4 -49t-15 -41.5t-31 -32.5t-52 -22q36 -8 59 -23.5t36.5 -37t18.5 -47.5t5 -55zM304 659
h-177v-258l177 -1q47 0 77 8t47.5 24.5t24 40.5t6.5 56q0 66 -37 98t-118 32zM127 79l177 -1q52 0 85 7.5t52.5 25t27 45.5t7.5 69q0 72 -38.5 109.5t-133.5 37.5h-177v-293z" />
    <glyph glyph-name="braceleft.case" horiz-adv-x="365" 
d="M335 762v-32q-46 0 -73.5 -6t-41.5 -20t-18 -36t-4 -55v-198q0 -22 -6.5 -36t-14 -21.5t-14.5 -10.5t-9 -3q2 0 9 -2.5t14.5 -10t14 -21t6.5 -36.5v-197q0 -33 4 -55t18 -36t41.5 -20t73.5 -6v-32q-57 0 -91 8t-51.5 25t-22.5 45.5t-5 68.5v199q0 15 -3 25.5t-12.5 17.5
t-26.5 10t-45 3v30q28 0 45 3t26.5 9.5t12.5 17t3 25.5v201q0 41 5 68.5t22.5 45t51.5 25t91 7.5z" />
    <glyph glyph-name="braceright.case" horiz-adv-x="365" 
d="M30 -72v32q47 0 74 6t41 20t18 36t4 55v198q0 23 6 36.5t14 21t15 10t8 2.5q-1 0 -8 3t-15 10.5t-14 21t-6 36.5v197q0 33 -4 55t-18 36t-41 20t-74 6v32q57 0 91 -8t51.5 -25t22.5 -45t5 -69v-199q0 -15 3 -25.5t12.5 -17.5t26.5 -10t45 -3v-30q-28 0 -45 -3t-26.5 -9.5
t-12.5 -17t-3 -25.5v-201q0 -40 -5 -68t-22.5 -45.5t-51.5 -25t-91 -7.5z" />
    <glyph glyph-name="bracketleft.case" horiz-adv-x="307" 
d="M277 728h-144v-761h144v-31h-177v824h177v-32z" />
    <glyph glyph-name="bracketright.case" horiz-adv-x="307" 
d="M207 760v-824h-177v31h144v761h-144v32h177z" />
    <glyph glyph-name="caroncomb.alt" 
d="M-148 631l47 129h40l-58 -129h-29z" />
    <glyph glyph-name="caroncomb.alt.case" 
d="M-148 760l49 112h42l-59 -112h-32z" />
    <glyph glyph-name="dagger.sups" horiz-adv-x="294" 
d="M234 636v-24h-74v-242h-26v242h-74v24h74v89h26v-89h74z" />
    <glyph glyph-name="daggerdbl.sups" horiz-adv-x="292" 
d="M233 612h-74v-129h74v-24h-74v-89h-26v89h-74v24h74v129h-74v24h74v89h26v-89h74v-24z" />
    <glyph glyph-name="eight.dnom" horiz-adv-x="457" 
d="M57 134q0 37 11.5 61.5t27.5 39.5t33.5 22t28.5 7q-8 1 -22 6.5t-28 18t-24 32t-10 48.5q0 60 35 97.5t120 37.5t120 -37.5t35 -97.5q0 -29 -10 -48.5t-24 -32t-28.5 -18t-23.5 -6.5q11 0 28 -7t33.5 -22t28.5 -39.5t12 -61.5q0 -64 -39.5 -102.5t-131.5 -38.5t-132 38.5
t-40 102.5zM88 136q0 -61 36 -89t105 -28t104.5 28t35.5 89q0 57 -33 85.5t-107 28.5t-107.5 -28.5t-33.5 -85.5zM104 367q0 -45 29 -68t96 -23q66 0 95 23t29 68q0 57 -30.5 84t-93.5 27t-94 -27t-31 -84z" />
    <glyph glyph-name="eight.numr" horiz-adv-x="457" 
d="M57 398q0 37 11.5 61.5t27.5 39.5t33.5 22t28.5 7q-8 1 -22 6.5t-28 18t-24 32t-10 48.5q0 60 35 97.5t120 37.5t120 -37.5t35 -97.5q0 -29 -10 -48.5t-24 -32t-28.5 -18t-23.5 -6.5q11 0 28 -7t33.5 -22t28.5 -39.5t12 -61.5q0 -64 -39.5 -102.5t-131.5 -38.5t-132 38.5
t-40 102.5zM88 400q0 -61 36 -89t105 -28t104.5 28t35.5 89q0 57 -33 85.5t-107 28.5t-107.5 -28.5t-33.5 -85.5zM104 631q0 -45 29 -68t96 -23q66 0 95 23t29 68q0 57 -30.5 84t-93.5 27t-94 -27t-31 -84z" />
    <glyph glyph-name="eight.subs" horiz-adv-x="457" 
d="M57 -57q0 37 11.5 61.5t27.5 39.5t33.5 22t28.5 7q-8 1 -22 6.5t-28 18t-24 32t-10 48.5q0 60 35 97.5t120 37.5t120 -37.5t35 -97.5q0 -29 -10 -48.5t-24 -32t-28.5 -18t-23.5 -6.5q11 0 28 -7t33.5 -22t28.5 -39.5t12 -61.5q0 -64 -39.5 -102.5t-131.5 -38.5t-132 38.5
t-40 102.5zM88 -55q0 -61 36 -89t105 -28t104.5 28t35.5 89q0 57 -33 85.5t-107 28.5t-107.5 -28.5t-33.5 -85.5zM104 176q0 -45 29 -68t96 -23q66 0 95 23t29 68q0 57 -30.5 84t-93.5 27t-94 -27t-31 -84z" />
    <glyph glyph-name="eight.tf" horiz-adv-x="639" 
d="M70 190q0 52 16.5 86.5t40 55.5t48 30.5t40.5 10.5q-12 1 -32.5 9t-40.5 25.5t-34.5 45.5t-14.5 69q0 42 11.5 77t37.5 60.5t67.5 39.5t100.5 14t100 -14t67 -39.5t38 -60.5t12 -77q0 -41 -14.5 -69t-34.5 -45.5t-40.5 -25.5t-33.5 -9q15 -1 40 -10.5t48.5 -30.5
t40.5 -55.5t17 -86.5q0 -45 -13.5 -82t-42.5 -63.5t-74.5 -40.5t-109.5 -14t-109.5 14t-74.5 40.5t-42.5 63.5t-13.5 82zM105 191q0 -89 52 -129t153 -40t153 40t52 129q0 83 -48.5 124.5t-156.5 41.5t-156.5 -41.5t-48.5 -124.5zM128 520q0 -65 42.5 -99t139.5 -34
t139.5 34t42.5 99q0 84 -45.5 122.5t-136.5 38.5t-136.5 -38.5t-45.5 -122.5z" />
    <glyph glyph-name="exclamdown.case" horiz-adv-x="215" 
d="M91 609v95h33v-95h-33zM91 0l1 549h31l1 -549h-33z" />
    <glyph glyph-name="five.dnom" horiz-adv-x="431" 
d="M222 323q80 0 121 -44.5t41 -120.5q0 -75 -39.5 -120t-127.5 -45q-45 0 -77 11t-52.5 29.5t-30.5 42.5t-10 49h30q0 -42 35 -74t105 -32q67 0 102 35t35 104q0 68 -37 103.5t-100 35.5q-37 0 -60.5 -9t-37.5 -19q-17 -13 -26 -29h-29l38 225l4 25h252v-26l-227 1
l-31 -186q11 12 39 28t83 16z" />
    <glyph glyph-name="five.numr" horiz-adv-x="431" 
d="M222 587q80 0 121 -44.5t41 -120.5q0 -75 -39.5 -120t-127.5 -45q-45 0 -77 11t-52.5 29.5t-30.5 42.5t-10 49h30q0 -42 35 -74t105 -32q67 0 102 35t35 104q0 68 -37 103.5t-100 35.5q-37 0 -60.5 -9t-37.5 -19q-17 -13 -26 -29h-29l38 225l4 25h252v-26l-227 1
l-31 -186q11 12 39 28t83 16z" />
    <glyph glyph-name="five.subs" horiz-adv-x="431" 
d="M222 132q80 0 121 -44.5t41 -120.5q0 -75 -39.5 -120t-127.5 -45q-45 0 -77 11t-52.5 29.5t-30.5 42.5t-10 49h30q0 -42 35 -74t105 -32q67 0 102 35t35 104q0 68 -37 103.5t-100 35.5q-37 0 -60.5 -9t-37.5 -19q-17 -13 -26 -29h-29l38 225l4 25h252v-26l-227 1
l-31 -186q11 12 39 28t83 16z" />
    <glyph glyph-name="five.tf" horiz-adv-x="639" 
d="M306 455q112 0 171.5 -61.5t59.5 -170.5q0 -108 -57 -170.5t-178 -62.5q-61 0 -106 15.5t-74 41.5t-43 59t-14 69h33q0 -31 13 -58.5t38.5 -48.5t63.5 -33.5t89 -12.5q98 0 149 51t51 150t-54.5 150t-145.5 51q-53 0 -87 -13t-55 -28q-24 -18 -37 -41h-33l55 319l4 31
h351v-31h-323l-46 -271q8 9 21 20t34 21t50.5 17t69.5 7z" />
    <glyph glyph-name="four.dnom" horiz-adv-x="404" 
d="M373 143v-26h-60v-117h-30v117h-255v26l253 353h32v-353h60zM60 143h223v315z" />
    <glyph glyph-name="four.numr" horiz-adv-x="404" 
d="M373 407v-26h-60v-117h-30v117h-255v26l253 353h32v-353h60zM60 407h223v315z" />
    <glyph glyph-name="four.subs" horiz-adv-x="404" 
d="M373 -48v-26h-60v-117h-30v117h-255v26l253 353h32v-353h60zM60 -48h223v315z" />
    <glyph glyph-name="four.tf" horiz-adv-x="639" 
d="M521 199v-31h-86v-168h-33v168h-363v31l360 503h36v-503h86zM79 199h323v456z" />
    <glyph glyph-name="gravecomb.case" 
d="M-58 760h-33l-76 107h42z" />
    <glyph glyph-name="guillemotleft.case" horiz-adv-x="414" 
d="M229 487l-123 -156l123 -149h-39l-117 141v16l117 148h39zM342 487l-123 -156l123 -149h-38l-117 141v16l117 148h38z" />
    <glyph glyph-name="guillemotright.case" horiz-adv-x="414" 
d="M227 330v-16l-117 -141h-38l123 149l-123 156h38zM224 478l117 -148v-16l-117 -141h-39l123 149l-123 156h39z" />
    <glyph glyph-name="guilsinglleft.case" horiz-adv-x="309" 
d="M233 478l-123 -156l123 -149h-38l-117 141v16l117 148h38z" />
    <glyph glyph-name="guilsinglright.case" horiz-adv-x="309" 
d="M115 478l117 -148v-16l-117 -141h-39l123 149l-123 156h39z" />
    <glyph glyph-name="i.loclTRK" horiz-adv-x="207" 
d="M87 646v113h33v-113h-33zM87 0v531h33v-531h-33z" />
    <glyph glyph-name="nine.dnom" horiz-adv-x="458" 
d="M228 504q92 0 132.5 -55.5t40.5 -185.5q0 -77 -9.5 -128.5t-30.5 -83t-53.5 -45t-79.5 -13.5q-46 0 -78 13t-51 32t-27.5 42t-8.5 42h31q0 -18 7.5 -36.5t23.5 -33.5t41.5 -24.5t61.5 -9.5q34 0 60 9.5t43.5 34t27.5 67t11 109.5q-8 -14 -20.5 -29t-30.5 -27t-43 -20
t-58 -8q-85 0 -123 49.5t-38 132.5q0 77 39.5 122.5t131.5 45.5zM221 181q36 0 62 11t44 26.5t28 32t15 27.5q-1 57 -10.5 95.5t-27 62t-43.5 33t-61 9.5q-140 0 -140 -142q0 -76 33.5 -115.5t99.5 -39.5z" />
    <glyph glyph-name="nine.numr" horiz-adv-x="458" 
d="M228 768q92 0 132.5 -55.5t40.5 -185.5q0 -77 -9.5 -128.5t-30.5 -83t-53.5 -45t-79.5 -13.5q-46 0 -78 13t-51 32t-27.5 42t-8.5 42h31q0 -18 7.5 -36.5t23.5 -33.5t41.5 -24.5t61.5 -9.5q34 0 60 9.5t43.5 34t27.5 67t11 109.5q-8 -14 -20.5 -29t-30.5 -27t-43 -20
t-58 -8q-85 0 -123 49.5t-38 132.5q0 77 39.5 122.5t131.5 45.5zM221 445q36 0 62 11t44 26.5t28 32t15 27.5q-1 57 -10.5 95.5t-27 62t-43.5 33t-61 9.5q-140 0 -140 -142q0 -76 33.5 -115.5t99.5 -39.5z" />
    <glyph glyph-name="nine.subs" horiz-adv-x="458" 
d="M228 313q92 0 132.5 -55.5t40.5 -185.5q0 -77 -9.5 -128.5t-30.5 -83t-53.5 -45t-79.5 -13.5q-46 0 -78 13t-51 32t-27.5 41.5t-8.5 42.5h31q0 -18 7.5 -36.5t23.5 -33.5t41.5 -24.5t61.5 -9.5q34 0 60 9.5t43.5 34t27.5 67t11 109.5q-8 -14 -20.5 -29t-30.5 -27t-43 -20
t-58 -8q-85 0 -123 49.5t-38 132.5q0 77 39.5 122.5t131.5 45.5zM221 -10q36 0 62 11t44 26.5t28 32t15 27.5q-1 57 -10.5 95.5t-27 62t-43.5 33t-61 9.5q-140 0 -140 -142q0 -76 33.5 -115.5t99.5 -39.5z" />
    <glyph glyph-name="nine.tf" horiz-adv-x="639" 
d="M311 712q64 0 109.5 -18.5t75 -59.5t43 -106t13.5 -157q0 -108 -13.5 -181t-43 -117.5t-75 -63.5t-109.5 -19t-108 18t-71 45.5t-39 59.5t-12 59h35q0 -26 11 -53t34.5 -48.5t60.5 -35.5t89 -14q50 0 87.5 14t63 50t39 98.5t16.5 159.5q-10 -21 -27 -43.5t-43.5 -41
t-63 -30.5t-85.5 -12q-60 0 -102.5 18.5t-70 52t-40.5 81.5t-13 107q0 54 13.5 98t42.5 75t74 47.5t109 16.5zM301 247q55 0 93 17t63.5 40t40 48.5t20.5 41.5q-2 83 -15.5 138t-39.5 88t-64 47t-88 14q-205 0 -205 -206q0 -112 49 -170t146 -58z" />
    <glyph glyph-name="one.dnom" horiz-adv-x="211" 
d="M112 498h25v-498h-30v467l-97 -47v29z" />
    <glyph glyph-name="one.numr" horiz-adv-x="211" 
d="M112 762h25v-498h-30v467l-97 -47v29z" />
    <glyph glyph-name="one.subs" horiz-adv-x="211" 
d="M112 307h25v-498h-30v467l-97 -47v29z" />
    <glyph glyph-name="one.tf" horiz-adv-x="639" 
d="M342 30h123v-30h-287v30h129v638l-138 -68v34l141 70h32v-674z" />
    <glyph glyph-name="paragraph.alt" horiz-adv-x="518" 
d="M427 760v-760h-31v729h-96v-729h-31v325q-62 1 -105.5 11.5t-71 35t-40 66t-12.5 104.5t12.5 104.5t40 66.5t71 35.5t105.5 11.5h158z" />
    <glyph glyph-name="parenleft.case" horiz-adv-x="258" 
d="M184 760h33q1 0 -10.5 -25.5t-25.5 -77t-26 -130t-12 -184.5q0 -107 15 -183.5t33 -127.5q21 -58 48 -98h-35q-27 37 -48 94q-20 53 -34 128.5t-14 186.5t12 189.5t26 129.5q17 59 38 98z" />
    <glyph glyph-name="parenright.case" horiz-adv-x="258" 
d="M38 760h36q21 -39 38 -98q16 -54 27 -131t11 -188t-15 -188t-33 -127q-21 -57 -48 -94h-33q-1 0 13.5 24t32 74.5t32.5 127.5t15 183q0 107 -12 185t-26 130q-17 60 -38 102z" />
    <glyph glyph-name="questiondown.case" horiz-adv-x="474" 
d="M274 704v-95h-33v95h33zM242 549h32l-1 -42q0 -48 -12 -78t-29.5 -51t-38.5 -37t-38.5 -36t-29.5 -48t-12 -72q0 -158 144 -158t144 162h34q0 -91 -42.5 -142t-135.5 -51q-94 0 -136 50.5t-42 136.5q0 48 12 79t30 52.5t39.5 38.5t39.5 36.5t30 47t12 70.5v42z" />
    <glyph glyph-name="registered.alt" horiz-adv-x="469" 
d="M234 730q53 0 88.5 -16t57 -43.5t30.5 -63.5t9 -76q0 -39 -9 -74.5t-30.5 -62.5t-57 -43t-88.5 -16q-52 0 -87.5 16t-56.5 43t-30 62.5t-9 74.5q0 40 9 76t30 63.5t56.5 43.5t87.5 16zM234 353q47 0 78.5 14.5t50.5 39t27 56.5t8 68t-8 69t-27 58t-50.5 40t-78.5 15
q-46 0 -77.5 -15t-50.5 -40t-27 -58t-8 -69t8 -68t27 -56.5t50.5 -39t77.5 -14.5zM321 576q0 -32 -12 -46t-38 -18l49 -93h-27l-46 91h-63v-91h-25v224h79q42 0 62.5 -13t20.5 -54zM184 530h54q24 0 41 7t17 39t-17 39.5t-41 7.5h-54v-93z" />
    <glyph glyph-name="section.sups" horiz-adv-x="309" 
d="M220 490q12 -8 19.5 -20t7.5 -32q0 -30 -23 -47t-71 -17t-70.5 18t-22.5 56h23q0 -27 16.5 -40t53.5 -13q35 0 52 11.5t17 31.5q0 19 -11.5 28.5t-29.5 15t-38 9.5t-38 11t-29.5 20t-11.5 36q0 24 10 37.5t18 18.5q-11 8 -18 19t-7 29q0 29 20.5 46t67.5 17
q49 0 68 -17.5t19 -52.5h-24q0 22 -11.5 35.5t-51.5 13.5q-38 0 -51 -12.5t-13 -28.5q0 -18 11.5 -27t29.5 -14t38 -9t38 -11.5t29.5 -21t11.5 -37.5q0 -23 -10.5 -35.5t-18.5 -17.5zM89 558q0 -17 11 -25.5t27.5 -14t36.5 -9t37 -10.5q8 5 16 15.5t8 27.5q0 18 -11 28
t-28 15.5t-37 9.5t-38 10q-8 -6 -15 -17.5t-7 -29.5z" />
    <glyph glyph-name="seven.dnom" horiz-adv-x="345" 
d="M131 0h-32q0 48 8.5 94t23 88t32.5 79.5t37 68.5q44 75 100 137l-283 -1v27h315v-27q-56 -63 -100 -138q-27 -43 -42.5 -77t-28.5 -74t-21.5 -85t-8.5 -92z" />
    <glyph glyph-name="seven.numr" horiz-adv-x="345" 
d="M131 264h-32q0 48 8.5 94t23 88t32.5 79.5t37 68.5q44 75 100 137l-283 -1v27h315v-27q-56 -63 -100 -138q-27 -43 -42.5 -77t-28.5 -74t-21.5 -85t-8.5 -92z" />
    <glyph glyph-name="seven.subs" horiz-adv-x="345" 
d="M131 -191h-32q0 48 8.5 94t23 88t32.5 79.5t37 68.5q44 75 100 137l-283 -1v27h315v-27q-56 -63 -100 -138q-27 -43 -42.5 -77t-28.5 -74t-21.5 -85t-8.5 -92z" />
    <glyph glyph-name="seven.tf" horiz-adv-x="639" 
d="M249 0h-35q0 69 12.5 134t32.5 125t46 113t53 99q63 105 144 194h-406v31h444v-31q-81 -90 -145 -196q-39 -61 -61.5 -109.5t-41.5 -105.5t-31 -121.5t-12 -132.5z" />
    <glyph glyph-name="six.dnom" horiz-adv-x="458" 
d="M240 326q86 0 123.5 -45.5t37.5 -121.5q0 -75 -39.5 -120.5t-132.5 -45.5q-92 0 -132 54.5t-40 171.5q0 78 9.5 132t30.5 88t54 49.5t79 15.5q44 0 73 -12.5t46 -32t24.5 -42.5t7.5 -44h-30q0 18 -6.5 37t-21 34.5t-37.5 25t-56 9.5q-34 0 -60 -11.5t-43.5 -39t-27 -73
t-11.5 -113.5q8 14 20.5 29t30.5 27t43 20t58 8zM230 18q140 0 140 140q0 142 -133 142q-37 0 -63.5 -11.5t-44 -27.5t-27 -33.5t-14.5 -28.5q3 -98 38.5 -139.5t103.5 -41.5z" />
    <glyph glyph-name="six.numr" horiz-adv-x="458" 
d="M240 590q86 0 123.5 -45.5t37.5 -121.5q0 -75 -39.5 -120.5t-132.5 -45.5q-92 0 -132 54.5t-40 171.5q0 78 9.5 132t30.5 88t54 49.5t79 15.5q44 0 73 -12.5t46 -32t24.5 -42.5t7.5 -44h-30q0 18 -6.5 37t-21 34.5t-37.5 25t-56 9.5q-34 0 -60 -11.5t-43.5 -39t-27 -73
t-11.5 -113.5q8 14 20.5 29t30.5 27t43 20t58 8zM230 282q140 0 140 140q0 142 -133 142q-37 0 -63.5 -11.5t-44 -27.5t-27 -33.5t-14.5 -28.5q3 -98 38.5 -139.5t103.5 -41.5z" />
    <glyph glyph-name="six.subs" horiz-adv-x="458" 
d="M240 135q86 0 123.5 -45.5t37.5 -121.5q0 -75 -39.5 -120.5t-132.5 -45.5q-92 0 -132 54.5t-40 171.5q0 78 9.5 132t30.5 88t54 49.5t79 15.5q44 0 73 -12.5t46 -32t24.5 -42.5t7.5 -44h-30q0 18 -6.5 37t-21 34.5t-37.5 25t-56 9.5q-34 0 -60 -11.5t-43.5 -39t-27 -73
t-11.5 -113.5q8 14 20.5 29t30.5 27t43 20t58 8zM230 -173q140 0 140 140q0 142 -133 142q-37 0 -63.5 -11.5t-44 -27.5t-27 -33.5t-14.5 -28.5q3 -98 38.5 -139.5t103.5 -41.5z" />
    <glyph glyph-name="six.tf" horiz-adv-x="639" 
d="M333 462q60 0 103 -17t70.5 -47.5t40 -74.5t12.5 -98t-13.5 -97t-42 -74t-74 -47.5t-109.5 -16.5q-128 0 -184.5 78t-56.5 241q0 110 14 186.5t43 124.5t74.5 70t109.5 22q60 0 100.5 -18t65 -45.5t35 -59.5t10.5 -60h-35q0 26 -9.5 53t-30.5 49t-54.5 36t-81.5 14
q-50 0 -87 -16.5t-62.5 -56t-39 -105.5t-16.5 -166q11 21 28 43t43 40t62.5 30t84.5 12zM320 21q205 0 205 204q0 101 -49 153t-146 52q-54 0 -92.5 -17t-63.5 -40.5t-39.5 -48.5t-20.5 -42q2 -71 16 -121t39.5 -81t63.5 -45t87 -14z" />
    <glyph glyph-name="three.dnom" horiz-adv-x="406" 
d="M190 315q87 0 129 -44t42 -117q0 -72 -39 -116.5t-128 -44.5q-42 0 -72.5 11.5t-50 30t-29 43t-9.5 50.5h30q0 -45 33 -76.5t98 -31.5q69 0 103 34.5t34 100.5q0 63 -36.5 99.5t-103.5 36.5q-11 0 -21.5 -1t-19.5 -2l-20 -4v24l182 157l-252 -2v27h290v-25l-176 -151
q4 1 8 1h8z" />
    <glyph glyph-name="three.numr" horiz-adv-x="406" 
d="M190 579q87 0 129 -44t42 -117q0 -72 -39 -116.5t-128 -44.5q-42 0 -72.5 11.5t-50 30t-29 43t-9.5 50.5h30q0 -45 33 -76.5t98 -31.5q69 0 103 34.5t34 100.5q0 63 -36.5 99.5t-103.5 36.5q-11 0 -21.5 -1t-19.5 -2l-20 -4v24l182 157l-252 -2v27h290v-25l-176 -151
q4 1 8 1h8z" />
    <glyph glyph-name="three.subs" horiz-adv-x="406" 
d="M190 124q87 0 129 -44t42 -117q0 -72 -39 -116.5t-128 -44.5q-42 0 -72.5 11t-50 30t-29 43.5t-9.5 50.5h30q0 -45 33 -76.5t98 -31.5q69 0 103 34.5t34 100.5q0 63 -36.5 99.5t-103.5 36.5q-11 0 -21.5 -1t-19.5 -2l-20 -4v24l182 157l-252 -2v27h290v-25l-176 -151
q4 1 8 1h8z" />
    <glyph glyph-name="three.tf" horiz-adv-x="639" 
d="M288 445q118 0 178 -62t60 -165q0 -104 -56 -166t-179 -62q-58 0 -100 15.5t-69.5 41.5t-41 60t-13.5 71h33q0 -32 12.5 -60.5t36.5 -49.5t59.5 -33.5t82.5 -12.5q101 0 150.5 50.5t49.5 145.5q0 93 -53 144.5t-150 51.5q-15 0 -30.5 -1.5t-27.5 -3.5q-15 -2 -28 -5v31
l262 227l-359 -1v31h404v-30l-258 -219q8 1 17.5 1.5t19.5 0.5z" />
    <glyph glyph-name="tildecomb.case" 
d="M-86 842h25q0 -11 -1.5 -24.5t-8 -25.5t-19 -20t-33.5 -8q-23 0 -34 7t-19 15.5t-16.5 15.5t-25.5 7q-14 0 -22 -5.5t-11.5 -13.5t-4.5 -16t-1 -14h-26q0 10 2 23.5t8.5 25.5t19 20t34.5 8t33 -7t18.5 -15t16 -15t25.5 -7q14 0 22 5.5t12 13.5t5 16.5t1 13.5z" />
    <glyph glyph-name="two.dnom" horiz-adv-x="394" 
d="M38 4v32q22 18 46 40l48 43.5l55 50.5l50.5 48.5t38.5 45t25 46.5t9 53q0 56 -31.5 84.5t-88.5 28.5t-89.5 -28.5t-32.5 -82.5h-31q0 65 39.5 101t113.5 36q72 0 111 -35.5t39 -101.5q0 -32 -9 -58t-25.5 -50t-39 -47l-50.5 -50l-53 -50.5l-45 -41.5l-43 -38l273 1v-27
h-310z" />
    <glyph glyph-name="two.numr" horiz-adv-x="394" 
d="M38 268v32q22 18 46 40l48 43.5l55 50.5l50.5 48.5t38.5 45t25 46.5t9 53q0 56 -31.5 84.5t-88.5 28.5t-89.5 -28.5t-32.5 -82.5h-31q0 65 39.5 101t113.5 36q72 0 111 -35.5t39 -101.5q0 -32 -9 -58t-25.5 -50t-39 -47l-50.5 -50l-53 -50.5l-45 -41.5l-43 -38l273 1v-27
h-310z" />
    <glyph glyph-name="two.subs" horiz-adv-x="394" 
d="M38 -187v32q22 18 46 40l48 43.5l55 50.5l50.5 48.5t38.5 45t25 46.5t9 53q0 56 -31.5 84.5t-88.5 28.5t-89.5 -28.5t-32.5 -82.5h-31q0 65 39.5 101t113.5 36q72 0 111 -35.5t39 -101.5q0 -32 -9 -58t-25.5 -50t-39 -47l-50.5 -50l-53 -50.5l-45 -41.5l-43 -38l273 1
v-27h-310z" />
    <glyph glyph-name="two.tf" horiz-adv-x="639" 
d="M91 5v40l17.5 16l47 42l68 61.5l79.5 74.5l72.5 70.5t55 65t35 66.5t12.5 76q0 81 -46.5 121.5t-129.5 40.5q-82 0 -129 -40.5t-47 -118.5h-35q0 90 55.5 140t155.5 50t155 -49.5t55 -142.5q0 -45 -12.5 -82t-35.5 -71t-55.5 -67.5l-72.5 -72.5l-77 -73l-66 -60l-63 -55
h394v-32h-433z" />
    <glyph glyph-name="uni0302.case" 
d="M-58 760h-38l-74 72l-74 -72h-38l98 101h28z" />
    <glyph glyph-name="uni0304.case" 
d="M-266 817h206v-29h-206v29z" />
    <glyph glyph-name="uni0306.case" 
d="M-84 846h29q0 -13 -6.5 -28t-19.5 -28t-33 -21.5t-46 -8.5t-46 8.5t-33 21.5t-19.5 28t-6.5 28h30q0 -19 20 -38.5t55 -19.5t55.5 19.5t20.5 38.5z" />
    <glyph glyph-name="uni0307.case" 
d="M-94 760v113h33v-113h-33z" />
    <glyph glyph-name="uni0308.case" 
d="M-225 760v113h34v-113h-34zM-98 760v113h34v-113h-34z" />
    <glyph glyph-name="uni030A.case" 
d="M-129 760q-32 0 -49 18.5t-17 45.5t17 45.5t49 18.5t49.5 -18.5t17.5 -45.5t-17.5 -45.5t-49.5 -18.5zM-129 783q18 0 29 11t11 30t-11 30t-29 11t-29 -11t-11 -30t11 -30t29 -11z" />
    <glyph glyph-name="uni030B.case" 
d="M-280 760l59 107h43l-70 -107h-32zM-169 760l68 107h43l-78 -107h-33z" />
    <glyph glyph-name="uni030C.case" 
d="M-96 861h38l-98 -101h-28l-98 101h37l75 -72z" />
    <glyph glyph-name="uni0338.case" 
d="M-423 21l492 721h37l-493 -721h-36z" />
    <glyph glyph-name="zero.dnom" horiz-adv-x="471" 
d="M236 -7q-51 0 -85.5 15.5t-55.5 47t-29.5 79t-8.5 111.5q0 65 8.5 113t29.5 80t55.5 47.5t85.5 15.5t85 -15.5t54.5 -47.5t29 -80t8.5 -113q0 -64 -8.5 -111.5t-29 -79t-54.5 -47t-85 -15.5zM236 19q78 0 112.5 51.5t34.5 175.5q0 63 -8.5 106.5t-26 70.5t-45.5 39.5
t-67 12.5t-67 -12.5t-46 -39.5t-26.5 -70.5t-8.5 -106.5q0 -124 34.5 -175.5t113.5 -51.5z" />
    <glyph glyph-name="zero.numr" horiz-adv-x="471" 
d="M236 257q-51 0 -85.5 15.5t-55.5 47t-29.5 79t-8.5 111.5q0 65 8.5 113t29.5 80t55.5 47.5t85.5 15.5t85 -15.5t54.5 -47.5t29 -80t8.5 -113q0 -64 -8.5 -111.5t-29 -79t-54.5 -47t-85 -15.5zM236 283q78 0 112.5 51.5t34.5 175.5q0 63 -8.5 106.5t-26 70.5t-45.5 39.5
t-67 12.5t-67 -12.5t-46 -39.5t-26.5 -70.5t-8.5 -106.5q0 -124 34.5 -175.5t113.5 -51.5z" />
    <glyph glyph-name="zero.subs" horiz-adv-x="471" 
d="M236 -198q-51 0 -85.5 15.5t-55.5 47t-29.5 79t-8.5 111.5q0 65 8.5 113t29.5 80t55.5 47.5t85.5 15.5t85 -15.5t54.5 -47.5t29 -80t8.5 -113q0 -64 -8.5 -111.5t-29 -79t-54.5 -47t-85 -15.5zM236 -172q78 0 112.5 51.5t34.5 175.5q0 63 -8.5 106.5t-26 70.5t-45.5 39.5
t-67 12.5t-67 -12.5t-46 -39.5t-26.5 -70.5t-8.5 -106.5q0 -124 34.5 -175.5t113.5 -51.5z" />
    <glyph glyph-name="zero.tf" horiz-adv-x="639" 
d="M320 -10q-71 0 -119 22t-77 66.5t-41.5 111.5t-12.5 158q0 92 12.5 160t41.5 113t77 67t119 22t119 -22t77 -67t41 -113t12 -160q0 -91 -12 -158t-41 -111.5t-77 -66.5t-119 -22zM320 21q57 0 97.5 17.5t67 56.5t38.5 101t12 152t-12 153t-38.5 102t-67 57t-97.5 18
t-98 -18t-67.5 -57t-38.5 -102t-12 -153t12 -152t38.5 -101t67.5 -56.5t98 -17.5z" />
    </font>
</defs>
</svg>
