<svg xmlns="http://www.w3.org/2000/svg">
<defs>
<font id="Tofino-Medium" horiz-adv-x="600" >
  <font-face 
    font-family="Tofino Medium"
    font-weight="420"
    font-stretch="normal"
    units-per-em="1000"
    panose-1="2 0 0 0 0 0 0 0 0 0"
    ascent="760"
    descent="-240"
    x-height="537"
    cap-height="714"
    bbox="-162 -280 1161 1142"
    underline-thickness="50"
    underline-position="-75"
    unicode-range="U+000D-U+FB02"
  />
<missing-glyph horiz-adv-x="651" 
d="M601 0h-551v702h551v-702zM71 35l104 136q-48 59 -48 138q0 94 63 155q-20 28 -10 59l-109 141v-629zM461 541l108 141h-487l108 -140q17 26 54 42t80 16t80 -16t57 -43zM568 20l-107 137q-57 -59 -137 -59q-79 0 -135 58l-105 -136h484zM580 37v625l-109 -139l1 -1
q38 12 56 -1q14 -9 15 -30q2 -21 -11 -32q-10 -7 -24 -7q-15 0 -46 9q60 -63 60 -152q0 -76 -47 -136zM481 308v-1q3 -28 -7 -50t-32 -25q-16 -2 -32 -2q-35 0 -47 7q-21 12 -28 45q-1 2 -1 5q-3 10 -11 10q-6 0 -9 -10q-1 -1 -1 -5q-7 -33 -29 -45q-12 -7 -47 -7
q-17 0 -31 2q-22 3 -32.5 25.5t-7.5 49.5v1l-15 14v-13q0 -77 51 -132.5t122 -55.5q72 0 123 55.5t51 132.5q0 3 -0.5 8.5t-0.5 8.5q-7 -6 -16 -18zM396 480h-1l-10 2q-35 4 -49 14q-4 1 -12 1q-36 0 -69 -15q-16 -18 -5 -41q16 -34 79.5 -61t162.5 -22q-17 65 -66 103
q-5 0 -8 1q-15 5 -22 18zM299 304l-2 2h-1q-18 10 -66 10q-18 0 -30.5 -2t-17 -4.5t-4.5 -3.5q-2 -21 5 -40.5t24 -21.5q16 -2 30 -2q32 0 42 5q17 10 22 37q3 13 -2 20zM470 306q-5 10 -52 10q-48 0 -66 -10q-1 0 -1 -1l-2 -1q-5 -7 -2 -20q3 -26 22 -37q10 -5 41 -5
q15 0 31 2q17 2 24 22t5 40zM437 532q-17 20 -49 32t-64 12q-41 0 -75.5 -16.5t-44.5 -40.5q-9 -19 4 -39q51 40 112 41q0 12 3 20q9 21 25 25q21 5 63 -33l2 -2q7 3 15 3q3 0 9 -2zM165 325l8 -7q16 9 57 9q50 0 71 -10q23 -11 46 0q20 10 71 10q42 0 56 -9q9 12 14 16h-24
q-105 0 -175 39q-46 -44 -124 -48zM268 386q-27 20 -39 45q-7 14 -7 30q-54 -44 -67 -112q29 -1 61 10t52 27zM377 180q0 15 -15.5 25.5t-38.5 10.5t-38.5 -10.5t-15.5 -25.5q0 -16 15.5 -26.5t38.5 -10.5t38.5 10.5t15.5 26.5zM445 290l-10 -10q0 -1 0.5 -3t0.5 -4

<glyph glyph-name="fi" unicode="fi" horiz-adv-x="573" 
d="M210 0h-116v448h-74v93h74v7q0 51 6 85.5t23.5 67.5t54.5 49t95 16h59v-94h-44q-43 0 -60.5 -26.5t-17.5 -97.5v-7h117v-93h-117v-448zM503 0h-116v541h116v-541zM506 618h-116v144h116v-144z" />
    <glyph glyph-name="fl" unicode="fl" horiz-adv-x="581" 
d="M210 0h-116v448h-74v93h74v7q0 51 6 85.5t23.5 67.5t54.5 49t95 16h59v-94h-44q-43 0 -60.5 -26.5t-17.5 -97.5v-7h117v-93h-117v-448zM502 0h-116v760h116v-760z" />
    <glyph glyph-name="f_f" unicode="ff" horiz-adv-x="669" 
d="M533 0h-116v448h-207v-448h-116v448h-74v93h74v7q0 51 6 85.5t23.5 67.5t54.5 49t95 16h59v-94h-44q-43 0 -60.5 -26.5t-17.5 -97.5v-7h207v7q0 51 6 85.5t23.5 67.5t54.5 49t95 16h59v-94h-44q-43 0 -60.5 -26.5t-17.5 -97.5v-7h121v-93h-121v-448z" />
    <glyph glyph-name="f_f_i" unicode="ffi" horiz-adv-x="918" 
d="M534 0h-116v448h-208v-448h-116v448h-74v93h74v7q0 51 6 85.5t23.5 67.5t54.5 49t95 16h59v-94h-44q-43 0 -60.5 -26.5t-17.5 -97.5v-7h208v7q0 51 6 85.5t23.5 67.5t54.5 49t95 16h59v-94h-44q-43 0 -60.5 -26.5t-17.5 -97.5v-7h114v-93h-114v-448zM848 0h-116v541h116
v-541zM851 618h-116v144h116v-144z" />
    <glyph glyph-name="f_f_l" unicode="ffl" horiz-adv-x="934" 
d="M533 0h-116v448h-207v-448h-116v448h-74v93h74v7q0 51 6 85.5t23.5 67.5t54.5 49t95 16h59v-94h-44q-43 0 -60.5 -26.5t-17.5 -97.5v-7h207v7q0 51 6 85.5t23.5 67.5t54.5 49t95 16h59v-94h-44q-43 0 -60.5 -26.5t-17.5 -97.5v-7h115v-93h-115v-448zM855 0h-116v760h116
v-760z" />
    <glyph glyph-name=".notdef" horiz-adv-x="651" 
d="M601 0h-551v702h551v-702zM71 35l104 136q-48 59 -48 138q0 94 63 155q-20 28 -10 59l-109 141v-629zM461 541l108 141h-487l108 -140q17 26 54 42t80 16t80 -16t57 -43zM568 20l-107 137q-57 -59 -137 -59q-79 0 -135 58l-105 -136h484zM580 37v625l-109 -139l1 -1
q38 12 56 -1q14 -9 15 -30q2 -21 -11 -32q-10 -7 -24 -7q-15 0 -46 9q60 -63 60 -152q0 -76 -47 -136zM481 308v-1q3 -28 -7 -50t-32 -25q-16 -2 -32 -2q-35 0 -47 7q-21 12 -28 45q-1 2 -1 5q-3 10 -11 10q-6 0 -9 -10q-1 -1 -1 -5q-7 -33 -29 -45q-12 -7 -47 -7
q-17 0 -31 2q-22 3 -32.5 25.5t-7.5 49.5v1l-15 14v-13q0 -77 51 -132.5t122 -55.5q72 0 123 55.5t51 132.5q0 3 -0.5 8.5t-0.5 8.5q-7 -6 -16 -18zM396 480h-1l-10 2q-35 4 -49 14q-4 1 -12 1q-36 0 -69 -15q-16 -18 -5 -41q16 -34 79.5 -61t162.5 -22q-17 65 -66 103
q-5 0 -8 1q-15 5 -22 18zM299 304l-2 2h-1q-18 10 -66 10q-18 0 -30.5 -2t-17 -4.5t-4.5 -3.5q-2 -21 5 -40.5t24 -21.5q16 -2 30 -2q32 0 42 5q17 10 22 37q3 13 -2 20zM470 306q-5 10 -52 10q-48 0 -66 -10q-1 0 -1 -1l-2 -1q-5 -7 -2 -20q3 -26 22 -37q10 -5 41 -5
q15 0 31 2q17 2 24 22t5 40zM437 532q-17 20 -49 32t-64 12q-41 0 -75.5 -16.5t-44.5 -40.5q-9 -19 4 -39q51 40 112 41q0 12 3 20q9 21 25 25q21 5 63 -33l2 -2q7 3 15 3q3 0 9 -2zM165 325l8 -7q16 9 57 9q50 0 71 -10q23 -11 46 0q20 10 71 10q42 0 56 -9q9 12 14 16h-24
q-105 0 -175 39q-46 -44 -124 -48zM268 386q-27 20 -39 45q-7 14 -7 30q-54 -44 -67 -112q29 -1 61 10t52 27zM377 180q0 15 -15.5 25.5t-38.5 10.5t-38.5 -10.5t-15.5 -25.5q0 -16 15.5 -26.5t38.5 -10.5t38.5 10.5t15.5 26.5zM445 290l-10 -10q0 -1 0.5 -3t0.5 -4
q0 -10 -7.5 -17t-17.5 -7t-17 7t-7 17q0 14 12 21l-4 14q0 4 3 5q4 0 4 -3l3 -13q2 1 6 1l2 12q0 3 4 3q3 0 3 -4l-2 -12l5 -2l6 10q2 4 4 2q1 -1 2 -2.5t0 -2.5l-7 -11q3 -1 3 -4l10 8q1 1 2.5 1t2.5 -1q2 -4 -1 -5zM246 297l3 13q1 3 5 3q4 -2 2 -5l-3 -14q11 -6 11 -21
q0 -10 -7 -17t-17 -7t-17 7t-7 17q0 5 1 8l-11 9q-3 2 0 5q2 2 5 0l9 -8l3 4l-6 11q-1 1 -0.5 2.5t1.5 2.5q3 2 5 -2l6 -10l4 2l-2 12q0 4 4 4q3 0 4 -3l1 -12q1 0 3 -0.5t3 -0.5zM470 497q-1 -1 -4 -1q0 -7 -1 -10q1 -1 2 -1q43 -13 50 -7q4 2 2 12q0 8 -4 12q-8 6 -45 -5z
M392 508l3 7q-33 30 -42 28q-4 -2 -7 -11q-3 -8 -1 -12q5 -9 43 -14q1 -1 3 -1q1 1 1 3zM442 493q2 6 -1 10q-3 5 -9 6q-1 1 -4 1q-10 0 -13 -9q-1 -3 1 -9q4 -6 9 -7q1 0 4 -1q11 0 13 9z" />
    <glyph glyph-name=".null" horiz-adv-x="0" 
 />
    <glyph glyph-name="nonmarkingreturn" horiz-adv-x="333" 
 />
    <glyph glyph-name="NULL" horiz-adv-x="0" 
 />
    <glyph glyph-name="NULL" horiz-adv-x="0" 
 />
    <glyph glyph-name="CR" unicode="&#xd;" horiz-adv-x="205" 
 />
    <glyph glyph-name="space" unicode=" " horiz-adv-x="205" 
 />
    <glyph glyph-name="exclam" unicode="!" horiz-adv-x="273" 
d="M194 0h-115v121h115v-121zM186 181h-99l-8 533h115z" />
    <glyph glyph-name="quotedbl" unicode="&#x22;" horiz-adv-x="341" 
d="M128 533h-101l-12 220h125zM315 533h-101l-12 220h125z" />
    <glyph glyph-name="numbersign" unicode="#" horiz-adv-x="742" 
d="M469 0h-107l38 193h-133l-38 -193h-107l38 193h-100v82h117l35 178h-105v82h122l33 167h107l-33 -167h133l33 167h107l-33 -167h95v-82h-112l-35 -178h100v-82h-117zM417 275l35 178h-133l-35 -178h133z" />
    <glyph glyph-name="dollar" unicode="$" horiz-adv-x="569" 
d="M325 -27h-75l4 62q-107 6 -159 58t-52 158h108q0 -122 131 -122q63 0 97.5 24.5t34.5 65.5q0 34 -20 55.5t-52 32t-70.5 19t-77 21t-70.5 32t-52 58t-20 94.5q0 80 50.5 126.5t151.5 52.5l-4 60h75l-5 -60q196 -15 196 -200h-107q0 45 -29 75.5t-93 30.5q-62 0 -91.5 -25
t-29.5 -63q0 -44 37.5 -68t91 -35.5t107 -27.5t91 -59t37.5 -116q0 -173 -210 -187z" />
    <glyph glyph-name="percent" unicode="%" horiz-adv-x="816" 
d="M227 0h-101l460 702h101zM203 358q-92 0 -131.5 44.5t-39.5 131.5q0 89 39.5 135t131.5 46t131 -46t39 -135q0 -87 -39 -131.5t-131 -44.5zM203 430q45 0 62.5 25t17.5 79q0 56 -17.5 82.5t-62.5 26.5q-44 0 -62 -27t-18 -82q0 -54 18 -79t62 -25zM607 -14
q-92 0 -131.5 45t-39.5 132q0 88 39.5 134t131.5 46t131 -45.5t39 -134.5q0 -88 -39 -132.5t-131 -44.5zM607 59q45 0 62.5 25t17.5 79q0 55 -17.5 81.5t-62.5 26.5q-44 0 -62 -26.5t-18 -81.5q0 -54 18 -79t62 -25z" />
    <glyph glyph-name="ampersand" unicode="&#x26;" horiz-adv-x="716" 
d="M709 0h-133l-54 52q-70 -70 -204 -70q-257 0 -257 222q0 150 124 206q-49 63 -49 136q0 181 208 181q112 0 155 -53t43 -150h-120q0 100 -78 100q-80 0 -80 -78q0 -26 6.5 -48t26 -48.5t33.5 -43t51.5 -55l57.5 -60.5l56 -61q14 58 14 135h104q0 -140 -35 -225zM302 283
l-54 57q-67 -41 -67 -129q0 -124 137 -124q81 0 126 44q-76 77 -142 152z" />
    <glyph glyph-name="quotesingle" unicode="'" horiz-adv-x="139" 
d="M120 533h-101l-12 220h125z" />
    <glyph glyph-name="parenleft" unicode="(" horiz-adv-x="308" 
d="M300 -195h-116q-5 7 -13.5 21t-30 61.5t-37.5 99t-29.5 132t-13.5 162.5t10.5 162t26 134.5t31 97.5t26.5 64l10 21h116l-11 -23t-25 -64t-32 -101.5t-25 -132t-11 -158.5t13 -157.5t31 -133.5t36 -98.5t31 -65.5z" />
    <glyph glyph-name="parenright" unicode=")" horiz-adv-x="308" 
d="M124 -195h-116l13.5 22.5t30 63t37.5 100.5t29.5 131.5t13.5 158.5t-10.5 157.5t-26 134t-31 99.5t-26.5 66l-10 22h116l11 -22t25 -62t32 -100t25 -132.5t11 -162.5t-13 -161.5t-31 -134t-36 -97t-31 -62.5z" />
    <glyph glyph-name="asterisk" unicode="*" horiz-adv-x="395" 
d="M333 483l-84 -57l-51 85l-52 -85l-84 57l78 79l-100 11l21 97l98 -38l-11 96h99l-11 -96l99 38l20 -97l-99 -11z" />
    <glyph glyph-name="plus" unicode="+" horiz-adv-x="461" 
d="M281 128h-101v153h-150v94h150v154h101v-154h150v-94h-150v-153z" />
    <glyph glyph-name="comma" unicode="," horiz-adv-x="248" 
d="M109 -130h-103q32 65 49 142q8 35 12 64.5t5 41.5v11h120q-2 -46 -23 -124q-11 -37 -26 -71t-25 -49z" />
    <glyph glyph-name="hyphen" unicode="-" horiz-adv-x="355" 
d="M294 275h-232v90h232v-90z" />
    <glyph glyph-name="period" unicode="." horiz-adv-x="228" 
d="M172 0h-117v129h117v-129z" />
    <glyph glyph-name="slash" unicode="/" horiz-adv-x="479" 
d="M156 -40h-116l310 840h116z" />
    <glyph glyph-name="zero" unicode="0" horiz-adv-x="669" 
d="M62 346q0 200 58.5 287.5t213.5 87.5t214 -87.5t59 -287.5q0 -189 -59 -273.5t-214 -84.5q-154 0 -213 84.5t-59 273.5zM486 346q0 149 -34.5 209.5t-117.5 60.5q-82 0 -117 -60.5t-35 -209.5q0 -138 35 -195t117 -57q83 0 117.5 57t34.5 195z" />
    <glyph glyph-name="one" unicode="1" horiz-adv-x="346" 
d="M259 0h-119v593l-140 -66v110l163 77h96v-714z" />
    <glyph glyph-name="two" unicode="2" horiz-adv-x="553" 
d="M501 1h-468v105q97 78 195 171q8 8 30 28.5l30.5 28.5t26 26t24.5 28l19 26.5t16.5 29t8.5 28.5t4 32q0 114 -115 114q-121 0 -121 -118h-122q0 223 243 223q235 0 235 -218q0 -42 -11.5 -79t-36 -72t-45.5 -59t-57 -60t-77.5 -70t-65.5 -50l-23 -16q283 4 310 4v-102z
" />
    <glyph glyph-name="three" unicode="3" horiz-adv-x="571" 
d="M509 604h-1l-200 -147q109 -12 164.5 -70.5t55.5 -159.5q0 -115 -65 -175t-192 -60q-116 0 -179 60t-63 161h111q0 -45 33 -80.5t98 -35.5q69 0 102.5 35.5t33.5 94.5t-38 94t-121 35l-86 -7v102h-1l197 150l-300 -5v101h451v-93z" />
    <glyph glyph-name="four" unicode="4" horiz-adv-x="602" 
d="M488 0h-119l1 134h-336v105l332 461h122v-461h86v-105h-86v-134zM370 239l3 300l-214 -300h211z" />
    <glyph glyph-name="five" unicode="5" horiz-adv-x="589" 
d="M512 596h-300l-26 -167q54 42 136 42q108 0 168 -63t60 -180q0 -236 -259 -236q-121 0 -183 57t-62 149h112q0 -35 34 -68t99 -33q69 0 103.5 36t34.5 95t-35.5 98.5t-102.5 39.5q-43 0 -73.5 -16t-39.5 -32l-10 -15l-1 3v-3l-106 2l44 291l13 101h394v-101z" />
    <glyph glyph-name="six" unicode="6" horiz-adv-x="645" 
d="M560 520h-121q0 35 -30.5 66t-85.5 31q-62 0 -93.5 -44t-41.5 -165q70 59 168 59q63 0 109 -20t70.5 -56t35.5 -77t11 -91q0 -105 -62 -169.5t-197 -65.5q-140 0 -200.5 80t-60.5 246q0 218 61.5 313t199.5 95q65 0 113 -18t74 -48t38 -64t12 -72zM184 294
q3 -111 36.5 -155.5t102.5 -44.5q67 0 102.5 33.5t35.5 95.5q0 65 -31 102t-97 37q-94 0 -149 -68z" />
    <glyph glyph-name="seven" unicode="7" horiz-adv-x="509" 
d="M239 0h-119q0 91 25 185.5t60.5 164.5t71 127t60.5 87l25 29h-352v105h483v-105l-27.5 -33t-61 -86.5t-77 -132t-61 -160.5t-27.5 -181z" />
    <glyph glyph-name="eight" unicode="8" horiz-adv-x="654" 
d="M467 384q19 -2 45.5 -19.5t52.5 -61t26 -100.5q0 -103 -61 -158t-203 -55t-203.5 55t-61.5 158q0 44 14.5 80t36 56.5t40.5 32t32 12.5q-9 1 -24 9.5t-33 24.5t-30.5 44.5t-12.5 63.5q0 198 242 198q241 0 241 -198q0 -35 -12.5 -63.5t-30.5 -44.5t-33 -24.5t-25 -9.5z
M470 211q0 117 -143 117t-143 -117q0 -116 143 -116t143 116zM447 516q0 105 -120 105t-120 -105q0 -90 120 -90t120 90z" />
    <glyph glyph-name="nine" unicode="9" horiz-adv-x="645" 
d="M72 190h122q0 -36 30.5 -66t96.5 -30q65 0 95 38.5t40 151.5q-70 -62 -168 -62q-116 0 -171 72.5t-55 184.5q0 109 64.5 175.5t194.5 67.5q136 1 198.5 -80.5t62.5 -251.5q0 -219 -59 -310.5t-202 -91.5q-71 0 -122.5 19t-77.5 50.5t-37.5 64t-11.5 68.5zM461 390
q0 127 -34 177t-106 50q-137 0 -137 -138q0 -72 31.5 -112t95.5 -40q96 0 150 63z" />
    <glyph glyph-name="colon" unicode=":" horiz-adv-x="237" 
d="M177 0h-117v129h117v-129zM177 353h-117v129h117v-129z" />
    <glyph glyph-name="semicolon" unicode=";" horiz-adv-x="261" 
d="M110 -130h-103q32 65 49 142q8 35 12 64.5t4 41.5l1 11h120q-2 -46 -23 -124q-11 -37 -26 -71t-24 -49zM199 353h-117v126h117v-126z" />
    <glyph glyph-name="less" unicode="&#x3c;" horiz-adv-x="481" 
d="M449 116l-424 146v100l424 146v-105l-324 -91l324 -91v-105z" />
    <glyph glyph-name="equal" unicode="=" horiz-adv-x="481" 
d="M447 351h-412v97h412v-97zM447 175h-412v97h412v-97z" />
    <glyph glyph-name="greater" unicode="&#x3e;" horiz-adv-x="481" 
d="M456 262l-424 -146v105l324 91l-324 91v105l424 -146v-100z" />
    <glyph glyph-name="question" unicode="?" horiz-adv-x="492" 
d="M287 0h-116v121h116v-121zM283 181h-108v23q0 53 15.5 94t37.5 66.5t44.5 48.5t38 52.5t15.5 65.5q0 105 -97 105q-54 0 -75 -33.5t-21 -102.5h-117q0 122 52.5 182t163.5 60q211 0 211 -196q0 -51 -16.5 -92t-40 -68l-47 -52t-40 -57.5t-16.5 -72.5v-23z" />
    <glyph glyph-name="at" unicode="@" horiz-adv-x="905" 
d="M655 -27v-72q-76 -28 -200 -28q-106 0 -183.5 30t-123 85.5t-67 127t-21.5 161.5q0 91 21.5 163.5t66.5 130t123 88.5t184 31q104 0 181 -31t122 -88.5t66 -130.5t21 -163q0 -262 -159 -262q-96 0 -125 90q-46 -60 -144 -60q-175 0 -175 232q0 234 175 234q80 0 132 -65
l14 61h90v-305q0 -62 11 -88.5t37 -26.5q20 0 33.5 11.5t24 56t10.5 122.5q0 73 -16 132.5t-51 108.5t-98 76t-149 27t-148 -27t-97 -76t-51 -108.5t-16 -132.5q0 -59 8.5 -106.5t30 -91.5t56 -73.5t90 -47t128.5 -17.5q134 0 199 32zM548 188v175q-34 69 -104 69
q-94 0 -94 -155q0 -154 94 -154q76 0 104 65z" />
    <glyph glyph-name="A" unicode="A" horiz-adv-x="659" 
d="M655 0h-126l-57 162h-293l-57 -162h-119l270 714h114zM432 275l-107 300l-106 -300h213z" />
    <glyph glyph-name="B" unicode="B" horiz-adv-x="674" 
d="M330 -2h-243v719h247q79 0 132 -13t81 -39.5t39 -58.5t11 -77q0 -62 -22 -101t-80 -59q72 -20 98 -61.5t26 -111.5q0 -51 -10 -83.5t-39.5 -60.5t-88.5 -41t-151 -13zM206 97h125q102 0 134.5 24.5t32.5 86.5q0 59 -34 85.5t-133 26.5h-125v-223zM206 413h125
q86 0 116 23.5t30 78.5q0 54 -31.5 78.5t-114.5 24.5h-125v-205z" />
    <glyph glyph-name="C" unicode="C" horiz-adv-x="680" 
d="M508 252h116q-3 -138 -70.5 -204t-200.5 -66q-156 0 -224.5 91t-68.5 283q0 193 68.5 285t224.5 92q269 0 272 -274h-116q-4 90 -42 129.5t-114 39.5q-94 0 -133.5 -62.5t-39.5 -209.5q0 -146 39.5 -207.5t133.5 -61.5q75 0 113 38t42 127z" />
    <glyph glyph-name="D" unicode="D" horiz-adv-x="702" 
d="M284 -2h-197v719h197q108 0 177.5 -20t109.5 -66t55.5 -110.5t15.5 -164.5t-15.5 -164t-55.5 -109.5t-109.5 -65t-177.5 -19.5zM206 102h83q123 0 170 35q34 26 48 77t14 142q0 147 -40 200q-24 31 -69 43t-123 13h-83v-510z" />
    <glyph glyph-name="E" unicode="E" 
d="M568 0h-481v714h475v-105h-356v-190h306v-102h-306v-212h362v-105z" />
    <glyph glyph-name="F" unicode="F" horiz-adv-x="558" 
d="M206 0h-119v714h460v-106h-341v-208h291v-104h-291v-296z" />
    <glyph glyph-name="G" unicode="G" horiz-adv-x="690" 
d="M512 132v127h-126v99h238v-268q0 -6 -9.5 -18t-31 -27.5t-51.5 -29.5t-77.5 -23.5t-101.5 -9.5q-157 -1 -225 88.5t-68 285.5q0 195 68 286t225 91q271 0 271 -255h-115q-2 73 -42 111.5t-114 38.5q-94 0 -133.5 -63t-39.5 -209q0 -145 41.5 -207t140.5 -62q45 0 81.5 9
t52.5 19t16 17z" />
    <glyph glyph-name="H" unicode="H" horiz-adv-x="720" 
d="M632 0h-119v309h-307v-309l-119 -1v714l119 1v-292h307v292h119v-714z" />
    <glyph glyph-name="I" unicode="I" horiz-adv-x="293" 
d="M206 0h-119v714h119v-714z" />
    <glyph glyph-name="J" unicode="J" horiz-adv-x="442" 
d="M85 0h-70v114h70q54 0 83 6.5t48 30.5t24.5 62.5t5.5 109.5l-1 379h119l2 -379q0 -66 -3 -108t-13.5 -82t-29 -62.5t-50 -40t-76.5 -24t-109 -6.5z" />
    <glyph glyph-name="K" unicode="K" horiz-adv-x="650" 
d="M647 0h-135l-217 305l-89 -109v-196h-119v714h119v-375l283 375h140l-262 -320z" />
    <glyph glyph-name="L" unicode="L" horiz-adv-x="513" 
d="M495 0h-408v714h119v-604h289v-110z" />
    <glyph glyph-name="M" unicode="M" horiz-adv-x="907" 
d="M818 0h-115l8 586l-212 -588h-116l-198 584l7 -582h-105v702h178l188 -567l194 567h173z" />
    <glyph glyph-name="N" unicode="N" horiz-adv-x="740" 
d="M653 -1h-99v1l-33 -1l-331 555l11 -554h-114l1 714h99v-1l34 1l329 -552l-11 552h114v-715z" />
    <glyph glyph-name="O" unicode="O" horiz-adv-x="715" 
d="M60 356q0 193 69 285t228 92t228.5 -92t69.5 -285q0 -192 -69 -283t-229 -91q-159 0 -228 91t-69 283zM534 356q0 146 -40 209t-137 63t-137 -63t-40 -209q0 -145 40 -207t137 -62t137 62t40 207z" />
    <glyph glyph-name="P" unicode="P" horiz-adv-x="665" 
d="M206 -2h-119v719h248q165 0 230 -50.5t65 -191.5q0 -142 -65 -191.5t-233 -49.5h-126v-236zM206 339h126q106 0 143 32q35 30 35 105q0 70 -31 101q-34 35 -147 35h-126v-273z" />
    <glyph glyph-name="Q" unicode="Q" horiz-adv-x="714" 
d="M616 -128l-142 126q-53 -16 -117 -16q-159 0 -228 91t-69 283q0 193 69 285t228 92t228.5 -92t69.5 -285q0 -226 -96 -311l125 -97zM357 87q97 0 137 62t40 207q0 146 -40 209t-137 63t-137 -63t-40 -209q0 -145 40 -207t137 -62z" />
    <glyph glyph-name="R" unicode="R" horiz-adv-x="682" 
d="M652 0h-136l-129 255q-17 -1 -54 -1h-125v-254h-121v715h249q117 0 179 -23t85.5 -70.5t23.5 -136.5q0 -92 -26.5 -141.5t-92.5 -70.5zM208 359h125q100 0 133 25q37 28 37 101q0 63 -27 92q-20 21 -53.5 27t-89.5 6h-125v-251z" />
    <glyph glyph-name="S" unicode="S" horiz-adv-x="637" 
d="M582 512h-114q0 48 -37 82t-110 34q-76 1 -107.5 -27t-31.5 -70q0 -36 23 -60t59.5 -36t81 -22.5t89 -24.5t81 -35.5t59.5 -62.5t23 -99q0 -210 -279 -209q-276 0 -276 241h115q0 -65 42.5 -100.5t115.5 -35.5q82 -1 120 26.5t38 72.5q0 36 -23 60t-59.5 36t-80.5 22
t-88 24.5t-80.5 36.5t-59.5 65.5t-23 104.5q0 199 257 198q133 0 199 -57t66 -164z" />
    <glyph glyph-name="T" unicode="T" horiz-adv-x="557" 
d="M335 0h-119l2 604h-200v110h522v-110h-203z" />
    <glyph glyph-name="U" unicode="U" horiz-adv-x="706" 
d="M508 341v373h122v-373q0 -190 -64 -274.5t-213 -84.5q-150 0 -213.5 84.5t-63.5 274.5v373h119v-373q0 -143 34.5 -198.5t122.5 -55.5q87 0 121.5 55.5t34.5 198.5z" />
    <glyph glyph-name="V" unicode="V" horiz-adv-x="634" 
d="M373 0h-114l-258 714h132l188 -552l187 552h125z" />
    <glyph glyph-name="W" unicode="W" horiz-adv-x="987" 
d="M766 0h-123l-155 541l-152 -541h-115l-218 714h132l145 -562l150 562h121l161 -569l146 569h125z" />
    <glyph glyph-name="X" unicode="X" horiz-adv-x="643" 
d="M644 0h-137l-193 272l-187 -272h-130l251 365l-247 349h137l185 -262l181 262h130l-244 -356z" />
    <glyph glyph-name="Y" unicode="Y" horiz-adv-x="638" 
d="M384 0h-120v251l-261 463h139l183 -344l176 344h133l-250 -461v-253z" />
    <glyph glyph-name="Z" unicode="Z" horiz-adv-x="590" 
d="M559 3h-531v120l400 484h-383v105h510v-121l-401 -483h405v-105z" />
    <glyph glyph-name="bracketleft" unicode="[" horiz-adv-x="363" 
d="M353 -199h-273v959h273v-105h-157v-749h157v-105z" />
    <glyph glyph-name="backslash" unicode="\" horiz-adv-x="506" 
d="M466 -40h-116l-310 840h116z" />
    <glyph glyph-name="bracketright" unicode="]" horiz-adv-x="363" 
d="M283 -199h-273v105h157v749h-157v105h273v-959z" />
    <glyph glyph-name="asciicircum" unicode="^" horiz-adv-x="425" 
d="M378 464h-96l-73 165l-73 -165h-96l125 276h88z" />
    <glyph glyph-name="underscore" unicode="_" horiz-adv-x="543" 
d="M482 0h-420v90h420v-90z" />
    <glyph glyph-name="grave" unicode="`" horiz-adv-x="512" 
d="M253 617h-105l-103 158h129z" />
    <glyph glyph-name="a" unicode="a" horiz-adv-x="610" 
d="M535 1h-97l-13 64q-57 -76 -181 -76q-99 0 -143.5 40t-44.5 124q0 64 30 102q19 24 49.5 39t80 20.5t86.5 6.5t108 1q-1 49 -5.5 76t-19.5 43q-24 25 -83 25q-65 0 -92 -28.5t-27 -63.5h-104q0 22 3.5 42.5t17 46.5t36 44t64 31t97.5 13q121 0 174 -45q34 -29 44.5 -77.5
t10.5 -129.5v-31v-126zM410 160v86q-47 0 -72 -0.5t-58.5 -3.5t-50.5 -9t-34 -16.5t-23.5 -27t-6.5 -39.5q0 -81 103 -81q110 0 142 91z" />
    <glyph glyph-name="b" unicode="b" horiz-adv-x="639" 
d="M174 0h-97l8 148v612h116v-286q67 77 166 77q115 0 167 -71.5t52 -209.5t-52 -209t-167 -71q-126 0 -180 79zM201 362v-178q13 -42 47.5 -71.5t96.5 -29.5q123 0 123 187q0 188 -123 188q-93 0 -144 -96z" />
    <glyph glyph-name="c" unicode="c" horiz-adv-x="587" 
d="M424 185h115q-4 -94 -62.5 -146t-174.5 -52q-136 0 -193 72.5t-57 210.5t57 210.5t193 72.5q230 0 236 -214h-114q-1 60 -33 90.5t-89 30.5q-72 0 -102 -45.5t-30 -144.5t30 -144.5t102 -45.5q56 0 88.5 28t33.5 77z" />
    <glyph glyph-name="d" unicode="d" horiz-adv-x="639" 
d="M562 0h-98l-13 70q-55 -80 -180 -80q-115 0 -167 71t-52 209t52 209.5t167 71.5q100 0 167 -69v278h116v-612zM438 187v171q-49 100 -145 100q-122 0 -122 -188q0 -187 122 -187q63 0 98 30.5t47 73.5z" />
    <glyph glyph-name="e" unicode="e" 
d="M548 249h-113l-265 1q2 -91 31 -133t99 -42q65 0 95.5 30t32.5 65h116q0 -30 -12 -60t-38 -59t-76.5 -47t-117.5 -18q-134 0 -191 71t-57 211q0 141 57 213.5t191 72.5q131 0 189.5 -74.5t58.5 -230.5zM173 333h257q-10 69 -41 102t-89 33q-60 0 -89.5 -33.5
t-37.5 -101.5z" />
    <glyph glyph-name="f" unicode="f" horiz-adv-x="347" 
d="M210 0h-116v448h-74v93h74v7q0 51 6 85.5t23.5 67.5t54.5 49t95 16h59v-94h-44q-43 0 -60.5 -26.5t-17.5 -97.5v-7h121v-93h-121v-448z" />
    <glyph glyph-name="g" unicode="g" horiz-adv-x="637" 
d="M439 -2v56q-57 -64 -168 -64q-115 0 -167 71t-52 209t52 209.5t167 71.5q65 0 110.5 -30t68.5 -64l14 84h97l-6 -156v-387q0 -30 -0.5 -46.5t-5.5 -45.5t-14 -46t-27.5 -38.5t-45 -33t-68 -20t-94.5 -8.5q-151 0 -200 97q-20 41 -20 89h108v-14t6 -23.5t17 -29.5
t36.5 -21t60.5 -10q65 0 95 25q22 18 29 47.5t7 77.5zM439 191v167q-49 100 -146 100q-122 0 -122 -188q0 -187 122 -187q64 0 99.5 32t46.5 76z" />
    <glyph glyph-name="h" unicode="h" horiz-adv-x="637" 
d="M558 0h-116q2 292 2 312q0 69 -21 104t-78 35q-34 0 -62 -13t-46 -34.5t-27.5 -37.5t-16.5 -33v-333h-116v760h114l1 -301q25 36 69 65t106 29q104 0 148.5 -51t44.5 -179z" />
    <glyph glyph-name="i" unicode="i" horiz-adv-x="250" 
d="M180 0h-116v541h116v-541zM184 618h-116v140h116v-140z" />
    <glyph glyph-name="j" unicode="j" horiz-adv-x="279" 
d="M-35 -212v97q35 0 57 6t35 14.5t18.5 30.5t7 42.5t1.5 62.5v500h116v-500q0 -81 -7 -125t-32.5 -75.5t-70.5 -42t-125 -10.5zM199 618h-116v140h116v-140z" />
    <glyph glyph-name="k" unicode="k" horiz-adv-x="557" 
d="M556 0h-131l-170 237l-60 -67v-170h-116v760h116v-463l198 244h137l-202 -223z" />
    <glyph glyph-name="l" unicode="l" horiz-adv-x="274" 
d="M195 0h-116v760h116v-760z" />
    <glyph glyph-name="m" unicode="m" horiz-adv-x="957" 
d="M879 0h-112v312q0 70 -18 104.5t-71 34.5q-84 0 -136 -99q1 -10 1 -29l-1 -323h-110v312q0 71 -18 105t-72 34q-37 0 -69 -22t-47 -44t-25 -46v-339h-116v391l-8 150h97l16 -94q22 37 67 71.5t108 34.5q128 0 162 -103q23 37 67 70t106 33q93 0 136.5 -52t43.5 -178z" />
    <glyph glyph-name="n" unicode="n" horiz-adv-x="637" 
d="M558 0h-116q2 292 2 312q0 69 -21 104t-78 35q-95 0 -144 -101v-350h-116v391l-8 150h97l15 -88q23 37 68 68.5t110 31.5q104 0 148.5 -51t44.5 -179z" />
    <glyph glyph-name="o" unicode="o" horiz-adv-x="612" 
d="M305 -14q-137 0 -195 73t-58 210t58 211t195 74q137 1 196 -73.5t59 -211.5q0 -136 -58.5 -209.5t-196.5 -73.5zM305 79q75 0 105 45t30 145t-30 146t-105 46q-74 0 -104.5 -46.5t-30.5 -145.5q0 -100 30 -145t105 -45z" />
    <glyph glyph-name="p" unicode="p" horiz-adv-x="639" 
d="M201 -240h-116v629l-8 152h97l15 -84q68 94 178 94q115 0 167 -71.5t52 -209.5t-52 -209t-167 -71q-111 0 -166 62v-292zM201 360v-176q13 -42 47.5 -71.5t96.5 -29.5q123 0 123 187q0 188 -123 188q-94 0 -144 -98z" />
    <glyph glyph-name="q" unicode="q" horiz-adv-x="639" 
d="M554 -240h-116v293q-58 -63 -167 -63q-115 0 -167 71t-52 209t52 209.5t167 71.5q63 0 108.5 -29t68.5 -63l16 82h98l-8 -142v-639zM438 187v173q-49 98 -145 98q-122 0 -122 -188q0 -187 122 -187q63 0 98 30.5t47 73.5z" />
    <glyph glyph-name="r" unicode="r" horiz-adv-x="412" 
d="M201 0h-116v384l-8 157h97l17 -103q7 18 18 35t32.5 37t58.5 32t84 12v-108q-40 0 -72.5 -12t-51.5 -28.5t-32.5 -38.5t-18.5 -37t-8 -30v-300z" />
    <glyph glyph-name="s" unicode="s" horiz-adv-x="551" 
d="M497 382h-104q0 83 -113 84q-57 0 -81 -19t-24 -47q0 -29 25 -47.5t62.5 -25t81 -18t81 -25.5t62.5 -48.5t25 -86.5q0 -163 -235 -162q-229 0 -229 189h104q0 -100 124 -102q59 0 88.5 18t29.5 49q0 24 -14.5 40.5t-38 24t-53.5 15.5t-61.5 13.5t-61.5 17.5t-54 29
t-38.5 47.5t-14.5 71.5q0 72 56 113t163 40q220 0 220 -171z" />
    <glyph glyph-name="t" unicode="t" horiz-adv-x="384" 
d="M350 -4h-75q-57 0 -94 16.5t-54 49.5t-22.5 66.5t-5.5 83.5v236h-69v93h69v145l116 21v-166h129v-93h-129v-236q0 -69 17 -95.5t59 -26.5h59v-94z" />
    <glyph glyph-name="u" unicode="u" horiz-adv-x="623" 
d="M549 0h-98l-16 94q-13 -22 -32.5 -43t-60.5 -42.5t-88 -21.5q-100 0 -145.5 51t-45.5 173l2 330h115q-1 -292 -1 -312q0 -70 20 -105t77 -35q32 0 58.5 12.5t44.5 32.5t28.5 36t17.5 33v338h116v-391z" />
    <glyph glyph-name="v" unicode="v" horiz-adv-x="547" 
d="M330 0h-114l-210 541h131l142 -421l137 421h125z" />
    <glyph glyph-name="w" unicode="w" horiz-adv-x="772" 
d="M598 0h-97l-114 400l-108 -400h-100l-177 541h120l110 -399l106 399h107l106 -397l108 397h111z" />
    <glyph glyph-name="x" unicode="x" horiz-adv-x="526" 
d="M517 0h-130l-132 183l-129 -183h-124l192 269l-187 272h130l132 -194l132 194h123l-194 -282z" />
    <glyph glyph-name="y" unicode="y" horiz-adv-x="552" 
d="M269 -220h-105l74 220h-32l-200 541h131l138 -432l147 432h124z" />
    <glyph glyph-name="z" unicode="z" horiz-adv-x="495" 
d="M456 3h-422v94v23l306 325h-296v92h412v-91h-1l1 -25l-304 -324l304 1v-95z" />
    <glyph glyph-name="braceleft" unicode="{" horiz-adv-x="396" 
d="M386 -86v-105q-57 0 -96.5 4t-68 14t-45 24t-26.5 38t-13 51t-3 69q0 6 -0.5 57.5t-0.5 113.5q0 32 -16.5 44t-70.5 12v97q54 0 70.5 11.5t16.5 43.5v179q0 82 17 120t70 55t166 17v-105q-88 0 -112.5 -20t-24.5 -91q0 -7 -0.5 -50t-0.5 -105q0 -22 -6 -41t-14 -29.5
t-18.5 -19t-15.5 -11t-9 -3.5q3 -1 8 -3.5t15.5 -10.5t19 -18.5t15 -29.5t6.5 -42q0 -6 0.5 -66.5t0.5 -88.5q0 -71 24.5 -91t111.5 -20z" />
    <glyph glyph-name="bar" unicode="|" horiz-adv-x="259" 
d="M180 -199h-101v1019h101v-1019z" />
    <glyph glyph-name="braceright" unicode="}" horiz-adv-x="396" 
d="M10 -191v105q87 0 111.5 20t24.5 91q0 28 0.5 88.5t0.5 66.5q0 22 6 41t14 29.5t18.5 18.5t15.5 11t9 4q-3 1 -8 3t-15 10.5t-18 19t-14.5 29.5t-6.5 42q0 33 -0.5 87.5t-0.5 67.5q0 71 -24.5 91t-112.5 20v105q113 0 166 -17t70 -55t17 -120v-179q0 -32 16.5 -43.5
t70.5 -11.5v-97q-54 0 -70.5 -12t-16.5 -44q0 -52 -0.5 -107.5t-0.5 -63.5q0 -42 -3 -69t-13 -51t-26.5 -38t-45 -24t-68 -14t-96.5 -4z" />
    <glyph glyph-name="asciitilde" unicode="~" horiz-adv-x="511" 
d="M408 380h73q0 -155 -135 -155q-47 0 -96 27.5t-86 27.5q-29 0 -45 -19.5t-16 -35.5h-73q0 155 134 155q47 0 96 -27.5t86 -27.5q30 0 46 19.5t16 35.5z" />
    <glyph glyph-name="uni00A0" unicode="&#xa0;" horiz-adv-x="205" 
 />
    <glyph glyph-name="exclamdown" unicode="&#xa1;" horiz-adv-x="273" 
d="M194 -174h-115l8 534h99zM194 420h-115v121h115v-121z" />
    <glyph glyph-name="cent" unicode="&#xa2;" horiz-adv-x="587" 
d="M346 -25h-90v89q-111 12 -157.5 83.5t-46.5 198.5q0 126 46.5 197t157.5 83v79h90v-79q186 -18 192 -212h-114q-1 60 -33 91t-89 31q-72 0 -102 -46t-30 -144q0 -99 30 -144.5t102 -45.5q56 0 88.5 28t33.5 77h115q-8 -178 -193 -197v-89z" />
    <glyph glyph-name="sterling" unicode="&#xa3;" horiz-adv-x="520" 
d="M480 -4h-450v98l10 5t21.5 14.5t27.5 25.5t22 37.5t10 50.5q0 3 -3 39h-88v88h63q0 1 -6.5 16.5t-7.5 18.5t-6 17t-6 19.5t-4.5 18.5t-4.5 22t-2 21.5t-1 24.5q0 83 56.5 139.5t160.5 56.5q114 0 165.5 -57t51.5 -151h-121q0 118 -96 118q-46 0 -70.5 -30.5t-24.5 -76.5
q0 -19 4.5 -41t9 -36.5t14 -40.5t13.5 -39h162v-88h-141q2 -26 2 -39q0 -83 -82 -133h321v-98z" />
    <glyph glyph-name="currency" unicode="&#xa4;" horiz-adv-x="707" 
d="M655 94l-70 -69l-64 64q-61 -45 -165 -45t-164 44l-71 -70l-69 69l78 77q-28 63 -28 159q0 94 26 154l-72 72l69 69l61 -63q60 50 170 51q102 0 160 -43l63 64l69 -69l-70 -70q32 -64 32 -165q0 -96 -28 -158zM356 149q74 0 104 45t30 129q0 85 -30.5 131.5t-103.5 46.5
q-134 0 -134 -178q0 -84 30.5 -129t103.5 -45z" />
    <glyph glyph-name="yen" unicode="&#xa5;" horiz-adv-x="598" 
d="M364 0h-120v143h-118v65h118v50h-118v66h83l-208 390h139l167 -332l158 332h131l-200 -390h84v-66h-116v-50h116v-65h-116v-143z" />
    <glyph glyph-name="brokenbar" unicode="&#xa6;" horiz-adv-x="259" 
d="M180 -180h-101v425h101v-425zM180 395h-101v425h101v-425z" />
    <glyph glyph-name="section" unicode="&#xa7;" horiz-adv-x="563" 
d="M511 613h-104q0 40 -26 61.5t-95 21.5q-62 0 -88 -19t-26 -47q0 -27 19.5 -44t50.5 -25t68.5 -14t75 -15.5t68.5 -25.5t50.5 -48t19.5 -79q0 -76 -68 -129q66 -39 66 -124q0 -163 -239 -163q-122 0 -178.5 45t-56.5 143h104q0 -53 31.5 -76.5t98.5 -23.5q61 0 92.5 18.5
t31.5 48.5q0 28 -19.5 45.5t-50.5 26t-68.5 15t-75 16.5t-68.5 26.5t-50.5 49t-19.5 79.5q0 71 67 127q-65 42 -65 127q0 73 56.5 113t170.5 40q121 0 174.5 -42t53.5 -128zM212 469q-42 -38 -42 -92q0 -17 8 -30t19.5 -20.5t33 -14.5t37.5 -10.5t45 -9l45 -8.5q50 38 50 87
q0 21 -10 36t-33.5 24.5t-42 14.5t-55.5 12t-55 11z" />
    <glyph glyph-name="dieresis" unicode="&#xa8;" horiz-adv-x="532" 
d="M203 618h-116v140h116v-140zM385 618h-116v140h116v-140z" />
    <glyph glyph-name="copyright" unicode="&#xa9;" horiz-adv-x="827" 
d="M413 -24q-94 0 -164 29t-110.5 81.5t-59.5 117.5t-19 144q0 80 19 145.5t59.5 119t110.5 83t164 29.5q77 0 138 -20t101 -54t66 -82.5t37.5 -103t11.5 -117.5q0 -79 -18.5 -144t-59 -117.5t-110.5 -81.5t-166 -29zM413 40q62 0 111 17.5t80 46t51 69t28.5 83.5t8.5 92
q0 62 -14 115t-44.5 99t-87 72.5t-133.5 26.5t-133 -26.5t-86.5 -72.5t-44.5 -99t-14 -115q0 -49 8 -92t28.5 -83.5t51.5 -69t79.5 -46t110.5 -17.5zM486 294h104q-1 -87 -44.5 -126.5t-129.5 -39.5q-100 0 -145.5 54t-45.5 170q0 117 45.5 171.5t145.5 54.5q86 0 130 -40.5
t45 -127.5h-104q-4 84 -71 84q-45 0 -64 -31.5t-19 -110.5q0 -74 19.5 -106.5t63.5 -32.5q66 0 70 81z" />
    <glyph glyph-name="ordfeminine" unicode="&#xaa;" horiz-adv-x="419" 
d="M387 360h-90l-11 45q-29 -54 -116 -54q-78 0 -110 28.5t-32 91.5q0 33 12 54.5t28 32.5t54 16.5t65 6.5t87 1q0 56 -10.5 76.5t-52.5 20.5q-36 0 -52 -16.5t-16 -41.5h-97q0 22 4.5 39.5t18.5 40t49 35.5t88 13q29 0 53 -3.5t41.5 -7.5t31 -14.5t22 -18t14.5 -24.5
t9 -26.5t4.5 -32.5t1.5 -34v-39v-86zM274 457v72q-32 0 -49 -0.5t-37 -3t-28.5 -9t-15 -18t-6.5 -28.5q0 -56 58 -56q60 0 78 43z" />
    <glyph glyph-name="guillemotleft" unicode="&#xab;" horiz-adv-x="528" 
d="M485 86h-124l-117 161v30l117 168h124l-131 -184zM284 86h-124l-117 161v30l117 168h124l-131 -184z" />
    <glyph glyph-name="registered" unicode="&#xae;" horiz-adv-x="827" 
d="M413 -24q-94 0 -164 29t-110.5 81.5t-59.5 117.5t-19 144q0 80 19 145.5t59.5 119t110.5 83t164 29.5q77 0 138 -20t101 -54t66 -82.5t37.5 -103t11.5 -117.5q0 -79 -18.5 -144t-59 -117.5t-110.5 -81.5t-166 -29zM413 40q62 0 111 17.5t80 46t51 69t28.5 83.5t8.5 92
q0 62 -14 115t-44.5 99t-87 72.5t-133.5 26.5t-133 -26.5t-86.5 -72.5t-44.5 -99t-14 -115q0 -49 8 -92t28.5 -83.5t51.5 -69t79.5 -46t110.5 -17.5zM601 143h-102l-69 131h-22h-54v-131h-105v418h161q104 0 148 -31.5t44 -112.5q0 -103 -79 -129zM354 357h54q28 0 44 3
t29 17t13 40q0 20 -6.5 33t-19.5 18.5t-26 7t-34 1.5h-54v-120z" />
    <glyph glyph-name="macron" unicode="&#xaf;" horiz-adv-x="536" 
d="M333 639h-273v89h273v-89z" />
    <glyph glyph-name="degree" unicode="&#xb0;" horiz-adv-x="321" 
d="M161 481q-121 0 -121 126q0 127 121 127q120 0 120 -127q0 -126 -120 -126zM161 545q45 0 45 62q0 63 -45 63q-46 0 -46 -63q0 -62 46 -62z" />
    <glyph glyph-name="plusminus" unicode="&#xb1;" horiz-adv-x="465" 
d="M431 329h-148v-106h-101v106h-147v94h147v106h101v-106h148v-94zM431 87h-396v97h396v-97z" />
    <glyph glyph-name="uni00B2" unicode="&#xb2;" horiz-adv-x="395" 
d="M365 349h-346v83l131 100q3 3 22.5 18l24.5 19t20 17t19.5 20t13 18.5t11 22t2.5 22.5q0 30 -18 48.5t-51 18.5t-51 -20.5t-18 -57.5h-108q0 167 177 167q89 0 131.5 -41t42.5 -108q0 -36 -18 -70.5t-35.5 -53.5t-49.5 -48q-36 -32 -92 -74q1 0 45.5 2t91.5 3.5t55 1.5
v-88z" />
    <glyph glyph-name="uni00B3" unicode="&#xb3;" horiz-adv-x="398" 
d="M366 735h-1l-112 -96q121 -27 121 -145q0 -68 -44 -111.5t-136 -43.5t-136 43.5t-44 112.5h106q0 -28 18 -49t53 -21q38 0 56.5 20.5t18.5 54.5q0 84 -89 84l-57 -6v63l115 89l-202 -7v87h333v-75z" />
    <glyph glyph-name="acute" unicode="&#xb4;" horiz-adv-x="512" 
d="M157 617h-105l79 158h129z" />
    <glyph glyph-name="paragraph" unicode="&#xb6;" horiz-adv-x="657" 
d="M578 0h-101v656h-68v-656h-101v277q-150 4 -209 55t-59 186q0 136 59.5 187t208.5 54v1h8h19h243v-760zM308 382v272q-76 -3 -112 -30t-36 -105t36 -106.5t112 -30.5z" />
    <glyph glyph-name="periodcentered" unicode="&#xb7;" horiz-adv-x="213" 
d="M165 233h-117v129h117v-129z" />
    <glyph glyph-name="cedilla" unicode="&#xb8;" horiz-adv-x="520" 
d="M68 -237v71q20 -6 64 -6q57 0 57 40t-102 40h-3l51 95h94l-33 -55q91 -9 91 -87q0 -104 -131 -104q-30 0 -52 1.5t-29 3.5z" />
    <glyph glyph-name="uni00B9" unicode="&#xb9;" horiz-adv-x="236" 
d="M190 348h-106v377l-82 -36v79l119 50l-2 -4l3 4h68v-470z" />
    <glyph glyph-name="ordmasculine" unicode="&#xba;" horiz-adv-x="431" 
d="M215 349q-103 0 -145.5 50.5t-42.5 150.5q0 101 42.5 151.5t146.5 50.5q103 0 145 -50.5t42 -151.5q0 -100 -42.5 -150.5t-145.5 -50.5zM215 430q43 0 60.5 27t17.5 93t-17.5 93.5t-60.5 27.5t-60 -27.5t-17 -93.5t17 -93t60 -27z" />
    <glyph glyph-name="guillemotright" unicode="&#xbb;" horiz-adv-x="528" 
d="M368 86h-124l130 175l-130 184h124l117 -168v-30zM167 86h-124l130 175l-130 184h124l117 -168v-30z" />
    <glyph glyph-name="onequarter" unicode="&#xbc;" horiz-adv-x="809" 
d="M177 321h-101v340l-1 -2l-73 -32v75l110 45h65v-426zM161 -40h-106l459 809h106zM754 0h-100v73h-210v75l203 274h107v-274h47v-75h-47v-73zM655 148v172l-126 -172h126z" />
    <glyph glyph-name="onehalf" unicode="&#xbd;" horiz-adv-x="816" 
d="M177 321h-101v340l-1 -2l-73 -32v75l110 45h65v-426zM161 -40h-106l459 809h106zM789 2h-316v78q56 39 119 88l16.5 12.5l17 13l15 12t15 13l12.5 12.5t11 14t7.5 13.5t6 15.5t1.5 16q0 26 -15.5 42t-45.5 16q-61 0 -61 -69h-101q0 154 162 154q82 0 120.5 -37.5
t38.5 -99.5q0 -32 -15.5 -63t-32.5 -49t-44 -42q-67 -57 -83 -65q1 0 40.5 1.5t82 3.5t49.5 2v-82z" />
    <glyph glyph-name="threequarters" unicode="&#xbe;" horiz-adv-x="956" 
d="M335 669l-99 -85q107 -24 107 -130q0 -62 -40 -101.5t-125 -39.5t-125 40t-40 103h101q0 -24 15.5 -42.5t45.5 -18.5q65 0 65 65q0 73 -78 73l-52 -6v59l101 78l-182 -6v82h305v-71h1zM308 -40h-106l459 809h106zM901 0h-100v73h-210v75l203 274h107v-274h47v-75h-47v-73
zM802 148v172l-126 -172h126z" />
    <glyph glyph-name="questiondown" unicode="&#xbf;" horiz-adv-x="492" 
d="M320 398h-116v121h116v-121zM359 19h117q0 -122 -53 -182t-164 -60q-210 0 -210 196q0 51 16.5 92t39.5 68l46.5 52t40 57.5t16.5 72.5v23h109l-1 -23q0 -53 -15.5 -94t-37.5 -66.5t-44 -48.5t-37.5 -52.5t-15.5 -65.5q0 -50 21.5 -77.5t74.5 -27.5q54 0 75.5 34
t21.5 102z" />
    <glyph glyph-name="Agrave" unicode="&#xc0;" horiz-adv-x="659" 
d="M655 0h-126l-57 162h-293l-57 -162h-119l270 714h114zM432 275l-107 300l-106 -300h213zM384 760h-105l-103 154h129z" />
    <glyph glyph-name="Aacute" unicode="&#xc1;" horiz-adv-x="659" 
d="M655 0h-126l-57 162h-293l-57 -162h-119l270 714h114zM432 275l-107 300l-106 -300h213zM383 760h-105l79 154h129z" />
    <glyph glyph-name="Acircumflex" unicode="&#xc2;" horiz-adv-x="659" 
d="M655 0h-126l-57 162h-293l-57 -162h-119l270 714h114zM432 275l-107 300l-106 -300h213zM491 760h-102l-60 62l-59 -62h-103l105 138h114z" />
    <glyph glyph-name="Atilde" unicode="&#xc3;" horiz-adv-x="659" 
d="M655 0h-126l-57 162h-293l-57 -162h-119l270 714h114zM432 275l-107 300l-106 -300h213zM424 900h61q0 -68 -21 -102t-74 -34q-31 0 -61 19t-47 19q-26 0 -38 -14.5t-12 -27.5h-59q0 132 97 132q31 0 59.5 -17t45.5 -17q26 0 37.5 14.5t11.5 27.5z" />
    <glyph glyph-name="Adieresis" unicode="&#xc4;" horiz-adv-x="659" 
d="M655 0h-126l-57 162h-293l-57 -162h-119l270 714h114zM432 275l-107 300l-106 -300h213zM296 760h-116v139h116v-139zM478 760h-116v139h116v-139z" />
    <glyph glyph-name="Aring" unicode="&#xc5;" horiz-adv-x="659" 
d="M655 0h-126l-57 162h-293l-57 -162h-119l270 714h114zM432 275l-107 300l-106 -300h213zM425 851q0 -41 -25.5 -66t-70.5 -25t-70 25t-25 66t25 66t70 25t70.5 -25t25.5 -66zM329 817q15 0 24.5 9t9.5 25t-9.5 25t-24.5 9t-24 -9.5t-9 -24.5t9 -24.5t24 -9.5z" />
    <glyph glyph-name="AE" unicode="&#xc6;" horiz-adv-x="945" 
d="M914 0h-474v162h-222l-88 -162h-127l396 714h509v-105h-357v-190h307v-102h-307v-212h363v-105zM440 275v293l-160 -293h160z" />
    <glyph glyph-name="Ccedilla" unicode="&#xc7;" horiz-adv-x="680" 
d="M508 252h116q-3 -138 -70.5 -204t-200.5 -66q-156 0 -224.5 91t-68.5 283q0 193 68.5 285t224.5 92q269 0 272 -274h-116q-4 90 -42 129.5t-114 39.5q-94 0 -133.5 -62.5t-39.5 -209.5q0 -146 39.5 -207.5t133.5 -61.5q75 0 113 38t42 127zM255 -239v71q20 -6 64 -6
q57 0 57 40t-102 40h-3l51 95h94l-33 -55q91 -9 91 -87q0 -104 -131 -104q-30 0 -52 1.5t-29 3.5z" />
    <glyph glyph-name="Egrave" unicode="&#xc8;" 
d="M568 0h-481v714h475v-105h-356v-190h306v-102h-306v-212h362v-105zM378 760h-105l-103 154h129z" />
    <glyph glyph-name="Eacute" unicode="&#xc9;" 
d="M568 0h-481v714h475v-105h-356v-190h306v-102h-306v-212h362v-105zM377 760h-105l79 154h129z" />
    <glyph glyph-name="Ecircumflex" unicode="&#xca;" 
d="M568 0h-481v714h475v-105h-356v-190h306v-102h-306v-212h362v-105zM485 760h-102l-60 62l-59 -62h-103l105 138h114z" />
    <glyph glyph-name="Edieresis" unicode="&#xcb;" 
d="M568 0h-481v714h475v-105h-356v-190h306v-102h-306v-212h362v-105zM290 760h-116v139h116v-139zM472 760h-116v139h116v-139z" />
    <glyph glyph-name="Igrave" unicode="&#xcc;" horiz-adv-x="293" 
d="M206 0h-119v714h119v-714zM202 760h-105l-103 154h129z" />
    <glyph glyph-name="Iacute" unicode="&#xcd;" horiz-adv-x="293" 
d="M206 0h-119v714h119v-714zM201 760h-105l79 154h129z" />
    <glyph glyph-name="Icircumflex" unicode="&#xce;" horiz-adv-x="293" 
d="M206 0h-119v714h119v-714zM309 760h-102l-60 62l-59 -62h-103l105 138h114z" />
    <glyph glyph-name="Idieresis" unicode="&#xcf;" horiz-adv-x="293" 
d="M206 0h-119v714h119v-714zM114 760h-116v139h116v-139zM296 760h-116v139h116v-139z" />
    <glyph glyph-name="Eth" unicode="&#xd0;" horiz-adv-x="702" 
d="M284 -2h-197v719h197q108 0 177.5 -20t109.5 -66t55.5 -110.5t15.5 -164.5t-15.5 -164t-55.5 -109.5t-109.5 -65t-177.5 -19.5zM206 102h83q123 0 170 35q34 26 48 77t14 142q0 147 -40 200q-24 31 -69 43t-123 13h-83v-510zM352 324h-318v78h318v-78z" />
    <glyph glyph-name="Ntilde" unicode="&#xd1;" horiz-adv-x="740" 
d="M653 -1h-99v1l-33 -1l-331 555l11 -554h-114l1 714h99v-1l34 1l329 -552l-11 552h114v-715zM465 900h61q0 -68 -21 -102t-74 -34q-31 0 -61 19t-47 19q-26 0 -38 -14.5t-12 -27.5h-59q0 132 97 132q31 0 59.5 -17t45.5 -17q26 0 37.5 14.5t11.5 27.5z" />
    <glyph glyph-name="Ograve" unicode="&#xd2;" horiz-adv-x="715" 
d="M60 356q0 193 69 285t228 92t228.5 -92t69.5 -285q0 -192 -69 -283t-229 -91q-159 0 -228 91t-69 283zM534 356q0 146 -40 209t-137 63t-137 -63t-40 -209q0 -145 40 -207t137 -62t137 62t40 207zM412 768h-105l-103 154h129z" />
    <glyph glyph-name="Oacute" unicode="&#xd3;" horiz-adv-x="715" 
d="M60 356q0 193 69 285t228 92t228.5 -92t69.5 -285q0 -192 -69 -283t-229 -91q-159 0 -228 91t-69 283zM534 356q0 146 -40 209t-137 63t-137 -63t-40 -209q0 -145 40 -207t137 -62t137 62t40 207zM411 768h-105l79 154h129z" />
    <glyph glyph-name="Ocircumflex" unicode="&#xd4;" horiz-adv-x="715" 
d="M60 356q0 193 69 285t228 92t228.5 -92t69.5 -285q0 -192 -69 -283t-229 -91q-159 0 -228 91t-69 283zM534 356q0 146 -40 209t-137 63t-137 -63t-40 -209q0 -145 40 -207t137 -62t137 62t40 207zM519 768h-102l-60 62l-59 -62h-103l105 138h114z" />
    <glyph glyph-name="Otilde" unicode="&#xd5;" horiz-adv-x="715" 
d="M60 356q0 193 69 285t228 92t228.5 -92t69.5 -285q0 -192 -69 -283t-229 -91q-159 0 -228 91t-69 283zM534 356q0 146 -40 209t-137 63t-137 -63t-40 -209q0 -145 40 -207t137 -62t137 62t40 207zM452 908h61q0 -68 -21 -102t-74 -34q-31 0 -61 19t-47 19
q-26 0 -38 -14.5t-12 -27.5h-59q0 132 97 132q31 0 59.5 -17t45.5 -17q26 0 37.5 14.5t11.5 27.5z" />
    <glyph glyph-name="Odieresis" unicode="&#xd6;" horiz-adv-x="715" 
d="M60 356q0 193 69 285t228 92t228.5 -92t69.5 -285q0 -192 -69 -283t-229 -91q-159 0 -228 91t-69 283zM534 356q0 146 -40 209t-137 63t-137 -63t-40 -209q0 -145 40 -207t137 -62t137 62t40 207zM324 768h-116v139h116v-139zM506 768h-116v139h116v-139z" />
    <glyph glyph-name="multiply" unicode="&#xd7;" horiz-adv-x="460" 
d="M429 173l-68 -67l-131 136l-131 -136l-68 67l132 137l-132 138l67 65l131 -135l130 135l70 -65l-134 -138z" />
    <glyph glyph-name="Oslash" unicode="&#xd8;" horiz-adv-x="715" 
d="M60 356q0 193 69 285t228 92t228.5 -92t69.5 -285q0 -192 -69 -283t-229 -91q-159 0 -228 91t-69 283zM534 356q0 146 -40 209t-137 63t-137 -63t-40 -209q0 -145 40 -207t137 -62t137 62t40 207zM155 -14h-103l505 741h103z" />
    <glyph glyph-name="Ugrave" unicode="&#xd9;" horiz-adv-x="706" 
d="M508 341v373h122v-373q0 -190 -64 -274.5t-213 -84.5q-150 0 -213.5 84.5t-63.5 274.5v373h119v-373q0 -143 34.5 -198.5t122.5 -55.5q87 0 121.5 55.5t34.5 198.5zM408 760h-105l-103 154h129z" />
    <glyph glyph-name="Uacute" unicode="&#xda;" horiz-adv-x="706" 
d="M508 341v373h122v-373q0 -190 -64 -274.5t-213 -84.5q-150 0 -213.5 84.5t-63.5 274.5v373h119v-373q0 -143 34.5 -198.5t122.5 -55.5q87 0 121.5 55.5t34.5 198.5zM407 760h-105l79 154h129z" />
    <glyph glyph-name="Ucircumflex" unicode="&#xdb;" horiz-adv-x="706" 
d="M508 341v373h122v-373q0 -190 -64 -274.5t-213 -84.5q-150 0 -213.5 84.5t-63.5 274.5v373h119v-373q0 -143 34.5 -198.5t122.5 -55.5q87 0 121.5 55.5t34.5 198.5zM515 760h-102l-60 62l-59 -62h-103l105 138h114z" />
    <glyph glyph-name="Udieresis" unicode="&#xdc;" horiz-adv-x="706" 
d="M508 341v373h122v-373q0 -190 -64 -274.5t-213 -84.5q-150 0 -213.5 84.5t-63.5 274.5v373h119v-373q0 -143 34.5 -198.5t122.5 -55.5q87 0 121.5 55.5t34.5 198.5zM320 760h-116v139h116v-139zM502 760h-116v139h116v-139z" />
    <glyph glyph-name="Yacute" unicode="&#xdd;" horiz-adv-x="638" 
d="M384 0h-120v251l-261 463h139l183 -344l176 344h133l-250 -461v-253zM370 760h-105l79 154h129z" />
    <glyph glyph-name="Thorn" unicode="&#xde;" horiz-adv-x="663" 
d="M329 119h-123v-121h-119v719h119v-115h127q165 0 230 -50.5t65 -191.5t-65 -191t-234 -50zM206 225h123q47 0 75 4t54 17.5t37.5 41.5t11.5 73t-11.5 73t-37.5 41.5t-54 17.5t-75 4h-123v-272z" />
    <glyph glyph-name="germandbls" unicode="&#xdf;" horiz-adv-x="620" 
d="M245 0v94q108 0 155 25.5t47 101.5q0 29 -8 51t-24.5 36t-32.5 22.5t-42.5 13t-42 6t-43.5 2.5v97q41 0 76.5 9t63.5 36t28 68q0 112 -111 112v94q68 0 115 -16.5t71 -47t33.5 -64.5t9.5 -78q0 -35 -14 -64t-31.5 -45.5t-40.5 -29t-35 -16.5t-20 -6q8 0 20 -1t40.5 -11
t49.5 -27t38.5 -54t17.5 -87q0 -114 -72 -167.5t-248 -53.5zM195 0v562q0 53 29.5 82t86.5 30v94q-130 -1 -181 -62t-51 -175v-531h116z" />
    <glyph glyph-name="agrave" unicode="&#xe0;" horiz-adv-x="610" 
d="M535 1h-97l-13 64q-57 -76 -181 -76q-99 0 -143.5 40t-44.5 124q0 64 30 102q19 24 49.5 39t80 20.5t86.5 6.5t108 1q-1 49 -5.5 76t-19.5 43q-24 25 -83 25q-65 0 -92 -28.5t-27 -63.5h-104q0 22 3.5 42.5t17 46.5t36 44t64 31t97.5 13q121 0 174 -45q34 -29 44.5 -77.5
t10.5 -129.5v-31v-126zM410 160v86q-47 0 -72 -0.5t-58.5 -3.5t-50.5 -9t-34 -16.5t-23.5 -27t-6.5 -39.5q0 -81 103 -81q110 0 142 91zM352 617h-105l-103 158h129z" />
    <glyph glyph-name="aacute" unicode="&#xe1;" horiz-adv-x="610" 
d="M535 1h-97l-13 64q-57 -76 -181 -76q-99 0 -143.5 40t-44.5 124q0 64 30 102q19 24 49.5 39t80 20.5t86.5 6.5t108 1q-1 49 -5.5 76t-19.5 43q-24 25 -83 25q-65 0 -92 -28.5t-27 -63.5h-104q0 22 3.5 42.5t17 46.5t36 44t64 31t97.5 13q121 0 174 -45q34 -29 44.5 -77.5
t10.5 -129.5v-31v-126zM410 160v86q-47 0 -72 -0.5t-58.5 -3.5t-50.5 -9t-34 -16.5t-23.5 -27t-6.5 -39.5q0 -81 103 -81q110 0 142 91zM347 617h-105l79 158h129z" />
    <glyph glyph-name="acircumflex" unicode="&#xe2;" horiz-adv-x="610" 
d="M535 1h-97l-13 64q-57 -76 -181 -76q-99 0 -143.5 40t-44.5 124q0 64 30 102q19 24 49.5 39t80 20.5t86.5 6.5t108 1q-1 49 -5.5 76t-19.5 43q-24 25 -83 25q-65 0 -92 -28.5t-27 -63.5h-104q0 22 3.5 42.5t17 46.5t36 44t64 31t97.5 13q121 0 174 -45q34 -29 44.5 -77.5
t10.5 -129.5v-31v-126zM410 160v86q-47 0 -72 -0.5t-58.5 -3.5t-50.5 -9t-34 -16.5t-23.5 -27t-6.5 -39.5q0 -81 103 -81q110 0 142 91zM472 617h-110l-60 78l-60 -78h-110l120 158h99z" />
    <glyph glyph-name="atilde" unicode="&#xe3;" horiz-adv-x="610" 
d="M535 1h-97l-13 64q-57 -76 -181 -76q-99 0 -143.5 40t-44.5 124q0 64 30 102q19 24 49.5 39t80 20.5t86.5 6.5t108 1q-1 49 -5.5 76t-19.5 43q-24 25 -83 25q-65 0 -92 -28.5t-27 -63.5h-104q0 22 3.5 42.5t17 46.5t36 44t64 31t97.5 13q121 0 174 -45q34 -29 44.5 -77.5
t10.5 -129.5v-31v-126zM410 160v86q-47 0 -72 -0.5t-58.5 -3.5t-50.5 -9t-34 -16.5t-23.5 -27t-6.5 -39.5q0 -81 103 -81q110 0 142 91zM398 749h60q0 -67 -20.5 -97.5t-74.5 -30.5q-31 0 -61 19t-47 19q-26 0 -38 -14.5t-12 -27.5h-59q0 124 97 124q31 0 59.5 -17t45.5 -17
q26 0 38 14.5t12 27.5z" />
    <glyph glyph-name="adieresis" unicode="&#xe4;" horiz-adv-x="610" 
d="M535 1h-97l-13 64q-57 -76 -181 -76q-99 0 -143.5 40t-44.5 124q0 64 30 102q19 24 49.5 39t80 20.5t86.5 6.5t108 1q-1 49 -5.5 76t-19.5 43q-24 25 -83 25q-65 0 -92 -28.5t-27 -63.5h-104q0 22 3.5 42.5t17 46.5t36 44t64 31t97.5 13q121 0 174 -45q34 -29 44.5 -77.5
t10.5 -129.5v-31v-126zM410 160v86q-47 0 -72 -0.5t-58.5 -3.5t-50.5 -9t-34 -16.5t-23.5 -27t-6.5 -39.5q0 -81 103 -81q110 0 142 91zM269 618h-116v140h116v-140zM451 618h-116v140h116v-140z" />
    <glyph glyph-name="aring" unicode="&#xe5;" horiz-adv-x="610" 
d="M535 1h-97l-13 64q-57 -76 -181 -76q-99 0 -143.5 40t-44.5 124q0 64 30 102q19 24 49.5 39t80 20.5t86.5 6.5t108 1q-1 49 -5.5 76t-19.5 43q-24 25 -83 25q-65 0 -92 -28.5t-27 -63.5h-104q0 22 3.5 42.5t17 46.5t36 44t64 31t97.5 13q121 0 174 -45q34 -29 44.5 -77.5
t10.5 -129.5v-31v-126zM410 160v86q-47 0 -72 -0.5t-58.5 -3.5t-50.5 -9t-34 -16.5t-23.5 -27t-6.5 -39.5q0 -81 103 -81q110 0 142 91zM414 716q0 -44 -28.5 -75t-82.5 -31t-82.5 31t-28.5 75t28.5 75.5t82.5 31.5t82.5 -31.5t28.5 -75.5zM302 682q15 0 24.5 9.5t9.5 24.5
q0 16 -9.5 25.5t-24.5 9.5q-14 0 -23.5 -9.5t-9.5 -25.5q0 -15 9.5 -24.5t23.5 -9.5z" />
    <glyph glyph-name="ae" unicode="&#xe6;" horiz-adv-x="950" 
d="M898 246h-113l-265 1q2 -89 31 -130.5t99 -41.5q65 0 95.5 30t32.5 65h116q0 -30 -12 -60t-38 -59t-76.5 -47t-117.5 -18q-155 0 -212 101q-51 -98 -194 -98q-99 0 -143.5 40.5t-44.5 125.5q0 36 10 63t23.5 45t42 30t51 18.5t66.5 9.5t72 3h83q3 32 9 60q-7 44 -32 63
t-79 19q-65 0 -92 -28.5t-27 -63.5h-104q0 22 3.5 42.5t17 46.5t36 44t64 31t97.5 13q122 0 164 -67q61 70 189 70q131 0 189.5 -75t58.5 -233zM411 166q-7 37 -9 83q-44 0 -69.5 -1t-57 -3.5t-48.5 -9t-33 -17t-22.5 -26.5t-6.5 -39q0 -84 103 -84q52 0 90.5 24t52.5 73z
M523 330h257q-10 71 -40.5 104.5t-89.5 33.5q-61 0 -90.5 -34.5t-36.5 -103.5z" />
    <glyph glyph-name="ccedilla" unicode="&#xe7;" horiz-adv-x="587" 
d="M424 185h115q-4 -94 -62.5 -146t-174.5 -52q-136 0 -193 72.5t-57 210.5t57 210.5t193 72.5q230 0 236 -214h-114q-1 60 -33 90.5t-89 30.5q-72 0 -102 -45.5t-30 -144.5t30 -144.5t102 -45.5q56 0 88.5 28t33.5 77zM200 -237v71q20 -6 64 -6q57 0 57 40t-102 40h-3
l51 95h94l-33 -55q91 -9 91 -87q0 -104 -131 -104q-30 0 -52 1.5t-29 3.5z" />
    <glyph glyph-name="egrave" unicode="&#xe8;" 
d="M548 249h-113l-265 1q2 -91 31 -133t99 -42q65 0 95.5 30t32.5 65h116q0 -30 -12 -60t-38 -59t-76.5 -47t-117.5 -18q-134 0 -191 71t-57 211q0 141 57 213.5t191 72.5q131 0 189.5 -74.5t58.5 -230.5zM173 333h257q-10 69 -41 102t-89 33q-60 0 -89.5 -33.5
t-37.5 -101.5zM351 617h-105l-103 158h129z" />
    <glyph glyph-name="eacute" unicode="&#xe9;" 
d="M548 249h-113l-265 1q2 -91 31 -133t99 -42q65 0 95.5 30t32.5 65h116q0 -30 -12 -60t-38 -59t-76.5 -47t-117.5 -18q-134 0 -191 71t-57 211q0 141 57 213.5t191 72.5q131 0 189.5 -74.5t58.5 -230.5zM173 333h257q-10 69 -41 102t-89 33q-60 0 -89.5 -33.5
t-37.5 -101.5zM346 617h-105l79 158h129z" />
    <glyph glyph-name="ecircumflex" unicode="&#xea;" 
d="M548 249h-113l-265 1q2 -91 31 -133t99 -42q65 0 95.5 30t32.5 65h116q0 -30 -12 -60t-38 -59t-76.5 -47t-117.5 -18q-134 0 -191 71t-57 211q0 141 57 213.5t191 72.5q131 0 189.5 -74.5t58.5 -230.5zM173 333h257q-10 69 -41 102t-89 33q-60 0 -89.5 -33.5
t-37.5 -101.5zM471 617h-110l-60 78l-60 -78h-110l120 158h99z" />
    <glyph glyph-name="edieresis" unicode="&#xeb;" 
d="M548 249h-113l-265 1q2 -91 31 -133t99 -42q65 0 95.5 30t32.5 65h116q0 -30 -12 -60t-38 -59t-76.5 -47t-117.5 -18q-134 0 -191 71t-57 211q0 141 57 213.5t191 72.5q131 0 189.5 -74.5t58.5 -230.5zM173 333h257q-10 69 -41 102t-89 33q-60 0 -89.5 -33.5
t-37.5 -101.5zM268 618h-116v140h116v-140zM450 618h-116v140h116v-140z" />
    <glyph glyph-name="igrave" unicode="&#xec;" horiz-adv-x="250" 
d="M180 0h-116v541h116v-541zM176 617h-105l-103 158h129z" />
    <glyph glyph-name="iacute" unicode="&#xed;" horiz-adv-x="250" 
d="M180 0h-116v541h116v-541zM171 617h-105l79 158h129z" />
    <glyph glyph-name="icircumflex" unicode="&#xee;" horiz-adv-x="250" 
d="M180 0h-116v541h116v-541zM296 617h-110l-60 78l-60 -78h-110l120 158h99z" />
    <glyph glyph-name="idieresis" unicode="&#xef;" horiz-adv-x="250" 
d="M180 0h-116v541h116v-541zM93 618h-116v140h116v-140zM275 618h-116v140h116v-140z" />
    <glyph glyph-name="eth" unicode="&#xf0;" horiz-adv-x="610" 
d="M558 263h-1q-2 -134 -60.5 -205.5t-192.5 -71.5q-136 0 -194 73.5t-58 209.5q0 270 252 270q34 0 67 -15q-22 41 -50 84l-84 -44l-33 55l79 41q-22 28 -44.5 53t-34.5 36l-12 11h147q18 -17 43 -48l78 41l33 -55l-71 -37q136 -193 136 -398zM424 378q-12 33 -43.5 58
t-77.5 25q-73 0 -103 -46.5t-30 -145.5q0 -100 30 -145t103 -45t103.5 44t31.5 140q0 57 -14 115z" />
    <glyph glyph-name="ntilde" unicode="&#xf1;" horiz-adv-x="637" 
d="M558 0h-116q2 292 2 312q0 69 -21 104t-78 35q-95 0 -144 -101v-350h-116v391l-8 150h97l15 -88q23 37 68 68.5t110 31.5q104 0 148.5 -51t44.5 -179zM431 749h60q0 -67 -20.5 -97.5t-74.5 -30.5q-31 0 -61 19t-47 19q-26 0 -38 -14.5t-12 -27.5h-59q0 124 97 124
q31 0 59.5 -17t45.5 -17q26 0 38 14.5t12 27.5z" />
    <glyph glyph-name="ograve" unicode="&#xf2;" horiz-adv-x="612" 
d="M305 -14q-137 0 -195 73t-58 210t58 211t195 74q137 1 196 -73.5t59 -211.5q0 -136 -58.5 -209.5t-196.5 -73.5zM305 79q75 0 105 45t30 145t-30 146t-105 46q-74 0 -104.5 -46.5t-30.5 -145.5q0 -100 30 -145t105 -45zM354 615h-105l-103 158h129z" />
    <glyph glyph-name="oacute" unicode="&#xf3;" horiz-adv-x="612" 
d="M305 -14q-137 0 -195 73t-58 210t58 211t195 74q137 1 196 -73.5t59 -211.5q0 -136 -58.5 -209.5t-196.5 -73.5zM305 79q75 0 105 45t30 145t-30 146t-105 46q-74 0 -104.5 -46.5t-30.5 -145.5q0 -100 30 -145t105 -45zM349 615h-105l79 158h129z" />
    <glyph glyph-name="ocircumflex" unicode="&#xf4;" horiz-adv-x="612" 
d="M305 -14q-137 0 -195 73t-58 210t58 211t195 74q137 1 196 -73.5t59 -211.5q0 -136 -58.5 -209.5t-196.5 -73.5zM305 79q75 0 105 45t30 145t-30 146t-105 46q-74 0 -104.5 -46.5t-30.5 -145.5q0 -100 30 -145t105 -45zM474 615h-110l-60 78l-60 -78h-110l120 158h99z
" />
    <glyph glyph-name="otilde" unicode="&#xf5;" horiz-adv-x="612" 
d="M305 -14q-137 0 -195 73t-58 210t58 211t195 74q137 1 196 -73.5t59 -211.5q0 -136 -58.5 -209.5t-196.5 -73.5zM305 79q75 0 105 45t30 145t-30 146t-105 46q-74 0 -104.5 -46.5t-30.5 -145.5q0 -100 30 -145t105 -45zM400 747h60q0 -67 -20.5 -97.5t-74.5 -30.5
q-31 0 -61 19t-47 19q-26 0 -38 -14.5t-12 -27.5h-59q0 124 97 124q31 0 59.5 -17t45.5 -17q26 0 38 14.5t12 27.5z" />
    <glyph glyph-name="odieresis" unicode="&#xf6;" horiz-adv-x="612" 
d="M305 -14q-137 0 -195 73t-58 210t58 211t195 74q137 1 196 -73.5t59 -211.5q0 -136 -58.5 -209.5t-196.5 -73.5zM305 79q75 0 105 45t30 145t-30 146t-105 46q-74 0 -104.5 -46.5t-30.5 -145.5q0 -100 30 -145t105 -45zM271 616h-116v140h116v-140zM453 616h-116v140h116
v-140z" />
    <glyph glyph-name="divide" unicode="&#xf7;" horiz-adv-x="492" 
d="M462 280h-432v97h432v-97zM300 109h-108v124h108v-124zM300 423h-108v124h108v-124z" />
    <glyph glyph-name="oslash" unicode="&#xf8;" horiz-adv-x="612" 
d="M305 -14q-137 0 -195 73t-58 210t58 211t195 74q137 1 196 -73.5t59 -211.5q0 -136 -58.5 -209.5t-196.5 -73.5zM305 79q75 0 105 45t30 145t-30 146t-105 46q-74 0 -104.5 -46.5t-30.5 -145.5q0 -100 30 -145t105 -45zM146 -11h-92l408 560h92z" />
    <glyph glyph-name="ugrave" unicode="&#xf9;" horiz-adv-x="623" 
d="M549 0h-98l-16 94q-13 -22 -32.5 -43t-60.5 -42.5t-88 -21.5q-100 0 -145.5 51t-45.5 173l2 330h115q-1 -292 -1 -312q0 -70 20 -105t77 -35q32 0 58.5 12.5t44.5 32.5t28.5 36t17.5 33v338h116v-391zM356 617h-105l-103 158h129z" />
    <glyph glyph-name="uacute" unicode="&#xfa;" horiz-adv-x="623" 
d="M549 0h-98l-16 94q-13 -22 -32.5 -43t-60.5 -42.5t-88 -21.5q-100 0 -145.5 51t-45.5 173l2 330h115q-1 -292 -1 -312q0 -70 20 -105t77 -35q32 0 58.5 12.5t44.5 32.5t28.5 36t17.5 33v338h116v-391zM351 617h-105l79 158h129z" />
    <glyph glyph-name="ucircumflex" unicode="&#xfb;" horiz-adv-x="623" 
d="M549 0h-98l-16 94q-13 -22 -32.5 -43t-60.5 -42.5t-88 -21.5q-100 0 -145.5 51t-45.5 173l2 330h115q-1 -292 -1 -312q0 -70 20 -105t77 -35q32 0 58.5 12.5t44.5 32.5t28.5 36t17.5 33v338h116v-391zM476 617h-110l-60 78l-60 -78h-110l120 158h99z" />
    <glyph glyph-name="udieresis" unicode="&#xfc;" horiz-adv-x="623" 
d="M549 0h-98l-16 94q-13 -22 -32.5 -43t-60.5 -42.5t-88 -21.5q-100 0 -145.5 51t-45.5 173l2 330h115q-1 -292 -1 -312q0 -70 20 -105t77 -35q32 0 58.5 12.5t44.5 32.5t28.5 36t17.5 33v338h116v-391zM273 618h-116v140h116v-140zM455 618h-116v140h116v-140z" />
    <glyph glyph-name="yacute" unicode="&#xfd;" horiz-adv-x="552" 
d="M269 -220h-105l74 220h-32l-200 541h131l138 -432l147 432h124zM314 617h-105l79 158h129z" />
    <glyph glyph-name="thorn" unicode="&#xfe;" horiz-adv-x="629" 
d="M191 -240h-114v1000h114v-288q65 79 166 79q115 0 167 -71.5t52 -209.5t-52 -209t-167 -71q-111 0 -166 62v-292zM191 360v-176q13 -42 47.5 -71.5t96.5 -29.5q123 0 123 187q0 188 -123 188q-94 0 -144 -98z" />
    <glyph glyph-name="ydieresis" unicode="&#xff;" horiz-adv-x="552" 
d="M269 -220h-105l74 220h-32l-200 541h131l138 -432l147 432h124zM236 618h-116v140h116v-140zM418 618h-116v140h116v-140z" />
    <glyph glyph-name="Amacron" unicode="&#x100;" horiz-adv-x="659" 
d="M655 0h-126l-57 162h-293l-57 -162h-119l270 714h114zM432 275l-107 300l-106 -300h213zM465 782h-273v90h273v-90z" />
    <glyph glyph-name="amacron" unicode="&#x101;" horiz-adv-x="610" 
d="M535 1h-97l-13 64q-57 -76 -181 -76q-99 0 -143.5 40t-44.5 124q0 64 30 102q19 24 49.5 39t80 20.5t86.5 6.5t108 1q-1 49 -5.5 76t-19.5 43q-24 25 -83 25q-65 0 -92 -28.5t-27 -63.5h-104q0 22 3.5 42.5t17 46.5t36 44t64 31t97.5 13q121 0 174 -45q34 -29 44.5 -77.5
t10.5 -129.5v-31v-126zM410 160v86q-47 0 -72 -0.5t-58.5 -3.5t-50.5 -9t-34 -16.5t-23.5 -27t-6.5 -39.5q0 -81 103 -81q110 0 142 91zM438 639h-273v89h273v-89z" />
    <glyph glyph-name="Abreve" unicode="&#x102;" horiz-adv-x="659" 
d="M655 0h-126l-57 162h-293l-57 -162h-119l270 714h114zM432 275l-107 300l-106 -300h213zM392 894h89q0 -58 -39 -96t-113 -38t-113 38t-39 96h90q0 -20 17 -36t45 -16t45.5 16t17.5 36z" />
    <glyph glyph-name="abreve" unicode="&#x103;" horiz-adv-x="610" 
d="M535 1h-97l-13 64q-57 -76 -181 -76q-99 0 -143.5 40t-44.5 124q0 64 30 102q19 24 49.5 39t80 20.5t86.5 6.5t108 1q-1 49 -5.5 76t-19.5 43q-24 25 -83 25q-65 0 -92 -28.5t-27 -63.5h-104q0 22 3.5 42.5t17 46.5t36 44t64 31t97.5 13q121 0 174 -45q34 -29 44.5 -77.5
t10.5 -129.5v-31v-126zM410 160v86q-47 0 -72 -0.5t-58.5 -3.5t-50.5 -9t-34 -16.5t-23.5 -27t-6.5 -39.5q0 -81 103 -81q110 0 142 91zM366 753h88q0 -61 -40.5 -100t-111.5 -39t-111.5 39t-40.5 100h90q0 -20 17 -37t45 -17t46 17t18 37z" />
    <glyph glyph-name="Aogonek" unicode="&#x104;" horiz-adv-x="659" 
d="M655 0h-126l-57 162h-293l-57 -162h-119l270 714h114zM432 275l-107 300l-106 -300h213zM627 -110v-64q0 -1 -11 -7.5t-35.5 -13t-52.5 -6.5q-43 0 -64 22t-21 57q0 37 23.5 70t46.5 48l23 14l80 -7l-3 -1l-7 -4.5l-9.5 -6t-11 -8t-11.5 -10.5t-11 -12.5t-8.5 -14t-6 -17
t-2.5 -18.5q0 -14 8.5 -24t24.5 -10q11 0 23 3.5t18 6.5z" />
    <glyph glyph-name="aogonek" unicode="&#x105;" horiz-adv-x="610" 
d="M535 1h-97l-13 64q-57 -76 -181 -76q-99 0 -143.5 40t-44.5 124q0 64 30 102q19 24 49.5 39t80 20.5t86.5 6.5t108 1q-1 49 -5.5 76t-19.5 43q-24 25 -83 25q-65 0 -92 -28.5t-27 -63.5h-104q0 22 3.5 42.5t17 46.5t36 44t64 31t97.5 13q121 0 174 -45q34 -29 44.5 -77.5
t10.5 -129.5v-31v-126zM410 160v86q-47 0 -72 -0.5t-58.5 -3.5t-50.5 -9t-34 -16.5t-23.5 -27t-6.5 -39.5q0 -81 103 -81q110 0 142 91zM539 -110v-64q0 -1 -11 -7.5t-35.5 -13t-52.5 -6.5q-43 0 -64 22t-21 57q0 37 23.5 70t46.5 48l23 14l80 -7l-3 -1l-7 -4.5l-9.5 -6
t-11 -8t-11.5 -10.5t-11 -12.5t-8.5 -14t-6 -17t-2.5 -18.5q0 -14 8.5 -24t24.5 -10q11 0 23 3.5t18 6.5z" />
    <glyph glyph-name="Cacute" unicode="&#x106;" horiz-adv-x="680" 
d="M508 252h116q-3 -138 -70.5 -204t-200.5 -66q-156 0 -224.5 91t-68.5 283q0 193 68.5 285t224.5 92q269 0 272 -274h-116q-4 90 -42 129.5t-114 39.5q-94 0 -133.5 -62.5t-39.5 -209.5q0 -146 39.5 -207.5t133.5 -61.5q75 0 113 38t42 127zM404 768h-105l79 154h129z" />
    <glyph glyph-name="cacute" unicode="&#x107;" horiz-adv-x="587" 
d="M424 185h115q-4 -94 -62.5 -146t-174.5 -52q-136 0 -193 72.5t-57 210.5t57 210.5t193 72.5q230 0 236 -214h-114q-1 60 -33 90.5t-89 30.5q-72 0 -102 -45.5t-30 -144.5t30 -144.5t102 -45.5q56 0 88.5 28t33.5 77zM346 617h-105l79 158h129z" />
    <glyph glyph-name="Ccircumflex" unicode="&#x108;" horiz-adv-x="680" 
d="M508 252h116q-3 -138 -70.5 -204t-200.5 -66q-156 0 -224.5 91t-68.5 283q0 193 68.5 285t224.5 92q269 0 272 -274h-116q-4 90 -42 129.5t-114 39.5q-94 0 -133.5 -62.5t-39.5 -209.5q0 -146 39.5 -207.5t133.5 -61.5q75 0 113 38t42 127zM512 768h-102l-60 62l-59 -62
h-103l105 138h114z" />
    <glyph glyph-name="ccircumflex" unicode="&#x109;" horiz-adv-x="587" 
d="M424 185h115q-4 -94 -62.5 -146t-174.5 -52q-136 0 -193 72.5t-57 210.5t57 210.5t193 72.5q230 0 236 -214h-114q-1 60 -33 90.5t-89 30.5q-72 0 -102 -45.5t-30 -144.5t30 -144.5t102 -45.5q56 0 88.5 28t33.5 77zM471 617h-110l-60 78l-60 -78h-110l120 158h99z" />
    <glyph glyph-name="Cdotaccent" unicode="&#x10a;" horiz-adv-x="680" 
d="M508 252h116q-3 -138 -70.5 -204t-200.5 -66q-156 0 -224.5 91t-68.5 283q0 193 68.5 285t224.5 92q269 0 272 -274h-116q-4 90 -42 129.5t-114 39.5q-94 0 -133.5 -62.5t-39.5 -209.5q0 -146 39.5 -207.5t133.5 -61.5q75 0 113 38t42 127zM408 768h-116v139h116v-139z
" />
    <glyph glyph-name="cdotaccent" unicode="&#x10b;" horiz-adv-x="587" 
d="M424 185h115q-4 -94 -62.5 -146t-174.5 -52q-136 0 -193 72.5t-57 210.5t57 210.5t193 72.5q230 0 236 -214h-114q-1 60 -33 90.5t-89 30.5q-72 0 -102 -45.5t-30 -144.5t30 -144.5t102 -45.5q56 0 88.5 28t33.5 77zM359 618h-116v140h116v-140z" />
    <glyph glyph-name="Ccaron" unicode="&#x10c;" horiz-adv-x="680" 
d="M508 252h116q-3 -138 -70.5 -204t-200.5 -66q-156 0 -224.5 91t-68.5 283q0 193 68.5 285t224.5 92q269 0 272 -274h-116q-4 90 -42 129.5t-114 39.5q-94 0 -133.5 -62.5t-39.5 -209.5q0 -146 39.5 -207.5t133.5 -61.5q75 0 113 38t42 127zM407 768h-114l-105 138h103
l59 -63l60 63h102z" />
    <glyph glyph-name="ccaron" unicode="&#x10d;" horiz-adv-x="587" 
d="M424 185h115q-4 -94 -62.5 -146t-174.5 -52q-136 0 -193 72.5t-57 210.5t57 210.5t193 72.5q230 0 236 -214h-114q-1 60 -33 90.5t-89 30.5q-72 0 -102 -45.5t-30 -144.5t30 -144.5t102 -45.5q56 0 88.5 28t33.5 77zM350 617h-99l-120 158h110l60 -79l60 79h110z" />
    <glyph glyph-name="Dcaron" unicode="&#x10e;" horiz-adv-x="702" 
d="M284 -2h-197v719h197q108 0 177.5 -20t109.5 -66t55.5 -110.5t15.5 -164.5t-15.5 -164t-55.5 -109.5t-109.5 -65t-177.5 -19.5zM206 102h83q123 0 170 35q34 26 48 77t14 142q0 147 -40 200q-24 31 -69 43t-123 13h-83v-510zM390 760h-114l-105 138h103l59 -63l60 63h102
z" />
    <glyph glyph-name="dcaron" unicode="&#x10f;" horiz-adv-x="639" 
d="M562 0h-98l-13 70q-55 -80 -180 -80q-115 0 -167 71t-52 209t52 209.5t167 71.5q100 0 167 -69v278h116v-612zM438 187v171q-49 100 -145 100q-122 0 -122 -188q0 -187 122 -187q63 0 98 30.5t47 73.5zM658 572h-88l68 188h112z" />
    <glyph glyph-name="Dcroat" unicode="&#x110;" horiz-adv-x="702" 
d="M284 -2h-197v719h197q108 0 177.5 -20t109.5 -66t55.5 -110.5t15.5 -164.5t-15.5 -164t-55.5 -109.5t-109.5 -65t-177.5 -19.5zM206 102h83q123 0 170 35q34 26 48 77t14 142q0 147 -40 200q-24 31 -69 43t-123 13h-83v-510zM352 324h-318v78h318v-78z" />
    <glyph glyph-name="dcroat" unicode="&#x111;" horiz-adv-x="639" 
d="M562 0h-98l-13 70q-55 -80 -180 -80q-115 0 -167 71t-52 209t52 209.5t167 71.5q100 0 167 -69v278h116v-612zM438 187v171q-49 100 -145 100q-122 0 -122 -188q0 -187 122 -187q63 0 98 30.5t47 73.5zM619 585h-318v78h318v-78z" />
    <glyph glyph-name="Emacron" unicode="&#x112;" 
d="M568 0h-481v714h475v-105h-356v-190h306v-102h-306v-212h362v-105zM459 782h-273v90h273v-90z" />
    <glyph glyph-name="emacron" unicode="&#x113;" 
d="M548 249h-113l-265 1q2 -91 31 -133t99 -42q65 0 95.5 30t32.5 65h116q0 -30 -12 -60t-38 -59t-76.5 -47t-117.5 -18q-134 0 -191 71t-57 211q0 141 57 213.5t191 72.5q131 0 189.5 -74.5t58.5 -230.5zM173 333h257q-10 69 -41 102t-89 33q-60 0 -89.5 -33.5
t-37.5 -101.5zM437 639h-273v89h273v-89z" />
    <glyph glyph-name="Ebreve" unicode="&#x114;" 
d="M568 0h-481v714h475v-105h-356v-190h306v-102h-306v-212h362v-105zM386 894h89q0 -58 -39 -96t-113 -38t-113 38t-39 96h90q0 -20 17 -36t45 -16t45.5 16t17.5 36z" />
    <glyph glyph-name="ebreve" unicode="&#x115;" 
d="M548 249h-113l-265 1q2 -91 31 -133t99 -42q65 0 95.5 30t32.5 65h116q0 -30 -12 -60t-38 -59t-76.5 -47t-117.5 -18q-134 0 -191 71t-57 211q0 141 57 213.5t191 72.5q131 0 189.5 -74.5t58.5 -230.5zM173 333h257q-10 69 -41 102t-89 33q-60 0 -89.5 -33.5
t-37.5 -101.5zM365 753h88q0 -61 -40.5 -100t-111.5 -39t-111.5 39t-40.5 100h90q0 -20 17 -37t45 -17t46 17t18 37z" />
    <glyph glyph-name="Edotaccent" unicode="&#x116;" 
d="M568 0h-481v714h475v-105h-356v-190h306v-102h-306v-212h362v-105zM381 760h-116v139h116v-139z" />
    <glyph glyph-name="edotaccent" unicode="&#x117;" 
d="M548 249h-113l-265 1q2 -91 31 -133t99 -42q65 0 95.5 30t32.5 65h116q0 -30 -12 -60t-38 -59t-76.5 -47t-117.5 -18q-134 0 -191 71t-57 211q0 141 57 213.5t191 72.5q131 0 189.5 -74.5t58.5 -230.5zM173 333h257q-10 69 -41 102t-89 33q-60 0 -89.5 -33.5
t-37.5 -101.5zM359 618h-116v140h116v-140z" />
    <glyph glyph-name="Eogonek" unicode="&#x118;" 
d="M568 0h-481v714h475v-105h-356v-190h306v-102h-306v-212h362v-105zM577 -112v-64q0 -1 -11 -7.5t-35.5 -13t-52.5 -6.5q-43 0 -64 22t-21 57q0 37 23.5 70t46.5 48l23 14l80 -7l-3 -1l-7 -4.5l-9.5 -6t-11 -8t-11.5 -10.5t-11 -12.5t-8.5 -14t-6 -17t-2.5 -18.5
q0 -14 8.5 -24t24.5 -10q11 0 23 3.5t18 6.5z" />
    <glyph glyph-name="eogonek" unicode="&#x119;" 
d="M548 249h-113l-265 1q2 -91 31 -133t99 -42q65 0 95.5 30t32.5 65h116q0 -30 -12 -60t-38 -59t-76.5 -47t-117.5 -18q-134 0 -191 71t-57 211q0 141 57 213.5t191 72.5q131 0 189.5 -74.5t58.5 -230.5zM173 333h257q-10 69 -41 102t-89 33q-60 0 -89.5 -33.5
t-37.5 -101.5zM474 -86v-64q0 -1 -11 -7.5t-35.5 -13t-52.5 -6.5q-43 0 -64 22t-21 57q0 23 9.5 45.5t23 37.5t27.5 26.5t24 16.5l9 6l80 -7l-3 -1l-7 -4.5l-9.5 -6t-11 -8t-11.5 -10.5t-11 -12.5t-8.5 -14t-6 -17t-2.5 -18.5q0 -14 8.5 -24t24.5 -10q11 0 23 3.5t19 6.5z
" />
    <glyph glyph-name="Ecaron" unicode="&#x11a;" 
d="M568 0h-481v714h475v-105h-356v-190h306v-102h-306v-212h362v-105zM380 760h-114l-105 138h103l59 -63l60 63h102z" />
    <glyph glyph-name="ecaron" unicode="&#x11b;" 
d="M548 249h-113l-265 1q2 -91 31 -133t99 -42q65 0 95.5 30t32.5 65h116q0 -30 -12 -60t-38 -59t-76.5 -47t-117.5 -18q-134 0 -191 71t-57 211q0 141 57 213.5t191 72.5q131 0 189.5 -74.5t58.5 -230.5zM173 333h257q-10 69 -41 102t-89 33q-60 0 -89.5 -33.5
t-37.5 -101.5zM350 617h-99l-120 158h110l60 -79l60 79h110z" />
    <glyph glyph-name="Gcircumflex" unicode="&#x11c;" horiz-adv-x="690" 
d="M512 132v127h-126v99h238v-268q0 -6 -9.5 -18t-31 -27.5t-51.5 -29.5t-77.5 -23.5t-101.5 -9.5q-157 -1 -225 88.5t-68 285.5q0 195 68 286t225 91q271 0 271 -255h-115q-2 73 -42 111.5t-114 38.5q-94 0 -133.5 -63t-39.5 -209q0 -145 41.5 -207t140.5 -62q45 0 81.5 9
t52.5 19t16 17zM510 768h-102l-60 62l-59 -62h-103l105 138h114z" />
    <glyph glyph-name="gcircumflex" unicode="&#x11d;" horiz-adv-x="637" 
d="M439 -2v56q-57 -64 -168 -64q-115 0 -167 71t-52 209t52 209.5t167 71.5q65 0 110.5 -30t68.5 -64l14 84h97l-6 -156v-387q0 -30 -0.5 -46.5t-5.5 -45.5t-14 -46t-27.5 -38.5t-45 -33t-68 -20t-94.5 -8.5q-151 0 -200 97q-20 41 -20 89h108v-14t6 -23.5t17 -29.5
t36.5 -21t60.5 -10q65 0 95 25q22 18 29 47.5t7 77.5zM439 191v167q-49 100 -146 100q-122 0 -122 -188q0 -187 122 -187q64 0 99.5 32t46.5 76zM484 617h-110l-60 78l-60 -78h-110l120 158h99z" />
    <glyph glyph-name="Gbreve" unicode="&#x11e;" horiz-adv-x="690" 
d="M512 132v127h-126v99h238v-268q0 -6 -9.5 -18t-31 -27.5t-51.5 -29.5t-77.5 -23.5t-101.5 -9.5q-157 -1 -225 88.5t-68 285.5q0 195 68 286t225 91q271 0 271 -255h-115q-2 73 -42 111.5t-114 38.5q-94 0 -133.5 -63t-39.5 -209q0 -145 41.5 -207t140.5 -62q45 0 81.5 9
t52.5 19t16 17zM411 902h89q0 -58 -39 -96t-113 -38t-113 38t-39 96h90q0 -20 17 -36t45 -16t45.5 16t17.5 36z" />
    <glyph glyph-name="gbreve" unicode="&#x11f;" horiz-adv-x="637" 
d="M439 -2v56q-57 -64 -168 -64q-115 0 -167 71t-52 209t52 209.5t167 71.5q65 0 110.5 -30t68.5 -64l14 84h97l-6 -156v-387q0 -30 -0.5 -46.5t-5.5 -45.5t-14 -46t-27.5 -38.5t-45 -33t-68 -20t-94.5 -8.5q-151 0 -200 97q-20 41 -20 89h108v-14t6 -23.5t17 -29.5
t36.5 -21t60.5 -10q65 0 95 25q22 18 29 47.5t7 77.5zM439 191v167q-49 100 -146 100q-122 0 -122 -188q0 -187 122 -187q64 0 99.5 32t46.5 76zM378 753h88q0 -61 -40.5 -100t-111.5 -39t-111.5 39t-40.5 100h90q0 -20 17 -37t45 -17t46 17t18 37z" />
    <glyph glyph-name="Gdotaccent" unicode="&#x120;" horiz-adv-x="690" 
d="M512 132v127h-126v99h238v-268q0 -6 -9.5 -18t-31 -27.5t-51.5 -29.5t-77.5 -23.5t-101.5 -9.5q-157 -1 -225 88.5t-68 285.5q0 195 68 286t225 91q271 0 271 -255h-115q-2 73 -42 111.5t-114 38.5q-94 0 -133.5 -63t-39.5 -209q0 -145 41.5 -207t140.5 -62q45 0 81.5 9
t52.5 19t16 17zM406 768h-116v139h116v-139z" />
    <glyph glyph-name="gdotaccent" unicode="&#x121;" horiz-adv-x="637" 
d="M439 -2v56q-57 -64 -168 -64q-115 0 -167 71t-52 209t52 209.5t167 71.5q65 0 110.5 -30t68.5 -64l14 84h97l-6 -156v-387q0 -30 -0.5 -46.5t-5.5 -45.5t-14 -46t-27.5 -38.5t-45 -33t-68 -20t-94.5 -8.5q-151 0 -200 97q-20 41 -20 89h108v-14t6 -23.5t17 -29.5
t36.5 -21t60.5 -10q65 0 95 25q22 18 29 47.5t7 77.5zM439 191v167q-49 100 -146 100q-122 0 -122 -188q0 -187 122 -187q64 0 99.5 32t46.5 76zM372 618h-116v140h116v-140z" />
    <glyph glyph-name="Gcommaaccent" unicode="&#x122;" horiz-adv-x="690" 
d="M512 132v127h-126v99h238v-268q0 -6 -9.5 -18t-31 -27.5t-51.5 -29.5t-77.5 -23.5t-101.5 -9.5q-157 -1 -225 88.5t-68 285.5q0 195 68 286t225 91q271 0 271 -255h-115q-2 73 -42 111.5t-114 38.5q-94 0 -133.5 -63t-39.5 -209q0 -145 41.5 -207t140.5 -62q45 0 81.5 9
t52.5 19t16 17zM343 -278h-99q28 54 47 121q8 27 12.5 51.5t4.5 35.5l1 12h114q-4 -48 -23 -107q-11 -32 -25 -60.5t-23 -40.5z" />
    <glyph glyph-name="gcommaaccent" unicode="&#x123;" horiz-adv-x="637" 
d="M439 -2v56q-57 -64 -168 -64q-115 0 -167 71t-52 209t52 209.5t167 71.5q65 0 110.5 -30t68.5 -64l14 84h97l-6 -156v-387q0 -30 -0.5 -46.5t-5.5 -45.5t-14 -46t-27.5 -38.5t-45 -33t-68 -20t-94.5 -8.5q-151 0 -200 97q-20 41 -20 89h108v-14t6 -23.5t17 -29.5
t36.5 -21t60.5 -10q65 0 95 25q22 18 29 47.5t7 77.5zM439 191v167q-49 100 -146 100q-122 0 -122 -188q0 -187 122 -187q64 0 99.5 32t46.5 76zM342 590h-119q1 46 23 125q10 37 25 70.5t25 48.5l10 15h103q-32 -65 -49 -142q-8 -35 -12.5 -64.5t-5.5 -40.5v-12z" />
    <glyph glyph-name="Hcircumflex" unicode="&#x124;" horiz-adv-x="720" 
d="M632 0h-119v309h-307v-309l-119 -1v714l119 1v-292h307v292h119v-714zM522 760h-102l-60 62l-59 -62h-103l105 138h114z" />
    <glyph glyph-name="hcircumflex" unicode="&#x125;" horiz-adv-x="637" 
d="M558 0h-116q2 292 2 312q0 69 -21 104t-78 35q-34 0 -62 -13t-46 -34.5t-27.5 -37.5t-16.5 -33v-333h-116v760h114l1 -301q25 36 69 65t106 29q104 0 148.5 -51t44.5 -179zM296 798h-102l-60 62l-59 -62h-103l105 138h114z" />
    <glyph glyph-name="Hbar" unicode="&#x126;" horiz-adv-x="720" 
d="M632 0h-119v309h-307v-309l-119 -1v714l119 1v-292h307v292h119v-714zM705 523h-688v89h688v-89z" />
    <glyph glyph-name="hbar" unicode="&#x127;" horiz-adv-x="637" 
d="M558 0h-116q2 292 2 312q0 69 -21 104t-78 35q-34 0 -62 -13t-46 -34.5t-27.5 -37.5t-16.5 -33v-333h-116v760h114l1 -301q25 36 69 65t106 29q104 0 148.5 -51t44.5 -179zM332 590h-318v78h318v-78z" />
    <glyph glyph-name="Itilde" unicode="&#x128;" horiz-adv-x="293" 
d="M206 0h-119v714h119v-714zM242 900h61q0 -68 -21 -102t-74 -34q-31 0 -61 19t-47 19q-26 0 -38 -14.5t-12 -27.5h-59q0 132 97 132q31 0 59.5 -17t45.5 -17q26 0 37.5 14.5t11.5 27.5z" />
    <glyph glyph-name="itilde" unicode="&#x129;" horiz-adv-x="250" 
d="M180 0h-116v541h116v-541zM222 749h60q0 -67 -20.5 -97.5t-74.5 -30.5q-31 0 -61 19t-47 19q-26 0 -38 -14.5t-12 -27.5h-59q0 124 97 124q31 0 59.5 -17t45.5 -17q26 0 38 14.5t12 27.5z" />
    <glyph glyph-name="Imacron" unicode="&#x12a;" horiz-adv-x="293" 
d="M206 0h-119v714h119v-714zM283 782h-273v90h273v-90z" />
    <glyph glyph-name="imacron" unicode="&#x12b;" horiz-adv-x="250" 
d="M180 0h-116v541h116v-541zM262 639h-273v89h273v-89z" />
    <glyph glyph-name="Ibreve" unicode="&#x12c;" horiz-adv-x="293" 
d="M206 0h-119v714h119v-714zM210 894h89q0 -58 -39 -96t-113 -38t-113 38t-39 96h90q0 -20 17 -36t45 -16t45.5 16t17.5 36z" />
    <glyph glyph-name="ibreve" unicode="&#x12d;" horiz-adv-x="250" 
d="M180 0h-116v541h116v-541zM190 753h88q0 -61 -40.5 -100t-111.5 -39t-111.5 39t-40.5 100h90q0 -20 17 -37t45 -17t46 17t18 37z" />
    <glyph glyph-name="Iogonek" unicode="&#x12e;" horiz-adv-x="293" 
d="M206 0h-119v714h119v-714zM188 -111v-64q0 -1 -11 -7.5t-35.5 -13t-52.5 -6.5q-43 0 -64 22t-21 57q0 23 9.5 45.5t23 37.5t27.5 26.5t24 17.5l9 5l80 -7l-3 -2q-3 -1 -7 -3.5l-9.5 -6t-11 -8t-11.5 -10.5t-11 -12.5t-8.5 -14t-6 -17t-2.5 -18.5q0 -14 8.5 -24t24.5 -10
q11 0 23 3t19 7z" />
    <glyph glyph-name="iogonek" unicode="&#x12f;" horiz-adv-x="250" 
d="M180 0h-116v541h116v-541zM184 618h-116v140h116v-140zM167 -111v-64q0 -1 -11 -7.5t-35.5 -13t-52.5 -6.5q-43 0 -64 22t-21 57q0 37 23.5 70t46.5 47l23 15l80 -7l-3 -2q-3 -1 -7 -3.5l-9.5 -6t-11 -8t-11.5 -10.5t-11 -12.5t-8.5 -14t-6 -17t-2.5 -18.5q0 -14 8.5 -24
t24.5 -10q11 0 23 3t18 7z" />
    <glyph glyph-name="Idotaccent" unicode="&#x130;" horiz-adv-x="293" 
d="M206 0h-119v714h119v-714zM205 760h-116v139h116v-139z" />
    <glyph glyph-name="dotlessi" unicode="&#x131;" horiz-adv-x="250" 
d="M180 0h-116v541h116v-541z" />
    <glyph glyph-name="IJ" unicode="&#x132;" horiz-adv-x="735" 
d="M206 0h-119v714h119v-714zM378 0h-70v114h70q54 0 83 6.5t48 30.5t24.5 62.5t5.5 109.5l-1 379h119l2 -379q0 -66 -3 -108t-13.5 -82t-29 -62.5t-50 -40t-76.5 -24t-109 -6.5z" />
    <glyph glyph-name="ij" unicode="&#x133;" horiz-adv-x="529" 
d="M180 0h-116v541h116v-541zM184 618h-116v140h116v-140zM215 -212v97q35 0 57 6t35 14.5t18.5 30.5t7 42.5t1.5 62.5v500h116v-500q0 -81 -7 -125t-32.5 -75.5t-70.5 -42t-125 -10.5zM449 618h-116v140h116v-140z" />
    <glyph glyph-name="Jcircumflex" unicode="&#x134;" horiz-adv-x="442" 
d="M85 0h-70v114h70q54 0 83 6.5t48 30.5t24.5 62.5t5.5 109.5l-1 379h119l2 -379q0 -66 -3 -108t-13.5 -82t-29 -62.5t-50 -40t-76.5 -24t-109 -6.5zM376 760h-102l-60 62l-59 -62h-103l105 138h114z" />
    <glyph glyph-name="jcircumflex" unicode="&#x135;" horiz-adv-x="279" 
d="M-35 -212v97q35 0 57 6t35 14.5t18.5 30.5t7 42.5t1.5 62.5v500h116v-500q0 -81 -7 -125t-32.5 -75.5t-70.5 -42t-125 -10.5zM311 617h-110l-60 78l-60 -78h-110l120 158h99z" />
    <glyph glyph-name="Kcommaaccent" unicode="&#x136;" horiz-adv-x="650" 
d="M647 0h-135l-217 305l-89 -109v-196h-119v714h119v-375l283 375h140l-262 -320zM319 -278h-99q28 54 47 121q8 27 12.5 51.5t4.5 35.5l1 12h114q-4 -48 -23 -107q-11 -32 -25 -60.5t-23 -40.5z" />
    <glyph glyph-name="kcommaaccent" unicode="&#x137;" horiz-adv-x="557" 
d="M556 0h-131l-170 237l-60 -67v-170h-116v760h116v-463l198 244h137l-202 -223zM268 -278h-99q28 54 47 121q8 27 12.5 51.5t5.5 35.5v12h114q-4 -48 -23 -107q-11 -32 -25 -60.5t-23 -40.5z" />
    <glyph glyph-name="kgreenlandic" unicode="&#x138;" horiz-adv-x="557" 
d="M556 0h-131l-170 237l-60 -67v-170h-116v541h116v-244l198 244h137l-202 -223z" />
    <glyph glyph-name="Lacute" unicode="&#x139;" horiz-adv-x="513" 
d="M495 0h-408v714h119v-604h289v-110zM208 760h-105l79 154h129z" />
    <glyph glyph-name="lacute" unicode="&#x13a;" horiz-adv-x="274" 
d="M195 0h-116v760h116v-760zM190 797h-105l79 154h129z" />
    <glyph glyph-name="Lcommaaccent" unicode="&#x13b;" horiz-adv-x="513" 
d="M495 0h-408v714h119v-604h289v-110zM265 -278h-99q28 54 47 121q8 27 12.5 51.5t4.5 35.5l1 12h114q-4 -48 -23 -107q-11 -32 -25 -60.5t-23 -40.5z" />
    <glyph glyph-name="lcommaaccent" unicode="&#x13c;" horiz-adv-x="274" 
d="M195 0h-116v760h116v-760zM104 -278h-99q28 54 47 121q8 27 12.5 51.5t5.5 35.5v12h114q-4 -48 -23 -107q-11 -32 -25 -60.5t-23 -40.5z" />
    <glyph glyph-name="Lcaron" unicode="&#x13d;" horiz-adv-x="513" 
d="M495 0h-408v714h119v-604h289v-110zM363 586h-105l79 188h129z" />
    <glyph glyph-name="lcaron" unicode="&#x13e;" horiz-adv-x="274" 
d="M195 0h-116v760h116v-760zM300 572h-88l68 188h112z" />
    <glyph glyph-name="Ldot" unicode="&#x13f;" horiz-adv-x="513" 
d="M495 0h-408v714h119v-604h289v-110zM387 287h-116v129h116v-129z" />
    <glyph glyph-name="ldot" unicode="&#x140;" horiz-adv-x="375" 
d="M195 0h-116v760h116v-760zM349 319h-116v129h116v-129z" />
    <glyph glyph-name="Lslash" unicode="&#x141;" horiz-adv-x="513" 
d="M495 0h-408v714h119v-604h289v-110zM335 416l-324 -186l-43 77l324 185z" />
    <glyph glyph-name="lslash" unicode="&#x142;" horiz-adv-x="274" 
d="M195 0h-116v760h116v-760zM321 448l-324 -186l-43 77l324 185z" />
    <glyph glyph-name="Nacute" unicode="&#x143;" horiz-adv-x="740" 
d="M653 -1h-99v1l-33 -1l-331 555l11 -554h-114l1 714h99v-1l34 1l329 -552l-11 552h114v-715zM424 760h-105l79 154h129z" />
    <glyph glyph-name="nacute" unicode="&#x144;" horiz-adv-x="637" 
d="M558 0h-116q2 292 2 312q0 69 -21 104t-78 35q-95 0 -144 -101v-350h-116v391l-8 150h97l15 -88q23 37 68 68.5t110 31.5q104 0 148.5 -51t44.5 -179zM380 617h-105l79 158h129z" />
    <glyph glyph-name="Ncommaaccent" unicode="&#x145;" horiz-adv-x="740" 
d="M653 -1h-99v1l-33 -1l-331 555l11 -554h-114l1 714h99v-1l34 1l329 -552l-11 552h114v-715zM341 -278h-99q28 54 47 121q8 27 12.5 51.5t4.5 35.5l1 12h114q-4 -48 -23 -107q-11 -32 -25 -60.5t-23 -40.5z" />
    <glyph glyph-name="ncommaaccent" unicode="&#x146;" horiz-adv-x="637" 
d="M558 0h-116q2 292 2 312q0 69 -21 104t-78 35q-95 0 -144 -101v-350h-116v391l-8 150h97l15 -88q23 37 68 68.5t110 31.5q104 0 148.5 -51t44.5 -179zM296 -278h-99q28 54 47 121q8 27 12.5 51.5t5.5 35.5v12h114q-4 -48 -23 -107q-11 -32 -25 -60.5t-23 -40.5z" />
    <glyph glyph-name="Ncaron" unicode="&#x147;" horiz-adv-x="740" 
d="M653 -1h-99v1l-33 -1l-331 555l11 -554h-114l1 714h99v-1l34 1l329 -552l-11 552h114v-715zM427 760h-114l-105 138h103l59 -63l60 63h102z" />
    <glyph glyph-name="ncaron" unicode="&#x148;" horiz-adv-x="637" 
d="M558 0h-116q2 292 2 312q0 69 -21 104t-78 35q-95 0 -144 -101v-350h-116v391l-8 150h97l15 -88q23 37 68 68.5t110 31.5q104 0 148.5 -51t44.5 -179zM384 617h-99l-120 158h110l60 -79l60 79h110z" />
    <glyph glyph-name="Eng" unicode="&#x14a;" horiz-adv-x="740" 
d="M416 -227h-62v106h70q119 0 119 121l-353 558l11 -558h-114l1 714h99v-1l34 1l329 -552l-11 552h114v-715q0 -49 -10 -86.5t-35 -70.5t-73.5 -51t-118.5 -18z" />
    <glyph glyph-name="eng" unicode="&#x14b;" horiz-adv-x="637" 
d="M558 0h-116q2 292 2 312l116 11l-1 -105v-173q0 -54 -3 -89t-12 -66t-24.5 -48t-42.5 -29.5t-63.5 -17t-89.5 -4.5v98q25 0 43 3t31 7t21 15t12.5 19.5t7 29.5t3 35.5t0.5 46.5l2 267q0 69 -21 104t-78 35q-95 0 -144 -101v-350h-116v391l-8 150h97l15 -88q23 37 68 68.5
t110 31.5q104 0 148.5 -51t44.5 -179z" />
    <glyph glyph-name="Omacron" unicode="&#x14c;" horiz-adv-x="715" 
d="M60 356q0 193 69 285t228 92t228.5 -92t69.5 -285q0 -192 -69 -283t-229 -91q-159 0 -228 91t-69 283zM534 356q0 146 -40 209t-137 63t-137 -63t-40 -209q0 -145 40 -207t137 -62t137 62t40 207zM493 790h-273v90h273v-90z" />
    <glyph glyph-name="omacron" unicode="&#x14d;" horiz-adv-x="612" 
d="M305 -14q-137 0 -195 73t-58 210t58 211t195 74q137 1 196 -73.5t59 -211.5q0 -136 -58.5 -209.5t-196.5 -73.5zM305 79q75 0 105 45t30 145t-30 146t-105 46q-74 0 -104.5 -46.5t-30.5 -145.5q0 -100 30 -145t105 -45zM440 637h-273v89h273v-89z" />
    <glyph glyph-name="Obreve" unicode="&#x14e;" horiz-adv-x="715" 
d="M60 356q0 193 69 285t228 92t228.5 -92t69.5 -285q0 -192 -69 -283t-229 -91q-159 0 -228 91t-69 283zM534 356q0 146 -40 209t-137 63t-137 -63t-40 -209q0 -145 40 -207t137 -62t137 62t40 207zM420 902h89q0 -58 -39 -96t-113 -38t-113 38t-39 96h90q0 -20 17 -36
t45 -16t45.5 16t17.5 36z" />
    <glyph glyph-name="obreve" unicode="&#x14f;" horiz-adv-x="612" 
d="M305 -14q-137 0 -195 73t-58 210t58 211t195 74q137 1 196 -73.5t59 -211.5q0 -136 -58.5 -209.5t-196.5 -73.5zM305 79q75 0 105 45t30 145t-30 146t-105 46q-74 0 -104.5 -46.5t-30.5 -145.5q0 -100 30 -145t105 -45zM368 751h88q0 -61 -40.5 -100t-111.5 -39
t-111.5 39t-40.5 100h90q0 -20 17 -37t45 -17t46 17t18 37z" />
    <glyph glyph-name="Ohungarumlaut" unicode="&#x150;" horiz-adv-x="715" 
d="M60 356q0 193 69 285t228 92t228.5 -92t69.5 -285q0 -192 -69 -283t-229 -91q-159 0 -228 91t-69 283zM534 356q0 146 -40 209t-137 63t-137 -63t-40 -209q0 -145 40 -207t137 -62t137 62t40 207zM313 768h-105l78 154h129zM483 768h-105l95 154h129z" />
    <glyph glyph-name="ohungarumlaut" unicode="&#x151;" horiz-adv-x="612" 
d="M305 -14q-137 0 -195 73t-58 210t58 211t195 74q137 1 196 -73.5t59 -211.5q0 -136 -58.5 -209.5t-196.5 -73.5zM305 79q75 0 105 45t30 145t-30 146t-105 46q-74 0 -104.5 -46.5t-30.5 -145.5q0 -100 30 -145t105 -45zM256 615h-105l78 158h128zM426 615h-105l95 158
h129z" />
    <glyph glyph-name="OE" unicode="&#x152;" horiz-adv-x="979" 
d="M947 0h-605q-147 0 -214.5 89t-67.5 267t67.5 268t214.5 90h599v-105h-356v-190h306v-102h-306v-212h362v-105zM466 98v518h-109q-97 0 -137 -61.5t-40 -198.5t40 -197.5t137 -60.5h109z" />
    <glyph glyph-name="oe" unicode="&#x153;" horiz-adv-x="979" 
d="M927 244h-113l-265 1q3 -88 32 -129t98 -41q65 0 95.5 30t32.5 65h116q0 -30 -12 -60t-38 -59t-76.5 -47t-117.5 -18q-131 0 -185 74q-57 -74 -189 -74q-137 0 -195 73t-58 210t58 211t195 74q133 0 189 -75q55 75 185 75q131 0 189.5 -75.5t58.5 -234.5zM305 79
q75 0 105 45t30 145t-30 146t-105 46q-74 0 -104.5 -46.5t-30.5 -145.5q0 -100 30 -145t105 -45zM551 328h258q-9 72 -40 106t-90 34q-61 0 -91 -34.5t-37 -105.5z" />
    <glyph glyph-name="Racute" unicode="&#x154;" horiz-adv-x="682" 
d="M652 0h-136l-129 255q-17 -1 -54 -1h-125v-254h-121v715h249q117 0 179 -23t85.5 -70.5t23.5 -136.5q0 -92 -26.5 -141.5t-92.5 -70.5zM208 359h125q100 0 133 25q37 28 37 101q0 63 -27 92q-20 21 -53.5 27t-89.5 6h-125v-251zM384 760h-105l79 154h129z" />
    <glyph glyph-name="racute" unicode="&#x155;" horiz-adv-x="412" 
d="M201 0h-116v384l-8 157h97l17 -103q7 18 18 35t32.5 37t58.5 32t84 12v-108q-40 0 -72.5 -12t-51.5 -28.5t-32.5 -38.5t-18.5 -37t-8 -30v-300zM260 617h-105l79 158h129z" />
    <glyph glyph-name="Rcommaaccent" unicode="&#x156;" horiz-adv-x="682" 
d="M652 0h-136l-129 255q-17 -1 -54 -1h-125v-254h-121v715h249q117 0 179 -23t85.5 -70.5t23.5 -136.5q0 -92 -26.5 -141.5t-92.5 -70.5zM208 359h125q100 0 133 25q37 28 37 101q0 63 -27 92q-20 21 -53.5 27t-89.5 6h-125v-251zM332 -278h-99q28 54 47 121
q8 27 12.5 51.5t5.5 35.5v12h114q-4 -48 -23 -107q-11 -32 -25 -60.5t-23 -40.5z" />
    <glyph glyph-name="rcommaaccent" unicode="&#x157;" horiz-adv-x="412" 
d="M201 0h-116v384l-8 157h97l17 -103q7 18 18 35t32.5 37t58.5 32t84 12v-108q-40 0 -72.5 -12t-51.5 -28.5t-32.5 -38.5t-18.5 -37t-8 -30v-300zM118 -278h-99q28 54 47 121q8 27 12.5 51.5t5.5 35.5v12h114q-4 -48 -23 -107q-11 -32 -25 -60.5t-23 -40.5z" />
    <glyph glyph-name="Rcaron" unicode="&#x158;" horiz-adv-x="682" 
d="M652 0h-136l-129 255q-17 -1 -54 -1h-125v-254h-121v715h249q117 0 179 -23t85.5 -70.5t23.5 -136.5q0 -92 -26.5 -141.5t-92.5 -70.5zM208 359h125q100 0 133 25q37 28 37 101q0 63 -27 92q-20 21 -53.5 27t-89.5 6h-125v-251zM387 760h-114l-105 138h103l59 -63l60 63
h102z" />
    <glyph glyph-name="rcaron" unicode="&#x159;" horiz-adv-x="412" 
d="M201 0h-116v384l-8 157h97l17 -103q7 18 18 35t32.5 37t58.5 32t84 12v-108q-40 0 -72.5 -12t-51.5 -28.5t-32.5 -38.5t-18.5 -37t-8 -30v-300zM264 617h-99l-120 158h110l60 -79l60 79h110z" />
    <glyph glyph-name="Sacute" unicode="&#x15a;" horiz-adv-x="637" 
d="M582 512h-114q0 48 -37 82t-110 34q-76 1 -107.5 -27t-31.5 -70q0 -36 23 -60t59.5 -36t81 -22.5t89 -24.5t81 -35.5t59.5 -62.5t23 -99q0 -210 -279 -209q-276 0 -276 241h115q0 -65 42.5 -100.5t115.5 -35.5q82 -1 120 26.5t38 72.5q0 36 -23 60t-59.5 36t-80.5 22
t-88 24.5t-80.5 36.5t-59.5 65.5t-23 104.5q0 199 257 198q133 0 199 -57t66 -164zM376 768h-105l79 154h129z" />
    <glyph glyph-name="sacute" unicode="&#x15b;" horiz-adv-x="551" 
d="M497 382h-104q0 83 -113 84q-57 0 -81 -19t-24 -47q0 -29 25 -47.5t62.5 -25t81 -18t81 -25.5t62.5 -48.5t25 -86.5q0 -163 -235 -162q-229 0 -229 189h104q0 -100 124 -102q59 0 88.5 18t29.5 49q0 24 -14.5 40.5t-38 24t-53.5 15.5t-61.5 13.5t-61.5 17.5t-54 29
t-38.5 47.5t-14.5 71.5q0 72 56 113t163 40q220 0 220 -171zM324 617h-105l79 158h129z" />
    <glyph glyph-name="Scircumflex" unicode="&#x15c;" horiz-adv-x="637" 
d="M582 512h-114q0 48 -37 82t-110 34q-76 1 -107.5 -27t-31.5 -70q0 -36 23 -60t59.5 -36t81 -22.5t89 -24.5t81 -35.5t59.5 -62.5t23 -99q0 -210 -279 -209q-276 0 -276 241h115q0 -65 42.5 -100.5t115.5 -35.5q82 -1 120 26.5t38 72.5q0 36 -23 60t-59.5 36t-80.5 22
t-88 24.5t-80.5 36.5t-59.5 65.5t-23 104.5q0 199 257 198q133 0 199 -57t66 -164zM484 768h-102l-60 62l-59 -62h-103l105 138h114z" />
    <glyph glyph-name="scircumflex" unicode="&#x15d;" horiz-adv-x="551" 
d="M497 382h-104q0 83 -113 84q-57 0 -81 -19t-24 -47q0 -29 25 -47.5t62.5 -25t81 -18t81 -25.5t62.5 -48.5t25 -86.5q0 -163 -235 -162q-229 0 -229 189h104q0 -100 124 -102q59 0 88.5 18t29.5 49q0 24 -14.5 40.5t-38 24t-53.5 15.5t-61.5 13.5t-61.5 17.5t-54 29
t-38.5 47.5t-14.5 71.5q0 72 56 113t163 40q220 0 220 -171zM449 617h-110l-60 78l-60 -78h-110l120 158h99z" />
    <glyph glyph-name="Scedilla" unicode="&#x15e;" horiz-adv-x="637" 
d="M582 512h-114q0 48 -37 82t-110 34q-76 1 -107.5 -27t-31.5 -70q0 -36 23 -60t59.5 -36t81 -22.5t89 -24.5t81 -35.5t59.5 -62.5t23 -99q0 -210 -279 -209q-276 0 -276 241h115q0 -65 42.5 -100.5t115.5 -35.5q82 -1 120 26.5t38 72.5q0 36 -23 60t-59.5 36t-80.5 22
t-88 24.5t-80.5 36.5t-59.5 65.5t-23 104.5q0 199 257 198q133 0 199 -57t66 -164zM218 -239v71q20 -6 64 -6q57 0 57 40t-102 40h-3l51 95h94l-33 -55q91 -9 91 -87q0 -104 -131 -104q-30 0 -52 1.5t-29 3.5z" />
    <glyph glyph-name="scedilla" unicode="&#x15f;" horiz-adv-x="551" 
d="M497 382h-104q0 83 -113 84q-57 0 -81 -19t-24 -47q0 -29 25 -47.5t62.5 -25t81 -18t81 -25.5t62.5 -48.5t25 -86.5q0 -163 -235 -162q-229 0 -229 189h104q0 -100 124 -102q59 0 88.5 18t29.5 49q0 24 -14.5 40.5t-38 24t-53.5 15.5t-61.5 13.5t-61.5 17.5t-54 29
t-38.5 47.5t-14.5 71.5q0 72 56 113t163 40q220 0 220 -171zM175 -237v71q20 -6 64 -6q57 0 57 40t-102 40h-3l51 95h94l-33 -55q91 -9 91 -87q0 -104 -131 -104q-30 0 -52 1.5t-29 3.5z" />
    <glyph glyph-name="Scaron" unicode="&#x160;" horiz-adv-x="637" 
d="M582 512h-114q0 48 -37 82t-110 34q-76 1 -107.5 -27t-31.5 -70q0 -36 23 -60t59.5 -36t81 -22.5t89 -24.5t81 -35.5t59.5 -62.5t23 -99q0 -210 -279 -209q-276 0 -276 241h115q0 -65 42.5 -100.5t115.5 -35.5q82 -1 120 26.5t38 72.5q0 36 -23 60t-59.5 36t-80.5 22
t-88 24.5t-80.5 36.5t-59.5 65.5t-23 104.5q0 199 257 198q133 0 199 -57t66 -164zM379 768h-114l-105 138h103l59 -63l60 63h102z" />
    <glyph glyph-name="scaron" unicode="&#x161;" horiz-adv-x="551" 
d="M497 382h-104q0 83 -113 84q-57 0 -81 -19t-24 -47q0 -29 25 -47.5t62.5 -25t81 -18t81 -25.5t62.5 -48.5t25 -86.5q0 -163 -235 -162q-229 0 -229 189h104q0 -100 124 -102q59 0 88.5 18t29.5 49q0 24 -14.5 40.5t-38 24t-53.5 15.5t-61.5 13.5t-61.5 17.5t-54 29
t-38.5 47.5t-14.5 71.5q0 72 56 113t163 40q220 0 220 -171zM328 617h-99l-120 158h110l60 -79l60 79h110z" />
    <glyph glyph-name="uni0162" unicode="&#x162;" horiz-adv-x="557" 
d="M335 0h-119l2 604h-200v110h522v-110h-203zM154 -238v71q20 -6 64 -6q57 0 57 40t-102 40h-3l51 95h94l-33 -55q91 -9 91 -87q0 -104 -131 -104q-30 0 -52 1.5t-29 2.5z" />
    <glyph glyph-name="uni0163" unicode="&#x163;" horiz-adv-x="384" 
d="M350 -4h-75q-57 0 -94 16.5t-54 49.5t-22.5 66.5t-5.5 83.5v236h-69v93h69v145l116 21v-166h129v-93h-129v-236q0 -69 17 -95.5t59 -26.5h59v-94zM125 -227v71q20 -6 64 -6q57 0 57 40t-102 40h-3l51 95h94l-33 -55q91 -9 91 -87q0 -104 -131 -104q-30 0 -52 1.5t-29 3.5
z" />
    <glyph glyph-name="Tcaron" unicode="&#x164;" horiz-adv-x="557" 
d="M335 0h-119l2 604h-200v110h522v-110h-203zM336 760h-114l-105 138h103l59 -63l60 63h102z" />
    <glyph glyph-name="tcaron" unicode="&#x165;" horiz-adv-x="384" 
d="M350 -4h-75q-57 0 -94 16.5t-54 49.5t-22.5 66.5t-5.5 83.5v236h-69v93h69v145l116 21v-166h129v-93h-129v-236q0 -69 17 -95.5t59 -26.5h59v-94zM338 588h-88l68 188h112z" />
    <glyph glyph-name="Tbar" unicode="&#x166;" horiz-adv-x="562" 
d="M337 0h-119l1 316h-117v93h118v195h-200v110h522v-110h-203v-195h121v-93h-122z" />
    <glyph glyph-name="tbar" unicode="&#x167;" horiz-adv-x="384" 
d="M350 -4h-75q-57 0 -94 16.5t-54 49.5t-22.5 66.5t-5.5 83.5v236h-69v93h69v145l116 21v-166h129v-93h-129v-236q0 -69 17 -95.5t59 -26.5h59v-94zM343 248h-318v78h318v-78z" />
    <glyph glyph-name="Utilde" unicode="&#x168;" horiz-adv-x="706" 
d="M508 341v373h122v-373q0 -190 -64 -274.5t-213 -84.5q-150 0 -213.5 84.5t-63.5 274.5v373h119v-373q0 -143 34.5 -198.5t122.5 -55.5q87 0 121.5 55.5t34.5 198.5zM448 900h61q0 -68 -21 -102t-74 -34q-31 0 -61 19t-47 19q-26 0 -38 -14.5t-12 -27.5h-59q0 132 97 132
q31 0 59.5 -17t45.5 -17q26 0 37.5 14.5t11.5 27.5z" />
    <glyph glyph-name="utilde" unicode="&#x169;" horiz-adv-x="623" 
d="M549 0h-98l-16 94q-13 -22 -32.5 -43t-60.5 -42.5t-88 -21.5q-100 0 -145.5 51t-45.5 173l2 330h115q-1 -292 -1 -312q0 -70 20 -105t77 -35q32 0 58.5 12.5t44.5 32.5t28.5 36t17.5 33v338h116v-391zM402 749h60q0 -67 -20.5 -97.5t-74.5 -30.5q-31 0 -61 19t-47 19
q-26 0 -38 -14.5t-12 -27.5h-59q0 124 97 124q31 0 59.5 -17t45.5 -17q26 0 38 14.5t12 27.5z" />
    <glyph glyph-name="Umacron" unicode="&#x16a;" horiz-adv-x="706" 
d="M508 341v373h122v-373q0 -190 -64 -274.5t-213 -84.5q-150 0 -213.5 84.5t-63.5 274.5v373h119v-373q0 -143 34.5 -198.5t122.5 -55.5q87 0 121.5 55.5t34.5 198.5zM489 782h-273v90h273v-90z" />
    <glyph glyph-name="umacron" unicode="&#x16b;" horiz-adv-x="623" 
d="M549 0h-98l-16 94q-13 -22 -32.5 -43t-60.5 -42.5t-88 -21.5q-100 0 -145.5 51t-45.5 173l2 330h115q-1 -292 -1 -312q0 -70 20 -105t77 -35q32 0 58.5 12.5t44.5 32.5t28.5 36t17.5 33v338h116v-391zM442 639h-273v89h273v-89z" />
    <glyph glyph-name="Ubreve" unicode="&#x16c;" horiz-adv-x="706" 
d="M508 341v373h122v-373q0 -190 -64 -274.5t-213 -84.5q-150 0 -213.5 84.5t-63.5 274.5v373h119v-373q0 -143 34.5 -198.5t122.5 -55.5q87 0 121.5 55.5t34.5 198.5zM416 894h89q0 -58 -39 -96t-113 -38t-113 38t-39 96h90q0 -20 17 -36t45 -16t45.5 16t17.5 36z" />
    <glyph glyph-name="ubreve" unicode="&#x16d;" horiz-adv-x="623" 
d="M549 0h-98l-16 94q-13 -22 -32.5 -43t-60.5 -42.5t-88 -21.5q-100 0 -145.5 51t-45.5 173l2 330h115q-1 -292 -1 -312q0 -70 20 -105t77 -35q32 0 58.5 12.5t44.5 32.5t28.5 36t17.5 33v338h116v-391zM370 753h88q0 -61 -40.5 -100t-111.5 -39t-111.5 39t-40.5 100h90
q0 -20 17 -37t45 -17t46 17t18 37z" />
    <glyph glyph-name="Uring" unicode="&#x16e;" horiz-adv-x="706" 
d="M508 341v373h122v-373q0 -190 -64 -274.5t-213 -84.5q-150 0 -213.5 84.5t-63.5 274.5v373h119v-373q0 -143 34.5 -198.5t122.5 -55.5q87 0 121.5 55.5t34.5 198.5zM449 851q0 -41 -25.5 -66t-70.5 -25t-70 25t-25 66t25 66t70 25t70.5 -25t25.5 -66zM353 817
q15 0 24.5 9t9.5 25t-9.5 25t-24.5 9t-24 -9.5t-9 -24.5t9 -24.5t24 -9.5z" />
    <glyph glyph-name="uring" unicode="&#x16f;" horiz-adv-x="623" 
d="M549 0h-98l-16 94q-13 -22 -32.5 -43t-60.5 -42.5t-88 -21.5q-100 0 -145.5 51t-45.5 173l2 330h115q-1 -292 -1 -312q0 -70 20 -105t77 -35q32 0 58.5 12.5t44.5 32.5t28.5 36t17.5 33v338h116v-391zM418 716q0 -44 -28.5 -75t-82.5 -31t-82.5 31t-28.5 75t28.5 75.5
t82.5 31.5t82.5 -31.5t28.5 -75.5zM306 682q15 0 24.5 9.5t9.5 24.5q0 16 -9.5 25.5t-24.5 9.5q-14 0 -23.5 -9.5t-9.5 -25.5q0 -15 9.5 -24.5t23.5 -9.5z" />
    <glyph glyph-name="Uhungarumlaut" unicode="&#x170;" horiz-adv-x="706" 
d="M508 341v373h122v-373q0 -190 -64 -274.5t-213 -84.5q-150 0 -213.5 84.5t-63.5 274.5v373h119v-373q0 -143 34.5 -198.5t122.5 -55.5q87 0 121.5 55.5t34.5 198.5zM309 760h-105l78 154h129zM479 760h-105l95 154h129z" />
    <glyph glyph-name="uhungarumlaut" unicode="&#x171;" horiz-adv-x="623" 
d="M549 0h-98l-16 94q-13 -22 -32.5 -43t-60.5 -42.5t-88 -21.5q-100 0 -145.5 51t-45.5 173l2 330h115q-1 -292 -1 -312q0 -70 20 -105t77 -35q32 0 58.5 12.5t44.5 32.5t28.5 36t17.5 33v338h116v-391zM258 617h-105l78 158h128zM428 617h-105l95 158h129z" />
    <glyph glyph-name="Uogonek" unicode="&#x172;" horiz-adv-x="706" 
d="M508 341v373h122v-373q0 -190 -64 -274.5t-213 -84.5q-150 0 -213.5 84.5t-63.5 274.5v373h119v-373q0 -143 34.5 -198.5t122.5 -55.5q87 0 121.5 55.5t34.5 198.5zM533 -89v-64q0 -1 -11 -7.5t-35.5 -13t-52.5 -6.5q-43 0 -64 22t-21 57q0 37 23.5 70t46.5 47l23 15
l80 -7l-3 -2q-3 -1 -7 -3.5l-9.5 -6t-11 -8t-11.5 -10.5t-11 -12.5t-8.5 -14t-6 -17t-2.5 -18.5q0 -14 8.5 -24t24.5 -10q11 0 23 3t18 7z" />
    <glyph glyph-name="uogonek" unicode="&#x173;" horiz-adv-x="623" 
d="M549 0h-98l-16 94q-13 -22 -32.5 -43t-60.5 -42.5t-88 -21.5q-100 0 -145.5 51t-45.5 173l2 330h115q-1 -292 -1 -312q0 -70 20 -105t77 -35q32 0 58.5 12.5t44.5 32.5t28.5 36t17.5 33v338h116v-391zM554 -112v-64q0 -1 -11 -7.5t-35.5 -13t-52.5 -6.5q-43 0 -64 22
t-21 57q0 23 9.5 45.5t23 37.5t27.5 26.5t24 16.5l9 6l80 -7l-3 -1l-7 -4.5l-9.5 -6t-11 -8t-11.5 -10.5t-11 -12.5t-8.5 -14t-6 -17t-2.5 -18.5q0 -14 8.5 -24t24.5 -10q11 0 23 3.5t19 6.5z" />
    <glyph glyph-name="Wcircumflex" unicode="&#x174;" horiz-adv-x="987" 
d="M766 0h-123l-155 541l-152 -541h-115l-218 714h132l145 -562l150 562h121l161 -569l146 569h125zM660 760h-102l-60 62l-59 -62h-103l105 138h114z" />
    <glyph glyph-name="wcircumflex" unicode="&#x175;" horiz-adv-x="772" 
d="M598 0h-97l-114 400l-108 -400h-100l-177 541h120l110 -399l106 399h107l106 -397l108 397h111zM558 617h-110l-60 78l-60 -78h-110l120 158h99z" />
    <glyph glyph-name="Ycircumflex" unicode="&#x176;" horiz-adv-x="638" 
d="M384 0h-120v251l-261 463h139l183 -344l176 344h133l-250 -461v-253zM478 760h-102l-60 62l-59 -62h-103l105 138h114z" />
    <glyph glyph-name="ycircumflex" unicode="&#x177;" horiz-adv-x="552" 
d="M269 -220h-105l74 220h-32l-200 541h131l138 -432l147 432h124zM439 617h-110l-60 78l-60 -78h-110l120 158h99z" />
    <glyph glyph-name="Ydieresis" unicode="&#x178;" horiz-adv-x="638" 
d="M384 0h-120v251l-261 463h139l183 -344l176 344h133l-250 -461v-253zM283 760h-116v139h116v-139zM465 760h-116v139h116v-139z" />
    <glyph glyph-name="Zacute" unicode="&#x179;" horiz-adv-x="590" 
d="M559 3h-531v120l400 484h-383v105h510v-121l-401 -483h405v-105zM351 760h-105l79 154h129z" />
    <glyph glyph-name="zacute" unicode="&#x17a;" horiz-adv-x="495" 
d="M456 3h-422v94v23l306 325h-296v92h412v-91h-1l1 -25l-304 -324l304 1v-95zM292 617h-105l79 158h129z" />
    <glyph glyph-name="Zdotaccent" unicode="&#x17b;" horiz-adv-x="590" 
d="M559 3h-531v120l400 484h-383v105h510v-121l-401 -483h405v-105zM355 760h-116v139h116v-139z" />
    <glyph glyph-name="zdotaccent" unicode="&#x17c;" horiz-adv-x="495" 
d="M456 3h-422v94v23l306 325h-296v92h412v-91h-1l1 -25l-304 -324l304 1v-95zM305 618h-116v140h116v-140z" />
    <glyph glyph-name="Zcaron" unicode="&#x17d;" horiz-adv-x="590" 
d="M559 3h-531v120l400 484h-383v105h510v-121l-401 -483h405v-105zM354 760h-114l-105 138h103l59 -63l60 63h102z" />
    <glyph glyph-name="zcaron" unicode="&#x17e;" horiz-adv-x="495" 
d="M456 3h-422v94v23l306 325h-296v92h412v-91h-1l1 -25l-304 -324l304 1v-95zM296 617h-99l-120 158h110l60 -79l60 79h110z" />
    <glyph glyph-name="uni018F" unicode="&#x18f;" horiz-adv-x="715" 
d="M180 370l354 -1q-2 139 -41.5 199t-135.5 60q-76 0 -116 -37.5t-53 -121.5h-121q17 135 86.5 199.5t203.5 64.5q159 0 228.5 -92t69.5 -285q0 -192 -69 -283t-229 -91t-228.5 93t-68.5 295h120zM531 286h-348q9 -107 49.5 -153t124.5 -46q85 0 125.5 46.5t48.5 152.5z
" />
    <glyph glyph-name="uni019D" unicode="&#x19d;" horiz-adv-x="740" 
d="M654 -1h-99v1l-26 -1l-339 556l11 -544h1q0 -53 -9.5 -93t-33.5 -74.5t-69.5 -52.5t-112.5 -18h-63v106h70q58 0 79.5 28.5t23.5 92.5v11l1 703h99v-1l34 1l330 -554l-11 554h114v-715z" />
    <glyph glyph-name="Gcaron" unicode="&#x1e6;" horiz-adv-x="690" 
d="M512 132v127h-126v99h238v-268q0 -6 -9.5 -18t-31 -27.5t-51.5 -29.5t-77.5 -23.5t-101.5 -9.5q-157 -1 -225 88.5t-68 285.5q0 195 68 286t225 91q271 0 271 -255h-115q-2 73 -42 111.5t-114 38.5q-94 0 -133.5 -63t-39.5 -209q0 -145 41.5 -207t140.5 -62q45 0 81.5 9
t52.5 19t16 17zM405 768h-114l-105 138h103l59 -63l60 63h102z" />
    <glyph glyph-name="gcaron" unicode="&#x1e7;" horiz-adv-x="637" 
d="M439 -2v56q-57 -64 -168 -64q-115 0 -167 71t-52 209t52 209.5t167 71.5q65 0 110.5 -30t68.5 -64l14 84h97l-6 -156v-387q0 -30 -0.5 -46.5t-5.5 -45.5t-14 -46t-27.5 -38.5t-45 -33t-68 -20t-94.5 -8.5q-151 0 -200 97q-20 41 -20 89h108v-14t6 -23.5t17 -29.5
t36.5 -21t60.5 -10q65 0 95 25q22 18 29 47.5t7 77.5zM439 191v167q-49 100 -146 100q-122 0 -122 -188q0 -187 122 -187q64 0 99.5 32t46.5 76zM363 617h-99l-120 158h110l60 -79l60 79h110z" />
    <glyph glyph-name="uni01EA" unicode="&#x1ea;" horiz-adv-x="715" 
d="M60 356q0 193 69 285t228 92t228.5 -92t69.5 -285q0 -192 -69 -283t-229 -91q-159 0 -228 91t-69 283zM534 356q0 146 -40 209t-137 63t-137 -63t-40 -209q0 -145 40 -207t137 -62t137 62t40 207zM526 -99v-64q0 -1 -11 -7.5t-35.5 -13t-52.5 -6.5q-43 0 -64 22t-21 57
q0 23 9.5 45.5t23 37.5t27.5 26.5t24 17.5l9 5l80 -7l-3 -2q-3 -1 -7 -3.5l-9.5 -6t-11 -8t-11.5 -10.5t-11 -12.5t-8.5 -14t-6 -17t-2.5 -18.5q0 -14 8.5 -24t24.5 -10q11 0 23 3t19 7z" />
    <glyph glyph-name="uni01EB" unicode="&#x1eb;" horiz-adv-x="612" 
d="M305 -14q-137 0 -195 73t-58 210t58 211t195 74q137 1 196 -73.5t59 -211.5q0 -136 -58.5 -209.5t-196.5 -73.5zM305 79q75 0 105 45t30 145t-30 146t-105 46q-74 0 -104.5 -46.5t-30.5 -145.5q0 -100 30 -145t105 -45zM482 -81v-64q0 -1 -11 -7.5t-35.5 -13t-52.5 -6.5
q-43 0 -64 22t-21 57q0 23 9.5 45.5t23 37.5t27.5 26.5t24 17.5l9 5l80 -7l-3 -2q-3 -1 -7 -3.5l-9.5 -6t-11 -8t-11.5 -10.5t-11 -12.5t-8.5 -14t-6 -17t-2.5 -18.5q0 -14 8.5 -24t24.5 -10q11 0 23 3t19 7z" />
    <glyph glyph-name="Aringacute" unicode="&#x1fa;" horiz-adv-x="659" 
d="M655 0h-126l-57 162h-293l-57 -162h-119l270 714h114zM432 275l-107 300l-106 -300h213zM425 851q0 -41 -25.5 -66t-70.5 -25t-70 25t-25 66t25 66t70 25t70.5 -25t25.5 -66zM329 817q15 0 24.5 9t9.5 25t-9.5 25t-24.5 9t-24 -9.5t-9 -24.5t9 -24.5t24 -9.5zM383 988
h-105l79 154h129z" />
    <glyph glyph-name="aringacute" unicode="&#x1fb;" horiz-adv-x="610" 
d="M535 1h-97l-13 64q-57 -76 -181 -76q-99 0 -143.5 40t-44.5 124q0 64 30 102q19 24 49.5 39t80 20.5t86.5 6.5t108 1q-1 49 -5.5 76t-19.5 43q-24 25 -83 25q-65 0 -92 -28.5t-27 -63.5h-104q0 22 3.5 42.5t17 46.5t36 44t64 31t97.5 13q121 0 174 -45q34 -29 44.5 -77.5
t10.5 -129.5v-31v-126zM410 160v86q-47 0 -72 -0.5t-58.5 -3.5t-50.5 -9t-34 -16.5t-23.5 -27t-6.5 -39.5q0 -81 103 -81q110 0 142 91zM414 716q0 -44 -28.5 -75t-82.5 -31t-82.5 31t-28.5 75t28.5 75.5t82.5 31.5t82.5 -31.5t28.5 -75.5zM302 682q15 0 24.5 9.5t9.5 24.5
q0 16 -9.5 25.5t-24.5 9.5q-14 0 -23.5 -9.5t-9.5 -25.5q0 -15 9.5 -24.5t23.5 -9.5zM350 869h-105l79 158h129z" />
    <glyph glyph-name="AEacute" unicode="&#x1fc;" horiz-adv-x="945" 
d="M914 0h-474v162h-222l-88 -162h-127l396 714h509v-105h-357v-190h307v-102h-307v-212h363v-105zM440 275v293l-160 -293h160zM539 760h-105l79 154h129z" />
    <glyph glyph-name="aeacute" unicode="&#x1fd;" horiz-adv-x="950" 
d="M898 246h-113l-265 1q2 -89 31 -130.5t99 -41.5q65 0 95.5 30t32.5 65h116q0 -30 -12 -60t-38 -59t-76.5 -47t-117.5 -18q-155 0 -212 101q-51 -98 -194 -98q-99 0 -143.5 40.5t-44.5 125.5q0 36 10 63t23.5 45t42 30t51 18.5t66.5 9.5t72 3h83q3 32 9 60q-7 44 -32 63
t-79 19q-65 0 -92 -28.5t-27 -63.5h-104q0 22 3.5 42.5t17 46.5t36 44t64 31t97.5 13q122 0 164 -67q61 70 189 70q131 0 189.5 -75t58.5 -233zM411 166q-7 37 -9 83q-44 0 -69.5 -1t-57 -3.5t-48.5 -9t-33 -17t-22.5 -26.5t-6.5 -39q0 -84 103 -84q52 0 90.5 24t52.5 73z
M523 330h257q-10 71 -40.5 104.5t-89.5 33.5q-61 0 -90.5 -34.5t-36.5 -103.5zM527 617h-105l79 158h129z" />
    <glyph glyph-name="Oslashacute" unicode="&#x1fe;" horiz-adv-x="715" 
d="M60 356q0 193 69 285t228 92t228.5 -92t69.5 -285q0 -192 -69 -283t-229 -91q-159 0 -228 91t-69 283zM534 356q0 146 -40 209t-137 63t-137 -63t-40 -209q0 -145 40 -207t137 -62t137 62t40 207zM155 -14h-103l505 741h103zM410 768h-105l79 154h129z" />
    <glyph glyph-name="oslashacute" unicode="&#x1ff;" horiz-adv-x="612" 
d="M305 -14q-137 0 -195 73t-58 210t58 211t195 74q137 1 196 -73.5t59 -211.5q0 -136 -58.5 -209.5t-196.5 -73.5zM305 79q75 0 105 45t30 145t-30 146t-105 46q-74 0 -104.5 -46.5t-30.5 -145.5q0 -100 30 -145t105 -45zM146 -11h-92l408 560h92zM349 615h-105l79 158h129
z" />
    <glyph glyph-name="Scommaaccent" unicode="&#x218;" horiz-adv-x="637" 
d="M582 512h-114q0 48 -37 82t-110 34q-76 1 -107.5 -27t-31.5 -70q0 -36 23 -60t59.5 -36t81 -22.5t89 -24.5t81 -35.5t59.5 -62.5t23 -99q0 -210 -279 -209q-276 0 -276 241h115q0 -65 42.5 -100.5t115.5 -35.5q82 -1 120 26.5t38 72.5q0 36 -23 60t-59.5 36t-80.5 22
t-88 24.5t-80.5 36.5t-59.5 65.5t-23 104.5q0 199 257 198q133 0 199 -57t66 -164zM318 -280h-99q28 54 47 121q8 27 12.5 51.5t5.5 35.5v12h114q-4 -48 -23 -107q-11 -32 -25 -60.5t-23 -40.5z" />
    <glyph glyph-name="scommaaccent" unicode="&#x219;" horiz-adv-x="551" 
d="M497 382h-104q0 83 -113 84q-57 0 -81 -19t-24 -47q0 -29 25 -47.5t62.5 -25t81 -18t81 -25.5t62.5 -48.5t25 -86.5q0 -163 -235 -162q-229 0 -229 189h104q0 -100 124 -102q59 0 88.5 18t29.5 49q0 24 -14.5 40.5t-38 24t-53.5 15.5t-61.5 13.5t-61.5 17.5t-54 29
t-38.5 47.5t-14.5 71.5q0 72 56 113t163 40q220 0 220 -171zM275 -278h-99q28 54 47 121q8 27 12.5 51.5t4.5 35.5l1 12h114q-4 -48 -23 -107q-11 -32 -25 -60.5t-23 -40.5z" />
    <glyph glyph-name="uni021A" unicode="&#x21a;" horiz-adv-x="562" 
d="M337 0h-119l2 604h-200v110h522v-110h-203zM251 -279h-99q28 54 47 121q8 27 12.5 51.5t4.5 36.5l1 11h114q-4 -47 -23 -106q-11 -33 -25 -61.5t-23 -40.5z" />
    <glyph glyph-name="uni021B" unicode="&#x21b;" horiz-adv-x="384" 
d="M350 -4h-75q-57 0 -94 16.5t-54 49.5t-22.5 66.5t-5.5 83.5v236h-69v93h69v145l116 21v-166h129v-93h-129v-236q0 -69 17 -95.5t59 -26.5h59v-94zM225 -268h-99q28 54 47 121q8 27 12.5 51.5t4.5 35.5l1 12h114q-4 -48 -23 -107q-11 -32 -25 -60.5t-23 -40.5z" />
    <glyph glyph-name="uni0232" unicode="&#x232;" horiz-adv-x="638" 
d="M384 0h-120v251l-261 463h139l183 -344l176 344h133l-250 -461v-253zM452 782h-273v90h273v-90z" />
    <glyph glyph-name="uni0233" unicode="&#x233;" horiz-adv-x="552" 
d="M269 -220h-105l74 220h-32l-200 541h131l138 -432l147 432h124zM405 639h-273v89h273v-89z" />
    <glyph glyph-name="uni0237" unicode="&#x237;" horiz-adv-x="279" 
d="M-35 -212v97q35 0 57 6t35 14.5t18.5 30.5t7 42.5t1.5 62.5v500h116v-500q0 -81 -7 -125t-32.5 -75.5t-70.5 -42t-125 -10.5z" />
    <glyph glyph-name="uni0259" unicode="&#x259;" 
d="M165 296l265 -1q-3 88 -32 129.5t-98 41.5q-66 0 -96.5 -30.5t-31.5 -64.5h-117q0 30 12 60t38 58.5t76.5 46.5t117.5 18q134 0 191.5 -71t57.5 -211t-57.5 -213t-191.5 -73q-131 0 -189 75.5t-58 234.5h113zM427 212h-258q9 -72 40.5 -106t90.5 -34q61 0 90.5 34.5
t36.5 105.5z" />
    <glyph glyph-name="uni0272" unicode="&#x272;" horiz-adv-x="637" 
d="M558 0h-116q2 292 2 312q0 69 -21 104t-78 35q-53 0 -88.5 -30t-54.5 -69l-3 -352h-113v312l103 10l-10 111q0 6 11 21l12 -67v-35q-9 -18 -13 -30l12 1l-1 -221v-57q0 -54 -3 -89t-12 -66t-24.5 -48t-42.5 -29.5t-63.5 -17t-89.5 -4.5v98q25 0 43 3t31 7t21 15
t12.5 19.5t7 29.5t3 35.5t0.5 46.5l2 267h1v79l-8 150h97l15 -87q23 37 68 68t109 31q104 0 148.5 -51t44.5 -179zM189 321v1v-1z" />
    <glyph glyph-name="circumflex" unicode="&#x2c6;" horiz-adv-x="539" 
d="M377 617h-110l-60 78l-60 -78h-110l120 158h99z" />
    <glyph glyph-name="caron" unicode="&#x2c7;" horiz-adv-x="539" 
d="M256 617h-99l-120 158h110l60 -79l60 79h110z" />
    <glyph glyph-name="breve" unicode="&#x2d8;" horiz-adv-x="536" 
d="M237 753h88q0 -61 -40.5 -100t-111.5 -39t-111.5 39t-40.5 100h90q0 -20 17 -37t45 -17t46 17t18 37z" />
    <glyph glyph-name="dotaccent" unicode="&#x2d9;" horiz-adv-x="496" 
d="M188 618h-116v140h116v-140z" />
    <glyph glyph-name="ring" unicode="&#x2da;" horiz-adv-x="521" 
d="M260 716q0 -44 -28.5 -75t-82.5 -31t-82.5 31t-28.5 75t28.5 75.5t82.5 31.5t82.5 -31.5t28.5 -75.5zM148 682q15 0 24.5 9.5t9.5 24.5q0 16 -9.5 25.5t-24.5 9.5q-14 0 -23.5 -9.5t-9.5 -25.5q0 -15 9.5 -24.5t23.5 -9.5z" />
    <glyph glyph-name="ogonek" unicode="&#x2db;" horiz-adv-x="521" 
d="M204 -110v-64q0 -1 -11 -7.5t-35.5 -13t-52.5 -6.5q-43 0 -64 22t-21 57q0 23 9.5 45.5t23 37.5t27.5 26.5t24 16.5l9 6l80 -7l-3 -1l-7 -4.5l-9.5 -6t-11 -8t-11.5 -10.5t-11 -12.5t-8.5 -14t-6 -17t-2.5 -18.5q0 -14 8.5 -24t24.5 -10q11 0 23 3.5t19 6.5z" />
    <glyph glyph-name="tilde" unicode="&#x2dc;" horiz-adv-x="539" 
d="M315 749h60q0 -67 -20.5 -97.5t-74.5 -30.5q-31 0 -61 19t-47 19q-26 0 -38 -14.5t-12 -27.5h-59q0 124 97 124q31 0 59.5 -17t45.5 -17q26 0 38 14.5t12 27.5z" />
    <glyph glyph-name="hungarumlaut" unicode="&#x2dd;" horiz-adv-x="535" 
d="M157 617h-105l78 158h128zM327 617h-105l95 158h129z" />
    <glyph glyph-name="gravecomb" unicode="&#x300;" horiz-adv-x="305" 
d="M253 617h-105l-103 158h129z" />
    <glyph glyph-name="acutecomb" unicode="&#x301;" horiz-adv-x="305" 
d="M157 617h-105l79 158h129z" />
    <glyph glyph-name="uni0302" unicode="&#x302;" horiz-adv-x="413" 
d="M377 617h-110l-60 78l-60 -78h-110l120 158h99z" />
    <glyph glyph-name="tildecomb" unicode="&#x303;" horiz-adv-x="437" 
d="M315 749h60q0 -67 -20.5 -97.5t-74.5 -30.5q-31 0 -61 19t-47 19q-26 0 -38 -14.5t-12 -27.5h-59q0 124 97 124q31 0 59.5 -17t45.5 -17q26 0 38 14.5t12 27.5z" />
    <glyph glyph-name="uni0304" unicode="&#x304;" horiz-adv-x="393" 
d="M333 639h-273v89h273v-89z" />
    <glyph glyph-name="uni0306" unicode="&#x306;" horiz-adv-x="347" 
d="M237 753h88q0 -61 -40.5 -100t-111.5 -39t-111.5 39t-40.5 100h90q0 -20 17 -37t45 -17t46 17t18 37z" />
    <glyph glyph-name="uni0307" unicode="&#x307;" horiz-adv-x="259" 
d="M188 618h-116v140h116v-140z" />
    <glyph glyph-name="uni0308" unicode="&#x308;" horiz-adv-x="472" 
d="M203 618h-116v140h116v-140zM385 618h-116v140h116v-140z" />
    <glyph glyph-name="uni030A" unicode="&#x30a;" horiz-adv-x="297" 
d="M260 716q0 -44 -28.5 -75t-82.5 -31t-82.5 31t-28.5 75t28.5 75.5t82.5 31.5t82.5 -31.5t28.5 -75.5zM148 682q15 0 24.5 9.5t9.5 24.5q0 16 -9.5 25.5t-24.5 9.5q-14 0 -23.5 -9.5t-9.5 -25.5q0 -15 9.5 -24.5t23.5 -9.5z" />
    <glyph glyph-name="uni030B" unicode="&#x30b;" horiz-adv-x="491" 
d="M157 617h-105l78 158h128zM327 617h-105l95 158h129z" />
    <glyph glyph-name="uni030C" unicode="&#x30c;" horiz-adv-x="413" 
d="M256 617h-99l-120 158h110l60 -79l60 79h110z" />
    <glyph glyph-name="uni0312" unicode="&#x312;" horiz-adv-x="275" 
d="M164 590h-119q1 46 23 125q10 37 25 70.5t25 48.5l10 15h103q-32 -65 -49 -142q-8 -35 -12.5 -64.5t-5.5 -40.5v-12z" />
    <glyph glyph-name="dotbelowcomb" unicode="&#x323;" horiz-adv-x="259" 
d="M188 -192h-116v135h116v-135z" />
    <glyph glyph-name="uni0326" unicode="&#x326;" horiz-adv-x="284" 
d="M123 -278h-99q28 54 47 121q8 27 12.5 51.5t4.5 35.5l1 12h114q-4 -48 -23 -107q-11 -32 -25 -60.5t-23 -40.5z" />
    <glyph glyph-name="uni0327" unicode="&#x327;" horiz-adv-x="344" 
d="M68 -237v71q20 -6 64 -6q57 0 57 40t-102 40h-3l51 95h94l-33 -55q91 -9 91 -87q0 -104 -131 -104q-30 0 -52 1.5t-29 3.5z" />
    <glyph glyph-name="uni0328" unicode="&#x328;" horiz-adv-x="222" 
d="M204 -110v-64q0 -1 -11 -7.5t-35.5 -13t-52.5 -6.5q-43 0 -64 22t-21 57q0 23 9.5 45.5t23 37.5t27.5 26.5t24 16.5l9 6l80 -7l-3 -1l-7 -4.5l-9.5 -6t-11 -8t-11.5 -10.5t-11 -12.5t-8.5 -14t-6 -17t-2.5 -18.5q0 -14 8.5 -24t24.5 -10q11 0 23 3.5t19 6.5z" />
    <glyph glyph-name="uni0335" unicode="&#x335;" horiz-adv-x="406" 
d="M362 295h-318v78h318v-78z" />
    <glyph glyph-name="uni0336" unicode="&#x336;" horiz-adv-x="873" 
d="M781 291h-688v89h688v-89z" />
    <glyph glyph-name="uni0337" unicode="&#x337;" horiz-adv-x="441" 
d="M417 366l-324 -186l-43 77l324 185z" />
    <glyph glyph-name="uni0338" unicode="&#x338;" horiz-adv-x="391" 
d="M43 101h-92l408 560h92z" />
    <glyph glyph-name="pi" unicode="&#x3c0;" horiz-adv-x="610" 
d="M566 0h-27q-47 0 -79 10t-49.5 25t-26.5 45.5t-11 58.5t-2 78v255h-145v-472h-101v472h-90v97h527v-97h-90v-255v-23v-23.5t0.5 -20t2.5 -19.5t5 -15.5t8 -14.5l12 -9.5t17 -7.5t22 -2h27v-82z" />
    <glyph glyph-name="Wgrave" unicode="&#x1e80;" horiz-adv-x="987" 
d="M766 0h-123l-155 541l-152 -541h-115l-218 714h132l145 -562l150 562h121l161 -569l146 569h125zM553 760h-105l-103 154h129z" />
    <glyph glyph-name="wgrave" unicode="&#x1e81;" horiz-adv-x="772" 
d="M598 0h-97l-114 400l-108 -400h-100l-177 541h120l110 -399l106 399h107l106 -397l108 397h111zM438 617h-105l-103 158h129z" />
    <glyph glyph-name="Wacute" unicode="&#x1e82;" horiz-adv-x="987" 
d="M766 0h-123l-155 541l-152 -541h-115l-218 714h132l145 -562l150 562h121l161 -569l146 569h125zM552 760h-105l79 154h129z" />
    <glyph glyph-name="wacute" unicode="&#x1e83;" horiz-adv-x="772" 
d="M598 0h-97l-114 400l-108 -400h-100l-177 541h120l110 -399l106 399h107l106 -397l108 397h111zM433 617h-105l79 158h129z" />
    <glyph glyph-name="Wdieresis" unicode="&#x1e84;" horiz-adv-x="987" 
d="M766 0h-123l-155 541l-152 -541h-115l-218 714h132l145 -562l150 562h121l161 -569l146 569h125zM465 760h-116v139h116v-139zM647 760h-116v139h116v-139z" />
    <glyph glyph-name="wdieresis" unicode="&#x1e85;" horiz-adv-x="772" 
d="M598 0h-97l-114 400l-108 -400h-100l-177 541h120l110 -399l106 399h107l106 -397l108 397h111zM355 618h-116v140h116v-140zM537 618h-116v140h116v-140z" />
    <glyph glyph-name="uni1EA0" unicode="&#x1ea0;" horiz-adv-x="659" 
d="M655 0h-126l-57 162h-293l-57 -162h-119l270 714h114zM432 275l-107 300l-106 -300h213zM387 -192h-116v135h116v-135z" />
    <glyph glyph-name="uni1EA1" unicode="&#x1ea1;" horiz-adv-x="610" 
d="M535 1h-97l-13 64q-57 -76 -181 -76q-99 0 -143.5 40t-44.5 124q0 64 30 102q19 24 49.5 39t80 20.5t86.5 6.5t108 1q-1 49 -5.5 76t-19.5 43q-24 25 -83 25q-65 0 -92 -28.5t-27 -63.5h-104q0 22 3.5 42.5t17 46.5t36 44t64 31t97.5 13q121 0 174 -45q34 -29 44.5 -77.5
t10.5 -129.5v-31v-126zM410 160v86q-47 0 -72 -0.5t-58.5 -3.5t-50.5 -9t-34 -16.5t-23.5 -27t-6.5 -39.5q0 -81 103 -81q110 0 142 91zM360 -192h-116v135h116v-135z" />
    <glyph glyph-name="uni1EB8" unicode="&#x1eb8;" 
d="M568 0h-481v714h475v-105h-356v-190h306v-102h-306v-212h362v-105zM386 -192h-116v135h116v-135z" />
    <glyph glyph-name="uni1EB9" unicode="&#x1eb9;" 
d="M548 249h-113l-265 1q2 -91 31 -133t99 -42q65 0 95.5 30t32.5 65h116q0 -30 -12 -60t-38 -59t-76.5 -47t-117.5 -18q-134 0 -191 71t-57 211q0 141 57 213.5t191 72.5q131 0 189.5 -74.5t58.5 -230.5zM173 333h257q-10 69 -41 102t-89 33q-60 0 -89.5 -33.5
t-37.5 -101.5zM360 -192h-116v135h116v-135z" />
    <glyph glyph-name="uni1EBC" unicode="&#x1ebc;" 
d="M568 0h-481v714h475v-105h-356v-190h306v-102h-306v-212h362v-105zM418 900h61q0 -68 -21 -102t-74 -34q-31 0 -61 19t-47 19q-26 0 -38 -14.5t-12 -27.5h-59q0 132 97 132q31 0 59.5 -17t45.5 -17q26 0 37.5 14.5t11.5 27.5z" />
    <glyph glyph-name="uni1EBD" unicode="&#x1ebd;" 
d="M548 249h-113l-265 1q2 -91 31 -133t99 -42q65 0 95.5 30t32.5 65h116q0 -30 -12 -60t-38 -59t-76.5 -47t-117.5 -18q-134 0 -191 71t-57 211q0 141 57 213.5t191 72.5q131 0 189.5 -74.5t58.5 -230.5zM173 333h257q-10 69 -41 102t-89 33q-60 0 -89.5 -33.5
t-37.5 -101.5zM397 749h60q0 -67 -20.5 -97.5t-74.5 -30.5q-31 0 -61 19t-47 19q-26 0 -38 -14.5t-12 -27.5h-59q0 124 97 124q31 0 59.5 -17t45.5 -17q26 0 38 14.5t12 27.5z" />
    <glyph glyph-name="uni1ECA" unicode="&#x1eca;" horiz-adv-x="293" 
d="M206 0h-119v714h119v-714zM205 -192h-116v135h116v-135z" />
    <glyph glyph-name="uni1ECB" unicode="&#x1ecb;" horiz-adv-x="250" 
d="M183 0h-116v541h116v-541zM183 618h-116v140h116v-140zM183 -202h-116v135h116v-135z" />
    <glyph glyph-name="uni1ECC" unicode="&#x1ecc;" horiz-adv-x="715" 
d="M60 356q0 193 69 285t228 92t228.5 -92t69.5 -285q0 -192 -69 -283t-229 -91q-159 0 -228 91t-69 283zM534 356q0 146 -40 209t-137 63t-137 -63t-40 -209q0 -145 40 -207t137 -62t137 62t40 207zM415 -192h-116v135h116v-135z" />
    <glyph glyph-name="uni1ECD" unicode="&#x1ecd;" horiz-adv-x="612" 
d="M305 -14q-137 0 -195 73t-58 210t58 211t195 74q137 1 196 -73.5t59 -211.5q0 -136 -58.5 -209.5t-196.5 -73.5zM305 79q75 0 105 45t30 145t-30 146t-105 46q-74 0 -104.5 -46.5t-30.5 -145.5q0 -100 30 -145t105 -45zM362 -192h-116v135h116v-135z" />
    <glyph glyph-name="uni1EE4" unicode="&#x1ee4;" horiz-adv-x="706" 
d="M508 341v373h122v-373q0 -190 -64 -274.5t-213 -84.5q-150 0 -213.5 84.5t-63.5 274.5v373h119v-373q0 -143 34.5 -198.5t122.5 -55.5q87 0 121.5 55.5t34.5 198.5zM411 -192h-116v135h116v-135z" />
    <glyph glyph-name="uni1EE5" unicode="&#x1ee5;" horiz-adv-x="623" 
d="M549 0h-98l-16 94q-13 -22 -32.5 -43t-60.5 -42.5t-88 -21.5q-100 0 -145.5 51t-45.5 173l2 330h115q-1 -292 -1 -312q0 -70 20 -105t77 -35q32 0 58.5 12.5t44.5 32.5t28.5 36t17.5 33v338h116v-391zM364 -192h-116v135h116v-135z" />
    <glyph glyph-name="Ygrave" unicode="&#x1ef2;" horiz-adv-x="638" 
d="M384 0h-120v251l-261 463h139l183 -344l176 344h133l-250 -461v-253zM371 760h-105l-103 154h129z" />
    <glyph glyph-name="ygrave" unicode="&#x1ef3;" horiz-adv-x="552" 
d="M269 -220h-105l74 220h-32l-200 541h131l138 -432l147 432h124zM319 617h-105l-103 158h129z" />
    <glyph glyph-name="uni1EF8" unicode="&#x1ef8;" horiz-adv-x="638" 
d="M384 0h-120v251l-261 463h139l183 -344l176 344h133l-250 -461v-253zM411 900h61q0 -68 -21 -102t-74 -34q-31 0 -61 19t-47 19q-26 0 -38 -14.5t-12 -27.5h-59q0 132 97 132q31 0 59.5 -17t45.5 -17q26 0 37.5 14.5t11.5 27.5z" />
    <glyph glyph-name="uni1EF9" unicode="&#x1ef9;" horiz-adv-x="552" 
d="M269 -220h-105l74 220h-32l-200 541h131l138 -432l147 432h124zM365 749h60q0 -67 -20.5 -97.5t-74.5 -30.5q-31 0 -61 19t-47 19q-26 0 -38 -14.5t-12 -27.5h-59q0 124 97 124q31 0 59.5 -17t45.5 -17q26 0 38 14.5t12 27.5z" />
    <glyph glyph-name="uni2009" unicode="&#x2009;" horiz-adv-x="62" 
 />
    <glyph glyph-name="endash" unicode="&#x2013;" horiz-adv-x="543" 
d="M482 275h-420v90h420v-90z" />
    <glyph glyph-name="emdash" unicode="&#x2014;" horiz-adv-x="907" 
d="M845 275h-783v90h783v-90z" />
    <glyph glyph-name="uni2016" unicode="&#x2016;" horiz-adv-x="450" 
d="M180 -180h-101v1000h101v-1000zM372 -180h-101v1000h101v-1000z" />
    <glyph glyph-name="quoteleft" unicode="&#x2018;" horiz-adv-x="206" 
d="M135 501h-119q1 46 23 125q10 37 25 70.5t25 48.5l10 15h103q-32 -65 -49 -142q-8 -35 -12.5 -64.5t-4.5 -41.5z" />
    <glyph glyph-name="quoteright" unicode="&#x2019;" horiz-adv-x="195" 
d="M108 501h-103q32 65 49 142q8 35 12 64t4 41l1 12h120q-2 -46 -23 -125q-11 -37 -26 -70.5t-24 -48.5z" />
    <glyph glyph-name="quotesinglbase" unicode="&#x201a;" horiz-adv-x="234" 
d="M114 -130h-103q32 65 49 142q8 35 12 64.5t4 41.5l1 11h120q-2 -46 -23 -124q-11 -37 -26 -71t-24 -49z" />
    <glyph glyph-name="quotedblleft" unicode="&#x201c;" horiz-adv-x="396" 
d="M327 501h-119q1 46 23 125q10 37 25 70.5t25 48.5l10 15h103q-32 -65 -49 -142q-8 -35 -12.5 -64.5t-4.5 -41.5zM137 501h-119q1 46 23 125q10 37 25 70.5t25 48.5l10 15h103q-32 -65 -49 -142q-8 -35 -12.5 -64.5t-4.5 -41.5z" />
    <glyph glyph-name="quotedblright" unicode="&#x201d;" horiz-adv-x="392" 
d="M295 501h-103q32 65 49 142q8 35 12 64t5 41v12h120q-2 -46 -23 -125q-11 -37 -26 -70.5t-25 -48.5zM105 501h-103q32 65 49 142q8 35 12 64t5 41v12h120q-2 -46 -23 -125q-11 -37 -26 -70.5t-25 -48.5z" />
    <glyph glyph-name="quotedblbase" unicode="&#x201e;" horiz-adv-x="391" 
d="M294 -135h-103q32 65 49 142q8 35 12 64.5t4 40.5l1 12h120q-2 -46 -23 -124q-11 -37 -26 -71t-24 -49zM105 -135h-103q32 65 49 142q8 35 12 64.5t5 40.5v12h120q-2 -46 -23 -124q-11 -37 -26 -71t-25 -49z" />
    <glyph glyph-name="dagger" unicode="&#x2020;" horiz-adv-x="521" 
d="M311 0h-101v498h-150v97h150v188h101v-188h150v-97h-150v-498z" />
    <glyph glyph-name="daggerdbl" unicode="&#x2021;" horiz-adv-x="521" 
d="M311 0h-101v188h-150v97h150v213h-150v97h150v188h101v-188h150v-97h-150v-213h150v-97h-150v-188z" />
    <glyph glyph-name="bullet" unicode="&#x2022;" horiz-adv-x="418" 
d="M289 214h-160v168h160v-168z" />
    <glyph glyph-name="ellipsis" unicode="&#x2026;" horiz-adv-x="651" 
d="M181 0h-117v129h117v-129zM384 0h-117v129h117v-129zM587 0h-117v129h117v-129z" />
    <glyph glyph-name="perthousand" unicode="&#x2030;" horiz-adv-x="1193" 
d="M227 0h-101l460 702h101zM203 358q-92 0 -131.5 44.5t-39.5 131.5q0 89 39.5 135t131.5 46t131 -46t39 -135q0 -87 -39 -131.5t-131 -44.5zM203 430q45 0 62.5 25t17.5 79q0 56 -17.5 82.5t-62.5 26.5q-44 0 -62 -27t-18 -82q0 -54 18 -79t62 -25zM607 -14
q-92 0 -131.5 45t-39.5 132q0 88 39.5 134t131.5 46t131 -45.5t39 -134.5q0 -88 -39 -132.5t-131 -44.5zM607 59q45 0 62.5 25t17.5 79q0 55 -17.5 81.5t-62.5 26.5q-44 0 -62 -26.5t-18 -81.5q0 -54 18 -79t62 -25zM989 -14q-92 0 -131.5 45t-39.5 132q0 88 39.5 134
t131.5 46t131 -45.5t39 -134.5q0 -88 -39 -132.5t-131 -44.5zM989 59q45 0 62.5 25t17.5 79q0 55 -17.5 81.5t-62.5 26.5q-44 0 -62 -26.5t-18 -81.5q0 -54 18 -79t62 -25z" />
    <glyph glyph-name="guilsinglleft" unicode="&#x2039;" horiz-adv-x="330" 
d="M286 86h-124l-117 161v30l117 168h124l-131 -184z" />
    <glyph glyph-name="guilsinglright" unicode="&#x203a;" horiz-adv-x="330" 
d="M168 86h-124l130 175l-130 184h124l117 -168v-30z" />
    <glyph glyph-name="fraction" unicode="&#x2044;" horiz-adv-x="239" 
d="M-56 -40h-106l459 809h106z" />
    <glyph glyph-name="uni2070" unicode="&#x2070;" horiz-adv-x="441" 
d="M29 576q0 130 42 189t149 59t149 -59t42 -189q0 -123 -42.5 -180.5t-148.5 -57.5t-148.5 57.5t-42.5 180.5zM304 576q0 88 -18 122.5t-66 34.5q-46 0 -64.5 -35t-18.5 -122q0 -80 18.5 -113t64.5 -33q47 0 65.5 32.5t18.5 113.5z" />
    <glyph glyph-name="uni2074" unicode="&#x2074;" horiz-adv-x="406" 
d="M345 348h-107v81h-231v80l224 304h114v-304h52v-80h-52v-81zM239 509v193l-140 -193h140z" />
    <glyph glyph-name="uni2075" unicode="&#x2075;" horiz-adv-x="406" 
d="M357 731l-200 4l-16 -103q37 25 92 25q75 0 113 -43.5t38 -111.5q0 -72 -44 -116t-138 -44q-92 0 -137 41t-45 96h107q0 -19 19.5 -38t55.5 -19q76 0 76 80q0 37 -19.5 60t-56.5 23q-24 0 -42 -9t-23.5 -16t-8.5 -12l-97 2l28 188l11 76h287v-83z" />
    <glyph glyph-name="uni2076" unicode="&#x2076;" horiz-adv-x="435" 
d="M389 687h-101q0 23 -17 41t-52 18q-36 0 -55 -28t-25 -103q44 35 103 35q86 0 124.5 -42t38.5 -111q0 -70 -44.5 -114t-141.5 -45q-101 0 -145.5 53.5t-44.5 164.5q0 147 44 208t146 61q89 0 129.5 -41t40.5 -97zM137 539q2 -65 21.5 -93t60.5 -28q39 0 58.5 22t19.5 60
q0 82 -74 82q-55 0 -86 -43z" />
    <glyph glyph-name="uni2077" unicode="&#x2077;" horiz-adv-x="344" 
d="M186 348h-119q0 58 16.5 118.5t39.5 105.5t46 82t39 56l17 20l-220 -4v86h334v-86l-16.5 -21.5t-37 -56.5t-46.5 -85.5t-36.5 -102t-16.5 -112.5z" />
    <glyph glyph-name="uni2078" unicode="&#x2078;" horiz-adv-x="432" 
d="M319 600q25 -3 54.5 -34.5t29.5 -85.5q0 -69 -42.5 -104.5t-144.5 -35.5t-144.5 35.5t-42.5 104.5q0 54 29.5 85.5t53.5 34.5q-18 2 -42 27t-24 67q0 62 38.5 96.5t131.5 34.5t131.5 -34.5t38.5 -96.5q0 -42 -24 -67t-43 -27zM294 492q0 75 -78 75q-77 0 -77 -75t77 -75
q78 0 78 75zM285 686q0 70 -69 70t-69 -70q0 -61 69 -61t69 61z" />
    <glyph glyph-name="uni2079" unicode="&#x2079;" horiz-adv-x="435" 
d="M33 476h103q0 -22 18.5 -40t58.5 -18q37 0 55.5 24t24.5 94q-41 -34 -101 -34q-163 0 -163 163q0 70 45 114.5t141 45.5q101 0 145.5 -53.5t44.5 -169.5q0 -148 -43 -206t-149 -58q-95 0 -137.5 41t-42.5 97zM297 615q-1 70 -21 100t-61 30q-78 0 -78 -83q0 -90 75 -90
q52 0 85 43z" />
    <glyph glyph-name="Euro" unicode="&#x20ac;" horiz-adv-x="627" 
d="M463 186h106q-5 -85 -60.5 -140t-165.5 -55q-221 0 -258 239h-55v73h48q-1 15 -1 47q0 27 1 40h-48v73h54q34 248 259 248q113 0 169.5 -59t59.5 -149h-107q-4 45 -37.5 74t-84.5 29q-118 0 -144 -143h169v-73h-177v-40q0 -32 1 -47h176v-73h-167q28 -134 142 -134
q47 0 81 25.5t39 64.5z" />
    <glyph glyph-name="uni20BD" unicode="&#x20bd;" horiz-adv-x="636" 
d="M387 128h-159v-130h-119v130h-79v89h79v69h-79v99l79 -1v333h196q160 0 227.5 -47.5t67.5 -172.5q0 -119 -68 -165t-230 -46h-74v-69h159v-89zM228 384h74q46 0 74.5 3.5t54 15t37.5 35t12 60.5t-12 60.5t-37.5 35t-54 15t-74.5 3.5h-74v-228z" />
    <glyph glyph-name="uni2116" unicode="&#x2116;" horiz-adv-x="1245" 
d="M653 -1h-99v1l-33 -1l-331 555l11 -554h-114l1 714h99v-1l34 1l329 -552l-11 552h114v-715zM947 140q-114 0 -159.5 57.5t-45.5 170.5q0 114 45.5 172t159.5 58t160 -58t46 -172q0 -113 -45.5 -170.5t-160.5 -57.5zM946 230q53 0 75.5 33.5t22.5 104.5t-23 106t-75 35
t-74 -35t-22 -106t22.5 -104.5t73.5 -33.5zM1161 0h-414v89h414v-89z" />
    <glyph glyph-name="uni2117" unicode="&#x2117;" horiz-adv-x="827" 
d="M413 -24q-94 0 -164 29t-110.5 81.5t-59.5 117.5t-19 144q0 80 19 145.5t59.5 119t110.5 83t164 29.5q77 0 138 -20t101 -54t66 -82.5t37.5 -103t11.5 -117.5q0 -79 -18.5 -144t-59 -117.5t-110.5 -81.5t-166 -29zM413 40q62 0 111 17.5t80 46t51 69t28.5 83.5t8.5 92
q0 62 -14 115t-44.5 99t-87 72.5t-133.5 26.5t-133 -26.5t-86.5 -72.5t-44.5 -99t-14 -115q0 -49 8 -92t28.5 -83.5t51.5 -69t79.5 -46t110.5 -17.5zM359 138h-105v418h161q105 0 148.5 -33t43.5 -121q0 -87 -44.5 -120t-149.5 -33h-54v-111zM359 333h54q29 0 44.5 3
t28.5 19t13 47q0 45 -21.5 58t-64.5 13h-54v-140z" />
    <glyph glyph-name="uni2120" unicode="&#x2120;" horiz-adv-x="735" 
d="M694 374h-62l4 264l-96 -265h-62l-90 266l3 -265h-57v339h90l90 -267l92 267h89zM277 621h-57q0 23 -16.5 39t-51.5 16q-33 0 -49.5 -13.5t-16.5 -31.5q0 -25 20.5 -38t50 -18t58.5 -12.5t49.5 -31.5t20.5 -65q0 -101 -133 -101q-70 0 -101 27.5t-31 88.5h58
q0 -30 18.5 -47t53.5 -17q34 0 53.5 13.5t19.5 32.5q0 28 -20.5 41.5t-49.5 18.5t-58 12.5t-49.5 31t-20.5 66.5q0 96 126 96q68 0 97 -27t29 -81z" />
    <glyph glyph-name="trademark" unicode="&#x2122;" horiz-adv-x="694" 
d="M653 374h-62l4 264l-96 -265h-62l-91 265l3 -264h-56v339h92l88 -267l92 267h89zM154 374h-59l1 290h-96v55h252v-55h-97z" />
    <glyph glyph-name="oneeighth" unicode="&#x215b;" horiz-adv-x="842" 
d="M177 321h-101v340l-1 -2l-73 -32v75l110 45h65v-426zM161 -40h-106l459 809h106zM740 229q22 -2 49 -30.5t27 -77.5q0 -63 -38.5 -95.5t-131.5 -32.5q-94 0 -133 33t-39 95q0 49 27 77.5t49 30.5q-17 2 -38.5 24t-21.5 61q0 57 35.5 88t120.5 31t119.5 -31t34.5 -88
q0 -39 -21.5 -60.5t-38.5 -24.5zM714 132q0 66 -68 66q-70 0 -70 -66t70 -66q68 0 68 66zM706 306q0 62 -61 62q-62 0 -62 -62q0 -53 62 -53q61 0 61 53z" />
    <glyph glyph-name="threeeighths" unicode="&#x215c;" horiz-adv-x="989" 
d="M335 669l-99 -85q107 -24 107 -130q0 -62 -40 -101.5t-125 -39.5t-125 40t-40 103h101q0 -24 15.5 -42.5t45.5 -18.5q65 0 65 65q0 73 -78 73l-52 -6v59l101 78l-182 -6v82h305v-71h1zM308 -40h-106l459 809h106zM887 229q22 -2 49 -30.5t27 -77.5q0 -63 -38.5 -95.5
t-131.5 -32.5q-94 0 -133 33t-39 95q0 49 27 77.5t49 30.5q-17 2 -38.5 24t-21.5 61q0 57 35.5 88t120.5 31t119.5 -31t34.5 -88q0 -39 -21.5 -60.5t-38.5 -24.5zM861 132q0 66 -68 66q-70 0 -70 -66t70 -66q68 0 68 66zM853 306q0 62 -61 62q-62 0 -62 -62q0 -53 62 -53
q61 0 61 53z" />
    <glyph glyph-name="fiveeighths" unicode="&#x215d;" horiz-adv-x="996" 
d="M327 664l-181 4l-13 -89q33 22 82 22q68 0 102 -39.5t34 -101.5q0 -64 -40 -104t-126 -40t-126.5 37t-40.5 87h102q0 -16 17 -33t48 -17q65 0 65 70q0 33 -16.5 53t-48.5 20q-45 0 -64 -30v-2h-1l-92 1l25 169l10 72h264v-79zM315 -40h-106l459 809h106zM894 229
q22 -2 49 -30.5t27 -77.5q0 -63 -38.5 -95.5t-131.5 -32.5q-94 0 -133 33t-39 95q0 49 27 77.5t49 30.5q-17 2 -38.5 24t-21.5 61q0 57 35.5 88t120.5 31t119.5 -31t34.5 -88q0 -39 -21.5 -60.5t-38.5 -24.5zM868 132q0 66 -68 66q-70 0 -70 -66t70 -66q68 0 68 66zM860 306
q0 62 -61 62q-62 0 -62 -62q0 -53 62 -53q61 0 61 53z" />
    <glyph glyph-name="seveneighths" unicode="&#x215e;" horiz-adv-x="923" 
d="M173 321h-112q0 82 35.5 167.5t70.5 130.5l35 45l-197 -3v80h305v-80q-6 -7 -15 -19.5t-32.5 -51.5t-41.5 -77.5t-33 -91.5t-15 -100zM242 -40h-106l459 809h106zM821 229q22 -2 49 -30.5t27 -77.5q0 -63 -38.5 -95.5t-131.5 -32.5q-94 0 -133 33t-39 95q0 49 27 77.5
t49 30.5q-17 2 -38.5 24t-21.5 61q0 57 35.5 88t120.5 31t119.5 -31t34.5 -88q0 -39 -21.5 -60.5t-38.5 -24.5zM795 132q0 66 -68 66q-70 0 -70 -66t70 -66q68 0 68 66zM787 306q0 62 -61 62q-62 0 -62 -62q0 -53 62 -53q61 0 61 53z" />
    <glyph glyph-name="arrowleft" unicode="&#x2190;" horiz-adv-x="738" 
d="M703 232l-452 5l178 -137l-61 -74l-333 263l334 268l60 -73l-178 -138l452 4v-118z" />
    <glyph glyph-name="arrowup" unicode="&#x2191;" 
d="M359 -25h-118l5 451l-137 -177l-74 61l263 332l268 -332l-74 -61l-138 179z" />
    <glyph glyph-name="arrowright" unicode="&#x2192;" horiz-adv-x="736" 
d="M702 313l-333 -268l-60 74l178 138l-452 -5v118l452 -5l-178 138l60 73l332 -263h1z" />
    <glyph glyph-name="arrowdown" unicode="&#x2193;" horiz-adv-x="601" 
d="M304 -29l-269 333l74 61l137 -178l-4 452h118l-6 -453l138 178l75 -60z" />
    <glyph glyph-name="arrowboth" unicode="&#x2194;" horiz-adv-x="1043" 
d="M1009 279l-334 -263l-60 75l175 135l-540 2l179 -137l-61 -75l-333 263l334 269l60 -73l-180 -139l544 1l-179 138l60 73l334 -269h1z" />
    <glyph glyph-name="arrowupdn" unicode="&#x2195;" 
d="M298 -204l-1 1v-1v2l-262 332l75 60l134 -175l2 539l-136 -178l-75 61l262 331v2v-1l1 1v-1l268 -333l-73 -60l-139 180l1 -544l138 179l73 -61l-268 -333v-1z" />
    <glyph glyph-name="uni2196" unicode="&#x2196;" horiz-adv-x="585" 
d="M477 12l-316 324l29 -223l-95 -10l-50 422l426 -46l-9 -94l-224 28l323 -317z" />
    <glyph glyph-name="uni2197" unicode="&#x2197;" horiz-adv-x="581" 
d="M491 102l-95 9l29 223l-316 -322l-84 83l322 316l-223 -28l-9 95l421 49l-4 -5l5 5z" />
    <glyph glyph-name="uni2198" unicode="&#x2198;" horiz-adv-x="584" 
d="M540 27l-5 4l4 -4l-425 45l10 95l225 -29l-324 318l83 83l316 -324l-28 224l94 10z" />
    <glyph glyph-name="uni2199" unicode="&#x2199;" horiz-adv-x="582" 
d="M467 72l-422 -49l46 426l94 -10l-29 -224l317 324l84 -84l-324 -316l224 29z" />
    <glyph glyph-name="minus" unicode="&#x2212;" horiz-adv-x="450" 
d="M417 280h-385v97h385v-97z" />
    <glyph glyph-name="infinity" unicode="&#x221e;" horiz-adv-x="777" 
d="M388 240q-37 -48 -77.5 -75t-99.5 -27q-179 0 -179 166t179 166q59 0 99.5 -27t77.5 -75q36 48 77 75t101 27q179 0 179 -166t-179 -166q-60 0 -101 27t-77 75zM342 304q-30 41 -60 63.5t-71 22.5q-88 0 -88 -86t88 -86q41 0 71 22.5t60 63.5zM434 304q31 -42 61 -64
t71 -22q88 0 88 86t-88 86q-41 0 -71 -22t-61 -64z" />
    <glyph glyph-name="approxequal" unicode="&#x2248;" horiz-adv-x="515" 
d="M410 297h73q0 -150 -135 -150q-47 0 -96 27.5t-86 27.5q-29 0 -45 -19.5t-16 -35.5h-73q0 150 134 150q47 0 96 -27.5t86 -27.5q30 0 46 19.5t16 35.5zM410 479h73q0 -150 -135 -150q-47 0 -96 27.5t-86 27.5q-29 0 -45 -19.5t-16 -35.5h-73q0 150 134 150q47 0 96 -27.5
t86 -27.5q30 0 46 19.5t16 35.5z" />
    <glyph glyph-name="notequal" unicode="&#x2260;" horiz-adv-x="481" 
d="M447 175h-246l-51 -89h-86l51 89h-80v97h136l46 79h-182v97h238l47 81h86l-47 -81h88v-97h-144l-46 -79h190v-97z" />
    <glyph glyph-name="lessequal" unicode="&#x2264;" horiz-adv-x="521" 
d="M469 198l-424 149v99l424 144v-105l-324 -90l324 -92v-105zM464 68h-412v97h412v-97z" />
    <glyph glyph-name="greaterequal" unicode="&#x2265;" horiz-adv-x="521" 
d="M476 347l-424 -149v105l324 92l-324 90v105l424 -144v-99zM469 68h-412v97h412v-97z" />
    <glyph glyph-name="i.loclTRK" horiz-adv-x="250" 
d="M180 0h-116v541h116v-541zM184 618h-116v140h116v-140z" />
    <glyph glyph-name="f_i" horiz-adv-x="573" 
d="M210 0h-116v448h-74v93h74v7q0 51 6 85.5t23.5 67.5t54.5 49t95 16h59v-94h-44q-43 0 -60.5 -26.5t-17.5 -97.5v-7h117v-93h-117v-448zM503 0h-116v541h116v-541zM506 618h-116v144h116v-144z" />
    <glyph glyph-name="f_l" horiz-adv-x="581" 
d="M210 0h-116v448h-74v93h74v7q0 51 6 85.5t23.5 67.5t54.5 49t95 16h59v-94h-44q-43 0 -60.5 -26.5t-17.5 -97.5v-7h117v-93h-117v-448zM502 0h-116v760h116v-760z" />
    <glyph glyph-name="zero.subs" horiz-adv-x="401" 
d="M26 102q0 119 38 172.5t136 53.5q99 0 137 -53.5t38 -172.5q0 -112 -38 -163.5t-137 -51.5q-98 0 -136 51.5t-38 163.5zM273 102q0 78 -15.5 109t-57.5 31q-40 0 -56 -31t-16 -109q0 -70 16 -99t56 -29q41 0 57 28.5t16 99.5z" />
    <glyph glyph-name="one.subs" horiz-adv-x="217" 
d="M177 -104h-101v340l-1 -2l-73 -32v75l110 45h65v-426z" />
    <glyph glyph-name="two.subs" horiz-adv-x="361" 
d="M334 -103h-317v79l119 88l18 13.5l19 14.5t16 13.5t16 15t12.5 14.5t11 16t6 16t2.5 18q0 26 -15.5 42.5t-44.5 16.5q-59 0 -59 -70h-103q0 155 162 155q83 0 121 -37.5t38 -98.5q0 -47 -24.5 -82.5t-66.5 -72.5q-65 -56 -82 -65q1 0 40.5 1.5t81.5 3.5t49 2v-83z" />
    <glyph glyph-name="three.subs" horiz-adv-x="364" 
d="M335 244l-99 -85q107 -24 107 -130q0 -62 -40 -101.5t-125 -39.5t-125 40t-40 103h101q0 -24 15.5 -42.5t45.5 -18.5q65 0 65 65q0 73 -78 73l-52 -6v59l101 78l-182 -6v82h305v-71h1z" />
    <glyph glyph-name="four.subs" horiz-adv-x="372" 
d="M316 -104h-101v72h-209v76l203 274h107v-274h47v-76h-47v-72zM216 44v169l-123 -169h123z" />
    <glyph glyph-name="five.subs" horiz-adv-x="371" 
d="M327 239l-181 4l-13 -89q33 22 82 22q68 0 102 -39.5t34 -101.5q0 -64 -40 -104t-126 -40t-126.5 37t-40.5 87h102q0 -17 17 -33.5t48 -16.5q65 0 65 70q0 33 -16.5 53t-48.5 20q-45 0 -64 -30v-2h-1l-92 1l25 169l10 72h264v-79z" />
    <glyph glyph-name="six.subs" horiz-adv-x="397" 
d="M356 202h-96q0 20 -14.5 36t-45.5 16t-47 -24t-22 -90q37 30 91 30q78 0 113.5 -38t35.5 -100q0 -63 -40.5 -103.5t-130.5 -41.5q-94 -1 -134 47.5t-40 150.5q0 134 40 189t134 55q82 0 119 -37.5t37 -89.5zM129 68q1 -56 18 -80.5t53 -24.5q34 0 51 19.5t17 52.5
t-17 51.5t-48 18.5q-47 0 -74 -37z" />
    <glyph glyph-name="seven.subs" horiz-adv-x="314" 
d="M173 -104h-112q0 82 35.5 167.5t70.5 130.5l35 45l-197 -3v80h305v-80q-6 -7 -15 -19.5t-32.5 -51.5t-41.5 -77.5t-33 -91.5t-15 -100z" />
    <glyph glyph-name="eight.subs" horiz-adv-x="394" 
d="M293 124q21 -1 48.5 -30t27.5 -78q0 -62 -38.5 -94.5t-132.5 -32.5t-133 32.5t-39 94.5q0 49 27 78t48 30q-17 3 -38 25t-21 61q0 57 35.5 88t120.5 31t120 -31t35 -88q0 -39 -21.5 -61t-38.5 -25zM265 27q0 67 -67 67t-67 -67q0 -65 67 -65t67 65zM257 201q0 63 -60 63
t-60 -63q0 -52 60 -52t60 52z" />
    <glyph glyph-name="nine.subs" horiz-adv-x="397" 
d="M30 13h97q0 -20 16.5 -35t50.5 -15q33 0 48.5 21t21.5 82q-36 -29 -90 -29q-148 0 -148 146q0 64 41 104.5t129 41.5q93 0 134 -49t41 -154q0 -134 -39 -186.5t-138 -52.5q-88 0 -126 37.5t-38 88.5zM268 140q-2 61 -19.5 87t-52.5 26q-67 0 -67 -73q0 -78 64 -78
q47 0 75 38z" />
    <glyph glyph-name="zero.tf" horiz-adv-x="685" 
d="M72 346q0 200 58.5 287.5t213.5 87.5t214 -87.5t59 -287.5q0 -189 -59 -273.5t-214 -84.5q-154 0 -213 84.5t-59 273.5zM496 346q0 149 -34.5 209.5t-117.5 60.5q-82 0 -117 -60.5t-35 -209.5q0 -138 35 -195t117 -57q83 0 117.5 57t34.5 195z" />
    <glyph glyph-name="one.tf" horiz-adv-x="685" 
d="M551 0h-374v103h130v490l-140 -66v110l163 77h96v-611h125v-103z" />
    <glyph glyph-name="two.tf" horiz-adv-x="685" 
d="M574 1h-468v105q97 78 195 171q8 8 30 28.5l30.5 28.5t26 26t24.5 28l19 26.5t16.5 29t8.5 28.5t4 32q0 114 -115 114q-121 0 -121 -118h-122q0 223 243 223q235 0 235 -218q0 -42 -11.5 -79t-36 -72t-45.5 -59t-57 -60t-77.5 -70t-64.5 -50l-24 -16q283 4 310 4v-102z
" />
    <glyph glyph-name="three.tf" horiz-adv-x="685" 
d="M571 604h-1l-200 -147q109 -12 164.5 -70.5t55.5 -159.5q0 -115 -65 -175t-192 -60q-116 0 -179 60t-63 161h111q0 -45 33 -80.5t98 -35.5q69 0 102.5 35.5t33.5 94.5t-38 94t-121 35l-86 -7v102h-1l197 150l-300 -5v101h451v-93z" />
    <glyph glyph-name="four.tf" horiz-adv-x="685" 
d="M518 0h-119l1 134h-336v105l332 461h122v-461h86v-105h-86v-134zM400 239l3 300l-214 -300h211z" />
    <glyph glyph-name="five.tf" horiz-adv-x="685" 
d="M559 596h-300l-26 -167q54 42 136 42q108 0 168 -63t60 -180q0 -236 -259 -236q-121 0 -183 57t-62 149h112q0 -35 34 -68t99 -33q69 0 103.5 36t34.5 95t-35.5 98.5t-102.5 39.5q-43 0 -73.5 -16t-40.5 -32l-9 -15l-1 3v-3l-106 2l44 291l13 101h394v-101z" />
    <glyph glyph-name="six.tf" horiz-adv-x="685" 
d="M582 520h-121q0 35 -30.5 66t-85.5 31q-62 0 -93.5 -44t-41.5 -165q70 59 168 59q63 0 109 -20t70.5 -56t35.5 -77t11 -91q0 -105 -62 -169.5t-197 -65.5q-140 0 -200.5 80t-60.5 246q0 218 61.5 313t199.5 95q65 0 113 -18t74 -48t38 -64t12 -72zM206 294
q3 -111 36.5 -155.5t102.5 -44.5q67 0 102.5 33.5t35.5 95.5q0 65 -31 102t-97 37q-94 0 -149 -68z" />
    <glyph glyph-name="seven.tf" horiz-adv-x="685" 
d="M335 0h-119q0 91 25 185.5t60.5 164.5t71 127t60.5 87l25 29h-352v105h483v-105l-27.5 -33t-61 -86.5t-77 -132t-61 -160.5t-27.5 -181z" />
    <glyph glyph-name="eight.tf" horiz-adv-x="685" 
d="M485 384q19 -2 45.5 -19.5t52.5 -61t26 -100.5q0 -103 -61 -158t-203 -55t-203.5 55t-61.5 158q0 44 14.5 80t36 56.5t40.5 32t32 12.5q-9 1 -24 9.5t-33 24.5t-30.5 44.5t-12.5 63.5q0 198 242 198q241 0 241 -198q0 -35 -12.5 -63.5t-30.5 -44.5t-33 -24.5t-25 -9.5z
M488 211q0 117 -143 117t-143 -117q0 -116 143 -116t143 116zM465 516q0 105 -120 105t-120 -105q0 -90 120 -90t120 90z" />
    <glyph glyph-name="nine.tf" horiz-adv-x="685" 
d="M94 190h122q0 -36 30.5 -66t96.5 -30q65 0 95 38.5t40 151.5q-70 -62 -168 -62q-116 0 -171 72.5t-55 184.5q0 109 64.5 175.5t194.5 67.5q136 1 198.5 -80.5t62.5 -251.5q0 -219 -59 -310.5t-202 -91.5q-71 0 -122.5 19t-77.5 50.5t-37.5 64t-11.5 68.5zM483 390
q0 127 -34 177t-106 50q-137 0 -137 -138q0 -72 31.5 -112t95.5 -40q96 0 150 63z" />
    <glyph glyph-name="zero.dnom" horiz-adv-x="402" 
d="M27 207q0 119 38 172t136 53q99 0 137 -53t38 -172q0 -112 -38 -163.5t-137 -51.5q-98 0 -136 51.5t-38 163.5zM275 207q0 78 -16 108.5t-58 30.5q-41 0 -57.5 -31t-16.5 -108q0 -70 16.5 -99t57.5 -29q42 0 58 28.5t16 99.5z" />
    <glyph glyph-name="one.dnom" horiz-adv-x="216" 
d="M176 0h-100v340l-1 -2l-73 -32v75l109 46h65v-427z" />
    <glyph glyph-name="two.dnom" horiz-adv-x="360" 
d="M333 2h-316v78q56 39 119 88l16.5 12.5l17 13l15 12t15 13l12.5 12.5t11 14t7.5 13.5t6 15.5t1.5 16q0 26 -15.5 42t-45.5 16q-61 0 -61 -69h-101q0 154 162 154q82 0 120.5 -37.5t38.5 -99.5q0 -32 -15.5 -63t-32.5 -49t-44 -42q-67 -57 -83 -65q1 0 40.5 1.5t82 3.5
t49.5 2v-82z" />
    <glyph glyph-name="three.dnom" horiz-adv-x="364" 
d="M334 348l-99 -85q108 -24 108 -131q0 -61 -40.5 -100t-125.5 -39t-124.5 39.5t-39.5 102.5h100q0 -25 16 -43.5t46 -18.5q65 0 65 66q0 73 -78 73l-52 -5v59l102 77l-183 -7v84h304v-72h1z" />
    <glyph glyph-name="four.dnom" horiz-adv-x="371" 
d="M316 0h-100v73h-210v75l203 274h107v-274h47v-75h-47v-73zM217 148v172l-126 -172h126z" />
    <glyph glyph-name="five.dnom" horiz-adv-x="371" 
d="M326 341l-182 4l-14 -91q33 24 84 24q68 0 102.5 -40t34.5 -102q0 -64 -40.5 -103.5t-126.5 -39.5q-85 0 -125.5 36.5t-40.5 86.5h101q0 -17 17 -33t48 -16q67 0 67 69q0 33 -17 53t-50 20q-22 0 -38 -8t-22 -16l-5 -8l-1 2v-2l-90 1l25 169l9 73h264v-79z" />
    <glyph glyph-name="six.dnom" horiz-adv-x="397" 
d="M356 306h-94q0 20 -15 36.5t-46 16.5q-32 0 -48.5 -24.5t-22.5 -90.5q37 30 92 30q78 0 113.5 -38.5t35.5 -100.5q0 -63 -40.5 -103t-130.5 -40q-94 -1 -133.5 47t-39.5 150q0 134 40 188.5t134 54.5q81 0 118 -37t37 -89zM128 171q2 -55 19.5 -80t53.5 -25q35 0 52.5 20
t17.5 52q0 34 -17.5 52.5t-49.5 18.5q-48 0 -76 -38z" />
    <glyph glyph-name="seven.dnom" horiz-adv-x="313" 
d="M172 0h-110q0 52 14.5 106.5t35 95t41.5 73.5t35 51l15 17l-198 -4v81h304v-81q-6 -7 -15 -19.5t-32.5 -51t-41.5 -76.5t-33 -91.5t-15 -100.5z" />
    <glyph glyph-name="eight.dnom" horiz-adv-x="395" 
d="M293 229q22 -2 49 -30.5t27 -77.5q0 -63 -38.5 -95.5t-131.5 -32.5q-94 0 -133 33t-39 95q0 49 27 77.5t49 30.5q-17 2 -38.5 24t-21.5 61q0 57 35.5 88t120.5 31t119.5 -31t34.5 -88q0 -39 -21.5 -60.5t-38.5 -24.5zM267 132q0 66 -68 66q-70 0 -70 -66t70 -66
q68 0 68 66zM259 306q0 62 -61 62q-62 0 -62 -62q0 -53 62 -53q61 0 61 53z" />
    <glyph glyph-name="nine.dnom" horiz-adv-x="397" 
d="M31 117h95q0 -20 17 -35.5t52 -15.5q34 0 50 21.5t22 83.5q-38 -31 -92 -31q-148 0 -148 147q0 64 40.5 104.5t128.5 40.5q94 1 134.5 -47.5t40.5 -153.5q0 -134 -39 -186.5t-137 -52.5q-88 0 -126 37t-38 88zM271 245q-2 60 -20 86.5t-55 26.5q-68 0 -68 -74
q0 -78 65 -78q49 0 78 39z" />
    <glyph glyph-name="zero.numr" horiz-adv-x="401" 
d="M26 527q0 119 38 172.5t136 53.5q99 0 137 -53.5t38 -172.5q0 -112 -38 -163.5t-137 -51.5q-98 0 -136 51.5t-38 163.5zM273 527q0 78 -15.5 109t-57.5 31q-40 0 -56 -31t-16 -109q0 -70 16 -99t56 -29q41 0 57 28.5t16 99.5z" />
    <glyph glyph-name="one.numr" horiz-adv-x="217" 
d="M177 321h-101v340l-1 -2l-73 -32v75l110 45h65v-426z" />
    <glyph glyph-name="two.numr" horiz-adv-x="361" 
d="M334 322h-317v79l119 88l18 13.5l19 14.5t16 13.5t16 15t12.5 14.5t11 16t6 16t2.5 18q0 26 -15.5 42.5t-44.5 16.5q-59 0 -59 -70h-103q0 155 162 155q83 0 121 -37.5t38 -98.5q0 -47 -24.5 -82.5t-66.5 -72.5q-65 -56 -82 -65q1 0 40.5 2t81.5 3.5t49 1.5v-83z" />
    <glyph glyph-name="three.numr" horiz-adv-x="364" 
d="M335 669l-99 -85q107 -24 107 -130q0 -62 -40 -101.5t-125 -39.5t-125 40t-40 103h101q0 -24 15.5 -42.5t45.5 -18.5q65 0 65 65q0 73 -78 73l-52 -6v59l101 78l-182 -6v82h305v-71h1z" />
    <glyph glyph-name="four.numr" horiz-adv-x="372" 
d="M316 321h-101v72h-209v76l203 274h107v-274h47v-76h-47v-72zM216 469v169l-123 -169h123z" />
    <glyph glyph-name="five.numr" horiz-adv-x="371" 
d="M327 664l-181 4l-13 -89q33 22 82 22q68 0 102 -39.5t34 -101.5q0 -64 -40 -104t-126 -40t-126.5 37t-40.5 87h102q0 -16 17 -33t48 -17q65 0 65 70q0 33 -16.5 53t-48.5 20q-45 0 -64 -30v-2h-1l-92 1l25 169l10 72h264v-79z" />
    <glyph glyph-name="six.numr" horiz-adv-x="397" 
d="M356 627h-96q0 20 -14.5 36t-45.5 16t-47 -24t-22 -90q37 30 91 30q78 0 113.5 -38t35.5 -100q0 -63 -40.5 -103.5t-130.5 -41.5q-94 -1 -134 47.5t-40 150.5q0 134 40 189t134 55q82 0 119 -37.5t37 -89.5zM129 493q1 -56 18 -80.5t53 -24.5q34 0 51 19.5t17 52.5
t-17 51.5t-48 18.5q-47 0 -74 -37z" />
    <glyph glyph-name="seven.numr" horiz-adv-x="314" 
d="M173 321h-112q0 82 35.5 167.5t70.5 130.5l35 45l-197 -3v80h305v-80q-6 -7 -15 -19.5t-32.5 -51.5t-41.5 -77.5t-33 -91.5t-15 -100z" />
    <glyph glyph-name="eight.numr" horiz-adv-x="394" 
d="M293 549q21 -1 48.5 -30t27.5 -78q0 -62 -38.5 -94.5t-132.5 -32.5t-133 32.5t-39 94.5q0 49 27 78t48 30q-17 3 -38 25t-21 61q0 57 35.5 88t120.5 31t120 -31t35 -88q0 -39 -21.5 -61t-38.5 -25zM265 452q0 67 -67 67t-67 -67q0 -65 67 -65t67 65zM257 626q0 63 -60 63
t-60 -63q0 -52 60 -52t60 52z" />
    <glyph glyph-name="nine.numr" horiz-adv-x="397" 
d="M30 438h97q0 -20 16.5 -35t50.5 -15q33 0 48.5 21t21.5 82q-36 -29 -90 -29q-148 0 -148 146q0 64 41 104.5t129 41.5q93 0 134 -49t41 -154q0 -134 -39 -186.5t-138 -52.5q-88 0 -126 37.5t-38 88.5zM268 565q-2 61 -19.5 87t-52.5 26q-67 0 -67 -73q0 -78 64 -78
q47 0 75 38z" />
    <glyph glyph-name="exclamdown.case" horiz-adv-x="273" 
d="M194 0h-115l8 533h99zM194 593h-115v121h115v-121z" />
    <glyph glyph-name="questiondown.case" horiz-adv-x="484" 
d="M320 593h-116v121h116v-121zM359 214h117q0 -122 -53 -182t-164 -60q-210 0 -210 196q0 51 16.5 92t39.5 68l46.5 52t40 58t16.5 73v22h109l-1 -22q0 -53 -15.5 -94.5t-37.5 -67t-44 -48.5t-37.5 -52.5t-15.5 -65.5q0 -50 21.5 -77.5t74.5 -27.5q54 0 75.5 34t21.5 102z
" />
    <glyph glyph-name="braceleft.case" horiz-adv-x="396" 
d="M386 3v-105q-57 0 -96.5 4t-68 14t-45 24t-26.5 38t-13 51t-3 69q0 10 -0.5 47t-0.5 80q0 32 -16.5 44t-70.5 12v96q54 0 70.5 11.5t16.5 43.5v135q0 82 17 120t70 55t166 17v-105q-88 0 -112.5 -20t-24.5 -91q0 -11 -0.5 -39.5t-0.5 -71.5q0 -22 -6 -41t-14 -29.5
t-18.5 -18.5t-15.5 -11t-9 -4q3 -1 8 -3t15.5 -10t19 -18.5t15 -29.5t6.5 -42q0 -6 0.5 -44.5t0.5 -66.5q0 -71 24.5 -91t111.5 -20z" />
    <glyph glyph-name="braceright.case" horiz-adv-x="396" 
d="M10 -102v105q87 0 111.5 20t24.5 91q0 28 0.5 66.5t0.5 44.5q0 22 6 40.5t14 29t18.5 19t15.5 11t9 3.5q-3 1 -8 3.5t-15 10.5t-18 18.5t-14.5 29.5t-6.5 42q0 33 -0.5 65.5t-0.5 45.5q0 71 -24.5 91t-112.5 20v105q113 0 166 -17t70 -55t17 -120v-135q0 -32 16.5 -43.5
t70.5 -11.5v-96q-54 0 -70.5 -12t-16.5 -44q0 -33 -0.5 -74t-0.5 -53q0 -42 -3 -69t-13 -51t-26.5 -38t-45 -24t-68 -14t-96.5 -4z" />
    <glyph glyph-name="bracketleft.case" horiz-adv-x="363" 
d="M353 -91h-273v851h273v-105h-157v-641h157v-105z" />
    <glyph glyph-name="bracketright.case" horiz-adv-x="363" 
d="M283 -91h-273v105h157v641h-157v105h273v-851z" />
    <glyph glyph-name="parenleft.case" horiz-adv-x="308" 
d="M301 -117h-117l-11.5 17.5t-26.5 52t-33 87t-26 122.5t-12 158t9 158t22.5 125t26.5 86t22 54l9 17h116l-8 -18q-9 -18 -22.5 -56t-26.5 -88t-22.5 -124.5t-9.5 -153.5t11.5 -153.5t27.5 -123.5t32 -87t28 -56z" />
    <glyph glyph-name="parenright.case" horiz-adv-x="308" 
d="M124 -117h-116l6 9q5 9 15 28.5t21 45.5t23 63.5t21.5 80t15.5 97.5t6 113q0 79 -9 153.5t-22.5 124.5t-26.5 88t-22 56l-9 18h117q4 -6 10 -17.5t21 -52.5t27 -88t21.5 -123.5t9.5 -158.5t-11 -157.5t-27.5 -124t-32.5 -85.5t-27 -53z" />
    <glyph glyph-name="guillemotleft.case" horiz-adv-x="528" 
d="M485 148h-124l-117 162v29l117 168h124l-131 -184zM284 148h-124l-117 162v29l117 168h124l-131 -184z" />
    <glyph glyph-name="guillemotright.case" horiz-adv-x="528" 
d="M368 146h-124l130 175l-130 184h124l117 -168v-30zM167 146h-124l130 175l-130 184h124l117 -168v-30z" />
    <glyph glyph-name="guilsinglleft.case" horiz-adv-x="330" 
d="M286 146h-124l-117 161v30l117 168h124l-131 -184z" />
    <glyph glyph-name="guilsinglright.case" horiz-adv-x="330" 
d="M168 146h-124l130 175l-130 184h124l117 -168v-30z" />
    <glyph glyph-name="paragraph.alt" horiz-adv-x="657" 
d="M578 0h-101v656h-68v-656h-101v277q-150 4 -209 55t-59 186q0 136 59.5 187t208.5 54v1h11h16h243v-760z" />
    <glyph glyph-name="registered.alt" horiz-adv-x="443" 
d="M222 322q-108 0 -157 57t-49 152q0 97 49 155t157 58t156.5 -58t48.5 -155q0 -96 -48.5 -152.5t-156.5 -56.5zM221 359q162 0 162 172q0 176 -162 176q-161 0 -161 -176q0 -172 161 -172zM329 412l-70 2l-30 86h-23h-19v-86h-59v239h79q69 0 90.5 -13t21.5 -63
q0 -33 -7 -48.5t-26 -22.5zM187 542h18q35 0 46 5.5t11 29.5t-11 30t-45 6h-19v-71z" />
    <glyph glyph-name="at.case" horiz-adv-x="905" 
d="M655 63v-72q-76 -28 -200 -28q-106 0 -183.5 30t-123 85.5t-67 127t-21.5 161.5q0 91 21.5 163.5t66.5 130t123 88.5t184 31q104 0 181 -31t122 -88.5t66 -130.5t21 -163q0 -262 -159 -262q-96 0 -125 90q-46 -60 -144 -60q-175 0 -175 232q0 234 175 234q80 0 132 -65
l14 61h90v-305q0 -62 11 -88.5t37 -26.5q20 0 33.5 11.5t24 56t10.5 122.5q0 73 -16 132.5t-51 108.5t-98 76t-149 27t-148 -27t-97 -76t-51 -108.5t-16 -132.5q0 -59 8.5 -106.5t30 -91.5t56 -73.5t90 -47t128.5 -17.5q134 0 199 32zM548 278v14v161q-34 69 -104 69
q-94 0 -94 -155q0 -154 94 -154q76 0 104 65z" />
    <glyph glyph-name="section.sups" horiz-adv-x="306" 
d="M259 664h-52q0 18 -11.5 27.5t-42.5 9.5q-51 0 -51 -28q0 -20 25.5 -29.5t56.5 -12.5t56.5 -22t25.5 -56q0 -35 -32 -60q31 -21 31 -59q0 -78 -113 -78q-59 0 -85.5 21.5t-26.5 68.5h52q0 -46 59 -46q56 0 56 30q0 17 -17 26t-41 13t-48 10.5t-41 24.5t-17 48q0 33 31 60
q-30 18 -30 60q0 73 107 73q58 0 83 -20t25 -61zM119 594q-18 -16 -18 -42q0 -9 4 -15.5t14.5 -10.5t17.5 -6t24.5 -5.5t24.5 -4.5q22 18 22 40q0 9 -4.5 16t-15 11t-19 6.5t-25.5 5.5t-25 5z" />
    <glyph glyph-name="dagger.sups" horiz-adv-x="271" 
d="M161 372h-51v237h-70v49h70v88h51v-88h70v-49h-70v-237z" />
    <glyph glyph-name="daggerdbl.sups" horiz-adv-x="271" 
d="M161 372h-51v87h-70v49h70v101h-70v49h70v88h51v-88h70v-49h-70v-101h70v-49h-70v-87z" />
    <glyph glyph-name="caroncomb.alt" horiz-adv-x="316" 
d="M156 572h-88l68 188h112z" />
    <glyph glyph-name="uni0308.case" horiz-adv-x="472" 
d="M203 760h-116v139h116v-139zM385 760h-116v139h116v-139z" />
    <glyph glyph-name="uni0307.case" horiz-adv-x="259" 
d="M188 760h-116v139h116v-139z" />
    <glyph glyph-name="gravecomb.case" horiz-adv-x="305" 
d="M253 760h-105l-103 154h129z" />
    <glyph glyph-name="acutecomb.case" horiz-adv-x="305" 
d="M157 760h-105l79 154h129z" />
    <glyph glyph-name="uni030B.case" horiz-adv-x="491" 
d="M157 760h-105l78 154h129zM327 760h-105l95 154h129z" />
    <glyph glyph-name="caroncomb.alt.case" horiz-adv-x="316" 
d="M173 760h-105l79 188h129z" />
    <glyph glyph-name="uni0302.case" horiz-adv-x="413" 
d="M369 760h-102l-60 62l-59 -62h-103l105 138h114z" />
    <glyph glyph-name="uni030C.case" horiz-adv-x="413" 
d="M264 760h-114l-105 138h103l59 -63l60 63h102z" />
    <glyph glyph-name="uni0306.case" horiz-adv-x="347" 
d="M236 894h89q0 -58 -39 -96t-113 -38t-113 38t-39 96h90q0 -20 17 -36t45 -16t45.5 16t17.5 36z" />
    <glyph glyph-name="uni030A.case" horiz-adv-x="297" 
d="M244 851q0 -41 -25.5 -66t-70.5 -25t-70 25t-25 66t25 66t70 25t70.5 -25t25.5 -66zM148 817q15 0 24.5 9t9.5 25t-9.5 25t-24.5 9q-14 0 -23.5 -9.5t-9.5 -24.5t9.5 -24.5t23.5 -9.5z" />
    <glyph glyph-name="tildecomb.case" horiz-adv-x="437" 
d="M314 900h61q0 -68 -21 -102t-74 -34q-31 0 -61 19t-47 19q-26 0 -38 -14.5t-12 -27.5h-59q0 132 97 132q31 0 59.5 -17t45.5 -17q26 0 37.5 14.5t11.5 27.5z" />
    <glyph glyph-name="uni0304.case" horiz-adv-x="393" 
d="M333 782h-273v90h273v-90z" />
    <glyph glyph-name="uni0338.case" horiz-adv-x="341" 
d="M-10 11h-103l505 741h103z" />
    <glyph glyph-name="bitcoin" horiz-adv-x="599" 
d="M383 -45h-72v99h-17h-34v-99h-72v99h-70v1h-31v648h101v82h72v-82h38h13v82h72v-88q79 -12 109.5 -51.5t30.5 -112.5q0 -105 -65 -142q50 -20 68 -58t18 -99q0 -84 -31.5 -124.5t-129.5 -51.5v-103zM208 149h86q79 0 104.5 20t25.5 77q0 56 -26.5 76.5t-103.5 20.5h-86
v-194zM208 431h86q66 0 89 19t23 69t-24 69.5t-88 19.5h-86v-177z" />
    </font>
</defs>
</svg>
